<?xml version="1.0" encoding="utf-8"?>
<svg xmlns="http://www.w3.org/2000/svg" xmlns:xlink="http://www.w3.org/1999/xlink" width="150" height="75" viewBox="0 0 600 300">
<defs>
  <clipPath id="clip7200">
    <rect x="0" y="0" width="2000" height="2000"/>
  </clipPath>
</defs>
<defs>
  <clipPath id="clip7201">
    <rect x="0" y="0" width="600" height="300"/>
  </clipPath>
</defs>
<polygon clip-path="url(#clip7201)" points="
0,300 600,300 600,0 0,0 
  " fill="#ffffff" fill-opacity="1"/>
<defs>
  <clipPath id="clip7202">
    <rect x="120" y="0" width="421" height="300"/>
  </clipPath>
</defs>
<polygon clip-path="url(#clip7201)" points="
47.376,261.531 580.315,261.531 580.315,26.1492 47.376,26.1492 
  " fill="#ffffff" fill-opacity="1"/>
<defs>
  <clipPath id="clip7203">
    <rect x="47" y="26" width="534" height="236"/>
  </clipPath>
</defs>
<polyline clip-path="url(#clip7201)" style="stroke:#000000; stroke-width:1; stroke-opacity:1; fill:none" points="
  47.376,261.531 580.315,261.531 
  "/>
<polyline clip-path="url(#clip7201)" style="stroke:#000000; stroke-width:1; stroke-opacity:1; fill:none" points="
  47.376,261.531 47.376,26.1492 
  "/>
<polyline clip-path="url(#clip7201)" style="stroke:#000000; stroke-width:1; stroke-opacity:1; fill:none" points="
  91.7876,261.531 91.7876,258 
  "/>
<polyline clip-path="url(#clip7201)" style="stroke:#000000; stroke-width:1; stroke-opacity:1; fill:none" points="
  202.817,261.531 202.817,258 
  "/>
<polyline clip-path="url(#clip7201)" style="stroke:#000000; stroke-width:1; stroke-opacity:1; fill:none" points="
  313.845,261.531 313.845,258 
  "/>
<polyline clip-path="url(#clip7201)" style="stroke:#000000; stroke-width:1; stroke-opacity:1; fill:none" points="
  424.874,261.531 424.874,258 
  "/>
<polyline clip-path="url(#clip7201)" style="stroke:#000000; stroke-width:1; stroke-opacity:1; fill:none" points="
  535.903,261.531 535.903,258 
  "/>
<polyline clip-path="url(#clip7201)" style="stroke:#000000; stroke-width:1; stroke-opacity:1; fill:none" points="
  47.376,232.663 55.3701,232.663 
  "/>
<polyline clip-path="url(#clip7201)" style="stroke:#000000; stroke-width:1; stroke-opacity:1; fill:none" points="
  47.376,188.251 55.3701,188.251 
  "/>
<polyline clip-path="url(#clip7201)" style="stroke:#000000; stroke-width:1; stroke-opacity:1; fill:none" points="
  47.376,143.84 55.3701,143.84 
  "/>
<polyline clip-path="url(#clip7201)" style="stroke:#000000; stroke-width:1; stroke-opacity:1; fill:none" points="
  47.376,99.4283 55.3701,99.4283 
  "/>
<polyline clip-path="url(#clip7201)" style="stroke:#000000; stroke-width:1; stroke-opacity:1; fill:none" points="
  47.376,55.0167 55.3701,55.0167 
  "/>
<g clip-path="url(#clip7201)">
<text style="fill:#000000; fill-opacity:1; font-family:Arial,Helvetica Neue,Helvetica,sans-serif; font-size:12; text-anchor:middle;" transform="rotate(0, 91.7876, 275.331)" x="91.7876" y="275.331">-1.0</text>
</g>
<g clip-path="url(#clip7201)">
<text style="fill:#000000; fill-opacity:1; font-family:Arial,Helvetica Neue,Helvetica,sans-serif; font-size:12; text-anchor:middle;" transform="rotate(0, 202.817, 275.331)" x="202.817" y="275.331">-0.5</text>
</g>
<g clip-path="url(#clip7201)">
<text style="fill:#000000; fill-opacity:1; font-family:Arial,Helvetica Neue,Helvetica,sans-serif; font-size:12; text-anchor:middle;" transform="rotate(0, 313.845, 275.331)" x="313.845" y="275.331">0.0</text>
</g>
<g clip-path="url(#clip7201)">
<text style="fill:#000000; fill-opacity:1; font-family:Arial,Helvetica Neue,Helvetica,sans-serif; font-size:12; text-anchor:middle;" transform="rotate(0, 424.874, 275.331)" x="424.874" y="275.331">0.5</text>
</g>
<g clip-path="url(#clip7201)">
<text style="fill:#000000; fill-opacity:1; font-family:Arial,Helvetica Neue,Helvetica,sans-serif; font-size:12; text-anchor:middle;" transform="rotate(0, 535.903, 275.331)" x="535.903" y="275.331">1.0</text>
</g>
<g clip-path="url(#clip7201)">
<text style="fill:#000000; fill-opacity:1; font-family:Arial,Helvetica Neue,Helvetica,sans-serif; font-size:12; text-anchor:end;" transform="rotate(0, 41.376, 237.163)" x="41.376" y="237.163">-0.4</text>
</g>
<g clip-path="url(#clip7201)">
<text style="fill:#000000; fill-opacity:1; font-family:Arial,Helvetica Neue,Helvetica,sans-serif; font-size:12; text-anchor:end;" transform="rotate(0, 41.376, 192.751)" x="41.376" y="192.751">-0.2</text>
</g>
<g clip-path="url(#clip7201)">
<text style="fill:#000000; fill-opacity:1; font-family:Arial,Helvetica Neue,Helvetica,sans-serif; font-size:12; text-anchor:end;" transform="rotate(0, 41.376, 148.34)" x="41.376" y="148.34">0.0</text>
</g>
<g clip-path="url(#clip7201)">
<text style="fill:#000000; fill-opacity:1; font-family:Arial,Helvetica Neue,Helvetica,sans-serif; font-size:12; text-anchor:end;" transform="rotate(0, 41.376, 103.928)" x="41.376" y="103.928">0.2</text>
</g>
<g clip-path="url(#clip7201)">
<text style="fill:#000000; fill-opacity:1; font-family:Arial,Helvetica Neue,Helvetica,sans-serif; font-size:12; text-anchor:end;" transform="rotate(0, 41.376, 59.5167)" x="41.376" y="59.5167">0.4</text>
</g>
<polyline clip-path="url(#clip7203)" style="stroke:#808080; stroke-width:2; stroke-opacity:1; fill:none" points="
  47.376,232.921 51.4134,232.456 51.5587,232.439 58.1425,231.664 64.8715,230.854 70.2186,230.196 71.6005,230.025 78.3296,229.178 85.0586,228.31 87.7627,227.953 
  91.7876,227.42 98.5166,226.508 104.258,225.71 105.246,225.572 111.975,224.611 118.704,223.622 119.737,223.467 125.433,222.606 132.162,221.558 134.25,221.224 
  138.891,220.478 145.62,219.363 147.857,218.981 152.349,218.21 159.078,217.017 160.6,216.738 165.807,215.779 172.527,214.495 172.536,214.493 179.265,213.156 
  183.637,212.252 185.994,211.761 192.723,210.304 194.038,210.009 199.452,208.78 203.756,207.766 206.181,207.186 212.909,205.523 212.91,205.522 219.639,203.795 
  221.615,203.28 226.368,202.015 230.03,201.037 233.097,200.2 238.272,198.794 239.826,198.363 246.432,196.551 246.555,196.516 253.284,194.669 254.629,194.308 
  260.013,192.831 262.878,192.065 266.742,191.01 271.22,189.822 273.471,189.212 279.705,187.579 280.2,187.446 286.929,185.717 288.478,185.336 293.658,184.034 
  297.589,183.093 300.387,182.408 307.116,180.85 307.116,180.849 313.845,179.367 317.58,178.606 320.575,177.982 327.304,176.708 329.371,176.363 334.033,175.566 
  340.762,174.584 344.724,174.12 347.491,173.788 354.22,173.21 360.949,172.889 367.678,172.857 374.407,173.146 381.136,173.776 383.506,174.12 387.865,174.739 
  394.594,176.02 396.051,176.363 401.323,177.565 405.245,178.606 408.052,179.324 413.395,180.85 414.781,181.23 421.045,183.093 421.51,183.226 428.239,185.261 
  428.476,185.336 434.968,187.301 435.868,187.579 441.697,189.319 443.367,189.822 448.426,191.3 451.051,192.065 455.155,193.23 458.985,194.308 461.884,195.105 
  467.221,196.551 468.613,196.92 475.342,198.676 475.803,198.794 482.071,200.372 484.78,201.037 488.8,202.01 494.188,203.28 495.529,203.592 502.258,205.12 
  504.077,205.523 508.987,206.598 514.479,207.766 515.716,208.026 522.445,209.409 525.449,210.009 529.174,210.747 535.903,212.044 
  "/>
<polyline clip-path="url(#clip7203)" style="stroke:#808080; stroke-width:2; stroke-opacity:1; fill:none" points="
  535.903,194.447 535.238,194.308 529.174,193.03 524.751,192.065 522.445,191.558 515.716,190.025 514.85,189.822 508.987,188.429 505.539,187.579 502.258,186.761 
  496.748,185.336 495.529,185.016 488.8,183.187 488.464,183.093 482.071,181.265 480.671,180.85 475.342,179.24 473.32,178.606 468.613,177.1 466.389,176.363 
  461.884,174.834 459.85,174.12 455.155,172.425 453.682,171.877 448.426,169.856 447.863,169.634 442.364,167.391 441.697,167.108 437.147,165.148 434.968,164.159 
  432.204,162.905 428.239,160.992 427.541,160.662 423.055,158.419 421.51,157.59 418.742,156.176 414.781,153.971 414.707,153.933 410.569,151.69 408.052,150.183 
  406.615,149.447 402.586,147.204 401.323,146.433 398.221,144.961 394.594,143.096 393.517,142.718 387.865,140.64 387.019,140.475 381.136,139.313 374.407,139.038 
  367.678,139.53 361.475,140.475 360.949,140.549 354.22,141.907 350.912,142.718 347.491,143.508 342.021,144.961 340.762,145.279 334.033,147.17 333.919,147.204 
  327.304,149.147 326.349,149.447 320.575,151.194 319.026,151.69 313.845,153.294 311.88,153.933 307.116,155.435 304.866,156.176 300.387,157.61 297.954,158.419 
  293.658,159.811 291.12,160.662 286.929,162.033 284.349,162.905 280.2,164.274 277.627,165.148 273.471,166.528 270.943,167.391 266.742,168.794 264.291,169.634 
  260.013,171.069 257.661,171.877 253.284,173.35 251.048,174.12 246.555,175.635 244.443,176.363 239.826,177.921 237.839,178.606 233.097,180.204 231.223,180.85 
  226.368,182.479 224.575,183.093 219.639,184.733 217.843,185.336 212.91,186.933 210.851,187.579 206.181,188.996 203.258,189.822 199.452,190.878 194.873,192.065 
  192.723,192.616 185.994,194.239 185.696,194.308 179.265,195.771 175.658,196.551 172.536,197.222 165.807,198.605 164.848,198.794 159.078,199.927 153.189,201.037 
  152.349,201.194 145.62,202.414 140.661,203.28 138.891,203.588 132.162,204.722 127.247,205.523 125.433,205.818 118.704,206.879 112.907,207.766 111.975,207.908 
  105.246,208.907 98.5166,209.878 97.5848,210.009 91.7876,210.822 85.0586,211.742 81.2296,212.252 78.3296,212.638 71.6005,213.511 64.8715,214.364 63.8171,214.495 
  58.1425,215.197 51.4134,216.011 47.376,216.488 
  "/>
<polyline clip-path="url(#clip7203)" style="stroke:#808080; stroke-width:2; stroke-opacity:1; fill:none" points="
  47.376,200.148 51.4134,199.66 58.1425,198.829 58.4255,198.794 64.8715,197.979 71.6005,197.107 75.7867,196.551 78.3296,196.213 85.0586,195.295 91.7876,194.352 
  92.0992,194.308 98.5166,193.384 105.246,192.387 107.356,192.065 111.975,191.36 118.704,190.3 121.648,189.822 125.433,189.206 132.162,188.075 135.012,187.579 
  138.891,186.903 145.62,185.686 147.488,185.336 152.349,184.422 159.078,183.103 159.13,183.093 165.807,181.726 169.892,180.85 172.536,180.282 179.265,178.76 
  179.908,178.606 185.994,177.152 189.091,176.363 192.723,175.439 197.551,174.12 199.452,173.603 205.319,171.877 206.181,171.626 212.545,169.634 212.91,169.522 
  219.464,167.391 219.639,167.336 226.229,165.148 226.368,165.103 232.909,162.905 233.097,162.843 239.537,160.662 239.826,160.566 246.13,158.419 246.555,158.277 
  252.699,156.176 253.284,155.979 259.252,153.933 260.013,153.676 265.794,151.69 266.742,151.369 272.329,149.447 273.471,149.06 278.861,147.204 280.2,146.75 
  285.391,144.961 286.929,144.439 291.923,142.718 293.658,142.13 298.46,140.475 300.387,139.822 305.004,138.232 307.116,137.517 311.557,135.989 313.845,135.215 
  318.122,133.746 320.575,132.919 324.704,131.503 327.304,130.629 331.304,129.26 334.033,128.346 337.929,127.017 340.762,126.072 344.583,124.774 347.491,123.81 
  351.274,122.531 354.22,121.562 358.011,120.288 360.949,119.331 364.809,118.045 367.678,117.122 371.687,115.802 374.407,114.942 378.677,113.559 381.136,112.8 
  385.833,111.316 387.865,110.711 393.265,109.073 394.594,108.7 401.26,106.83 401.323,106.814 408.052,105.17 411.269,104.587 414.781,104.125 415.776,104.587 
  418.994,106.83 419.142,109.073 418.977,111.316 418.883,113.559 418.954,115.802 419.238,118.045 419.765,120.288 420.555,122.531 421.51,124.551 421.613,124.774 
  422.832,127.017 424.329,129.26 426.118,131.503 428.211,133.746 428.239,133.774 430.531,135.989 433.143,138.232 434.968,139.663 436.056,140.475 439.256,142.718 
  441.697,144.306 442.765,144.961 446.591,147.204 448.426,148.226 450.753,149.447 455.155,151.654 455.232,151.69 460.107,153.933 461.884,154.723 465.348,156.176 
  468.613,157.509 470.973,158.419 475.342,160.068 477.007,160.662 482.071,162.438 483.477,162.905 488.8,164.649 490.406,165.148 495.529,166.722 497.818,167.391 
  502.258,168.676 505.733,169.634 508.987,170.524 514.17,171.877 515.716,172.278 522.445,173.948 523.168,174.12 529.174,175.543 532.783,176.363 535.903,177.069 
  
  "/>
<polyline clip-path="url(#clip7203)" style="stroke:#808080; stroke-width:2; stroke-opacity:1; fill:none" points="
  535.903,159.981 529.384,158.419 529.174,158.369 522.445,156.679 520.539,156.176 515.716,154.9 512.246,153.933 508.987,153.021 504.481,151.69 502.258,151.03 
  497.224,149.447 495.529,148.911 490.455,147.204 488.8,146.643 484.151,144.961 482.071,144.201 478.283,142.718 475.342,141.552 472.822,140.475 468.613,138.648 
  467.73,138.232 463.04,135.989 461.884,135.428 458.725,133.746 455.155,131.793 454.676,131.503 451.035,129.26 448.426,127.599 447.615,127.017 444.561,124.774 
  441.697,122.577 441.645,122.531 439.156,120.288 436.789,118.045 434.968,116.279 434.571,115.802 432.723,113.559 430.922,111.316 429.058,109.073 428.239,108.197 
  427.428,106.83 425.757,104.587 423.199,102.344 421.51,101.246 418.67,100.101 414.781,98.7842 408.052,98.509 401.323,99.1247 395.206,100.101 394.594,100.208 
  387.865,101.567 384.383,102.344 381.136,103.111 375.161,104.587 374.407,104.783 367.678,106.549 366.619,106.83 360.949,108.388 358.467,109.073 354.22,110.283 
  350.587,111.316 347.491,112.222 342.897,113.559 340.762,114.197 335.346,115.802 334.033,116.201 327.901,118.045 327.304,118.229 320.575,120.277 320.536,120.288 
  313.845,122.341 313.22,122.531 307.116,124.419 305.955,124.774 300.387,126.507 298.729,127.017 293.658,128.603 291.532,129.26 286.929,130.705 284.355,131.503 
  280.2,132.811 277.188,133.746 273.471,134.918 270.024,135.989 266.742,137.024 262.854,138.232 260.013,139.127 255.668,140.475 253.284,141.225 248.453,142.718 
  246.555,143.313 241.197,144.961 239.826,145.389 233.879,147.204 233.097,147.446 226.474,149.447 226.368,149.48 219.639,151.481 218.914,151.69 212.91,153.441 
  211.155,153.933 206.181,155.345 203.118,156.176 199.452,157.181 194.704,158.419 192.723,158.94 185.994,160.618 185.805,160.662 179.265,162.218 176.229,162.905 
  172.536,163.744 166.042,165.148 165.807,165.199 159.078,166.594 155.061,167.391 152.349,167.93 145.62,169.214 143.33,169.634 138.891,170.45 132.162,171.641 
  130.779,171.877 125.433,172.792 118.704,173.904 117.35,174.12 111.975,174.981 105.246,176.025 102.999,176.363 98.5166,177.039 91.7876,178.023 87.6875,178.606 
  85.0586,178.981 78.3296,179.912 71.6005,180.82 71.3759,180.85 64.8715,181.705 58.1425,182.568 53.9576,183.093 51.4134,183.411 47.376,183.905 
  "/>
<polyline clip-path="url(#clip7203)" style="stroke:#808080; stroke-width:2; stroke-opacity:1; fill:none" points="
  47.376,167.765 50.4083,167.391 51.4134,167.268 58.1425,166.419 64.8715,165.549 67.8918,165.148 71.6005,164.657 78.3296,163.743 84.3348,162.905 85.0586,162.805 
  91.7876,161.841 98.5166,160.85 99.7561,160.662 105.246,159.831 111.975,158.782 114.228,158.419 118.704,157.7 125.433,156.584 127.814,156.176 132.162,155.432 
  138.891,154.241 140.567,153.933 145.62,153.008 152.349,151.73 152.552,151.69 159.078,150.406 163.767,149.447 165.807,149.031 172.536,147.604 174.341,147.204 
  179.265,146.121 184.323,144.961 185.994,144.58 192.723,142.983 193.796,142.718 199.452,141.332 202.819,140.475 206.181,139.628 211.535,138.232 212.91,137.877 
  219.639,136.087 219.996,135.989 226.368,134.264 228.233,133.746 233.097,132.413 236.346,131.503 239.826,130.54 244.368,129.26 246.555,128.651 252.328,127.017 
  253.284,126.75 260.013,124.841 260.244,124.774 266.742,122.927 268.119,122.531 273.471,121.012 275.996,120.288 280.2,119.099 283.891,118.045 286.929,117.19 
  291.823,115.802 293.658,115.29 299.81,113.559 300.387,113.399 307.116,111.524 307.856,111.316 313.845,109.666 315.99,109.073 320.575,107.83 324.258,106.83 
  327.304,106.02 332.703,104.587 334.033,104.242 340.762,102.502 341.374,102.344 347.491,100.808 350.353,100.101 354.22,99.1707 359.82,97.8582 360.949,97.6012 
  367.678,96.1165 370.07,95.6152 374.407,94.7376 381.136,93.4954 381.884,93.3722 387.865,92.429 394.594,91.6034 401.097,91.1291 401.323,91.1133 408.052,91.1006 
  408.319,91.1291 414.781,91.788 420.898,93.3722 421.51,93.5397 426.309,95.6152 428.239,96.6354 430.45,97.8582 433.906,100.101 434.968,100.904 437.212,102.344 
  440.382,104.587 441.697,105.592 443.631,106.83 446.974,109.073 448.426,110.081 450.499,111.316 454.185,113.559 455.155,114.158 458.184,115.802 461.884,117.823 
  462.339,118.045 466.899,120.288 468.613,121.132 471.745,122.531 475.342,124.137 476.901,124.774 482.071,126.887 482.416,127.017 488.36,129.26 488.8,129.426 
  494.727,131.503 495.529,131.784 501.527,133.746 502.258,133.985 508.789,135.989 508.987,136.05 515.716,137.997 516.577,138.232 522.445,139.838 524.899,140.475 
  529.174,141.585 533.761,142.718 535.903,143.247 
  "/>
<polyline clip-path="url(#clip7203)" style="stroke:#808080; stroke-width:2; stroke-opacity:1; fill:none" points="
  535.903,126.911 529.174,125.24 527.391,124.774 522.445,123.487 518.963,122.531 515.716,121.643 511.03,120.288 508.987,119.7 503.572,118.045 502.258,117.645 
  496.565,115.802 495.529,115.469 489.982,113.559 488.8,113.155 483.79,111.316 482.071,110.691 477.952,109.073 475.342,108.061 472.423,106.83 468.613,105.25 
  467.151,104.587 462.092,102.344 461.884,102.254 457.35,100.101 455.155,99.0965 452.699,97.8582 448.426,95.816 448.044,95.6152 443.499,93.3722 441.697,92.5457 
  438.76,91.1291 434.968,89.4727 433.59,88.8861 428.239,86.8378 427.635,86.6431 421.51,84.8156 419.493,84.4001 414.781,83.4537 408.052,82.6995 401.323,82.445 
  394.594,82.5844 387.865,83.0349 381.136,83.7311 376.044,84.4001 374.407,84.6213 367.678,85.6654 362.036,86.6431 360.949,86.8365 354.22,88.1101 350.339,88.8861 
  347.491,89.4693 340.762,90.8995 339.706,91.1291 334.033,92.3894 329.708,93.3722 327.304,93.9294 320.575,95.5114 320.136,95.6152 313.845,97.1294 310.841,97.8582 
  307.116,98.777 301.77,100.101 300.387,100.449 293.658,102.142 292.851,102.344 286.929,103.851 284.027,104.587 280.2,105.572 275.288,106.83 273.471,107.302 
  266.742,109.037 266.6,109.073 260.013,110.775 257.896,111.316 253.284,112.51 249.187,113.559 246.555,114.241 240.446,115.802 239.826,115.962 233.097,117.672 
  231.6,118.045 226.368,119.364 222.631,120.288 219.639,121.036 213.517,122.531 212.91,122.681 206.181,124.297 204.14,124.774 199.452,125.88 194.485,127.017 
  192.723,127.424 185.994,128.928 184.459,129.26 179.265,130.391 173.982,131.503 172.536,131.81 165.807,133.185 162.967,133.746 159.078,134.518 152.349,135.808 
  151.373,135.989 145.62,137.059 139.1,138.232 138.891,138.27 132.162,139.445 126.07,140.475 125.433,140.583 118.704,141.689 112.251,142.718 111.975,142.762 
  105.246,143.806 98.5166,144.821 97.5561,144.961 91.7876,145.808 85.0586,146.77 81.9351,147.204 78.3296,147.707 71.6005,148.62 65.3559,149.447 64.8715,149.512 
  58.1425,150.382 51.4134,151.232 47.6995,151.69 47.376,151.73 
  "/>
<polyline clip-path="url(#clip7203)" style="stroke:#808080; stroke-width:2; stroke-opacity:1; fill:none" points="
  47.376,135.8 51.4134,135.304 58.1425,134.459 63.6822,133.746 64.8715,133.594 71.6005,132.709 78.3296,131.802 80.4924,131.503 85.0586,130.874 91.7876,129.922 
  96.3471,129.26 98.5166,128.946 105.246,127.945 111.319,127.017 111.975,126.917 118.704,125.863 125.433,124.778 125.457,124.774 132.162,123.665 138.824,122.531 
  138.891,122.52 145.62,121.344 151.487,120.288 152.349,120.134 159.078,118.891 163.524,118.045 165.807,117.613 172.536,116.302 175.024,115.802 179.265,114.956 
  185.994,113.577 186.076,113.559 192.723,112.166 196.68,111.316 199.452,110.725 206.181,109.256 207,109.073 212.91,107.763 217.037,106.83 219.639,106.247 
  226.368,104.713 226.909,104.587 233.097,103.164 236.613,102.344 239.826,101.603 246.26,100.101 246.555,100.033 253.284,98.4591 255.833,97.8582 260.013,96.8838 
  265.426,95.6152 266.742,95.3104 273.471,93.743 275.057,93.3722 280.2,92.185 284.779,91.1291 286.929,90.6398 293.658,89.1117 294.654,88.8861 300.387,87.605 
  304.735,86.6431 307.116,86.1238 313.845,84.6735 315.13,84.4001 320.575,83.2597 325.968,82.1571 327.304,81.8886 334.033,80.5676 337.486,79.9141 340.762,79.3052 
  347.491,78.1113 350.119,77.6711 354.22,76.9974 360.949,75.978 364.992,75.4281 367.678,75.0698 374.407,74.2921 381.136,73.6718 387.865,73.2386 389.542,73.1851 
  394.594,73.025 401.323,73.0747 403.381,73.1851 408.052,73.4307 414.781,74.1369 421.51,75.236 422.402,75.4281 428.239,76.7279 431.722,77.6711 434.968,78.5964 
  439.136,79.9141 441.697,80.7738 445.682,82.1571 448.426,83.1671 451.817,84.4001 455.155,85.6779 457.776,86.6431 461.884,88.2213 463.708,88.8861 468.613,90.7357 
  469.72,91.1291 475.342,93.1824 475.894,93.3722 482.071,95.54 482.299,95.6152 488.8,97.7988 488.988,97.8582 495.529,99.9563 496.008,100.101 502.258,102.014 
  503.397,102.344 508.987,103.977 511.189,104.587 515.716,105.85 519.413,106.83 522.445,107.639 528.094,109.073 529.174,109.349 535.903,110.987 
  "/>
<polyline clip-path="url(#clip7203)" style="stroke:#808080; stroke-width:2; stroke-opacity:1; fill:none" points="
  535.903,95.4589 529.174,93.8903 527.043,93.3722 522.445,92.2626 517.944,91.1291 515.716,90.5731 509.244,88.8861 508.987,88.82 502.258,87.004 500.981,86.6431 
  495.529,85.1245 493.043,84.4001 488.8,83.1841 485.37,82.1571 482.071,81.189 477.9,79.9141 475.342,79.1504 470.558,77.6711 468.613,77.0859 463.244,75.4281 
  461.884,75.0212 455.819,73.1851 455.155,72.9911 448.426,71.0395 448.08,70.9421 441.697,69.2155 439.639,68.6991 434.968,67.5688 429.741,66.456 428.239,66.1453 
  421.51,64.9724 415.848,64.213 414.781,64.0711 408.052,63.4334 401.323,63.0539 394.594,62.9115 387.865,62.9824 381.136,63.243 374.407,63.6706 368.04,64.213 
  367.678,64.2442 360.949,64.9426 354.22,65.7526 348.98,66.456 347.491,66.659 340.762,67.6481 334.105,68.6991 334.033,68.7107 327.304,69.8358 320.993,70.9421 
  320.575,71.0164 313.845,72.2444 308.841,73.1851 307.116,73.5138 300.387,74.8185 297.293,75.4281 293.658,76.1535 286.929,77.5138 286.155,77.6711 280.2,78.8954 
  275.283,79.9141 273.471,80.2938 266.742,81.7054 264.588,82.1571 260.013,83.1267 254.001,84.4001 253.284,84.5536 246.555,85.9836 243.433,86.6431 239.826,87.4128 
  233.097,88.8379 232.866,88.8861 226.368,90.2567 222.185,91.1291 219.639,91.6651 212.91,93.0606 211.382,93.3722 206.181,94.4409 200.371,95.6152 199.452,95.8024 
  192.723,97.1442 189.069,97.8582 185.994,98.4631 179.265,99.7578 177.437,100.101 172.536,101.027 165.807,102.27 165.393,102.344 159.078,103.486 152.836,104.587 
  152.349,104.674 145.62,105.835 139.702,106.83 138.891,106.967 132.162,108.074 125.928,109.073 125.433,109.153 118.704,110.207 111.975,111.235 111.427,111.316 
  105.246,112.239 98.5166,113.219 96.1189,113.559 91.7876,114.176 85.0586,115.111 79.9643,115.802 78.3296,116.024 71.6005,116.918 64.8715,117.791 62.8688,118.045 
  58.1425,118.646 51.4134,119.482 47.376,119.973 
  "/>
<polyline clip-path="url(#clip7203)" style="stroke:#808080; stroke-width:2; stroke-opacity:1; fill:none" points="
  47.376,104.245 51.4134,103.761 58.1425,102.939 62.9042,102.344 64.8715,102.099 71.6005,101.242 78.3296,100.367 80.329,100.101 85.0586,99.4735 91.7876,98.5606 
  96.8507,97.8582 98.5166,97.6276 105.246,96.6747 111.975,95.7003 112.549,95.6152 118.704,94.7052 125.433,93.6878 127.472,93.3722 132.162,92.6486 138.891,91.5868 
  141.725,91.1291 145.62,90.5026 152.349,89.3959 155.379,88.8861 159.078,88.2669 165.807,87.1158 168.512,86.6431 172.536,85.9436 179.265,84.7507 181.203,84.4001 
  185.994,83.5388 192.723,82.3083 193.534,82.1571 199.452,81.0619 205.57,79.9141 206.181,79.8003 212.91,78.5267 217.381,77.6711 219.639,77.2423 226.368,75.9502 
  229.062,75.4281 233.097,74.6527 239.826,73.3523 240.685,73.1851 246.555,72.0525 252.308,70.9421 253.284,70.7555 260.013,69.4651 264.02,68.6991 266.742,68.184 
  273.471,66.9159 275.927,66.456 280.2,65.6642 286.929,64.4329 288.144,64.213 293.658,63.2258 300.387,62.0475 300.837,61.97 307.116,60.9023 313.845,59.7959 
  314.277,59.727 320.575,58.7332 327.304,57.7212 328.959,57.484 334.033,56.7657 340.762,55.8751 345.97,55.241 347.491,55.058 354.22,54.3222 360.949,53.6799 
  367.678,53.1426 369.974,52.998 374.407,52.7209 381.136,52.4289 387.865,52.2816 394.594,52.2931 401.323,52.4771 408.052,52.8462 409.877,52.998 414.781,53.4058 
  421.51,54.1621 428.239,55.1147 429.001,55.241 434.968,56.2479 441.366,57.484 441.697,57.5495 448.426,58.9915 451.651,59.727 455.155,60.5482 461.006,61.97 
  461.884,62.1893 468.613,63.8868 469.907,64.213 475.342,65.6157 478.631,66.456 482.071,67.354 487.323,68.6991 488.8,69.0846 495.529,70.7951 496.125,70.9421 
  502.258,72.477 505.175,73.1851 508.987,74.1225 514.474,75.4281 515.716,75.7271 522.445,77.2898 524.146,77.6711 529.174,78.809 534.227,79.9141 535.903,80.2836 
  
  "/>
<polyline clip-path="url(#clip7203)" style="stroke:#808080; stroke-width:2; stroke-opacity:1; fill:none" points="
  535.903,65.4035 530.052,64.213 529.174,64.0359 522.445,62.6392 519.303,61.97 515.716,61.214 508.987,59.763 508.824,59.727 502.258,58.2922 498.625,57.484 
  495.529,56.8053 488.8,55.3099 488.495,55.241 482.071,53.8168 478.38,52.998 475.342,52.3363 468.613,50.8827 468.015,50.755 461.884,49.4722 457.125,48.512 
  455.155,48.1223 448.426,46.8513 445.116,46.269 441.697,45.6779 434.968,44.6189 430.694,44.026 428.239,43.6894 421.51,42.8986 414.781,42.2565 408.294,41.7829 
  408.052,41.7653 401.323,41.4214 394.594,41.2239 387.865,41.1665 381.136,41.2412 374.407,41.4391 367.678,41.751 367.158,41.7829 360.949,42.1661 354.22,42.6766 
  347.491,43.2743 340.762,43.9507 340.077,44.026 334.033,44.6965 327.304,45.5063 321.377,46.269 320.575,46.3733 313.845,47.2904 307.116,48.2532 305.367,48.512 
  300.387,49.2557 293.658,50.2936 290.737,50.755 286.929,51.3622 280.2,52.4574 276.931,52.998 273.471,53.5754 266.742,54.7125 263.642,55.241 260.013,55.8653 
  253.284,57.0306 250.673,57.484 246.555,58.2053 239.826,59.3863 237.88,59.727 233.097,60.5713 226.368,61.757 225.15,61.97 219.639,62.9416 212.91,64.122 
  212.385,64.213 206.181,65.2969 199.493,66.456 199.452,66.4632 192.723,67.6203 186.38,68.6991 185.994,68.7651 179.265,69.8975 172.972,70.9421 172.536,71.0148 
  165.807,72.1172 159.185,73.1851 159.078,73.2024 152.349,74.2712 145.62,75.3216 144.923,75.4281 138.891,76.3543 132.162,77.3681 130.109,77.6711 125.433,78.3637 
  118.704,79.3405 114.671,79.9141 111.975,80.2988 105.246,81.239 98.5424,82.1571 98.5166,82.1606 91.7876,83.065 85.0586,83.9516 81.5836,84.4001 78.3296,84.8211 
  71.6005,85.674 64.8715,86.5103 63.7804,86.6431 58.1425,87.331 51.4134,88.1361 47.376,88.6099 
  "/>
<polyline clip-path="url(#clip7203)" style="stroke:#808080; stroke-width:2; stroke-opacity:1; fill:none" points="
  535.903,229.793 529.174,228.618 525.447,227.953 522.445,227.413 515.716,226.178 513.21,225.71 508.987,224.913 502.258,223.617 501.487,223.467 495.529,222.291 
  490.227,221.224 488.8,220.933 482.071,219.547 479.358,218.981 475.342,218.132 468.823,216.738 468.613,216.692 461.884,215.23 458.507,214.495 455.155,213.752 
  448.426,212.265 448.365,212.252 441.697,210.777 438.16,210.009 434.968,209.301 428.239,207.853 427.813,207.766 421.51,206.447 416.828,205.523 414.781,205.109 
  408.052,203.859 404.586,203.28 401.323,202.722 394.594,201.723 389.066,201.037 387.865,200.885 381.136,200.22 374.407,199.746 367.678,199.468 360.949,199.384 
  354.22,199.489 347.491,199.773 340.762,200.223 334.033,200.827 332.154,201.037 327.304,201.568 320.575,202.432 314.739,203.28 313.845,203.407 307.116,204.477 
  301.047,205.523 300.387,205.634 293.658,206.863 288.99,207.766 286.929,208.157 280.2,209.505 277.793,210.009 273.471,210.898 267.114,212.252 266.742,212.329 
  260.013,213.788 256.831,214.495 253.284,215.269 246.674,216.738 246.555,216.764 239.826,218.262 236.616,218.981 233.097,219.757 226.444,221.224 226.368,221.24 
  219.639,222.703 216.085,223.467 212.91,224.14 206.181,225.544 205.371,225.71 199.452,226.911 194.187,227.953 192.723,228.24 185.994,229.529 182.419,230.196 
  179.265,230.779 172.536,231.992 169.986,232.439 165.807,233.167 159.078,234.308 156.811,234.682 152.349,235.415 145.62,236.49 142.828,236.925 138.891,237.535 
  132.162,238.552 127.983,239.168 125.433,239.542 118.704,240.507 112.231,241.411 111.975,241.446 105.246,242.364 98.5166,243.258 95.4757,243.654 91.7876,244.132 
  85.0586,244.987 78.3296,245.821 77.7094,245.897 71.6005,246.638 64.8715,247.438 58.8372,248.14 58.1425,248.22 51.4134,248.987 47.376,249.438 
  "/>
<polyline clip-path="url(#clip7203)" style="stroke:#808080; stroke-width:2; stroke-opacity:1; fill:none" points="
  137.841,254.869 138.891,254.72 145.62,253.749 152.349,252.755 153.205,252.626 159.078,251.737 165.807,250.695 167.787,250.383 172.536,249.629 179.265,248.538 
  181.679,248.14 185.994,247.423 192.723,246.283 194.971,245.897 199.452,245.12 206.181,243.937 207.775,243.654 212.91,242.734 219.639,241.515 220.217,241.411 
  226.368,240.285 232.453,239.168 233.097,239.048 239.826,237.809 244.668,236.925 246.555,236.576 253.284,235.352 257.048,234.682 260.013,234.147 266.742,232.965 
  269.842,232.439 273.471,231.814 280.2,230.702 283.416,230.196 286.929,229.635 293.658,228.621 298.396,227.953 300.387,227.668 307.116,226.783 313.845,225.976 
  316.345,225.71 320.575,225.253 327.304,224.624 334.033,224.099 340.762,223.684 345.687,223.467 347.491,223.386 354.22,223.212 360.949,223.168 367.678,223.257 
  374.029,223.467 374.407,223.479 381.136,223.832 387.865,224.312 394.594,224.914 401.323,225.629 401.981,225.71 408.052,226.442 414.781,227.344 418.941,227.953 
  421.51,228.322 428.239,229.362 433.362,230.196 434.968,230.453 441.697,231.581 446.664,232.439 448.426,232.739 455.155,233.914 459.485,234.682 461.884,235.101 
  468.613,236.293 472.166,236.925 475.342,237.483 482.071,238.668 484.917,239.168 488.8,239.843 495.529,241.006 497.886,241.411 502.258,242.155 508.987,243.287 
  511.188,243.654 515.716,244.402 522.445,245.499 524.919,245.897 529.174,246.577 535.903,247.635 
  "/>
<polyline clip-path="url(#clip7203)" style="stroke:#808080; stroke-width:2; stroke-opacity:1; fill:none" points="
  463.062,254.869 461.884,254.695 455.155,253.725 448.426,252.775 447.333,252.626 441.697,251.85 434.968,250.958 430.41,250.383 428.239,250.106 421.51,249.3 
  414.781,248.551 410.736,248.14 408.052,247.864 401.323,247.247 394.594,246.709 387.865,246.256 381.204,245.897 381.136,245.893 374.407,245.623 367.678,245.45 
  360.949,245.375 354.22,245.4 347.491,245.522 340.762,245.739 337.343,245.897 334.033,246.048 327.304,246.444 320.575,246.924 313.845,247.482 307.116,248.112 
  306.852,248.14 300.387,248.807 293.658,249.564 286.929,250.375 286.87,250.383 280.2,251.234 273.471,252.136 269.975,252.626 266.742,253.074 260.013,254.044 
  254.446,254.869 
  "/>
<polyline clip-path="url(#clip7203)" style="stroke:#000000; stroke-width:2; stroke-opacity:1; fill:none" points="
  209.512,181.814 418.179,105.866 
  "/>
</svg>
