<?xml version="1.0" encoding="utf-8" standalone="no"?>
<!DOCTYPE svg PUBLIC "-//W3C//DTD SVG 1.1//EN"
  "http://www.w3.org/Graphics/SVG/1.1/DTD/svg11.dtd">
<!-- Created with matplotlib (http://matplotlib.org/) -->
<svg height="216pt" version="1.1" viewBox="0 0 432 216" width="432pt" xmlns="http://www.w3.org/2000/svg" xmlns:xlink="http://www.w3.org/1999/xlink">
 <defs>
  <style type="text/css">
*{stroke-linecap:butt;stroke-linejoin:round;}
  </style>
 </defs>
 <g id="figure_1">
  <g id="patch_1">
   <path d="M 0 216 
L 432 216 
L 432 0 
L 0 0 
z
" style="fill:#ffffff;"/>
  </g>
  <g id="axes_1">
   <g id="patch_2">
    <path d="M 25.684646 171.149285 
L 428.040354 171.149285 
L 428.040354 37.030715 
L 25.684646 37.030715 
z
" style="fill:#ffffff;"/>
   </g>
   <g id="LineCollection_1">
    <path clip-path="url(#pd29afd9037)" d="M 88.271295 37.030715 
L 86.647632 37.176612 
L 82.583433 37.53675 
L 78.519234 37.892094 
L 74.455035 38.242735 
L 72.778207 38.385448 
L 70.390836 38.588849 
L 66.326636 38.930493 
L 62.262437 39.2677 
L 58.198238 39.60056 
L 56.470845 39.740181 
L 54.134039 39.92923 
L 50.06984 40.253774 
L 46.005641 40.574225 
L 41.941442 40.890669 
L 39.284897 41.094914 
L 37.877243 41.203224 
L 33.813044 41.512 
L 29.748845 41.817007 
L 25.684646 42.118324 
" style="fill:none;stroke:#808080;"/>
   </g>
   <g id="LineCollection_2">
    <path clip-path="url(#pd29afd9037)" d="M 184.111197 37.030715 
L 180.124211 37.539086 
L 176.060012 38.051074 
L 173.369877 38.385448 
L 171.995812 38.556794 
L 167.931613 39.056205 
L 163.867414 39.548947 
L 162.266185 39.740181 
L 159.803215 40.035156 
L 155.739016 40.514697 
L 151.674817 40.987416 
L 150.735839 41.094914 
L 147.610618 41.453565 
L 143.546419 41.912984 
L 139.48222 42.365645 
L 138.715799 42.449647 
L 135.418021 42.811844 
L 131.353822 43.251461 
L 127.289623 43.684526 
L 126.146829 43.80438 
L 123.225424 44.11132 
L 119.161224 44.531818 
L 115.097025 44.946054 
L 112.974141 45.159113 
L 111.032826 45.354251 
L 106.968627 45.756523 
L 102.904428 46.152866 
L 99.147564 46.513846 
L 98.840229 46.543417 
L 94.77603 46.928458 
L 90.711831 47.307921 
L 86.647632 47.681925 
L 84.589272 47.868579 
L 82.583433 48.050676 
L 78.519234 48.414286 
L 74.455035 48.772783 
L 70.390836 49.126282 
L 69.259218 49.223312 
L 66.326636 49.475004 
L 62.262437 49.818987 
L 58.198238 50.158298 
L 54.134039 50.493044 
L 53.087764 50.578045 
L 50.06984 50.823425 
L 46.005641 51.149473 
L 41.941442 51.471256 
L 37.877243 51.788872 
L 36.011557 51.932779 
L 33.813044 52.102474 
L 29.748845 52.412141 
L 25.684646 52.717911 
" style="fill:none;stroke:#808080;"/>
   </g>
   <g id="LineCollection_3">
    <path clip-path="url(#pd29afd9037)" d="M 428.040354 40.52232 
L 423.976155 39.820251 
L 423.520178 39.740181 
L 419.911956 39.112158 
L 415.847757 38.399179 
L 415.770456 38.385448 
L 411.783558 37.684382 
L 408.069198 37.030715 
" style="fill:none;stroke:#808080;"/>
    <path clip-path="url(#pd29afd9037)" d="M 253.443649 37.030715 
L 253.279794 37.054671 
L 249.215595 37.651429 
L 245.151396 38.253313 
L 244.26016 38.385448 
L 241.087197 38.859067 
L 237.022998 39.467255 
L 235.196599 39.740181 
L 232.958799 40.076738 
L 228.8946 40.686328 
L 226.160577 41.094914 
L 224.8304 41.294905 
L 220.766201 41.901612 
L 217.074648 42.449647 
L 216.702002 42.50528 
L 212.637803 43.105453 
L 208.573604 43.700943 
L 207.85884 43.80438 
L 204.509405 44.291487 
L 200.445206 44.876162 
L 198.452687 45.159113 
L 196.381007 45.454629 
L 192.316808 46.026432 
L 188.80623 46.513846 
L 188.252609 46.591025 
L 184.18841 47.148473 
L 180.124211 47.698103 
L 178.842781 47.868579 
L 176.060012 48.240072 
L 171.995812 48.774063 
L 168.522127 49.223312 
L 167.931613 49.29992 
L 163.867414 49.817917 
L 159.803215 50.327664 
L 157.772418 50.578045 
L 155.739016 50.829406 
L 151.674817 51.323184 
L 147.610618 51.808878 
L 146.555384 51.932779 
L 143.546419 52.286862 
L 139.48222 52.757059 
L 135.418021 53.219508 
L 134.80977 53.287512 
L 131.353822 53.674622 
L 127.289623 54.122307 
L 123.225424 54.56267 
L 122.478283 54.642245 
L 119.161224 54.996099 
L 115.097025 55.42256 
L 111.032826 55.842164 
L 109.508264 55.996978 
L 106.968627 56.255226 
L 102.904428 56.661834 
L 98.840229 57.062054 
L 95.851774 57.351711 
L 94.77603 57.456102 
L 90.711831 57.844224 
L 86.647632 58.226414 
L 82.583433 58.602822 
L 81.447173 58.706444 
L 78.519234 58.973724 
L 74.455035 59.339175 
L 70.390836 59.699264 
L 66.326636 60.054127 
L 66.244686 60.061177 
L 62.262437 60.404045 
L 58.198238 60.748993 
L 54.134039 61.089093 
L 50.173525 61.41591 
L 50.06984 61.424472 
L 46.005641 61.755368 
L 41.941442 62.081763 
L 37.877243 62.403769 
L 33.813044 62.721495 
L 33.175847 62.770643 
L 29.748845 63.035136 
L 25.684646 63.344713 
" style="fill:none;stroke:#808080;"/>
   </g>
   <g id="LineCollection_4">
    <path clip-path="url(#pd29afd9037)" d="M 428.040354 50.334333 
L 407.719359 46.339443 
L 387.398364 42.312641 
L 379.269965 40.845764 
L 371.141567 39.555385 
L 361.885057 38.385448 
L 354.884771 37.733319 
L 346.756373 37.268297 
L 338.627975 37.103455 
L 330.499576 37.216783 
L 322.371178 37.577647 
L 311.57923 38.385448 
L 306.114382 38.906048 
L 293.921785 40.307235 
L 281.729188 41.954619 
L 265.472391 44.409395 
L 241.087197 48.373351 
L 208.573604 53.66103 
L 188.252609 56.753648 
L 167.931613 59.611013 
L 147.610618 62.226014 
L 127.289623 64.614831 
L 106.646444 66.834842 
L 82.583433 69.195809 
L 58.198238 71.374391 
L 29.748845 73.687126 
L 25.684646 73.999796 
L 25.684646 73.999796 
" style="fill:none;stroke:#808080;"/>
   </g>
   <g id="LineCollection_5">
    <path clip-path="url(#pd29afd9037)" d="M 428.040354 60.291787 
L 411.783558 56.758352 
L 375.205766 48.453715 
L 367.077368 46.993799 
L 358.94897 45.87447 
L 350.820572 45.148482 
L 342.692174 44.816697 
L 334.563776 44.851455 
L 326.435377 45.203561 
L 318.306979 45.819134 
L 310.178581 46.651773 
L 300.502719 47.868579 
L 289.857586 49.417441 
L 274.496944 51.932779 
L 257.343993 54.97067 
L 212.637803 63.008781 
L 192.316808 66.364058 
L 176.060012 68.836461 
L 159.803215 71.118511 
L 139.48222 73.723391 
L 119.161224 76.085379 
L 98.840229 78.238818 
L 74.455035 80.589794 
L 50.06984 82.726852 
L 25.684646 84.684055 
L 25.684646 84.684055 
" style="fill:none;stroke:#808080;"/>
   </g>
   <g id="LineCollection_6">
    <path clip-path="url(#pd29afd9037)" d="M 428.040354 70.4451 
L 415.847757 67.585337 
L 402.506644 64.125376 
L 387.398364 59.922672 
L 375.205766 56.629889 
L 371.141567 55.649454 
L 366.436763 54.642245 
L 363.013169 53.997047 
L 358.363488 53.287512 
L 354.884771 52.858706 
L 350.820572 52.496728 
L 346.756373 52.269815 
L 342.692174 52.169235 
L 334.563776 52.305017 
L 326.435377 52.818309 
L 318.306979 53.628549 
L 310.178581 54.669202 
L 301.369142 55.996978 
L 289.857586 57.959827 
L 273.600789 61.025918 
L 251.395415 65.480109 
L 224.264359 70.899041 
L 208.573604 73.846118 
L 192.316808 76.678265 
L 176.060012 79.271114 
L 159.074775 81.736905 
L 143.546419 83.799821 
L 123.225424 86.256844 
L 102.628166 88.51057 
L 78.519234 90.898484 
L 54.134039 93.085415 
L 25.684646 95.398177 
L 25.684646 95.398177 
" style="fill:none;stroke:#808080;"/>
   </g>
   <g id="LineCollection_7">
    <path clip-path="url(#pd29afd9037)" d="M 428.040354 80.845217 
L 419.911956 78.850688 
L 410.512817 76.317973 
L 403.65516 74.318937 
L 392.990194 70.899041 
L 385.095491 68.189575 
L 371.141567 63.486259 
L 367.077368 62.304476 
L 363.013169 61.288415 
L 358.94897 60.464774 
L 354.884771 59.849433 
L 350.820572 59.435288 
L 346.756373 59.211505 
L 342.692174 59.156706 
L 338.627975 59.249206 
L 330.499576 59.797395 
L 322.371178 60.717489 
L 314.24278 61.909556 
L 306.114382 63.300953 
L 293.921785 65.651933 
L 277.664988 69.099664 
L 257.343993 73.648415 
L 228.8946 79.967077 
L 212.637803 83.325153 
L 199.652045 85.801104 
L 188.252609 87.818905 
L 171.995812 90.448479 
L 155.739016 92.822208 
L 137.036575 95.284235 
L 119.161224 97.417007 
L 98.840229 99.620029 
L 74.455035 102.009087 
L 50.06984 104.170119 
L 25.684646 106.142627 
L 25.684646 106.142627 
" style="fill:none;stroke:#808080;"/>
   </g>
   <g id="LineCollection_8">
    <path clip-path="url(#pd29afd9037)" d="M 428.040354 91.534532 
L 419.911956 89.472234 
L 411.650855 87.155837 
L 403.019951 84.446371 
L 395.315622 81.736905 
L 387.398364 78.614789 
L 379.083406 74.96324 
L 370.08642 70.899041 
L 366.745382 69.544308 
L 362.902631 68.189575 
L 357.613937 66.834842 
L 354.884771 66.315528 
L 350.820572 65.863098 
L 346.756373 65.688148 
L 342.692174 65.737914 
L 338.627975 65.9689 
L 334.563776 66.345845 
L 326.435377 67.428169 
L 318.306979 68.824405 
L 307.982862 70.899041 
L 295.881881 73.608507 
L 279.040996 77.672706 
L 228.8946 90.092093 
L 216.702002 92.843576 
L 204.509405 95.383381 
L 190.695968 97.993701 
L 180.124211 99.821932 
L 163.867414 102.372905 
L 146.828333 104.767367 
L 131.353822 106.74152 
L 111.032826 109.092213 
L 90.711831 111.218477 
L 66.326636 113.528672 
L 41.941442 115.622698 
L 25.684646 116.917636 
L 25.684646 116.917636 
" style="fill:none;stroke:#808080;"/>
   </g>
   <g id="LineCollection_9">
    <path clip-path="url(#pd29afd9037)" d="M 428.040354 102.535055 
L 419.911956 100.471564 
L 411.177022 97.993701 
L 403.65516 95.599643 
L 395.526762 92.640517 
L 388.957274 89.865303 
L 386.048315 88.51057 
L 383.281816 87.155837 
L 378.363796 84.446371 
L 373.949562 81.736905 
L 363.21275 74.96324 
L 363.013169 74.863602 
L 358.94897 73.105579 
L 354.884771 72.088813 
L 350.820572 71.653319 
L 346.756373 71.63506 
L 342.692174 71.90191 
L 338.627975 72.369441 
L 330.499576 73.704507 
L 322.371178 75.383444 
L 312.615663 77.672706 
L 301.995584 80.382172 
L 285.793387 84.76168 
L 228.8946 100.423908 
L 216.608289 103.412633 
L 204.23897 106.1221 
L 192.316808 108.463542 
L 180.124211 110.621377 
L 165.856746 112.895765 
L 151.674817 114.944645 
L 135.418021 117.074193 
L 115.097025 119.473095 
L 94.77603 121.635429 
L 70.390836 123.978592 
L 46.005641 126.098359 
L 25.684646 127.723143 
L 25.684646 127.723143 
" style="fill:none;stroke:#808080;"/>
   </g>
   <g id="LineCollection_10">
    <path clip-path="url(#pd29afd9037)" d="M 428.040354 113.839021 
L 418.760651 111.541032 
L 411.783558 109.635337 
L 403.65516 107.152712 
L 395.526762 104.30837 
L 389.940211 102.0579 
L 386.864836 100.703167 
L 381.425962 97.993701 
L 378.980348 96.638968 
L 374.71587 93.929502 
L 371.11038 91.220036 
L 367.077368 87.443503 
L 363.013169 82.562127 
L 362.523374 81.736905 
L 361.514127 80.382172 
L 359.969226 79.027439 
L 358.94897 78.36433 
L 357.233503 77.672706 
L 354.884771 76.877258 
L 350.820572 76.711055 
L 346.756373 77.082962 
L 342.692174 77.736993 
L 334.563776 79.49042 
L 325.795828 81.736905 
L 314.24278 84.993256 
L 302.050183 88.621404 
L 277.664988 96.156815 
L 236.584873 108.831566 
L 224.8304 112.147801 
L 216.587822 114.250498 
L 208.573604 116.11142 
L 196.381007 118.640117 
L 183.353081 121.024163 
L 171.995812 122.898741 
L 155.739016 125.314265 
L 139.48222 127.48127 
L 123.225424 129.449024 
L 102.904428 131.681607 
L 82.583433 133.707831 
L 58.091779 135.926226 
L 29.748845 138.245208 
L 25.684646 138.558837 
L 25.684646 138.558837 
" style="fill:none;stroke:#808080;"/>
   </g>
   <g id="LineCollection_11">
    <path clip-path="url(#pd29afd9037)" d="M 428.040354 125.410822 
L 419.911956 123.541622 
L 410.047321 121.024163 
L 403.65516 119.223683 
L 395.526762 116.672936 
L 388.720716 114.250498 
L 383.334164 112.104893 
L 379.028176 110.186299 
L 373.681503 107.476833 
L 369.123757 104.767367 
L 365.302973 102.0579 
L 362.183245 99.348434 
L 360.867532 97.993701 
L 358.94897 95.514428 
L 357.919969 93.929502 
L 357.245454 92.574769 
L 356.749468 91.220036 
L 356.424242 89.865303 
L 356.260793 88.51057 
L 356.247743 87.155837 
L 356.596175 84.446371 
L 356.874996 83.091638 
L 356.921184 81.736905 
L 354.884771 80.443047 
L 350.820572 81.207616 
L 346.756373 82.290318 
L 339.559811 84.446371 
L 310.178581 94.229069 
L 283.544028 103.412633 
L 249.215595 115.307493 
L 228.8946 122.086419 
L 220.766201 124.398401 
L 212.444429 126.443095 
L 204.509405 128.185087 
L 192.316808 130.568843 
L 180.124211 132.688238 
L 167.931613 134.603576 
L 151.674817 136.908696 
L 135.418021 138.986413 
L 114.953106 141.345158 
L 94.77603 143.445549 
L 70.390836 145.742933 
L 42.380168 148.118823 
L 25.684646 149.424156 
L 25.684646 149.424156 
" style="fill:none;stroke:#808080;"/>
   </g>
   <g id="LineCollection_12">
    <path clip-path="url(#pd29afd9037)" d="M 428.040354 137.195976 
L 415.797516 134.571493 
L 404.525496 131.862027 
L 399.350035 130.507294 
L 389.851404 127.797828 
L 381.344901 125.088362 
L 373.694592 122.378896 
L 366.771395 119.66943 
L 358.94897 116.311478 
L 354.347326 114.250498 
L 346.756373 110.87466 
L 341.018376 108.831566 
L 338.627975 108.103173 
L 334.563776 107.319991 
L 330.499576 106.96607 
L 326.435377 106.995223 
L 321.330877 107.476833 
L 318.306979 107.886563 
L 313.275604 108.831566 
L 306.114382 110.44086 
L 296.855674 112.895765 
L 287.486056 115.605231 
L 277.664988 118.58965 
L 257.234232 125.088362 
L 232.958799 132.810014 
L 226.716696 134.571493 
L 220.766201 136.092583 
L 212.637803 137.957834 
L 202.714976 139.990425 
L 192.316808 141.913089 
L 179.441132 144.054624 
L 163.867414 146.379168 
L 147.610618 148.558253 
L 128.819096 150.828289 
L 111.032826 152.781369 
L 89.938578 154.892488 
L 66.326636 157.041612 
L 37.877243 159.384214 
L 25.684646 160.318293 
L 25.684646 160.318293 
" style="fill:none;stroke:#808080;"/>
   </g>
   <g id="LineCollection_13">
    <path clip-path="url(#pd29afd9037)" d="M 428.040354 149.134758 
L 415.687228 146.76409 
L 402.81374 144.054624 
L 391.049775 141.345158 
L 379.269965 138.406875 
L 350.820572 131.044944 
L 342.692174 129.369407 
L 338.627975 128.714383 
L 334.563776 128.209153 
L 328.982668 127.797828 
L 326.435377 127.682985 
L 322.371178 127.659505 
L 318.123259 127.797828 
L 314.24278 128.046317 
L 306.114382 128.919002 
L 297.985984 130.164449 
L 289.034287 131.862027 
L 281.729188 133.416815 
L 269.53659 136.271029 
L 249.215595 141.377169 
L 232.887981 145.409357 
L 220.766201 148.121053 
L 208.573604 150.555301 
L 196.381007 152.737683 
L 183.031979 154.892488 
L 167.931613 157.097616 
L 151.674817 159.244554 
L 131.338463 161.666154 
L 111.032826 163.847811 
L 86.647632 166.215999 
L 61.306492 168.439819 
L 33.813044 170.63087 
L 26.906063 171.149285 
L 26.906063 171.149285 
" style="fill:none;stroke:#808080;"/>
   </g>
   <g id="LineCollection_14">
    <path clip-path="url(#pd29afd9037)" d="M 428.040354 161.171575 
L 423.976155 160.49606 
L 422.883245 160.311421 
L 419.911956 159.805987 
L 415.847757 159.10116 
L 415.026269 158.956688 
L 411.783558 158.381757 
L 407.719359 157.647915 
L 407.467317 157.601955 
L 403.65516 156.900109 
L 400.16333 156.247221 
L 399.590961 156.139074 
L 395.526762 155.365738 
L 393.061604 154.892488 
L 391.462563 154.58171 
L 387.398364 153.78891 
L 386.108408 153.537755 
L 383.334164 152.98986 
L 379.269965 152.188449 
L 379.241969 152.183022 
L 375.205766 151.387925 
L 372.323609 150.828289 
L 371.141567 150.594778 
L 367.077368 149.81464 
L 365.23287 149.473556 
L 363.013169 149.055421 
L 358.94897 148.326214 
L 357.712053 148.118823 
L 354.884771 147.635774 
L 350.820572 146.995891 
L 349.178817 146.76409 
L 346.756373 146.415915 
L 342.692174 145.906737 
L 338.627975 145.478752 
L 337.794031 145.409357 
L 334.563776 145.136903 
L 330.499576 144.8884 
L 326.435377 144.736497 
L 322.371178 144.68161 
L 318.306979 144.722104 
L 314.24278 144.854647 
L 310.178581 145.07461 
L 306.114382 145.37646 
L 305.762806 145.409357 
L 302.050183 145.751956 
L 297.985984 146.196511 
L 293.921785 146.70402 
L 293.492838 146.76409 
L 289.857586 147.265652 
L 285.793387 147.877694 
L 284.311699 148.118823 
L 281.729188 148.532831 
L 277.664988 149.2264 
L 276.295055 149.473556 
L 273.600789 149.952385 
L 269.53659 150.706726 
L 268.90841 150.828289 
L 265.472391 151.483328 
L 261.904786 152.183022 
L 261.408192 152.278991 
L 257.343993 153.087738 
L 255.123487 153.537755 
L 253.279794 153.90603 
L 249.215595 154.729116 
L 248.417916 154.892488 
L 245.151396 155.552261 
L 241.711887 156.247221 
L 241.087197 156.371782 
L 237.022998 157.183264 
L 234.908743 157.601955 
L 232.958799 157.983562 
L 228.8946 158.769762 
L 227.915419 158.956688 
L 224.8304 159.539746 
L 220.766201 160.292012 
L 220.659575 160.311421 
L 216.702002 161.025948 
L 213.065689 161.666154 
L 212.637803 161.740941 
L 208.573604 162.43739 
L 205.077988 163.020887 
L 204.509405 163.115243 
L 200.445206 163.775378 
L 196.650042 164.37562 
L 196.381007 164.41797 
L 192.316808 165.04414 
L 188.252609 165.654083 
L 187.733085 165.730353 
L 184.18841 166.248923 
L 180.124211 166.828965 
L 178.288325 167.085086 
L 176.060012 167.395055 
L 171.995812 167.947772 
L 168.291831 168.439819 
L 167.931613 168.487555 
L 163.867414 169.015299 
L 159.803215 169.531177 
L 157.68424 169.794552 
L 155.739016 170.035872 
L 151.674817 170.52987 
L 147.610618 171.013446 
L 146.446659 171.149285 
" style="fill:none;stroke:#808080;"/>
   </g>
   <g id="LineCollection_15">
    <path clip-path="url(#pd29afd9037)" d="M 413.962422 171.149285 
L 411.783558 170.813688 
L 407.719359 170.182978 
L 405.23122 169.794552 
L 403.65516 169.546457 
L 399.590961 168.905294 
L 396.646376 168.439819 
L 395.526762 168.261153 
L 391.462563 167.615661 
L 388.109242 167.085086 
L 387.398364 166.97141 
L 383.334164 166.330532 
L 379.482285 165.730353 
L 379.269965 165.696882 
L 375.205766 165.073028 
L 371.141567 164.464275 
L 370.524598 164.37562 
L 367.077368 163.873949 
L 363.013169 163.308171 
L 360.823318 163.020887 
L 358.94897 162.771795 
L 354.884771 162.270266 
L 350.820572 161.810334 
L 349.394261 161.666154 
L 346.756373 161.3963 
L 342.692174 161.034006 
L 338.627975 160.728736 
L 334.563776 160.484324 
L 330.673325 160.311421 
L 330.499576 160.303634 
L 326.435377 160.188018 
L 322.371178 160.139316 
L 318.306979 160.157427 
L 314.24278 160.241327 
L 312.319003 160.311421 
L 310.178581 160.388783 
L 306.114382 160.597058 
L 302.050183 160.863532 
L 297.985984 161.184805 
L 293.921785 161.557183 
L 292.871605 161.666154 
L 289.857586 161.975512 
L 285.793387 162.436586 
L 281.729188 162.936842 
L 281.095597 163.020887 
L 277.664988 163.470721 
L 273.600789 164.035518 
L 271.274785 164.37562 
L 269.53659 164.626829 
L 265.472391 165.240578 
L 262.336019 165.730353 
L 261.408192 165.873578 
L 257.343993 166.521352 
L 253.877627 167.085086 
L 253.279794 167.181225 
L 249.215595 167.848911 
L 245.652041 168.439819 
L 245.151396 168.521955 
L 241.087197 169.196635 
L 237.486358 169.794552 
L 237.022998 169.87074 
L 232.958799 170.541348 
L 229.24784 171.149285 
" style="fill:none;stroke:#808080;"/>
   </g>
   <g id="matplotlib.axis_1">
    <g id="xtick_1">
     <g id="line2d_1">
      <defs>
       <path d="M 0 0 
L 0 -3.5 
" id="m5c9c46c2ae" style="stroke:#000000;stroke-width:0.8;"/>
      </defs>
      <g>
       <use style="stroke:#000000;stroke-width:0.8;" x="25.684646" xlink:href="#m5c9c46c2ae" y="171.149285"/>
      </g>
     </g>
     <g id="text_1">
      <!-- -2 -->
      <defs>
       <path d="M 4.890625 31.390625 
L 31.203125 31.390625 
L 31.203125 23.390625 
L 4.890625 23.390625 
z
" id="DejaVuSans-2d"/>
       <path d="M 19.1875 8.296875 
L 53.609375 8.296875 
L 53.609375 0 
L 7.328125 0 
L 7.328125 8.296875 
Q 12.9375 14.109375 22.625 23.890625 
Q 32.328125 33.6875 34.8125 36.53125 
Q 39.546875 41.84375 41.421875 45.53125 
Q 43.3125 49.21875 43.3125 52.78125 
Q 43.3125 58.59375 39.234375 62.25 
Q 35.15625 65.921875 28.609375 65.921875 
Q 23.96875 65.921875 18.8125 64.3125 
Q 13.671875 62.703125 7.8125 59.421875 
L 7.8125 69.390625 
Q 13.765625 71.78125 18.9375 73 
Q 24.125 74.21875 28.421875 74.21875 
Q 39.75 74.21875 46.484375 68.546875 
Q 53.21875 62.890625 53.21875 53.421875 
Q 53.21875 48.921875 51.53125 44.890625 
Q 49.859375 40.875 45.40625 35.40625 
Q 44.1875 33.984375 37.640625 27.21875 
Q 31.109375 20.453125 19.1875 8.296875 
" id="DejaVuSans-32"/>
      </defs>
      <g transform="translate(21.696521 180.728035)scale(0.08 -0.08)">
       <use xlink:href="#DejaVuSans-2d"/>
       <use x="36.083984" xlink:href="#DejaVuSans-32"/>
      </g>
     </g>
    </g>
    <g id="xtick_2">
     <g id="line2d_2">
      <g>
       <use style="stroke:#000000;stroke-width:0.8;" x="159.803215" xlink:href="#m5c9c46c2ae" y="171.149285"/>
      </g>
     </g>
     <g id="text_2">
      <!-- -1 -->
      <defs>
       <path d="M 12.40625 8.296875 
L 28.515625 8.296875 
L 28.515625 63.921875 
L 10.984375 60.40625 
L 10.984375 69.390625 
L 28.421875 72.90625 
L 38.28125 72.90625 
L 38.28125 8.296875 
L 54.390625 8.296875 
L 54.390625 0 
L 12.40625 0 
z
" id="DejaVuSans-31"/>
      </defs>
      <g transform="translate(155.81509 180.728035)scale(0.08 -0.08)">
       <use xlink:href="#DejaVuSans-2d"/>
       <use x="36.083984" xlink:href="#DejaVuSans-31"/>
      </g>
     </g>
    </g>
    <g id="xtick_3">
     <g id="line2d_3">
      <g>
       <use style="stroke:#000000;stroke-width:0.8;" x="293.921785" xlink:href="#m5c9c46c2ae" y="171.149285"/>
      </g>
     </g>
     <g id="text_3">
      <!-- 0 -->
      <defs>
       <path d="M 31.78125 66.40625 
Q 24.171875 66.40625 20.328125 58.90625 
Q 16.5 51.421875 16.5 36.375 
Q 16.5 21.390625 20.328125 13.890625 
Q 24.171875 6.390625 31.78125 6.390625 
Q 39.453125 6.390625 43.28125 13.890625 
Q 47.125 21.390625 47.125 36.375 
Q 47.125 51.421875 43.28125 58.90625 
Q 39.453125 66.40625 31.78125 66.40625 
M 31.78125 74.21875 
Q 44.046875 74.21875 50.515625 64.515625 
Q 56.984375 54.828125 56.984375 36.375 
Q 56.984375 17.96875 50.515625 8.265625 
Q 44.046875 -1.421875 31.78125 -1.421875 
Q 19.53125 -1.421875 13.0625 8.265625 
Q 6.59375 17.96875 6.59375 36.375 
Q 6.59375 54.828125 13.0625 64.515625 
Q 19.53125 74.21875 31.78125 74.21875 
" id="DejaVuSans-30"/>
      </defs>
      <g transform="translate(291.376785 180.728035)scale(0.08 -0.08)">
       <use xlink:href="#DejaVuSans-30"/>
      </g>
     </g>
    </g>
    <g id="xtick_4">
     <g id="line2d_4">
      <g>
       <use style="stroke:#000000;stroke-width:0.8;" x="428.040354" xlink:href="#m5c9c46c2ae" y="171.149285"/>
      </g>
     </g>
     <g id="text_4">
      <!-- 1 -->
      <g transform="translate(425.495354 180.728035)scale(0.08 -0.08)">
       <use xlink:href="#DejaVuSans-31"/>
      </g>
     </g>
    </g>
   </g>
   <g id="matplotlib.axis_2">
    <g id="ytick_1">
     <g id="line2d_5">
      <defs>
       <path d="M 0 0 
L 3.5 0 
" id="m125c3bef80" style="stroke:#000000;stroke-width:0.8;"/>
      </defs>
      <g>
       <use style="stroke:#000000;stroke-width:0.8;" x="25.684646" xlink:href="#m125c3bef80" y="171.149285"/>
      </g>
     </g>
     <g id="text_5">
      <!-- -0.50 -->
      <defs>
       <path d="M 10.6875 12.40625 
L 21 12.40625 
L 21 0 
L 10.6875 0 
z
" id="DejaVuSans-2e"/>
       <path d="M 10.796875 72.90625 
L 49.515625 72.90625 
L 49.515625 64.59375 
L 19.828125 64.59375 
L 19.828125 46.734375 
Q 21.96875 47.46875 24.109375 47.828125 
Q 26.265625 48.1875 28.421875 48.1875 
Q 40.625 48.1875 47.75 41.5 
Q 54.890625 34.8125 54.890625 23.390625 
Q 54.890625 11.625 47.5625 5.09375 
Q 40.234375 -1.421875 26.90625 -1.421875 
Q 22.3125 -1.421875 17.546875 -0.640625 
Q 12.796875 0.140625 7.71875 1.703125 
L 7.71875 11.625 
Q 12.109375 9.234375 16.796875 8.0625 
Q 21.484375 6.890625 26.703125 6.890625 
Q 35.15625 6.890625 40.078125 11.328125 
Q 45.015625 15.765625 45.015625 23.390625 
Q 45.015625 31 40.078125 35.4375 
Q 35.15625 39.890625 26.703125 39.890625 
Q 22.75 39.890625 18.8125 39.015625 
Q 14.890625 38.140625 10.796875 36.28125 
z
" id="DejaVuSans-35"/>
      </defs>
      <g transform="translate(1.485896 174.18866)scale(0.08 -0.08)">
       <use xlink:href="#DejaVuSans-2d"/>
       <use x="36.083984" xlink:href="#DejaVuSans-30"/>
       <use x="99.707031" xlink:href="#DejaVuSans-2e"/>
       <use x="131.494141" xlink:href="#DejaVuSans-35"/>
       <use x="195.117188" xlink:href="#DejaVuSans-30"/>
      </g>
     </g>
    </g>
    <g id="ytick_2">
     <g id="line2d_6">
      <g>
       <use style="stroke:#000000;stroke-width:0.8;" x="25.684646" xlink:href="#m125c3bef80" y="137.619642"/>
      </g>
     </g>
     <g id="text_6">
      <!-- -0.25 -->
      <g transform="translate(1.485896 140.659017)scale(0.08 -0.08)">
       <use xlink:href="#DejaVuSans-2d"/>
       <use x="36.083984" xlink:href="#DejaVuSans-30"/>
       <use x="99.707031" xlink:href="#DejaVuSans-2e"/>
       <use x="131.494141" xlink:href="#DejaVuSans-32"/>
       <use x="195.117188" xlink:href="#DejaVuSans-35"/>
      </g>
     </g>
    </g>
    <g id="ytick_3">
     <g id="line2d_7">
      <g>
       <use style="stroke:#000000;stroke-width:0.8;" x="25.684646" xlink:href="#m125c3bef80" y="104.09"/>
      </g>
     </g>
     <g id="text_7">
      <!-- 0.00 -->
      <g transform="translate(4.372146 107.129375)scale(0.08 -0.08)">
       <use xlink:href="#DejaVuSans-30"/>
       <use x="63.623047" xlink:href="#DejaVuSans-2e"/>
       <use x="95.410156" xlink:href="#DejaVuSans-30"/>
       <use x="159.033203" xlink:href="#DejaVuSans-30"/>
      </g>
     </g>
    </g>
    <g id="ytick_4">
     <g id="line2d_8">
      <g>
       <use style="stroke:#000000;stroke-width:0.8;" x="25.684646" xlink:href="#m125c3bef80" y="70.560358"/>
      </g>
     </g>
     <g id="text_8">
      <!-- 0.25 -->
      <g transform="translate(4.372146 73.599733)scale(0.08 -0.08)">
       <use xlink:href="#DejaVuSans-30"/>
       <use x="63.623047" xlink:href="#DejaVuSans-2e"/>
       <use x="95.410156" xlink:href="#DejaVuSans-32"/>
       <use x="159.033203" xlink:href="#DejaVuSans-35"/>
      </g>
     </g>
    </g>
    <g id="ytick_5">
     <g id="line2d_9">
      <g>
       <use style="stroke:#000000;stroke-width:0.8;" x="25.684646" xlink:href="#m125c3bef80" y="37.030715"/>
      </g>
     </g>
     <g id="text_9">
      <!-- 0.50 -->
      <g transform="translate(4.372146 40.07009)scale(0.08 -0.08)">
       <use xlink:href="#DejaVuSans-30"/>
       <use x="63.623047" xlink:href="#DejaVuSans-2e"/>
       <use x="95.410156" xlink:href="#DejaVuSans-35"/>
       <use x="159.033203" xlink:href="#DejaVuSans-30"/>
      </g>
     </g>
    </g>
   </g>
   <g id="line2d_10">
    <path clip-path="url(#pd29afd9037)" d="M 230.90667 127.025626 
L 356.9369 81.154374 
" style="fill:none;stroke:#000000;stroke-linecap:round;stroke-width:2;"/>
   </g>
   <g id="patch_3">
    <path d="M 25.684646 171.149285 
L 25.684646 37.030715 
" style="fill:none;stroke:#000000;stroke-linecap:square;stroke-linejoin:miter;stroke-width:0.8;"/>
   </g>
   <g id="patch_4">
    <path d="M 25.684646 171.149285 
L 428.040354 171.149285 
" style="fill:none;stroke:#000000;stroke-linecap:square;stroke-linejoin:miter;stroke-width:0.8;"/>
   </g>
  </g>
 </g>
 <defs>
  <clipPath id="pd29afd9037">
   <rect height="134.11857" width="402.355709" x="25.684646" y="37.030715"/>
  </clipPath>
 </defs>
</svg>
