<?xml version="1.0" encoding="utf-8"?>
<svg xmlns="http://www.w3.org/2000/svg" xmlns:xlink="http://www.w3.org/1999/xlink" width="600" height="300" viewBox="0 0 600 300">
<defs>
  <clipPath id="clip0800">
    <rect x="0" y="0" width="600" height="300"/>
  </clipPath>
</defs>
<polygon clip-path="url(#clip0800)" points="
0,300 600,300 600,0 0,0 
  " fill="#ffffff" fill-opacity="1"/>
<defs>
  <clipPath id="clip0801">
    <rect x="120" y="0" width="421" height="300"/>
  </clipPath>
</defs>
<polygon clip-path="url(#clip0800)" points="
46.1926,255.115 580.315,255.115 580.315,32.5644 46.1926,32.5644 
  " fill="#ffffff" fill-opacity="1"/>
<defs>
  <clipPath id="clip0802">
    <rect x="46" y="32" width="535" height="224"/>
  </clipPath>
</defs>
<polyline clip-path="url(#clip0800)" style="stroke:#000000; stroke-width:1; stroke-opacity:1; fill:none" points="
  46.1926,255.115 580.315,255.115 
  "/>
<polyline clip-path="url(#clip0800)" style="stroke:#000000; stroke-width:1; stroke-opacity:1; fill:none" points="
  46.1926,255.115 46.1926,32.5644 
  "/>
<polyline clip-path="url(#clip0800)" style="stroke:#000000; stroke-width:1; stroke-opacity:1; fill:none" points="
  90.7028,255.115 90.7028,251.777 
  "/>
<polyline clip-path="url(#clip0800)" style="stroke:#000000; stroke-width:1; stroke-opacity:1; fill:none" points="
  201.978,255.115 201.978,251.777 
  "/>
<polyline clip-path="url(#clip0800)" style="stroke:#000000; stroke-width:1; stroke-opacity:1; fill:none" points="
  313.254,255.115 313.254,251.777 
  "/>
<polyline clip-path="url(#clip0800)" style="stroke:#000000; stroke-width:1; stroke-opacity:1; fill:none" points="
  424.529,255.115 424.529,251.777 
  "/>
<polyline clip-path="url(#clip0800)" style="stroke:#000000; stroke-width:1; stroke-opacity:1; fill:none" points="
  535.805,255.115 535.805,251.777 
  "/>
<polyline clip-path="url(#clip0800)" style="stroke:#000000; stroke-width:1; stroke-opacity:1; fill:none" points="
  46.1926,255.115 54.2044,255.115 
  "/>
<polyline clip-path="url(#clip0800)" style="stroke:#000000; stroke-width:1; stroke-opacity:1; fill:none" points="
  46.1926,199.478 54.2044,199.478 
  "/>
<polyline clip-path="url(#clip0800)" style="stroke:#000000; stroke-width:1; stroke-opacity:1; fill:none" points="
  46.1926,143.84 54.2044,143.84 
  "/>
<polyline clip-path="url(#clip0800)" style="stroke:#000000; stroke-width:1; stroke-opacity:1; fill:none" points="
  46.1926,88.2021 54.2044,88.2021 
  "/>
<polyline clip-path="url(#clip0800)" style="stroke:#000000; stroke-width:1; stroke-opacity:1; fill:none" points="
  46.1926,32.5644 54.2044,32.5644 
  "/>
<g clip-path="url(#clip0800)">
<text style="fill:#000000; fill-opacity:1; font-family:Arial,Helvetica Neue,Helvetica,sans-serif; font-size:12; text-anchor:middle;" transform="rotate(0, 90.7028, 268.915)" x="90.7028" y="268.915">-1.0</text>
</g>
<g clip-path="url(#clip0800)">
<text style="fill:#000000; fill-opacity:1; font-family:Arial,Helvetica Neue,Helvetica,sans-serif; font-size:12; text-anchor:middle;" transform="rotate(0, 201.978, 268.915)" x="201.978" y="268.915">-0.5</text>
</g>
<g clip-path="url(#clip0800)">
<text style="fill:#000000; fill-opacity:1; font-family:Arial,Helvetica Neue,Helvetica,sans-serif; font-size:12; text-anchor:middle;" transform="rotate(0, 313.254, 268.915)" x="313.254" y="268.915">0.0</text>
</g>
<g clip-path="url(#clip0800)">
<text style="fill:#000000; fill-opacity:1; font-family:Arial,Helvetica Neue,Helvetica,sans-serif; font-size:12; text-anchor:middle;" transform="rotate(0, 424.529, 268.915)" x="424.529" y="268.915">0.5</text>
</g>
<g clip-path="url(#clip0800)">
<text style="fill:#000000; fill-opacity:1; font-family:Arial,Helvetica Neue,Helvetica,sans-serif; font-size:12; text-anchor:middle;" transform="rotate(0, 535.805, 268.915)" x="535.805" y="268.915">1.0</text>
</g>
<g clip-path="url(#clip0800)">
<text style="fill:#000000; fill-opacity:1; font-family:Arial,Helvetica Neue,Helvetica,sans-serif; font-size:12; text-anchor:end;" transform="rotate(0, 40.1926, 259.615)" x="40.1926" y="259.615">-0.50</text>
</g>
<g clip-path="url(#clip0800)">
<text style="fill:#000000; fill-opacity:1; font-family:Arial,Helvetica Neue,Helvetica,sans-serif; font-size:12; text-anchor:end;" transform="rotate(0, 40.1926, 203.978)" x="40.1926" y="203.978">-0.25</text>
</g>
<g clip-path="url(#clip0800)">
<text style="fill:#000000; fill-opacity:1; font-family:Arial,Helvetica Neue,Helvetica,sans-serif; font-size:12; text-anchor:end;" transform="rotate(0, 40.1926, 148.34)" x="40.1926" y="148.34">0.00</text>
</g>
<g clip-path="url(#clip0800)">
<text style="fill:#000000; fill-opacity:1; font-family:Arial,Helvetica Neue,Helvetica,sans-serif; font-size:12; text-anchor:end;" transform="rotate(0, 40.1926, 92.7021)" x="40.1926" y="92.7021">0.25</text>
</g>
<g clip-path="url(#clip0800)">
<text style="fill:#000000; fill-opacity:1; font-family:Arial,Helvetica Neue,Helvetica,sans-serif; font-size:12; text-anchor:end;" transform="rotate(0, 40.1926, 37.0644)" x="40.1926" y="37.0644">0.50</text>
</g>
<polyline clip-path="url(#clip0802)" style="stroke:#808080; stroke-width:2; stroke-opacity:1; fill:none" points="
  46.1926,233.119 50.239,232.653 50.3846,232.635 56.983,231.859 63.7269,231.047 69.0859,230.387 70.4709,230.217 77.2149,229.367 83.9588,228.497 86.6689,228.139 
  90.7028,227.606 97.4468,226.692 103.201,225.891 104.191,225.754 110.935,224.79 117.679,223.8 118.714,223.643 124.423,222.781 131.167,221.731 133.26,221.395 
  137.911,220.648 144.655,219.531 146.897,219.148 151.399,218.375 158.142,217.179 159.668,216.9 164.886,215.939 171.622,214.652 171.63,214.65 178.374,213.31 
  182.756,212.404 185.118,211.911 191.862,210.451 193.18,210.156 198.606,208.924 202.92,207.908 205.35,207.327 212.093,205.66 212.094,205.659 218.838,203.928 
  220.818,203.412 225.582,202.144 229.252,201.164 232.326,200.325 237.513,198.916 239.07,198.484 245.691,196.668 245.814,196.633 252.558,194.782 253.906,194.42 
  259.302,192.94 262.173,192.172 266.046,191.115 270.534,189.924 272.79,189.313 279.037,187.676 279.534,187.543 286.278,185.81 287.83,185.428 293.022,184.123 
  296.961,183.18 299.766,182.493 306.51,180.932 306.51,180.932 313.254,179.446 316.997,178.684 319.998,178.057 326.742,176.781 328.813,176.436 333.486,175.637 
  340.23,174.652 344.201,174.188 346.974,173.855 353.718,173.275 360.462,172.953 367.206,172.922 373.95,173.211 380.693,173.842 383.069,174.188 387.437,174.808 
  394.181,176.091 395.642,176.436 400.925,177.64 404.856,178.684 407.669,179.403 413.024,180.932 414.413,181.313 420.691,183.18 421.157,183.313 427.901,185.353 
  428.139,185.428 434.645,187.397 435.548,187.676 441.389,189.42 443.063,189.924 448.133,191.405 450.764,192.172 454.877,193.34 458.716,194.42 461.621,195.219 
  466.97,196.668 468.365,197.038 475.109,198.797 475.571,198.916 481.853,200.497 484.567,201.164 488.597,202.139 493.996,203.412 495.341,203.725 502.085,205.256 
  503.908,205.66 508.829,206.737 514.333,207.908 515.573,208.169 522.317,209.554 525.327,210.156 529.061,210.896 535.805,212.196 
  "/>
<polyline clip-path="url(#clip0802)" style="stroke:#808080; stroke-width:2; stroke-opacity:1; fill:none" points="
  535.805,194.559 535.138,194.42 529.061,193.139 524.628,192.172 522.317,191.664 515.573,190.128 514.705,189.924 508.829,188.528 505.373,187.676 502.085,186.857 
  496.563,185.428 495.341,185.108 488.597,183.274 488.26,183.18 481.853,181.348 480.45,180.932 475.109,179.319 473.083,178.684 468.365,177.174 466.136,176.436 
  461.621,174.903 459.583,174.188 454.877,172.488 453.401,171.94 448.133,169.914 447.568,169.692 442.058,167.444 441.389,167.16 436.83,165.196 434.645,164.204 
  431.875,162.948 427.901,161.03 427.201,160.7 422.706,158.452 421.157,157.62 418.383,156.204 414.413,153.993 414.34,153.956 410.192,151.708 407.669,150.198 
  406.229,149.46 402.192,147.212 400.925,146.439 397.816,144.964 394.181,143.095 393.102,142.716 387.437,140.633 386.59,140.468 380.693,139.303 373.95,139.028 
  367.206,139.521 360.989,140.468 360.462,140.542 353.718,141.903 350.403,142.716 346.974,143.508 341.492,144.964 340.23,145.282 333.486,147.177 333.372,147.212 
  326.742,149.159 325.785,149.46 319.998,151.21 318.445,151.708 313.254,153.315 311.284,153.956 306.51,155.461 304.255,156.204 299.766,157.64 297.327,158.452 
  293.022,159.846 290.478,160.7 286.278,162.074 283.692,162.948 279.534,164.319 276.954,165.196 272.79,166.579 270.256,167.444 266.046,168.849 263.589,169.692 
  259.302,171.129 256.945,171.94 252.558,173.415 250.316,174.188 245.814,175.705 243.697,176.436 239.07,177.997 237.078,178.684 232.326,180.285 230.448,180.932 
  225.582,182.565 223.785,183.18 218.838,184.823 217.038,185.428 212.094,187.029 210.03,187.676 205.35,189.096 202.42,189.924 198.606,190.983 194.017,192.172 
  191.862,192.724 185.118,194.351 184.819,194.42 178.374,195.886 174.759,196.668 171.63,197.341 164.886,198.726 163.925,198.916 158.142,200.052 152.241,201.164 
  151.399,201.322 144.655,202.544 139.684,203.412 137.911,203.721 131.167,204.857 126.241,205.66 124.423,205.955 117.679,207.019 111.869,207.908 110.935,208.05 
  104.191,209.052 97.4468,210.024 96.5128,210.156 90.7028,210.971 83.9588,211.892 80.1213,212.404 77.2149,212.79 70.4709,213.666 63.7269,214.521 62.6702,214.652 
  56.983,215.355 50.239,216.171 46.1926,216.65 
  "/>
<polyline clip-path="url(#clip0802)" style="stroke:#808080; stroke-width:2; stroke-opacity:1; fill:none" points="
  46.1926,200.273 50.239,199.784 56.983,198.951 57.2667,198.916 63.7269,198.099 70.4709,197.225 74.6663,196.668 77.2149,196.329 83.9588,195.409 90.7028,194.465 
  91.0151,194.42 97.4468,193.494 104.191,192.494 106.306,192.172 110.935,191.465 117.679,190.403 120.63,189.924 124.423,189.307 131.167,188.173 134.023,187.676 
  137.911,186.998 144.655,185.779 146.527,185.428 151.399,184.512 158.142,183.19 158.195,183.18 164.886,181.81 168.981,180.932 171.63,180.362 178.374,178.838 
  179.019,178.684 185.118,177.226 188.222,176.436 191.862,175.509 196.701,174.188 198.606,173.669 204.487,171.94 205.35,171.688 211.729,169.692 212.094,169.579 
  218.663,167.444 218.838,167.388 225.443,165.196 225.582,165.15 232.138,162.948 232.326,162.885 238.78,160.7 239.07,160.603 245.388,158.452 245.814,158.309 
  251.972,156.204 252.558,156.006 258.539,153.956 259.302,153.698 265.096,151.708 266.046,151.386 271.645,149.46 272.79,149.072 278.191,147.212 279.534,146.756 
  284.736,144.964 286.278,144.441 291.283,142.716 293.022,142.126 297.834,140.468 299.766,139.813 304.393,138.22 306.51,137.503 310.96,135.972 313.254,135.196 
  317.54,133.724 319.998,132.895 324.136,131.476 326.742,130.599 330.751,129.228 333.486,128.311 337.39,126.98 340.23,126.033 344.059,124.732 346.974,123.765 
  350.765,122.484 353.718,121.512 357.518,120.236 360.462,119.276 364.331,117.988 367.206,117.063 371.224,115.74 373.95,114.878 378.229,113.492 380.693,112.731 
  385.401,111.244 387.437,110.637 392.85,108.996 394.181,108.622 400.863,106.748 400.925,106.732 407.669,105.084 410.894,104.5 414.413,104.036 415.41,104.5 
  418.636,106.748 418.784,108.996 418.618,111.244 418.525,113.492 418.596,115.74 418.88,117.988 419.408,120.236 420.2,122.484 421.157,124.508 421.26,124.732 
  422.482,126.98 423.983,129.228 425.775,131.476 427.873,133.724 427.901,133.752 430.198,135.972 432.816,138.22 434.645,139.654 435.736,140.468 438.943,142.716 
  441.389,144.307 442.459,144.964 446.294,147.212 448.133,148.235 450.465,149.46 454.877,151.671 454.954,151.708 459.84,153.956 461.621,154.747 465.092,156.204 
  468.365,157.54 470.73,158.452 475.109,160.104 476.778,160.7 481.853,162.48 483.262,162.948 488.597,164.695 490.207,165.196 495.341,166.773 497.635,167.444 
  502.085,168.731 505.567,169.692 508.829,170.583 514.023,171.94 515.573,172.341 522.317,174.015 523.041,174.188 529.061,175.614 532.678,176.436 535.805,177.143 
  
  "/>
<polyline clip-path="url(#clip0802)" style="stroke:#808080; stroke-width:2; stroke-opacity:1; fill:none" points="
  535.805,160.017 529.271,158.452 529.061,158.401 522.317,156.707 520.406,156.204 515.573,154.924 512.095,153.956 508.829,153.042 504.312,151.708 502.085,151.046 
  497.04,149.46 495.341,148.922 490.256,147.212 488.597,146.649 483.937,144.964 481.853,144.202 478.057,142.716 475.109,141.547 472.583,140.468 468.365,138.636 
  467.48,138.22 462.779,135.972 461.621,135.409 458.455,133.724 454.877,131.767 454.397,131.476 450.748,129.228 448.133,127.563 447.32,126.98 444.259,124.732 
  441.389,122.53 441.337,122.484 438.842,120.236 436.47,117.988 434.645,116.217 434.247,115.74 432.395,113.492 430.591,111.244 428.722,108.996 427.901,108.117 
  427.089,106.748 425.414,104.5 422.85,102.252 421.157,101.152 418.311,100.004 414.413,98.6841 407.669,98.4083 400.925,99.0255 394.795,100.004 394.181,100.111 
  387.437,101.473 383.948,102.252 380.693,103.02 374.705,104.5 373.95,104.696 367.206,106.466 366.144,106.748 360.462,108.309 357.975,108.996 353.718,110.208 
  350.077,111.244 346.974,112.151 342.369,113.492 340.23,114.131 334.802,115.74 333.486,116.139 327.34,117.988 326.742,118.172 319.998,120.224 319.959,120.236 
  313.254,122.293 312.627,122.484 306.51,124.376 305.346,124.732 299.766,126.468 298.104,126.98 293.022,128.569 290.891,129.228 286.278,130.676 283.697,131.476 
  279.534,132.786 276.515,133.724 272.79,134.898 269.335,135.972 266.046,137.009 262.149,138.22 259.302,139.117 254.947,140.468 252.558,141.219 247.716,142.716 
  245.814,143.312 240.444,144.964 239.07,145.392 233.109,147.212 232.326,147.454 225.688,149.46 225.582,149.492 218.838,151.498 218.111,151.708 212.094,153.462 
  210.335,153.956 205.35,155.37 202.28,156.204 198.606,157.211 193.847,158.452 191.862,158.973 185.118,160.655 184.929,160.7 178.374,162.259 175.331,162.948 
  171.63,163.788 165.122,165.196 164.886,165.247 158.142,166.644 154.116,167.444 151.399,167.984 144.655,169.27 142.36,169.692 137.911,170.509 131.167,171.703 
  129.781,171.94 124.423,172.856 117.679,173.971 116.322,174.188 110.935,175.05 104.191,176.097 101.939,176.436 97.4468,177.112 90.7028,178.099 86.5936,178.684 
  83.9588,179.059 77.2149,179.993 70.4709,180.902 70.2458,180.932 63.7269,181.789 56.983,182.654 52.7888,183.18 50.239,183.499 46.1926,183.994 
  "/>
<polyline clip-path="url(#clip0802)" style="stroke:#808080; stroke-width:2; stroke-opacity:1; fill:none" points="
  46.1926,167.819 49.2316,167.444 50.239,167.32 56.983,166.469 63.7269,165.597 66.754,165.196 70.4709,164.703 77.2149,163.787 83.2334,162.948 83.9588,162.847 
  90.7028,161.881 97.4468,160.888 98.689,160.7 104.191,159.867 110.935,158.815 113.193,158.452 117.679,157.731 124.423,156.613 126.809,156.204 131.167,155.458 
  137.911,154.264 139.59,153.956 144.655,153.029 151.399,151.748 151.602,151.708 158.142,150.421 162.842,149.46 164.886,149.043 171.63,147.612 173.44,147.212 
  178.374,146.126 183.443,144.964 185.118,144.582 191.862,142.981 192.937,142.716 198.606,141.326 201.981,140.468 205.35,139.619 210.716,138.22 212.094,137.864 
  218.838,136.07 219.195,135.972 225.582,134.242 227.451,133.724 232.326,132.388 235.582,131.476 239.07,130.511 243.622,129.228 245.814,128.618 251.599,126.98 
  252.558,126.712 259.302,124.798 259.533,124.732 266.046,122.881 267.425,122.484 272.79,120.962 275.32,120.236 279.534,119.044 283.233,117.988 286.278,117.131 
  291.183,115.74 293.022,115.226 299.187,113.492 299.766,113.332 306.51,111.452 307.251,111.244 313.254,109.59 315.403,108.996 319.998,107.75 323.69,106.748 
  326.742,105.936 332.153,104.5 333.486,104.154 340.23,102.41 340.844,102.252 346.974,100.713 349.842,100.004 353.718,99.0715 359.331,97.7561 360.462,97.4986 
  367.206,96.0105 369.603,95.5081 373.95,94.6286 380.693,93.3836 381.443,93.2601 387.437,92.3148 394.181,91.4874 400.699,91.0121 400.925,90.9962 407.669,90.9835 
  407.937,91.0121 414.413,91.6724 420.544,93.2601 421.157,93.428 425.967,95.5081 427.901,96.5306 430.118,97.7561 433.581,100.004 434.645,100.809 436.894,102.252 
  440.071,104.5 441.389,105.507 443.328,106.748 446.678,108.996 448.133,110.006 450.211,111.244 453.905,113.492 454.877,114.092 457.912,115.74 461.621,117.765 
  462.077,117.988 466.647,120.236 468.365,121.082 471.504,122.484 475.109,124.093 476.672,124.732 481.853,126.849 482.199,126.98 488.156,129.228 488.597,129.394 
  494.537,131.476 495.341,131.757 501.352,133.724 502.085,133.963 508.63,135.972 508.829,136.033 515.573,137.984 516.435,138.22 522.317,139.829 524.776,140.468 
  529.061,141.58 533.658,142.716 535.805,143.246 
  "/>
<polyline clip-path="url(#clip0802)" style="stroke:#808080; stroke-width:2; stroke-opacity:1; fill:none" points="
  535.805,126.873 529.061,125.198 527.274,124.732 522.317,123.441 518.827,122.484 515.573,121.594 510.876,120.236 508.829,119.646 503.402,117.988 502.085,117.587 
  496.379,115.74 495.341,115.406 489.781,113.492 488.597,113.087 483.575,111.244 481.853,110.618 477.724,108.996 475.109,107.981 472.184,106.748 468.365,105.165 
  466.9,104.5 461.829,102.252 461.621,102.162 457.077,100.004 454.877,98.9971 452.416,97.7561 448.133,95.7094 447.75,95.5081 443.195,93.2601 441.389,92.4318 
  438.445,91.0121 434.645,89.352 433.264,88.7641 427.901,86.7113 427.296,86.5161 421.157,84.6845 419.135,84.2681 414.413,83.3197 407.669,82.5637 400.925,82.3086 
  394.181,82.4484 387.437,82.8998 380.693,83.5976 375.591,84.2681 373.95,84.4898 367.206,85.5362 361.551,86.5161 360.462,86.7099 353.718,87.9863 349.829,88.7641 
  346.974,89.3486 340.23,90.782 339.172,91.0121 333.486,92.2752 329.152,93.2601 326.742,93.8185 319.998,95.4041 319.558,95.5081 313.254,97.0256 310.243,97.7561 
  306.51,98.6769 301.152,100.004 299.766,100.353 293.022,102.049 292.212,102.252 286.278,103.762 283.369,104.5 279.534,105.487 274.611,106.748 272.79,107.221 
  266.046,108.96 265.903,108.996 259.302,110.701 257.18,111.244 252.558,112.441 248.452,113.492 245.814,114.175 239.691,115.74 239.07,115.901 232.326,117.614 
  230.826,117.988 225.582,119.31 221.837,120.236 218.838,120.985 212.702,122.484 212.094,122.634 205.35,124.254 203.305,124.732 198.606,125.84 193.628,126.98 
  191.862,127.388 185.118,128.895 183.58,129.228 178.374,130.361 173.08,131.476 171.63,131.783 164.886,133.162 162.04,133.724 158.142,134.497 151.399,135.791 
  150.42,135.972 144.655,137.044 138.12,138.22 137.911,138.258 131.167,139.435 125.062,140.468 124.423,140.576 117.679,141.685 111.211,142.716 110.935,142.76 
  104.191,143.806 97.4468,144.823 96.4841,144.964 90.7028,145.813 83.9588,146.776 80.8285,147.212 77.2149,147.715 70.4709,148.631 64.2124,149.46 63.7269,149.524 
  56.983,150.397 50.239,151.248 46.5168,151.708 46.1926,151.748 
  "/>
<polyline clip-path="url(#clip0802)" style="stroke:#808080; stroke-width:2; stroke-opacity:1; fill:none" points="
  46.1926,135.782 50.239,135.285 56.983,134.438 62.535,133.724 63.7269,133.571 70.4709,132.684 77.2149,131.775 79.3825,131.476 83.9588,130.845 90.7028,129.891 
  95.2724,129.228 97.4468,128.913 104.191,127.91 110.277,126.98 110.935,126.88 117.679,125.823 124.423,124.736 124.447,124.732 131.167,123.62 137.844,122.484 
  137.911,122.473 144.655,121.294 150.535,120.236 151.399,120.081 158.142,118.835 162.599,117.988 164.886,117.555 171.63,116.24 174.124,115.74 178.374,114.892 
  185.118,113.509 185.2,113.492 191.862,112.096 195.828,111.244 198.606,110.652 205.35,109.18 206.171,108.996 212.094,107.683 216.231,106.748 218.838,106.164 
  225.582,104.626 226.124,104.5 232.326,103.074 235.85,102.252 239.07,101.509 245.518,100.004 245.814,99.9356 252.558,98.3583 255.112,97.7561 259.302,96.7795 
  264.727,95.5081 266.046,95.2026 272.79,93.6317 274.379,93.2601 279.534,92.0703 284.123,91.0121 286.278,90.5217 293.022,88.9901 294.019,88.7641 299.766,87.4801 
  304.123,86.5161 306.51,85.9956 313.254,84.5421 314.541,84.2681 319.998,83.1252 325.403,82.0201 326.742,81.751 333.486,80.4271 336.947,79.7721 340.23,79.1619 
  346.974,77.9653 349.608,77.5242 353.718,76.849 360.462,75.8273 364.514,75.2762 367.206,74.917 373.95,74.1376 380.693,73.516 387.437,73.0819 389.118,73.0282 
  394.181,72.8677 400.925,72.9176 402.988,73.0282 407.669,73.2744 414.413,73.9821 421.157,75.0836 422.052,75.2762 427.901,76.5789 431.392,77.5242 434.645,78.4516 
  438.823,79.7721 441.389,80.6337 445.383,82.0201 448.133,83.0324 451.532,84.2681 454.877,85.5487 457.504,86.5161 461.621,88.0977 463.449,88.7641 468.365,90.6178 
  469.474,91.0121 475.109,93.07 475.662,93.2601 481.853,95.4328 482.081,95.5081 488.597,97.6965 488.785,97.7561 495.341,99.8588 495.821,100.004 502.085,101.922 
  503.226,102.252 508.829,103.889 511.036,104.5 515.573,105.766 519.278,106.748 522.317,107.559 527.978,108.996 529.061,109.272 535.805,110.914 
  "/>
<polyline clip-path="url(#clip0802)" style="stroke:#808080; stroke-width:2; stroke-opacity:1; fill:none" points="
  535.805,95.3515 529.061,93.7794 526.925,93.2601 522.317,92.1481 517.805,91.0121 515.573,90.4549 509.086,88.7641 508.829,88.6978 502.085,86.8778 500.804,86.5161 
  495.341,84.9941 492.849,84.2681 488.597,83.0494 485.159,82.0201 481.853,81.0499 477.672,79.7721 475.109,79.0068 470.314,77.5242 468.365,76.9377 462.984,75.2762 
  461.621,74.8684 455.542,73.0282 454.877,72.8338 448.133,70.8779 447.786,70.7802 441.389,69.0498 439.326,68.5322 434.645,67.3995 429.407,66.2842 427.901,65.9728 
  421.157,64.7973 415.483,64.0362 414.413,63.894 407.669,63.2549 400.925,62.8745 394.181,62.7318 387.437,62.8029 380.693,63.064 373.95,63.4926 367.568,64.0362 
  367.206,64.0675 360.462,64.7674 353.718,65.5792 348.466,66.2842 346.974,66.4876 340.23,67.4789 333.559,68.5322 333.486,68.5439 326.742,69.6715 320.417,70.7802 
  319.998,70.8547 313.254,72.0854 308.239,73.0282 306.51,73.3576 299.766,74.6653 296.665,75.2762 293.022,76.0032 286.278,77.3665 285.502,77.5242 279.534,78.7512 
  274.605,79.7721 272.79,80.1527 266.046,81.5674 263.886,82.0201 259.302,82.9919 253.276,84.2681 252.558,84.4219 245.814,85.8551 242.685,86.5161 239.07,87.2875 
  232.326,88.7157 232.095,88.7641 225.582,90.1377 221.39,91.0121 218.838,91.5492 212.094,92.9478 210.562,93.2601 205.35,94.3312 199.528,95.5081 198.606,95.6958 
  191.862,97.0405 188.2,97.7561 185.118,98.3623 178.374,99.6599 176.542,100.004 171.63,100.932 164.886,102.177 164.472,102.252 158.142,103.396 151.887,104.5 
  151.399,104.587 144.655,105.75 138.724,106.748 137.911,106.885 131.167,107.994 124.919,108.996 124.423,109.076 117.679,110.132 110.935,111.162 110.385,111.244 
  104.191,112.169 97.4468,113.151 95.0437,113.492 90.7028,114.11 83.9588,115.047 78.8532,115.74 77.2149,115.963 70.4709,116.858 63.7269,117.733 61.7197,117.988 
  56.983,118.59 50.239,119.428 46.1926,119.92 
  "/>
<polyline clip-path="url(#clip0802)" style="stroke:#808080; stroke-width:2; stroke-opacity:1; fill:none" points="
  46.1926,104.157 50.239,103.672 56.983,102.848 61.7552,102.252 63.7269,102.006 70.4709,101.148 77.2149,100.271 79.2188,100.004 83.9588,99.375 90.7028,98.46 
  95.7771,97.7561 97.4468,97.525 104.191,96.5699 110.935,95.5934 111.51,95.5081 117.679,94.5961 124.423,93.5765 126.466,93.2601 131.167,92.535 137.911,91.4708 
  140.751,91.0121 144.655,90.3842 151.399,89.275 154.435,88.7641 158.142,88.1435 164.886,86.9899 167.597,86.5161 171.63,85.8151 178.374,84.6195 180.317,84.2681 
  185.118,83.4049 191.862,82.1716 192.675,82.0201 198.606,80.9225 204.738,79.7721 205.35,79.6581 212.094,78.3817 216.575,77.5242 218.838,77.0944 225.582,75.7994 
  228.282,75.2762 232.326,74.499 239.07,73.1957 239.931,73.0282 245.814,71.8931 251.58,70.7802 252.558,70.5932 259.302,69.2999 263.318,68.5322 266.046,68.016 
  272.79,66.7451 275.251,66.2842 279.534,65.4907 286.278,64.2565 287.495,64.0362 293.022,63.0468 299.766,61.8658 300.217,61.7882 306.51,60.7182 313.254,59.6093 
  313.686,59.5402 319.998,58.5442 326.742,57.5299 328.4,57.2922 333.486,56.5724 340.23,55.6798 345.45,55.0443 346.974,54.8608 353.718,54.1234 360.462,53.4797 
  367.206,52.9412 369.507,52.7963 373.95,52.5185 380.693,52.226 387.437,52.0783 394.181,52.0898 400.925,52.2742 407.669,52.6441 409.499,52.7963 414.413,53.205 
  421.157,53.9629 427.901,54.9177 428.665,55.0443 434.645,56.0534 441.057,57.2922 441.389,57.3579 448.133,58.8031 451.365,59.5402 454.877,60.3632 460.741,61.7882 
  461.621,62.008 468.365,63.7093 469.662,64.0362 475.109,65.442 478.405,66.2842 481.853,67.1842 487.117,68.5322 488.597,68.9186 495.341,70.6329 495.938,70.7802 
  502.085,72.3186 505.009,73.0282 508.829,73.9677 514.328,75.2762 515.573,75.5759 522.317,77.142 524.021,77.5242 529.061,78.6646 534.125,79.7721 535.805,80.1425 
  
  "/>
<polyline clip-path="url(#clip0802)" style="stroke:#808080; stroke-width:2; stroke-opacity:1; fill:none" points="
  535.805,65.2293 529.941,64.0362 529.061,63.8587 522.317,62.4589 519.168,61.7882 515.573,61.0306 508.829,59.5763 508.666,59.5402 502.085,58.1022 498.443,57.2922 
  495.341,56.612 488.597,55.1133 488.291,55.0443 481.853,53.6169 478.153,52.7963 475.109,52.1331 468.365,50.6762 467.766,50.5483 461.621,49.2626 456.851,48.3003 
  454.877,47.9097 448.133,46.6359 444.816,46.0523 441.389,45.4599 434.645,44.3986 430.362,43.8043 427.901,43.467 421.157,42.6745 414.413,42.0309 407.912,41.5563 
  407.669,41.5386 400.925,41.1939 394.181,40.9961 387.437,40.9385 380.693,41.0133 373.95,41.2117 367.206,41.5243 366.684,41.5563 360.462,41.9403 353.718,42.452 
  346.974,43.051 340.23,43.7289 339.543,43.8043 333.486,44.4764 326.742,45.288 320.802,46.0523 319.998,46.1569 313.254,47.076 306.51,48.041 304.756,48.3003 
  299.766,49.0457 293.022,50.0859 290.094,50.5483 286.278,51.1568 279.534,52.2545 276.257,52.7963 272.79,53.375 266.046,54.5146 262.939,55.0443 259.302,55.67 
  252.558,56.8378 249.941,57.2922 245.814,58.0151 239.07,59.1988 237.12,59.5402 232.326,60.3863 225.582,61.5747 224.362,61.7882 218.838,62.7619 212.094,63.945 
  211.568,64.0362 205.35,65.1225 198.648,66.2842 198.606,66.2914 191.862,67.451 185.505,68.5322 185.118,68.5984 178.374,69.7333 172.067,70.7802 171.63,70.8531 
  164.886,71.9579 158.25,73.0282 158.142,73.0456 151.399,74.1167 144.655,75.1694 143.956,75.2762 137.911,76.2044 131.167,77.2205 129.109,77.5242 124.423,78.2183 
  117.679,79.1973 113.637,79.7721 110.935,80.1577 104.191,81.1 97.4726,82.0201 97.4468,82.0237 90.7028,82.9301 83.9588,83.8186 80.4762,84.2681 77.2149,84.69 
  70.4709,85.5448 63.7269,86.3829 62.6334,86.5161 56.983,87.2055 50.239,88.0124 46.1926,88.4873 
  "/>
<polyline clip-path="url(#clip0802)" style="stroke:#808080; stroke-width:2; stroke-opacity:1; fill:none" points="
  535.805,229.984 529.061,228.806 525.326,228.139 522.317,227.599 515.573,226.361 513.061,225.891 508.829,225.093 502.085,223.794 501.312,223.643 495.341,222.465 
  490.027,221.395 488.597,221.104 481.853,219.715 479.134,219.148 475.109,218.297 468.576,216.9 468.365,216.854 461.621,215.389 458.237,214.652 454.877,213.907 
  448.133,212.417 448.072,212.404 441.389,210.925 437.844,210.156 434.645,209.446 427.901,207.995 427.475,207.908 421.157,206.586 416.465,205.66 414.413,205.245 
  407.669,203.992 404.196,203.412 400.925,202.853 394.181,201.851 388.641,201.164 387.437,201.011 380.693,200.345 373.95,199.871 367.206,199.592 360.462,199.508 
  353.718,199.612 346.974,199.897 340.23,200.348 333.486,200.954 331.603,201.164 326.742,201.696 319.998,202.562 314.15,203.412 313.254,203.54 306.51,204.612 
  300.427,205.66 299.766,205.772 293.022,207.003 288.343,207.908 286.278,208.3 279.534,209.651 277.122,210.156 272.79,211.047 266.419,212.404 266.046,212.482 
  259.302,213.944 256.113,214.652 252.558,215.428 245.933,216.9 245.814,216.925 239.07,218.427 235.853,219.148 232.326,219.925 225.658,221.395 225.582,221.412 
  218.838,222.878 215.276,223.643 212.094,224.318 205.35,225.725 204.539,225.891 198.606,227.095 193.33,228.139 191.862,228.427 185.118,229.719 181.536,230.387 
  178.374,230.972 171.63,232.187 169.075,232.635 164.886,233.366 158.142,234.508 155.87,234.883 151.399,235.618 144.655,236.696 141.856,237.131 137.911,237.744 
  131.167,238.763 126.979,239.379 124.423,239.755 117.679,240.721 111.191,241.627 110.935,241.663 104.191,242.582 97.4468,243.479 94.3991,243.875 90.7028,244.355 
  83.9588,245.211 77.2149,246.048 76.5933,246.123 70.4709,246.867 63.7269,247.668 57.6793,248.371 56.983,248.452 50.239,249.221 46.1926,249.673 
  "/>
<polyline clip-path="url(#clip0802)" style="stroke:#808080; stroke-width:2; stroke-opacity:1; fill:none" points="
  136.859,255.115 137.911,254.966 144.655,253.993 151.399,252.997 152.257,252.867 158.142,251.977 164.886,250.933 166.871,250.619 171.63,249.864 178.374,248.771 
  180.793,248.371 185.118,247.653 191.862,246.511 194.116,246.123 198.606,245.345 205.35,244.159 206.948,243.875 212.094,242.953 218.838,241.732 219.417,241.627 
  225.582,240.499 231.681,239.379 232.326,239.26 239.07,238.018 243.923,237.131 245.814,236.782 252.558,235.555 256.331,234.883 259.302,234.347 266.046,233.163 
  269.153,232.635 272.79,232.01 279.534,230.895 282.757,230.387 286.278,229.826 293.022,228.809 297.77,228.139 299.766,227.854 306.51,226.967 313.254,226.158 
  315.758,225.891 319.998,225.434 326.742,224.804 333.486,224.277 340.23,223.861 345.166,223.643 346.974,223.563 353.718,223.389 360.462,223.344 367.206,223.433 
  373.571,223.643 373.95,223.656 380.693,224.009 387.437,224.491 394.181,225.094 400.925,225.811 401.585,225.891 407.669,226.625 414.413,227.53 418.583,228.139 
  421.157,228.51 427.901,229.552 433.036,230.387 434.645,230.645 441.389,231.776 446.367,232.635 448.133,232.936 454.877,234.114 459.216,234.883 461.621,235.304 
  468.365,236.498 471.926,237.131 475.109,237.691 481.853,238.878 484.705,239.379 488.597,240.056 495.341,241.222 497.703,241.627 502.085,242.373 508.829,243.508 
  511.035,243.875 515.573,244.626 522.317,245.725 524.796,246.123 529.061,246.805 535.805,247.866 
  "/>
<polyline clip-path="url(#clip0802)" style="stroke:#808080; stroke-width:2; stroke-opacity:1; fill:none" points="
  462.801,255.115 461.621,254.941 454.877,253.969 448.133,253.017 447.037,252.867 441.389,252.09 434.645,251.196 430.077,250.619 427.901,250.342 421.157,249.534 
  414.413,248.783 410.359,248.371 407.669,248.095 400.925,247.477 394.181,246.938 387.437,246.484 380.762,246.123 380.693,246.12 373.95,245.849 367.206,245.675 
  360.462,245.601 353.718,245.625 346.974,245.747 340.23,245.965 336.804,246.123 333.486,246.275 326.742,246.672 319.998,247.153 313.254,247.712 306.51,248.344 
  306.245,248.371 299.766,249.04 293.022,249.798 286.278,250.612 286.219,250.619 279.534,251.472 272.79,252.376 269.286,252.867 266.046,253.317 259.302,254.288 
  253.723,255.115 
  "/>
<polyline clip-path="url(#clip0802)" style="stroke:#000000; stroke-width:2; stroke-opacity:1; fill:none" points="
  208.689,181.898 417.819,105.781 
  "/>
</svg>
