<?xml version="1.0" encoding="utf-8"?>
<svg xmlns="http://www.w3.org/2000/svg" xmlns:xlink="http://www.w3.org/1999/xlink" width="600" height="300" viewBox="0 0 600 300">
<defs>
  <clipPath id="clip00">
    <rect x="0" y="0" width="600" height="300"/>
  </clipPath>
</defs>
<polygon clip-path="url(#clip9800)" points="
0,300 600,300 600,0 0,0 
  " fill="#ffffff" fill-opacity="1"/>
<defs>
  <clipPath id="clip01">
    <rect x="120" y="0" width="421" height="300"/>
  </clipPath>
</defs>
<polygon clip-path="url(#clip9800)" points="
45.7332,255.183 580.315,255.183 580.315,32.441 45.7332,32.441 
  " fill="#ffffff" fill-opacity="1"/>
<defs>
  <clipPath id="clip02">
    <rect x="45" y="32" width="536" height="224"/>
  </clipPath>
</defs>
<polyline clip-path="url(#clip9800)" style="stroke:#000000; stroke-width:1; stroke-opacity:1; fill:none" points="
  45.7332,255.183 580.315,255.183 
  "/>
<polyline clip-path="url(#clip9800)" style="stroke:#000000; stroke-width:1; stroke-opacity:1; fill:none" points="
  45.7332,255.183 45.7332,32.441 
  "/>
<polyline clip-path="url(#clip9800)" style="stroke:#000000; stroke-width:1; stroke-opacity:1; fill:none" points="
  90.2817,255.183 90.2817,251.842 
  "/>
<polyline clip-path="url(#clip9800)" style="stroke:#000000; stroke-width:1; stroke-opacity:1; fill:none" points="
  201.653,255.183 201.653,251.842 
  "/>
<polyline clip-path="url(#clip9800)" style="stroke:#000000; stroke-width:1; stroke-opacity:1; fill:none" points="
  313.024,255.183 313.024,251.842 
  "/>
<polyline clip-path="url(#clip9800)" style="stroke:#000000; stroke-width:1; stroke-opacity:1; fill:none" points="
  424.395,255.183 424.395,251.842 
  "/>
<polyline clip-path="url(#clip9800)" style="stroke:#000000; stroke-width:1; stroke-opacity:1; fill:none" points="
  535.766,255.183 535.766,251.842 
  "/>
<polyline clip-path="url(#clip9800)" style="stroke:#000000; stroke-width:1; stroke-opacity:1; fill:none" points="
  45.7332,255.183 53.7519,255.183 
  "/>
<polyline clip-path="url(#clip9800)" style="stroke:#000000; stroke-width:1; stroke-opacity:1; fill:none" points="
  45.7332,199.498 53.7519,199.498 
  "/>
<polyline clip-path="url(#clip9800)" style="stroke:#000000; stroke-width:1; stroke-opacity:1; fill:none" points="
  45.7332,143.812 53.7519,143.812 
  "/>
<polyline clip-path="url(#clip9800)" style="stroke:#000000; stroke-width:1; stroke-opacity:1; fill:none" points="
  45.7332,88.1266 53.7519,88.1266 
  "/>
<polyline clip-path="url(#clip9800)" style="stroke:#000000; stroke-width:1; stroke-opacity:1; fill:none" points="
  45.7332,32.441 53.7519,32.441 
  "/>
<g clip-path="url(#clip9800)">
<text style="fill:#000000; fill-opacity:1; font-family:Arial,Helvetica Neue,Helvetica,sans-serif; font-size:12; text-anchor:middle;" transform="rotate(0, 90.2817, 268.983)" x="90.2817" y="268.983">-1.0</text>
</g>
<g clip-path="url(#clip9800)">
<text style="fill:#000000; fill-opacity:1; font-family:Arial,Helvetica Neue,Helvetica,sans-serif; font-size:12; text-anchor:middle;" transform="rotate(0, 201.653, 268.983)" x="201.653" y="268.983">-0.5</text>
</g>
<g clip-path="url(#clip9800)">
<text style="fill:#000000; fill-opacity:1; font-family:Arial,Helvetica Neue,Helvetica,sans-serif; font-size:12; text-anchor:middle;" transform="rotate(0, 313.024, 268.983)" x="313.024" y="268.983">0.0</text>
</g>
<g clip-path="url(#clip9800)">
<text style="fill:#000000; fill-opacity:1; font-family:Arial,Helvetica Neue,Helvetica,sans-serif; font-size:12; text-anchor:middle;" transform="rotate(0, 424.395, 268.983)" x="424.395" y="268.983">0.5</text>
</g>
<g clip-path="url(#clip9800)">
<text style="fill:#000000; fill-opacity:1; font-family:Arial,Helvetica Neue,Helvetica,sans-serif; font-size:12; text-anchor:middle;" transform="rotate(0, 535.766, 268.983)" x="535.766" y="268.983">1.0</text>
</g>
<g clip-path="url(#clip9800)">
<text style="fill:#000000; fill-opacity:1; font-family:Arial,Helvetica Neue,Helvetica,sans-serif; font-size:12; text-anchor:end;" transform="rotate(0, 39.7332, 259.683)" x="39.7332" y="259.683">-0.50</text>
</g>
<g clip-path="url(#clip9800)">
<text style="fill:#000000; fill-opacity:1; font-family:Arial,Helvetica Neue,Helvetica,sans-serif; font-size:12; text-anchor:end;" transform="rotate(0, 39.7332, 203.998)" x="39.7332" y="203.998">-0.25</text>
</g>
<g clip-path="url(#clip9800)">
<text style="fill:#000000; fill-opacity:1; font-family:Arial,Helvetica Neue,Helvetica,sans-serif; font-size:12; text-anchor:end;" transform="rotate(0, 39.7332, 148.312)" x="39.7332" y="148.312">0.00</text>
</g>
<g clip-path="url(#clip9800)">
<text style="fill:#000000; fill-opacity:1; font-family:Arial,Helvetica Neue,Helvetica,sans-serif; font-size:12; text-anchor:end;" transform="rotate(0, 39.7332, 92.6266)" x="39.7332" y="92.6266">0.25</text>
</g>
<g clip-path="url(#clip9800)">
<text style="fill:#000000; fill-opacity:1; font-family:Arial,Helvetica Neue,Helvetica,sans-serif; font-size:12; text-anchor:end;" transform="rotate(0, 39.7332, 36.941)" x="39.7332" y="36.941">0.50</text>
</g>
<polyline clip-path="url(#clip9802)" style="stroke:#808080; stroke-width:1; stroke-opacity:1; fill:none" points="
  45.7332,233.168 49.7831,232.701 49.9288,232.684 56.5328,231.907 63.2826,231.094 68.6462,230.434 70.0324,230.263 76.7822,229.413 83.5319,228.543 86.2444,228.184 
  90.2817,227.65 97.0315,226.736 102.791,225.934 103.781,225.796 110.531,224.832 117.281,223.841 118.317,223.685 124.031,222.821 130.78,221.77 132.875,221.435 
  137.53,220.687 144.28,219.568 146.524,219.185 151.03,218.412 157.779,217.214 159.306,216.935 164.529,215.973 171.27,214.685 171.279,214.683 178.029,213.342 
  182.414,212.435 184.778,211.942 191.528,210.481 192.847,210.185 198.278,208.953 202.596,207.935 205.028,207.354 211.776,205.685 211.778,205.685 218.527,203.952 
  220.509,203.435 225.277,202.167 228.95,201.185 232.027,200.346 237.218,198.935 238.777,198.503 245.403,196.685 245.526,196.651 252.276,194.798 253.625,194.436 
  259.026,192.955 261.899,192.186 265.776,191.128 270.268,189.936 272.525,189.325 278.778,187.686 279.275,187.553 286.025,185.818 287.579,185.436 292.775,184.13 
  296.717,183.186 299.525,182.499 306.274,180.936 306.274,180.936 313.024,179.449 316.77,178.686 319.774,178.059 326.524,176.782 328.597,176.436 333.273,175.636 
  340.023,174.651 343.997,174.186 346.773,173.853 353.523,173.273 360.272,172.95 367.022,172.919 373.772,173.209 380.522,173.841 382.899,174.186 387.272,174.807 
  394.021,176.091 395.483,176.436 400.771,177.642 404.705,178.686 407.521,179.406 412.88,180.936 414.271,181.318 420.554,183.186 421.02,183.319 427.77,185.361 
  428.008,185.436 434.52,187.407 435.423,187.686 441.27,189.432 442.945,189.936 448.019,191.418 450.653,192.186 454.769,193.355 458.611,194.436 461.519,195.235 
  466.873,196.685 468.269,197.056 475.019,198.817 475.481,198.935 481.768,200.518 484.485,201.185 488.518,202.162 493.922,203.435 495.268,203.748 502.018,205.282 
  503.842,205.685 508.767,206.764 514.276,207.935 515.517,208.197 522.267,209.583 525.28,210.185 529.017,210.926 535.766,212.227 
  "/>
<polyline clip-path="url(#clip9802)" style="stroke:#808080; stroke-width:1; stroke-opacity:1; fill:none" points="
  535.766,194.575 535.099,194.436 529.017,193.154 524.58,192.186 522.267,191.677 515.517,190.14 514.648,189.936 508.767,188.539 505.309,187.686 502.018,186.866 
  496.491,185.436 495.268,185.116 488.518,183.281 488.181,183.186 481.768,181.353 480.364,180.936 475.019,179.321 472.991,178.686 468.269,177.175 466.037,176.436 
  461.519,174.902 459.479,174.186 454.769,172.485 453.292,171.936 448.019,169.908 447.454,169.686 441.939,167.436 441.27,167.152 436.706,165.187 434.52,164.194 
  431.747,162.937 427.77,161.017 427.07,160.687 422.57,158.437 421.02,157.604 418.244,156.187 414.271,153.974 414.197,153.937 410.046,151.687 407.521,150.175 
  406.079,149.437 402.038,147.187 400.771,146.414 397.659,144.937 394.021,143.066 392.941,142.687 387.272,140.603 386.423,140.437 380.522,139.271 373.772,138.996 
  367.022,139.489 360.801,140.437 360.272,140.512 353.523,141.873 350.205,142.687 346.773,143.48 341.286,144.937 340.023,145.256 333.273,147.152 333.16,147.187 
  326.524,149.136 325.566,149.437 319.774,151.189 318.22,151.687 313.024,153.295 311.052,153.937 306.274,155.443 304.017,156.187 299.525,157.624 297.084,158.437 
  292.775,159.832 290.229,160.687 286.025,162.062 283.437,162.937 279.275,164.309 276.694,165.187 272.525,166.57 269.99,167.436 265.776,168.843 263.316,169.686 
  259.026,171.125 256.666,171.936 252.276,173.413 250.033,174.186 245.526,175.705 243.408,176.436 238.777,177.998 236.783,178.686 232.027,180.289 230.147,180.936 
  225.277,182.57 223.478,183.186 218.527,184.831 216.726,185.436 211.778,187.038 209.712,187.686 205.028,189.107 202.095,189.936 198.278,190.996 193.685,192.186 
  191.528,192.738 184.778,194.367 184.479,194.436 178.029,195.903 174.41,196.685 171.279,197.359 164.529,198.746 163.567,198.935 157.779,200.072 151.873,201.185 
  151.03,201.344 144.28,202.567 139.305,203.435 137.53,203.744 130.78,204.882 125.85,205.685 124.031,205.981 117.281,207.046 111.466,207.935 110.531,208.078 
  103.781,209.08 97.0315,210.054 96.0967,210.185 90.2817,211.001 83.5319,211.923 79.6911,212.435 76.7822,212.822 70.0324,213.699 63.2826,214.554 62.2249,214.685 
  56.5328,215.389 49.7831,216.206 45.7332,216.685 
  "/>
<polyline clip-path="url(#clip9802)" style="stroke:#808080; stroke-width:1; stroke-opacity:1; fill:none" points="
  45.7332,200.294 49.7831,199.805 56.5328,198.971 56.8168,198.935 63.2826,198.118 70.0324,197.243 74.2315,196.685 76.7822,196.346 83.5319,195.426 90.2817,194.48 
  90.5942,194.436 97.0315,193.509 103.781,192.509 105.898,192.186 110.531,191.478 117.281,190.416 120.235,189.936 124.031,189.318 130.78,188.183 133.639,187.686 
  137.53,187.008 144.28,185.788 146.154,185.436 151.03,184.519 157.779,183.197 157.832,183.186 164.529,181.815 168.627,180.936 171.279,180.366 178.029,178.84 
  178.674,178.686 184.778,177.227 187.885,176.436 191.528,175.509 196.371,174.186 198.278,173.667 204.163,171.936 205.028,171.684 211.412,169.686 211.778,169.574 
  218.352,167.436 218.527,167.38 225.138,165.187 225.277,165.141 231.838,162.937 232.027,162.874 238.486,160.687 238.777,160.59 245.1,158.437 245.526,158.294 
  251.689,156.187 252.276,155.989 258.262,153.937 259.026,153.679 264.825,151.687 265.776,151.365 271.38,149.437 272.525,149.049 277.931,147.187 279.275,146.731 
  284.482,144.937 286.025,144.413 291.034,142.687 292.775,142.097 297.591,140.437 299.525,139.782 304.155,138.187 306.274,137.47 310.729,135.938 313.024,135.161 
  317.314,133.688 319.774,132.858 323.916,131.438 326.524,130.56 330.536,129.188 333.273,128.27 337.181,126.938 340.023,125.99 343.856,124.688 346.773,123.721 
  350.568,122.438 353.523,121.465 357.326,120.188 360.272,119.228 364.145,117.938 367.022,117.012 371.044,115.688 373.772,114.825 378.055,113.438 380.522,112.677 
  385.233,111.188 387.272,110.581 392.688,108.938 394.021,108.564 400.708,106.689 400.771,106.673 407.521,105.023 410.748,104.439 414.271,103.975 415.268,104.439 
  418.497,106.689 418.645,108.938 418.479,111.188 418.385,113.438 418.456,115.688 418.741,117.938 419.27,120.188 420.062,122.438 421.02,124.464 421.124,124.688 
  422.346,126.938 423.848,129.188 425.643,131.438 427.742,133.688 427.77,133.716 430.069,135.938 432.689,138.187 434.52,139.623 435.612,140.437 438.821,142.687 
  441.27,144.279 442.341,144.937 446.179,147.187 448.019,148.211 450.353,149.437 454.769,151.651 454.847,151.687 459.737,153.937 461.519,154.729 464.993,156.187 
  468.269,157.524 470.636,158.437 475.019,160.091 476.689,160.687 481.768,162.468 483.178,162.937 488.518,164.685 490.129,165.187 495.268,166.765 497.564,167.436 
  502.018,168.725 505.503,169.686 508.767,170.579 513.966,171.936 515.517,172.338 522.267,174.014 522.992,174.186 529.017,175.613 532.637,176.436 535.766,177.144 
  
  "/>
<polyline clip-path="url(#clip9802)" style="stroke:#808080; stroke-width:1; stroke-opacity:1; fill:none" points="
  535.766,160.003 529.227,158.437 529.017,158.386 522.267,156.691 520.355,156.187 515.517,154.906 512.036,153.937 508.767,153.022 504.247,151.687 502.018,151.025 
  496.968,149.437 495.268,148.899 490.178,147.187 488.518,146.624 483.854,144.937 481.768,144.175 477.969,142.687 475.019,141.517 472.49,140.437 468.269,138.604 
  467.383,138.187 462.678,135.938 461.519,135.374 458.35,133.688 454.769,131.729 454.288,131.438 450.637,129.188 448.019,127.521 447.206,126.938 444.142,124.688 
  441.27,122.484 441.218,122.438 438.721,120.188 436.347,117.938 434.52,116.166 434.122,115.688 432.268,113.438 430.462,111.188 428.592,108.938 427.77,108.059 
  426.957,106.689 425.281,104.439 422.715,102.189 421.02,101.087 418.171,99.9387 414.271,98.6177 407.521,98.3416 400.771,98.9593 394.635,99.9387 394.021,100.046 
  387.272,101.409 383.779,102.189 380.522,102.958 374.528,104.439 373.772,104.635 367.022,106.407 365.96,106.689 360.272,108.251 357.783,108.938 353.523,110.152 
  349.879,111.188 346.773,112.097 342.165,113.438 340.023,114.078 334.591,115.688 333.273,116.088 327.123,117.938 326.524,118.122 319.774,120.176 319.735,120.188 
  313.024,122.247 312.397,122.438 306.274,124.331 305.109,124.688 299.525,126.426 297.861,126.938 292.775,128.528 290.642,129.188 286.025,130.637 283.442,131.438 
  279.275,132.749 276.254,133.688 272.525,134.863 269.068,135.938 265.776,136.976 261.876,138.187 259.026,139.085 254.667,140.437 252.276,141.189 247.43,142.687 
  245.526,143.284 240.151,144.937 238.777,145.366 232.811,147.187 232.027,147.43 225.383,149.437 225.277,149.469 218.527,151.477 217.8,151.687 211.778,153.443 
  210.017,153.937 205.028,155.353 201.955,156.187 198.278,157.195 193.515,158.437 191.528,158.959 184.778,160.642 184.589,160.687 178.029,162.247 174.983,162.937 
  171.279,163.777 164.765,165.187 164.529,165.238 157.779,166.636 153.75,167.436 151.03,167.977 144.28,169.265 141.983,169.686 137.53,170.504 130.78,171.699 
  129.393,171.936 124.031,172.853 117.281,173.969 115.923,174.186 110.531,175.05 103.781,176.097 101.528,176.436 97.0315,177.113 90.2817,178.101 86.169,178.686 
  83.5319,179.061 76.7822,179.996 70.0324,180.906 69.8071,180.936 63.2826,181.794 56.5328,182.66 52.3351,183.186 49.7831,183.506 45.7332,184.001 
  "/>
<polyline clip-path="url(#clip9802)" style="stroke:#808080; stroke-width:1; stroke-opacity:1; fill:none" points="
  45.7332,167.812 48.7748,167.436 49.7831,167.312 56.5328,166.461 63.2826,165.588 66.3123,165.187 70.0324,164.694 76.7822,163.777 82.8059,162.937 83.5319,162.835 
  90.2817,161.869 97.0315,160.875 98.2748,160.687 103.781,159.853 110.531,158.8 112.791,158.437 117.281,157.715 124.031,156.596 126.419,156.187 130.78,155.44 
  137.53,154.245 139.211,153.937 144.28,153.009 151.03,151.727 151.233,151.687 157.779,150.399 162.483,149.437 164.529,149.02 171.279,147.588 173.09,147.187 
  178.029,146.1 183.102,144.937 184.778,144.555 191.528,142.953 192.604,142.687 198.278,141.296 201.656,140.437 205.028,139.587 210.398,138.187 211.778,137.831 
  218.527,136.035 218.885,135.938 225.277,134.207 227.148,133.688 232.027,132.35 235.285,131.438 238.777,130.472 243.332,129.188 245.526,128.577 251.317,126.938 
  252.276,126.67 259.026,124.754 259.257,124.688 265.776,122.835 267.156,122.438 272.525,120.914 275.058,120.188 279.275,118.995 282.978,117.938 286.025,117.081 
  290.934,115.688 292.775,115.174 298.945,113.438 299.525,113.278 306.274,111.396 307.016,111.188 313.024,109.533 315.176,108.938 319.774,107.691 323.469,106.689 
  326.524,105.876 331.94,104.439 333.273,104.092 340.023,102.347 340.638,102.189 346.773,100.648 349.644,99.9387 353.523,99.0054 359.141,97.6888 360.272,97.4311 
  367.022,95.9418 369.421,95.4389 373.772,94.5587 380.522,93.3126 381.272,93.189 387.272,92.2429 394.021,91.4147 400.545,90.939 400.771,90.9232 407.521,90.9104 
  407.788,90.939 414.271,91.5999 420.406,93.189 421.02,93.357 425.834,95.4389 427.77,96.4623 429.989,97.6888 433.455,99.9387 434.52,100.744 436.771,102.189 
  439.95,104.439 441.27,105.447 443.21,106.689 446.563,108.938 448.019,109.949 450.099,111.188 453.796,113.438 454.769,114.039 457.807,115.688 461.519,117.715 
  461.976,117.938 466.549,120.188 468.269,121.035 471.411,122.438 475.019,124.048 476.582,124.688 481.768,126.807 482.115,126.938 488.077,129.188 488.518,129.354 
  494.463,131.438 495.268,131.719 501.285,133.688 502.018,133.927 508.569,135.938 508.767,135.998 515.517,137.951 516.38,138.187 522.267,139.798 524.728,140.437 
  529.017,141.55 533.618,142.687 535.766,143.218 
  "/>
<polyline clip-path="url(#clip9802)" style="stroke:#808080; stroke-width:1; stroke-opacity:1; fill:none" points="
  535.766,126.831 529.017,125.155 527.228,124.688 522.267,123.396 518.774,122.438 515.517,121.547 510.817,120.188 508.767,119.598 503.336,117.938 502.018,117.537 
  496.307,115.688 495.268,115.353 489.703,113.438 488.518,113.033 483.492,111.188 481.768,110.561 477.636,108.938 475.019,107.923 472.091,106.689 468.269,105.104 
  466.803,104.439 461.727,102.189 461.519,102.099 456.971,99.9387 454.769,98.9309 452.306,97.6888 448.019,95.6404 447.636,95.4389 443.077,93.189 441.27,92.36 
  438.323,90.939 434.52,89.2775 433.138,88.6891 427.77,86.6345 427.164,86.4392 421.02,84.606 418.997,84.1893 414.271,83.24 407.521,82.4834 400.771,82.2281 
  394.021,82.368 387.272,82.8198 380.522,83.5182 375.415,84.1893 373.772,84.4112 367.022,85.4584 361.363,86.4392 360.272,86.6332 353.523,87.9107 349.63,88.6891 
  346.773,89.2741 340.023,90.7087 338.965,90.939 333.273,92.2032 328.936,93.189 326.524,93.7479 319.774,95.3348 319.334,95.4389 313.024,96.9578 310.011,97.6888 
  306.274,98.6105 300.912,99.9387 299.525,100.288 292.775,101.986 291.965,102.189 286.025,103.7 283.114,104.439 279.275,105.426 274.348,106.689 272.525,107.162 
  265.776,108.902 265.633,108.938 259.026,110.645 256.902,111.188 252.276,112.386 248.166,113.438 245.526,114.122 239.398,115.688 238.777,115.849 232.027,117.563 
  230.525,117.938 225.277,119.261 221.528,120.188 218.527,120.938 212.386,122.438 211.778,122.588 205.028,124.209 202.981,124.688 198.278,125.797 193.295,126.938 
  191.528,127.346 184.778,128.855 183.239,129.188 178.029,130.322 172.73,131.438 171.279,131.745 164.529,133.125 161.681,133.688 157.779,134.462 151.03,135.756 
  150.05,135.938 144.28,137.011 137.739,138.187 137.53,138.225 130.78,139.404 124.67,140.437 124.031,140.546 117.281,141.655 110.808,142.687 110.531,142.732 
  103.781,143.778 97.0315,144.796 96.068,144.937 90.2817,145.787 83.5319,146.751 80.3989,147.187 76.7822,147.691 70.0324,148.608 63.7685,149.437 63.2826,149.501 
  56.5328,150.375 49.7831,151.227 46.0577,151.687 45.7332,151.727 
  "/>
<polyline clip-path="url(#clip9802)" style="stroke:#808080; stroke-width:1; stroke-opacity:1; fill:none" points="
  45.7332,135.748 49.7831,135.25 56.5328,134.402 62.0897,133.688 63.2826,133.534 70.0324,132.647 76.7822,131.737 78.9517,131.438 83.5319,130.806 90.2817,129.851 
  94.8553,129.188 97.0315,128.872 103.781,127.868 109.873,126.938 110.531,126.837 117.281,125.78 124.031,124.692 124.055,124.688 130.78,123.575 137.464,122.438 
  137.53,122.427 144.28,121.247 150.165,120.188 151.03,120.033 157.779,118.786 162.24,117.938 164.529,117.505 171.279,116.189 173.774,115.688 178.029,114.839 
  184.778,113.456 184.861,113.438 191.528,112.041 195.498,111.188 198.278,110.596 205.028,109.122 205.849,108.938 211.778,107.624 215.918,106.689 218.527,106.104 
  225.277,104.565 225.82,104.439 232.027,103.011 235.553,102.189 238.777,101.445 245.23,99.9387 245.526,99.8703 252.276,98.2916 254.833,97.6888 259.026,96.7114 
  264.456,95.4389 265.776,95.1332 272.525,93.5609 274.116,93.189 279.275,91.9981 283.868,90.939 286.025,90.4482 292.775,88.9153 293.773,88.6891 299.525,87.404 
  303.885,86.4392 306.274,85.9183 313.024,84.4635 314.313,84.1893 319.774,83.0453 325.184,81.9393 326.524,81.67 333.273,80.345 336.737,79.6894 340.023,79.0786 
  346.773,77.8811 349.41,77.4395 353.523,76.7637 360.272,75.7412 364.328,75.1896 367.022,74.8302 373.772,74.0501 380.522,73.4279 387.272,72.9934 388.953,72.9397 
  394.021,72.7791 400.771,72.829 402.836,72.9397 407.521,73.1861 414.271,73.8944 421.02,74.9969 421.915,75.1896 427.77,76.4934 431.264,77.4395 434.52,78.3677 
  438.701,79.6894 441.27,80.5517 445.267,81.9393 448.019,82.9525 451.421,84.1893 454.769,85.471 457.399,86.4392 461.519,88.0222 463.349,88.6891 468.269,90.5444 
  469.379,90.939 475.019,92.9987 475.572,93.189 481.768,95.3635 481.997,95.4389 488.518,97.6292 488.706,97.6888 495.268,99.7934 495.748,99.9387 502.018,101.858 
  503.16,102.189 508.767,103.827 510.976,104.439 515.517,105.706 519.225,106.689 522.267,107.5 527.933,108.938 529.017,109.215 535.766,110.858 
  "/>
<polyline clip-path="url(#clip9802)" style="stroke:#808080; stroke-width:1; stroke-opacity:1; fill:none" points="
  535.766,95.2822 529.017,93.7087 526.879,93.189 522.267,92.076 517.752,90.939 515.517,90.3813 509.025,88.6891 508.767,88.6227 502.018,86.8012 500.736,86.4392 
  495.268,84.9159 492.774,84.1893 488.518,82.9695 485.077,81.9393 481.768,80.9682 477.584,79.6894 475.019,78.9234 470.22,77.4395 468.269,76.8525 462.883,75.1896 
  461.519,74.7814 455.435,72.9397 454.769,72.7451 448.019,70.7875 447.672,70.6897 441.27,68.9579 439.205,68.4398 434.52,67.3061 429.277,66.1899 427.77,65.8782 
  421.02,64.7017 415.341,63.94 414.271,63.7976 407.521,63.158 400.771,62.7773 394.021,62.6344 387.272,62.7056 380.522,62.9669 373.772,63.3958 367.385,63.94 
  367.022,63.9713 360.272,64.6718 353.523,65.4843 348.267,66.1899 346.773,66.3935 340.023,67.3856 333.346,68.4398 333.273,68.4515 326.524,69.5801 320.193,70.6897 
  319.774,70.7643 313.024,71.9961 308.005,72.9397 306.274,73.2694 299.525,74.5782 296.421,75.1896 292.775,75.9172 286.025,77.2817 285.248,77.4395 279.275,78.6676 
  274.342,79.6894 272.525,80.0703 265.776,81.4863 263.614,81.9393 259.026,82.9119 252.995,84.1893 252.276,84.3432 245.526,85.7777 242.395,86.4392 238.777,87.2113 
  232.027,88.6407 231.795,88.6891 225.277,90.0639 221.082,90.939 218.527,91.4766 211.778,92.8764 210.244,93.189 205.028,94.261 199.2,95.4389 198.278,95.6267 
  191.528,96.9726 187.863,97.6888 184.778,98.2956 178.029,99.5943 176.195,99.9387 171.279,100.868 164.529,102.114 164.114,102.189 157.779,103.334 151.518,104.439 
  151.03,104.525 144.28,105.69 138.344,106.689 137.53,106.826 130.78,107.936 124.527,108.938 124.031,109.018 117.281,110.075 110.531,111.107 109.981,111.188 
  103.781,112.114 97.0315,113.097 94.6264,113.438 90.2817,114.057 83.5319,114.995 78.4219,115.688 76.7822,115.911 70.0324,116.807 63.2826,117.683 61.2737,117.938 
  56.5328,118.54 49.7831,119.379 45.7332,119.872 
  "/>
<polyline clip-path="url(#clip9802)" style="stroke:#808080; stroke-width:1; stroke-opacity:1; fill:none" points="
  45.7332,104.095 49.7831,103.61 56.5328,102.785 61.3092,102.189 63.2826,101.943 70.0324,101.083 76.7822,100.205 78.7878,99.9387 83.5319,99.3091 90.2817,98.3934 
  95.3604,97.6888 97.0315,97.4575 103.781,96.5017 110.531,95.5243 111.107,95.4389 117.281,94.5261 124.031,93.5056 126.076,93.189 130.78,92.4632 137.53,91.3981 
  140.373,90.939 144.28,90.3106 151.03,89.2004 154.069,88.6891 157.779,88.0679 164.529,86.9134 167.242,86.4392 171.279,85.7376 178.029,84.541 179.973,84.1893 
  184.778,83.3253 191.528,82.091 192.342,81.9393 198.278,80.8408 204.415,79.6894 205.028,79.5753 211.778,78.2977 216.262,77.4395 218.527,77.0094 225.277,75.7133 
  227.979,75.1896 232.027,74.4118 238.777,73.1074 239.638,72.9397 245.526,71.8036 251.297,70.6897 252.276,70.5026 259.026,69.2082 263.045,68.4398 265.776,67.9232 
  272.525,66.6511 274.988,66.1899 279.275,65.3957 286.025,64.1605 287.243,63.94 292.775,62.9497 299.525,61.7677 299.976,61.69 306.274,60.619 313.024,59.5092 
  313.457,59.4401 319.774,58.4432 326.524,57.4281 328.184,57.1902 333.273,56.4697 340.023,55.5764 345.248,54.9403 346.773,54.7567 353.523,54.0187 360.272,53.3744 
  367.022,52.8354 369.326,52.6903 373.772,52.4124 380.522,52.1196 387.272,51.9718 394.021,51.9833 400.771,52.1679 407.521,52.538 409.352,52.6903 414.271,53.0995 
  421.02,53.858 427.77,54.8136 428.534,54.9403 434.52,55.9503 440.937,57.1902 441.27,57.2559 448.019,58.7023 451.254,59.4401 454.769,60.2638 460.638,61.69 
  461.519,61.91 468.269,63.6127 469.567,63.94 475.019,65.3469 478.318,66.1899 481.768,67.0906 487.037,68.4398 488.518,68.8266 495.268,70.5423 495.866,70.6897 
  502.018,72.2294 504.944,72.9397 508.767,73.8799 514.271,75.1896 515.517,75.4895 522.267,77.057 523.972,77.4395 529.017,78.581 534.085,79.6894 535.766,80.0601 
  
  "/>
<polyline clip-path="url(#clip9802)" style="stroke:#808080; stroke-width:1; stroke-opacity:1; fill:none" points="
  535.766,65.1341 529.898,63.94 529.017,63.7623 522.267,62.3613 519.115,61.69 515.517,60.9317 508.767,59.4763 508.604,59.4401 502.018,58.0009 498.373,57.1902 
  495.268,56.5093 488.518,55.0094 488.212,54.9403 481.768,53.5117 478.066,52.6903 475.019,52.0266 468.269,50.5685 467.669,50.4404 461.519,49.1537 456.745,48.1905 
  454.769,47.7996 448.019,46.5247 444.699,45.9406 441.27,45.3477 434.52,44.2855 430.233,43.6907 427.77,43.353 421.02,42.5598 414.271,41.9157 407.764,41.4407 
  407.521,41.423 400.771,41.078 394.021,40.88 387.272,40.8224 380.522,40.8973 373.772,41.0958 367.022,41.4087 366.501,41.4407 360.272,41.825 353.523,42.3372 
  346.773,42.9367 340.023,43.6151 339.336,43.6907 333.273,44.3633 326.524,45.1756 320.579,45.9406 319.774,46.0453 313.024,46.9652 306.274,47.931 304.519,48.1905 
  299.525,48.9366 292.775,49.9776 289.844,50.4404 286.025,51.0495 279.275,52.1481 275.995,52.6903 272.525,53.2695 265.776,54.4102 262.666,54.9403 259.026,55.5665 
  252.276,56.7354 249.657,57.1902 245.526,57.9137 238.777,59.0984 236.825,59.4401 232.027,60.287 225.277,61.4763 224.055,61.69 218.527,62.6646 211.778,63.8486 
  211.251,63.94 205.028,65.0272 198.319,66.1899 198.278,66.1971 191.528,67.3577 185.166,68.4398 184.778,68.5061 178.029,69.6419 171.716,70.6897 171.279,70.7627 
  164.529,71.8685 157.887,72.9397 157.779,72.9571 151.03,74.0291 144.28,75.0827 143.581,75.1896 137.53,76.1186 130.78,77.1356 128.721,77.4395 124.031,78.1343 
  117.281,79.1141 113.236,79.6894 110.531,80.0754 103.781,81.0184 97.0573,81.9393 97.0315,81.9429 90.2817,82.8501 83.5319,83.7394 80.0463,84.1893 76.7822,84.6115 
  70.0324,85.4671 63.2826,86.3059 62.1881,86.4392 56.5328,87.1292 49.7831,87.9367 45.7332,88.412 
  "/>
<polyline clip-path="url(#clip9802)" style="stroke:#808080; stroke-width:1; stroke-opacity:1; fill:none" points="
  535.766,230.03 529.017,228.852 525.278,228.184 522.267,227.643 515.517,226.405 513.003,225.934 508.767,225.136 502.018,223.836 501.244,223.685 495.268,222.505 
  489.949,221.435 488.518,221.143 481.768,219.752 479.047,219.185 475.019,218.333 468.48,216.935 468.269,216.889 461.519,215.423 458.132,214.685 454.769,213.94 
  448.019,212.448 447.958,212.435 441.27,210.955 437.721,210.185 434.52,209.475 427.77,208.022 427.343,207.935 421.02,206.612 416.324,205.685 414.271,205.27 
  407.521,204.016 404.044,203.435 400.771,202.876 394.021,201.874 388.476,201.185 387.272,201.033 380.522,200.366 373.772,199.891 367.022,199.612 360.272,199.528 
  353.523,199.633 346.773,199.917 340.023,200.369 333.273,200.975 331.389,201.185 326.524,201.718 319.774,202.585 313.921,203.435 313.024,203.563 306.274,204.636 
  300.186,205.685 299.525,205.797 292.775,207.03 288.092,207.935 286.025,208.328 279.275,209.68 276.861,210.185 272.525,211.077 266.149,212.435 265.776,212.513 
  259.026,213.976 255.834,214.685 252.276,215.462 245.645,216.935 245.526,216.961 238.777,218.463 235.557,219.185 232.027,219.963 225.353,221.435 225.277,221.451 
  218.527,222.919 214.962,223.685 211.778,224.36 205.028,225.768 204.216,225.934 198.278,227.139 192.997,228.184 191.528,228.472 184.778,229.766 181.193,230.434 
  178.029,231.02 171.279,232.236 168.721,232.684 164.529,233.415 157.779,234.559 155.505,234.934 151.03,235.669 144.28,236.748 141.479,237.184 137.53,237.797 
  130.78,238.817 126.589,239.434 124.031,239.81 117.281,240.777 110.788,241.684 110.531,241.72 103.781,242.64 97.0315,243.537 93.9812,243.934 90.2817,244.414 
  83.5319,245.271 76.7822,246.108 76.1601,246.184 70.0324,246.928 63.2826,247.73 57.2298,248.434 56.5328,248.515 49.7831,249.284 45.7332,249.736 
  "/>
<polyline clip-path="url(#clip9802)" style="stroke:#808080; stroke-width:1; stroke-opacity:1; fill:none" points="
  136.477,255.183 137.53,255.034 144.28,254.06 151.03,253.063 151.888,252.934 157.779,252.042 164.529,250.997 166.516,250.684 171.279,249.928 178.029,248.833 
  180.45,248.434 184.778,247.714 191.528,246.571 193.784,246.184 198.278,245.405 205.028,244.218 206.627,243.934 211.778,243.011 218.527,241.789 219.107,241.684 
  225.277,240.555 231.381,239.434 232.027,239.314 238.777,238.071 243.634,237.184 245.526,236.834 252.276,235.607 256.052,234.934 259.026,234.397 265.776,233.212 
  268.885,232.684 272.525,232.058 279.275,230.942 282.501,230.434 286.025,229.872 292.775,228.855 297.527,228.184 299.525,227.899 306.274,227.011 313.024,226.202 
  315.531,225.934 319.774,225.477 326.524,224.846 333.273,224.318 340.023,223.902 344.964,223.685 346.773,223.604 353.523,223.429 360.272,223.385 367.022,223.474 
  373.393,223.685 373.772,223.697 380.522,224.051 387.272,224.533 394.021,225.137 400.771,225.854 401.432,225.934 407.521,226.669 414.271,227.574 418.444,228.184 
  421.02,228.555 427.77,229.598 432.909,230.434 434.52,230.692 441.27,231.824 446.252,232.684 448.019,232.985 454.769,234.164 459.112,234.934 461.519,235.355 
  468.269,236.55 471.833,237.184 475.019,237.744 481.768,238.932 484.623,239.434 488.518,240.111 495.268,241.278 497.632,241.684 502.018,242.43 508.767,243.566 
  510.975,243.934 515.517,244.685 522.267,245.785 524.748,246.184 529.017,246.866 535.766,247.928 
  "/>
<polyline clip-path="url(#clip9802)" style="stroke:#808080; stroke-width:1; stroke-opacity:1; fill:none" points="
  462.7,255.183 461.519,255.009 454.769,254.036 448.019,253.083 446.923,252.934 441.27,252.155 434.52,251.26 429.948,250.684 427.77,250.406 421.02,249.598 
  414.271,248.846 410.213,248.434 407.521,248.157 400.771,247.539 394.021,246.999 387.272,246.544 380.591,246.184 380.522,246.18 373.772,245.909 367.022,245.735 
  360.272,245.66 353.523,245.685 346.773,245.807 340.023,246.026 336.594,246.184 333.273,246.336 326.524,246.733 319.774,247.214 313.024,247.774 306.274,248.406 
  306.009,248.434 299.525,249.103 292.775,249.862 286.025,250.676 285.966,250.684 279.275,251.537 272.525,252.442 269.018,252.934 265.776,253.383 259.026,254.356 
  253.442,255.183 
  "/>
<polyline clip-path="url(#clip9802)" style="stroke:#000000; stroke-width:2; stroke-opacity:1; fill:none" points="
  208.369,181.903 417.679,105.721 
  "/>
</svg>
