<?xml version="1.0" encoding="utf-8"?>
<svg xmlns="http://www.w3.org/2000/svg" xmlns:xlink="http://www.w3.org/1999/xlink" width="600" height="400" viewBox="0 0 600 400">
<defs>
  <clipPath id="clip00">
    <rect x="0" y="0" width="600" height="400"/>
  </clipPath>
</defs>
<polygon clip-path="url(#clip2400)" points="
0,400 600,400 600,0 0,0 
  " fill="#ffffff" fill-opacity="1"/>
<defs>
  <clipPath id="clip01">
    <rect x="120" y="0" width="421" height="400"/>
  </clipPath>
</defs>
<polygon clip-path="url(#clip2400)" points="
105.19,360.065 523.095,360.065 523.095,11.811 105.19,11.811 
  " fill="#ffffff" fill-opacity="1"/>
<defs>
  <clipPath id="clip02">
    <rect x="105" y="11" width="419" height="349"/>
  </clipPath>
</defs>
<polyline clip-path="url(#clip2400)" style="stroke:#000000; stroke-width:1; stroke-opacity:1; fill:none" points="
  105.19,360.065 523.095,360.065 
  "/>
<polyline clip-path="url(#clip2400)" style="stroke:#000000; stroke-width:1; stroke-opacity:1; fill:none" points="
  105.19,360.065 105.19,11.811 
  "/>
<polyline clip-path="url(#clip2400)" style="stroke:#000000; stroke-width:1; stroke-opacity:1; fill:none" points="
  140.015,360.065 140.015,354.842 
  "/>
<polyline clip-path="url(#clip2400)" style="stroke:#000000; stroke-width:1; stroke-opacity:1; fill:none" points="
  227.079,360.065 227.079,354.842 
  "/>
<polyline clip-path="url(#clip2400)" style="stroke:#000000; stroke-width:1; stroke-opacity:1; fill:none" points="
  314.143,360.065 314.143,354.842 
  "/>
<polyline clip-path="url(#clip2400)" style="stroke:#000000; stroke-width:1; stroke-opacity:1; fill:none" points="
  401.206,360.065 401.206,354.842 
  "/>
<polyline clip-path="url(#clip2400)" style="stroke:#000000; stroke-width:1; stroke-opacity:1; fill:none" points="
  488.27,360.065 488.27,354.842 
  "/>
<polyline clip-path="url(#clip2400)" style="stroke:#000000; stroke-width:1; stroke-opacity:1; fill:none" points="
  105.19,273.002 111.458,273.002 
  "/>
<polyline clip-path="url(#clip2400)" style="stroke:#000000; stroke-width:1; stroke-opacity:1; fill:none" points="
  105.19,185.938 111.458,185.938 
  "/>
<polyline clip-path="url(#clip2400)" style="stroke:#000000; stroke-width:1; stroke-opacity:1; fill:none" points="
  105.19,98.8746 111.458,98.8746 
  "/>
<polyline clip-path="url(#clip2400)" style="stroke:#000000; stroke-width:1; stroke-opacity:1; fill:none" points="
  105.19,11.811 111.458,11.811 
  "/>
<g clip-path="url(#clip2400)">
<text style="fill:#000000; fill-opacity:1; font-family:Arial,Helvetica Neue,Helvetica,sans-serif; font-size:12; text-anchor:middle;" transform="rotate(0, 140.015, 373.865)" x="140.015" y="373.865">-1.0</text>
</g>
<g clip-path="url(#clip2400)">
<text style="fill:#000000; fill-opacity:1; font-family:Arial,Helvetica Neue,Helvetica,sans-serif; font-size:12; text-anchor:middle;" transform="rotate(0, 227.079, 373.865)" x="227.079" y="373.865">-0.5</text>
</g>
<g clip-path="url(#clip2400)">
<text style="fill:#000000; fill-opacity:1; font-family:Arial,Helvetica Neue,Helvetica,sans-serif; font-size:12; text-anchor:middle;" transform="rotate(0, 314.143, 373.865)" x="314.143" y="373.865">0.0</text>
</g>
<g clip-path="url(#clip2400)">
<text style="fill:#000000; fill-opacity:1; font-family:Arial,Helvetica Neue,Helvetica,sans-serif; font-size:12; text-anchor:middle;" transform="rotate(0, 401.206, 373.865)" x="401.206" y="373.865">0.5</text>
</g>
<g clip-path="url(#clip2400)">
<text style="fill:#000000; fill-opacity:1; font-family:Arial,Helvetica Neue,Helvetica,sans-serif; font-size:12; text-anchor:middle;" transform="rotate(0, 488.27, 373.865)" x="488.27" y="373.865">1.0</text>
</g>
<g clip-path="url(#clip2400)">
<text style="fill:#000000; fill-opacity:1; font-family:Arial,Helvetica Neue,Helvetica,sans-serif; font-size:12; text-anchor:end;" transform="rotate(0, 99.1899, 277.502)" x="99.1899" y="277.502">0.5</text>
</g>
<g clip-path="url(#clip2400)">
<text style="fill:#000000; fill-opacity:1; font-family:Arial,Helvetica Neue,Helvetica,sans-serif; font-size:12; text-anchor:end;" transform="rotate(0, 99.1899, 190.438)" x="99.1899" y="190.438">1.0</text>
</g>
<g clip-path="url(#clip2400)">
<text style="fill:#000000; fill-opacity:1; font-family:Arial,Helvetica Neue,Helvetica,sans-serif; font-size:12; text-anchor:end;" transform="rotate(0, 99.1899, 103.375)" x="99.1899" y="103.375">1.5</text>
</g>
<g clip-path="url(#clip2400)">
<text style="fill:#000000; fill-opacity:1; font-family:Arial,Helvetica Neue,Helvetica,sans-serif; font-size:12; text-anchor:end;" transform="rotate(0, 99.1899, 16.311)" x="99.1899" y="16.311">2.0</text>
</g>
<g clip-path="url(#clip2400)">
<text style="fill:#000000; fill-opacity:1; font-family:Arial,Helvetica Neue,Helvetica,sans-serif; font-size:16; text-anchor:middle;" transform="rotate(0, 314.143, 397.6)" x="314.143" y="397.6">t</text>
</g>
<g clip-path="url(#clip2400)">
<text style="fill:#000000; fill-opacity:1; font-family:Arial,Helvetica Neue,Helvetica,sans-serif; font-size:16; text-anchor:middle;" transform="rotate(-90, 14.4, 185.938)" x="14.4" y="185.938">Smoothed Ramp</text>
</g>
<polyline clip-path="url(#clip2402)" style="stroke:#009af9; stroke-width:2; stroke-opacity:1; fill:none" points="
  140.015,360.065 144.39,360.065 
  "/>
<polyline clip-path="url(#clip2402)" style="stroke:#009af9; stroke-width:2; stroke-opacity:1; fill:none" points="
  144.39,360.065 148.765,360.065 
  "/>
<polyline clip-path="url(#clip2402)" style="stroke:#009af9; stroke-width:2; stroke-opacity:1; fill:none" points="
  148.765,360.065 153.14,360.065 
  "/>
<polyline clip-path="url(#clip2402)" style="stroke:#009af9; stroke-width:2; stroke-opacity:1; fill:none" points="
  153.14,360.065 157.516,360.065 
  "/>
<polyline clip-path="url(#clip2402)" style="stroke:#009af9; stroke-width:2; stroke-opacity:1; fill:none" points="
  157.516,360.065 161.891,360.065 
  "/>
<polyline clip-path="url(#clip2402)" style="stroke:#009af9; stroke-width:2; stroke-opacity:1; fill:none" points="
  161.891,360.065 166.266,360.065 
  "/>
<polyline clip-path="url(#clip2402)" style="stroke:#009af9; stroke-width:2; stroke-opacity:1; fill:none" points="
  166.266,360.065 170.641,360.065 
  "/>
<polyline clip-path="url(#clip2402)" style="stroke:#009af9; stroke-width:2; stroke-opacity:1; fill:none" points="
  170.641,360.065 175.016,360.065 
  "/>
<polyline clip-path="url(#clip2402)" style="stroke:#009af9; stroke-width:2; stroke-opacity:1; fill:none" points="
  175.016,360.065 179.391,360.064 
  "/>
<polyline clip-path="url(#clip2402)" style="stroke:#009af9; stroke-width:2; stroke-opacity:1; fill:none" points="
  179.391,360.064 183.766,360.064 
  "/>
<polyline clip-path="url(#clip2402)" style="stroke:#009af9; stroke-width:2; stroke-opacity:1; fill:none" points="
  183.766,360.064 188.141,360.063 
  "/>
<polyline clip-path="url(#clip2402)" style="stroke:#009af9; stroke-width:2; stroke-opacity:1; fill:none" points="
  188.141,360.063 192.516,360.062 
  "/>
<polyline clip-path="url(#clip2402)" style="stroke:#009af9; stroke-width:2; stroke-opacity:1; fill:none" points="
  192.516,360.062 196.891,360.061 
  "/>
<polyline clip-path="url(#clip2402)" style="stroke:#009af9; stroke-width:2; stroke-opacity:1; fill:none" points="
  196.891,360.061 201.266,360.059 
  "/>
<polyline clip-path="url(#clip2402)" style="stroke:#009af9; stroke-width:2; stroke-opacity:1; fill:none" points="
  201.266,360.059 205.641,360.057 
  "/>
<polyline clip-path="url(#clip2402)" style="stroke:#009af9; stroke-width:2; stroke-opacity:1; fill:none" points="
  205.641,360.057 210.016,360.054 
  "/>
<polyline clip-path="url(#clip2402)" style="stroke:#009af9; stroke-width:2; stroke-opacity:1; fill:none" points="
  210.016,360.054 214.391,360.051 
  "/>
<polyline clip-path="url(#clip2402)" style="stroke:#009af9; stroke-width:2; stroke-opacity:1; fill:none" points="
  214.391,360.051 218.766,360.045 
  "/>
<polyline clip-path="url(#clip2402)" style="stroke:#009af9; stroke-width:2; stroke-opacity:1; fill:none" points="
  218.766,360.045 223.141,360.038 
  "/>
<polyline clip-path="url(#clip2402)" style="stroke:#009af9; stroke-width:2; stroke-opacity:1; fill:none" points="
  223.141,360.038 227.516,360.028 
  "/>
<polyline clip-path="url(#clip2402)" style="stroke:#009af9; stroke-width:2; stroke-opacity:1; fill:none" points="
  227.516,360.028 231.891,360.015 
  "/>
<polyline clip-path="url(#clip2402)" style="stroke:#009af9; stroke-width:2; stroke-opacity:1; fill:none" points="
  231.891,360.015 236.267,359.998 
  "/>
<polyline clip-path="url(#clip2402)" style="stroke:#009af9; stroke-width:2; stroke-opacity:1; fill:none" points="
  236.267,359.998 240.642,359.974 
  "/>
<polyline clip-path="url(#clip2402)" style="stroke:#009af9; stroke-width:2; stroke-opacity:1; fill:none" points="
  240.642,359.974 245.017,359.942 
  "/>
<polyline clip-path="url(#clip2402)" style="stroke:#009af9; stroke-width:2; stroke-opacity:1; fill:none" points="
  245.017,359.942 249.392,359.899 
  "/>
<polyline clip-path="url(#clip2402)" style="stroke:#009af9; stroke-width:2; stroke-opacity:1; fill:none" points="
  249.392,359.899 253.767,359.841 
  "/>
<polyline clip-path="url(#clip2402)" style="stroke:#009af9; stroke-width:2; stroke-opacity:1; fill:none" points="
  253.767,359.841 258.142,359.763 
  "/>
<polyline clip-path="url(#clip2402)" style="stroke:#009af9; stroke-width:2; stroke-opacity:1; fill:none" points="
  258.142,359.763 262.517,359.658 
  "/>
<polyline clip-path="url(#clip2402)" style="stroke:#009af9; stroke-width:2; stroke-opacity:1; fill:none" points="
  262.517,359.658 266.892,359.517 
  "/>
<polyline clip-path="url(#clip2402)" style="stroke:#009af9; stroke-width:2; stroke-opacity:1; fill:none" points="
  266.892,359.517 271.267,359.329 
  "/>
<polyline clip-path="url(#clip2402)" style="stroke:#009af9; stroke-width:2; stroke-opacity:1; fill:none" points="
  271.267,359.329 275.642,359.078 
  "/>
<polyline clip-path="url(#clip2402)" style="stroke:#009af9; stroke-width:2; stroke-opacity:1; fill:none" points="
  275.642,359.078 280.017,358.746 
  "/>
<polyline clip-path="url(#clip2402)" style="stroke:#009af9; stroke-width:2; stroke-opacity:1; fill:none" points="
  280.017,358.746 284.392,358.309 
  "/>
<polyline clip-path="url(#clip2402)" style="stroke:#009af9; stroke-width:2; stroke-opacity:1; fill:none" points="
  284.392,358.309 288.767,357.738 
  "/>
<polyline clip-path="url(#clip2402)" style="stroke:#009af9; stroke-width:2; stroke-opacity:1; fill:none" points="
  288.767,357.738 293.142,357 
  "/>
<polyline clip-path="url(#clip2402)" style="stroke:#009af9; stroke-width:2; stroke-opacity:1; fill:none" points="
  293.142,357 297.517,356.059 
  "/>
<polyline clip-path="url(#clip2402)" style="stroke:#009af9; stroke-width:2; stroke-opacity:1; fill:none" points="
  297.517,356.059 301.892,354.877 
  "/>
<polyline clip-path="url(#clip2402)" style="stroke:#009af9; stroke-width:2; stroke-opacity:1; fill:none" points="
  301.892,354.877 306.267,353.417 
  "/>
<polyline clip-path="url(#clip2402)" style="stroke:#009af9; stroke-width:2; stroke-opacity:1; fill:none" points="
  306.267,353.417 310.643,351.652 
  "/>
<polyline clip-path="url(#clip2402)" style="stroke:#009af9; stroke-width:2; stroke-opacity:1; fill:none" points="
  310.643,351.652 315.018,349.563 
  "/>
<polyline clip-path="url(#clip2402)" style="stroke:#009af9; stroke-width:2; stroke-opacity:1; fill:none" points="
  315.018,349.563 319.393,347.146 
  "/>
<polyline clip-path="url(#clip2402)" style="stroke:#009af9; stroke-width:2; stroke-opacity:1; fill:none" points="
  319.393,347.146 323.768,344.411 
  "/>
<polyline clip-path="url(#clip2402)" style="stroke:#009af9; stroke-width:2; stroke-opacity:1; fill:none" points="
  323.768,344.411 328.143,341.381 
  "/>
<polyline clip-path="url(#clip2402)" style="stroke:#009af9; stroke-width:2; stroke-opacity:1; fill:none" points="
  328.143,341.381 332.518,338.087 
  "/>
<polyline clip-path="url(#clip2402)" style="stroke:#009af9; stroke-width:2; stroke-opacity:1; fill:none" points="
  332.518,338.087 336.893,334.567 
  "/>
<polyline clip-path="url(#clip2402)" style="stroke:#009af9; stroke-width:2; stroke-opacity:1; fill:none" points="
  336.893,334.567 341.268,330.859 
  "/>
<polyline clip-path="url(#clip2402)" style="stroke:#009af9; stroke-width:2; stroke-opacity:1; fill:none" points="
  341.268,330.859 345.643,326.998 
  "/>
<polyline clip-path="url(#clip2402)" style="stroke:#009af9; stroke-width:2; stroke-opacity:1; fill:none" points="
  345.643,326.998 350.018,323.014 
  "/>
<polyline clip-path="url(#clip2402)" style="stroke:#009af9; stroke-width:2; stroke-opacity:1; fill:none" points="
  350.018,323.014 354.393,318.936 
  "/>
<polyline clip-path="url(#clip2402)" style="stroke:#009af9; stroke-width:2; stroke-opacity:1; fill:none" points="
  354.393,318.936 358.768,314.785 
  "/>
<polyline clip-path="url(#clip2402)" style="stroke:#009af9; stroke-width:2; stroke-opacity:1; fill:none" points="
  358.768,314.785 363.143,310.578 
  "/>
<polyline clip-path="url(#clip2402)" style="stroke:#009af9; stroke-width:2; stroke-opacity:1; fill:none" points="
  363.143,310.578 367.518,306.328 
  "/>
<polyline clip-path="url(#clip2402)" style="stroke:#009af9; stroke-width:2; stroke-opacity:1; fill:none" points="
  367.518,306.328 371.893,302.046 
  "/>
<polyline clip-path="url(#clip2402)" style="stroke:#009af9; stroke-width:2; stroke-opacity:1; fill:none" points="
  371.893,302.046 376.268,297.74 
  "/>
<polyline clip-path="url(#clip2402)" style="stroke:#009af9; stroke-width:2; stroke-opacity:1; fill:none" points="
  376.268,297.74 380.643,293.417 
  "/>
<polyline clip-path="url(#clip2402)" style="stroke:#009af9; stroke-width:2; stroke-opacity:1; fill:none" points="
  380.643,293.417 385.018,289.08 
  "/>
<polyline clip-path="url(#clip2402)" style="stroke:#009af9; stroke-width:2; stroke-opacity:1; fill:none" points="
  385.018,289.08 389.394,284.734 
  "/>
<polyline clip-path="url(#clip2402)" style="stroke:#009af9; stroke-width:2; stroke-opacity:1; fill:none" points="
  389.394,284.734 393.769,280.38 
  "/>
<polyline clip-path="url(#clip2402)" style="stroke:#009af9; stroke-width:2; stroke-opacity:1; fill:none" points="
  393.769,280.38 398.144,276.02 
  "/>
<polyline clip-path="url(#clip2402)" style="stroke:#009af9; stroke-width:2; stroke-opacity:1; fill:none" points="
  398.144,276.02 402.519,271.657 
  "/>
<polyline clip-path="url(#clip2402)" style="stroke:#009af9; stroke-width:2; stroke-opacity:1; fill:none" points="
  402.519,271.657 406.894,267.29 
  "/>
<polyline clip-path="url(#clip2402)" style="stroke:#009af9; stroke-width:2; stroke-opacity:1; fill:none" points="
  406.894,267.29 411.269,262.921 
  "/>
<polyline clip-path="url(#clip2402)" style="stroke:#009af9; stroke-width:2; stroke-opacity:1; fill:none" points="
  411.269,262.921 415.644,258.551 
  "/>
<polyline clip-path="url(#clip2402)" style="stroke:#009af9; stroke-width:2; stroke-opacity:1; fill:none" points="
  415.644,258.551 420.019,254.179 
  "/>
<polyline clip-path="url(#clip2402)" style="stroke:#009af9; stroke-width:2; stroke-opacity:1; fill:none" points="
  420.019,254.179 424.394,249.807 
  "/>
<polyline clip-path="url(#clip2402)" style="stroke:#009af9; stroke-width:2; stroke-opacity:1; fill:none" points="
  424.394,249.807 428.769,245.434 
  "/>
<polyline clip-path="url(#clip2402)" style="stroke:#009af9; stroke-width:2; stroke-opacity:1; fill:none" points="
  428.769,245.434 433.144,241.06 
  "/>
<polyline clip-path="url(#clip2402)" style="stroke:#009af9; stroke-width:2; stroke-opacity:1; fill:none" points="
  433.144,241.06 437.519,236.686 
  "/>
<polyline clip-path="url(#clip2402)" style="stroke:#009af9; stroke-width:2; stroke-opacity:1; fill:none" points="
  437.519,236.686 441.894,232.312 
  "/>
<polyline clip-path="url(#clip2402)" style="stroke:#009af9; stroke-width:2; stroke-opacity:1; fill:none" points="
  441.894,232.312 446.269,227.937 
  "/>
<polyline clip-path="url(#clip2402)" style="stroke:#009af9; stroke-width:2; stroke-opacity:1; fill:none" points="
  446.269,227.937 450.644,223.563 
  "/>
<polyline clip-path="url(#clip2402)" style="stroke:#009af9; stroke-width:2; stroke-opacity:1; fill:none" points="
  450.644,223.563 455.019,219.188 
  "/>
<polyline clip-path="url(#clip2402)" style="stroke:#009af9; stroke-width:2; stroke-opacity:1; fill:none" points="
  455.019,219.188 459.394,214.813 
  "/>
<polyline clip-path="url(#clip2402)" style="stroke:#009af9; stroke-width:2; stroke-opacity:1; fill:none" points="
  459.394,214.813 463.769,210.438 
  "/>
<polyline clip-path="url(#clip2402)" style="stroke:#009af9; stroke-width:2; stroke-opacity:1; fill:none" points="
  463.769,210.438 468.145,206.063 
  "/>
<polyline clip-path="url(#clip2402)" style="stroke:#009af9; stroke-width:2; stroke-opacity:1; fill:none" points="
  468.145,206.063 472.52,201.688 
  "/>
<polyline clip-path="url(#clip2402)" style="stroke:#009af9; stroke-width:2; stroke-opacity:1; fill:none" points="
  472.52,201.688 476.895,197.313 
  "/>
<polyline clip-path="url(#clip2402)" style="stroke:#009af9; stroke-width:2; stroke-opacity:1; fill:none" points="
  476.895,197.313 481.27,192.938 
  "/>
<polyline clip-path="url(#clip2402)" style="stroke:#009af9; stroke-width:2; stroke-opacity:1; fill:none" points="
  481.27,192.938 485.645,188.563 
  "/>
<polyline clip-path="url(#clip2402)" style="stroke:#009af9; stroke-width:2; stroke-opacity:1; fill:none" points="
  485.645,188.563 490.02,184.188 
  "/>
<polyline clip-path="url(#clip2402)" style="stroke:#009af9; stroke-width:2; stroke-opacity:1; fill:none" points="
  490.02,184.188 494.395,179.813 
  "/>
<polyline clip-path="url(#clip2402)" style="stroke:#009af9; stroke-width:2; stroke-opacity:1; fill:none" points="
  494.395,179.813 498.77,175.438 
  "/>
<polyline clip-path="url(#clip2402)" style="stroke:#009af9; stroke-width:2; stroke-opacity:1; fill:none" points="
  498.77,175.438 503.145,171.063 
  "/>
<polyline clip-path="url(#clip2402)" style="stroke:#009af9; stroke-width:2; stroke-opacity:1; fill:none" points="
  503.145,171.063 507.52,166.688 
  "/>
<polyline clip-path="url(#clip2402)" style="stroke:#009af9; stroke-width:2; stroke-opacity:1; fill:none" points="
  507.52,166.688 511.895,162.313 
  "/>
<polyline clip-path="url(#clip2402)" style="stroke:#009af9; stroke-width:2; stroke-opacity:1; fill:none" points="
  511.895,162.313 516.27,157.938 
  "/>
<polyline clip-path="url(#clip2402)" style="stroke:#009af9; stroke-width:2; stroke-opacity:1; fill:none" points="
  516.27,157.938 520.645,153.563 
  "/>
<polyline clip-path="url(#clip2402)" style="stroke:#009af9; stroke-width:2; stroke-opacity:1; fill:none" points="
  520.645,153.563 525.02,149.188 
  "/>
<polyline clip-path="url(#clip2402)" style="stroke:#009af9; stroke-width:2; stroke-opacity:1; fill:none" points="
  525.02,149.188 529.395,144.813 
  "/>
<polyline clip-path="url(#clip2402)" style="stroke:#009af9; stroke-width:2; stroke-opacity:1; fill:none" points="
  529.395,144.813 533.77,140.438 
  "/>
<polyline clip-path="url(#clip2402)" style="stroke:#009af9; stroke-width:2; stroke-opacity:1; fill:none" points="
  533.77,140.438 538.145,136.063 
  "/>
<polyline clip-path="url(#clip2402)" style="stroke:#009af9; stroke-width:2; stroke-opacity:1; fill:none" points="
  538.145,136.063 542.52,131.688 
  "/>
<polyline clip-path="url(#clip2402)" style="stroke:#009af9; stroke-width:2; stroke-opacity:1; fill:none" points="
  542.52,131.688 546.896,127.313 
  "/>
<polyline clip-path="url(#clip2402)" style="stroke:#009af9; stroke-width:2; stroke-opacity:1; fill:none" points="
  546.896,127.313 551.271,122.937 
  "/>
<polyline clip-path="url(#clip2402)" style="stroke:#009af9; stroke-width:2; stroke-opacity:1; fill:none" points="
  551.271,122.937 555.646,118.562 
  "/>
<polyline clip-path="url(#clip2402)" style="stroke:#009af9; stroke-width:2; stroke-opacity:1; fill:none" points="
  555.646,118.562 560.021,114.187 
  "/>
<polyline clip-path="url(#clip2402)" style="stroke:#009af9; stroke-width:2; stroke-opacity:1; fill:none" points="
  560.021,114.187 564.396,109.812 
  "/>
<polyline clip-path="url(#clip2402)" style="stroke:#009af9; stroke-width:2; stroke-opacity:1; fill:none" points="
  564.396,109.812 568.771,105.437 
  "/>
<polyline clip-path="url(#clip2402)" style="stroke:#009af9; stroke-width:2; stroke-opacity:1; fill:none" points="
  568.771,105.437 573.146,101.062 
  "/>
<polyline clip-path="url(#clip2402)" style="stroke:#009af9; stroke-width:2; stroke-opacity:1; fill:none" points="
  573.146,101.062 577.521,96.6871 
  "/>
<polyline clip-path="url(#clip2402)" style="stroke:#009af9; stroke-width:2; stroke-opacity:1; fill:none" points="
  577.521,96.6871 581.896,92.3121 
  "/>
<polyline clip-path="url(#clip2402)" style="stroke:#009af9; stroke-width:2; stroke-opacity:1; fill:none" points="
  581.896,92.3121 586.271,87.937 
  "/>
<polyline clip-path="url(#clip2402)" style="stroke:#009af9; stroke-width:2; stroke-opacity:1; fill:none" points="
  586.271,87.937 590.646,83.5623 
  "/>
<polyline clip-path="url(#clip2402)" style="stroke:#009af9; stroke-width:2; stroke-opacity:1; fill:none" points="
  590.646,83.5623 595.021,79.1886 
  "/>
<polyline clip-path="url(#clip2402)" style="stroke:#009af9; stroke-width:2; stroke-opacity:1; fill:none" points="
  595.021,79.1886 599.396,74.8183 
  "/>
<polyline clip-path="url(#clip2402)" style="stroke:#009af9; stroke-width:2; stroke-opacity:1; fill:none" points="
  599.396,74.8183 603.771,70.4554 
  "/>
<polyline clip-path="url(#clip2402)" style="stroke:#009af9; stroke-width:2; stroke-opacity:1; fill:none" points="
  603.771,70.4554 608.146,66.1075 
  "/>
<polyline clip-path="url(#clip2402)" style="stroke:#009af9; stroke-width:2; stroke-opacity:1; fill:none" points="
  608.146,66.1075 612.521,61.7853 
  "/>
<polyline clip-path="url(#clip2402)" style="stroke:#009af9; stroke-width:2; stroke-opacity:1; fill:none" points="
  612.521,61.7853 616.896,57.5043 
  "/>
<polyline clip-path="url(#clip2402)" style="stroke:#009af9; stroke-width:2; stroke-opacity:1; fill:none" points="
  616.896,57.5043 621.272,53.2839 
  "/>
<polyline clip-path="url(#clip2402)" style="stroke:#009af9; stroke-width:2; stroke-opacity:1; fill:none" points="
  621.272,53.2839 625.647,49.1481 
  "/>
<polyline clip-path="url(#clip2402)" style="stroke:#009af9; stroke-width:2; stroke-opacity:1; fill:none" points="
  625.647,49.1481 630.022,45.1241 
  "/>
<polyline clip-path="url(#clip2402)" style="stroke:#009af9; stroke-width:2; stroke-opacity:1; fill:none" points="
  630.022,45.1241 634.397,41.2415 
  "/>
<polyline clip-path="url(#clip2402)" style="stroke:#009af9; stroke-width:2; stroke-opacity:1; fill:none" points="
  634.397,41.2415 638.772,37.5313 
  "/>
<polyline clip-path="url(#clip2402)" style="stroke:#009af9; stroke-width:2; stroke-opacity:1; fill:none" points="
  638.772,37.5313 643.147,34.0239 
  "/>
<polyline clip-path="url(#clip2402)" style="stroke:#009af9; stroke-width:2; stroke-opacity:1; fill:none" points="
  643.147,34.0239 647.522,30.7479 
  "/>
<polyline clip-path="url(#clip2402)" style="stroke:#009af9; stroke-width:2; stroke-opacity:1; fill:none" points="
  647.522,30.7479 651.897,27.728 
  "/>
<polyline clip-path="url(#clip2402)" style="stroke:#009af9; stroke-width:2; stroke-opacity:1; fill:none" points="
  651.897,27.728 656.272,24.9842 
  "/>
<polyline clip-path="url(#clip2402)" style="stroke:#009af9; stroke-width:2; stroke-opacity:1; fill:none" points="
  656.272,24.9842 660.647,22.53 
  "/>
<polyline clip-path="url(#clip2402)" style="stroke:#009af9; stroke-width:2; stroke-opacity:1; fill:none" points="
  660.647,22.53 665.022,20.3722 
  "/>
<polyline clip-path="url(#clip2402)" style="stroke:#009af9; stroke-width:2; stroke-opacity:1; fill:none" points="
  665.022,20.3722 669.397,18.51 
  "/>
<polyline clip-path="url(#clip2402)" style="stroke:#009af9; stroke-width:2; stroke-opacity:1; fill:none" points="
  669.397,18.51 673.772,16.9353 
  "/>
<polyline clip-path="url(#clip2402)" style="stroke:#009af9; stroke-width:2; stroke-opacity:1; fill:none" points="
  673.772,16.9353 678.147,15.6331 
  "/>
<polyline clip-path="url(#clip2402)" style="stroke:#009af9; stroke-width:2; stroke-opacity:1; fill:none" points="
  678.147,15.6331 682.522,14.5825 
  "/>
<polyline clip-path="url(#clip2402)" style="stroke:#009af9; stroke-width:2; stroke-opacity:1; fill:none" points="
  682.522,14.5825 686.897,13.7578 
  "/>
<polyline clip-path="url(#clip2402)" style="stroke:#009af9; stroke-width:2; stroke-opacity:1; fill:none" points="
  686.897,13.7578 691.272,13.1299 
  "/>
<polyline clip-path="url(#clip2402)" style="stroke:#009af9; stroke-width:2; stroke-opacity:1; fill:none" points="
  691.272,13.1299 695.647,12.6681 
  "/>
<polyline clip-path="url(#clip2402)" style="stroke:#009af9; stroke-width:2; stroke-opacity:1; fill:none" points="
  695.647,12.6681 700.023,12.3418 
  "/>
<polyline clip-path="url(#clip2402)" style="stroke:#009af9; stroke-width:2; stroke-opacity:1; fill:none" points="
  700.023,12.3418 704.398,12.1215 
  "/>
<polyline clip-path="url(#clip2402)" style="stroke:#009af9; stroke-width:2; stroke-opacity:1; fill:none" points="
  704.398,12.1215 708.773,11.9807 
  "/>
<polyline clip-path="url(#clip2402)" style="stroke:#009af9; stroke-width:2; stroke-opacity:1; fill:none" points="
  708.773,11.9807 713.148,11.8963 
  "/>
<polyline clip-path="url(#clip2402)" style="stroke:#009af9; stroke-width:2; stroke-opacity:1; fill:none" points="
  713.148,11.8963 717.523,11.8497 
  "/>
<polyline clip-path="url(#clip2402)" style="stroke:#009af9; stroke-width:2; stroke-opacity:1; fill:none" points="
  717.523,11.8497 721.898,11.8263 
  "/>
<polyline clip-path="url(#clip2402)" style="stroke:#009af9; stroke-width:2; stroke-opacity:1; fill:none" points="
  721.898,11.8263 726.273,11.8161 
  "/>
<polyline clip-path="url(#clip2402)" style="stroke:#009af9; stroke-width:2; stroke-opacity:1; fill:none" points="
  726.273,11.8161 730.648,11.8123 
  "/>
<polyline clip-path="url(#clip2402)" style="stroke:#009af9; stroke-width:2; stroke-opacity:1; fill:none" points="
  730.648,11.8123 735.023,11.8112 
  "/>
<polyline clip-path="url(#clip2402)" style="stroke:#009af9; stroke-width:2; stroke-opacity:1; fill:none" points="
  735.023,11.8112 739.398,11.811 
  "/>
<polyline clip-path="url(#clip2402)" style="stroke:#009af9; stroke-width:2; stroke-opacity:1; fill:none" points="
  739.398,11.811 743.773,11.811 
  "/>
<polyline clip-path="url(#clip2402)" style="stroke:#009af9; stroke-width:2; stroke-opacity:1; fill:none" points="
  743.773,11.811 748.148,11.811 
  "/>
<polyline clip-path="url(#clip2402)" style="stroke:#009af9; stroke-width:2; stroke-opacity:1; fill:none" points="
  748.148,11.811 752.523,11.811 
  "/>
<polyline clip-path="url(#clip2402)" style="stroke:#009af9; stroke-width:2; stroke-opacity:1; fill:none" points="
  752.523,11.811 756.898,11.811 
  "/>
<polyline clip-path="url(#clip2402)" style="stroke:#009af9; stroke-width:2; stroke-opacity:1; fill:none" points="
  756.898,11.811 761.273,11.811 
  "/>
<polyline clip-path="url(#clip2402)" style="stroke:#009af9; stroke-width:2; stroke-opacity:1; fill:none" points="
  761.273,11.811 765.648,11.811 
  "/>
<polyline clip-path="url(#clip2402)" style="stroke:#009af9; stroke-width:2; stroke-opacity:1; fill:none" points="
  765.648,11.811 770.023,11.811 
  "/>
<polyline clip-path="url(#clip2402)" style="stroke:#009af9; stroke-width:2; stroke-opacity:1; fill:none" points="
  770.023,11.811 774.398,11.811 
  "/>
<polyline clip-path="url(#clip2402)" style="stroke:#009af9; stroke-width:2; stroke-opacity:1; fill:none" points="
  774.398,11.811 778.774,11.811 
  "/>
<polyline clip-path="url(#clip2402)" style="stroke:#009af9; stroke-width:2; stroke-opacity:1; fill:none" points="
  778.774,11.811 783.149,11.811 
  "/>
<polyline clip-path="url(#clip2402)" style="stroke:#009af9; stroke-width:2; stroke-opacity:1; fill:none" points="
  783.149,11.811 787.524,11.811 
  "/>
<polyline clip-path="url(#clip2402)" style="stroke:#009af9; stroke-width:2; stroke-opacity:1; fill:none" points="
  787.524,11.811 791.899,11.811 
  "/>
<polyline clip-path="url(#clip2402)" style="stroke:#009af9; stroke-width:2; stroke-opacity:1; fill:none" points="
  791.899,11.811 796.274,11.811 
  "/>
<polyline clip-path="url(#clip2402)" style="stroke:#009af9; stroke-width:2; stroke-opacity:1; fill:none" points="
  796.274,11.811 800.649,11.811 
  "/>
<polyline clip-path="url(#clip2402)" style="stroke:#009af9; stroke-width:2; stroke-opacity:1; fill:none" points="
  800.649,11.811 805.024,11.811 
  "/>
<polyline clip-path="url(#clip2402)" style="stroke:#009af9; stroke-width:2; stroke-opacity:1; fill:none" points="
  805.024,11.811 809.399,11.811 
  "/>
<polyline clip-path="url(#clip2402)" style="stroke:#009af9; stroke-width:2; stroke-opacity:1; fill:none" points="
  809.399,11.811 813.774,11.811 
  "/>
<polyline clip-path="url(#clip2402)" style="stroke:#009af9; stroke-width:2; stroke-opacity:1; fill:none" points="
  813.774,11.811 818.149,11.811 
  "/>
<polyline clip-path="url(#clip2402)" style="stroke:#009af9; stroke-width:2; stroke-opacity:1; fill:none" points="
  818.149,11.811 822.524,11.811 
  "/>
<polyline clip-path="url(#clip2402)" style="stroke:#009af9; stroke-width:2; stroke-opacity:1; fill:none" points="
  822.524,11.811 826.899,11.811 
  "/>
<polyline clip-path="url(#clip2402)" style="stroke:#009af9; stroke-width:2; stroke-opacity:1; fill:none" points="
  826.899,11.811 831.274,11.811 
  "/>
<polyline clip-path="url(#clip2402)" style="stroke:#009af9; stroke-width:2; stroke-opacity:1; fill:none" points="
  831.274,11.811 835.649,11.811 
  "/>
<polyline clip-path="url(#clip2402)" style="stroke:#009af9; stroke-width:2; stroke-opacity:1; fill:none" points="
  835.649,11.811 840.024,11.811 
  "/>
<polyline clip-path="url(#clip2402)" style="stroke:#009af9; stroke-width:2; stroke-opacity:1; fill:none" points="
  840.024,11.811 844.399,11.811 
  "/>
<polyline clip-path="url(#clip2402)" style="stroke:#009af9; stroke-width:2; stroke-opacity:1; fill:none" points="
  844.399,11.811 848.774,11.811 
  "/>
<polyline clip-path="url(#clip2402)" style="stroke:#009af9; stroke-width:2; stroke-opacity:1; fill:none" points="
  848.774,11.811 853.149,11.811 
  "/>
<polyline clip-path="url(#clip2402)" style="stroke:#009af9; stroke-width:2; stroke-opacity:1; fill:none" points="
  853.149,11.811 857.525,11.811 
  "/>
<polyline clip-path="url(#clip2402)" style="stroke:#009af9; stroke-width:2; stroke-opacity:1; fill:none" points="
  857.525,11.811 861.9,11.811 
  "/>
<polyline clip-path="url(#clip2402)" style="stroke:#009af9; stroke-width:2; stroke-opacity:1; fill:none" points="
  861.9,11.811 866.275,11.811 
  "/>
<polyline clip-path="url(#clip2402)" style="stroke:#009af9; stroke-width:2; stroke-opacity:1; fill:none" points="
  866.275,11.811 870.65,11.811 
  "/>
<polyline clip-path="url(#clip2402)" style="stroke:#009af9; stroke-width:2; stroke-opacity:1; fill:none" points="
  870.65,11.811 875.025,11.811 
  "/>
<polyline clip-path="url(#clip2402)" style="stroke:#009af9; stroke-width:2; stroke-opacity:1; fill:none" points="
  875.025,11.811 879.4,11.811 
  "/>
<polyline clip-path="url(#clip2402)" style="stroke:#009af9; stroke-width:2; stroke-opacity:1; fill:none" points="
  879.4,11.811 883.775,11.811 
  "/>
<polyline clip-path="url(#clip2402)" style="stroke:#009af9; stroke-width:2; stroke-opacity:1; fill:none" points="
  883.775,11.811 888.15,11.811 
  "/>
<polyline clip-path="url(#clip2402)" style="stroke:#009af9; stroke-width:2; stroke-opacity:1; fill:none" points="
  888.15,11.811 892.525,11.811 
  "/>
<polyline clip-path="url(#clip2402)" style="stroke:#009af9; stroke-width:2; stroke-opacity:1; fill:none" points="
  892.525,11.811 896.9,11.811 
  "/>
<polyline clip-path="url(#clip2402)" style="stroke:#009af9; stroke-width:2; stroke-opacity:1; fill:none" points="
  896.9,11.811 901.275,11.811 
  "/>
<polyline clip-path="url(#clip2402)" style="stroke:#009af9; stroke-width:2; stroke-opacity:1; fill:none" points="
  901.275,11.811 905.65,11.811 
  "/>
<polyline clip-path="url(#clip2402)" style="stroke:#009af9; stroke-width:2; stroke-opacity:1; fill:none" points="
  905.65,11.811 910.025,11.811 
  "/>
<polyline clip-path="url(#clip2402)" style="stroke:#009af9; stroke-width:2; stroke-opacity:1; fill:none" points="
  910.025,11.811 914.4,11.811 
  "/>
<polyline clip-path="url(#clip2402)" style="stroke:#009af9; stroke-width:2; stroke-opacity:1; fill:none" points="
  914.4,11.811 918.775,11.811 
  "/>
<polyline clip-path="url(#clip2402)" style="stroke:#009af9; stroke-width:2; stroke-opacity:1; fill:none" points="
  918.775,11.811 923.15,11.811 
  "/>
<polyline clip-path="url(#clip2402)" style="stroke:#009af9; stroke-width:2; stroke-opacity:1; fill:none" points="
  923.15,11.811 927.525,11.811 
  "/>
<polyline clip-path="url(#clip2402)" style="stroke:#009af9; stroke-width:2; stroke-opacity:1; fill:none" points="
  927.525,11.811 931.901,11.811 
  "/>
<polyline clip-path="url(#clip2402)" style="stroke:#009af9; stroke-width:2; stroke-opacity:1; fill:none" points="
  931.901,11.811 936.276,11.811 
  "/>
<polyline clip-path="url(#clip2402)" style="stroke:#009af9; stroke-width:2; stroke-opacity:1; fill:none" points="
  936.276,11.811 940.651,11.811 
  "/>
<polyline clip-path="url(#clip2402)" style="stroke:#009af9; stroke-width:2; stroke-opacity:1; fill:none" points="
  940.651,11.811 945.026,11.811 
  "/>
<polyline clip-path="url(#clip2402)" style="stroke:#009af9; stroke-width:2; stroke-opacity:1; fill:none" points="
  945.026,11.811 949.401,11.811 
  "/>
<polyline clip-path="url(#clip2402)" style="stroke:#009af9; stroke-width:2; stroke-opacity:1; fill:none" points="
  949.401,11.811 953.776,11.811 
  "/>
<polyline clip-path="url(#clip2402)" style="stroke:#009af9; stroke-width:2; stroke-opacity:1; fill:none" points="
  953.776,11.811 958.151,11.811 
  "/>
<polyline clip-path="url(#clip2402)" style="stroke:#009af9; stroke-width:2; stroke-opacity:1; fill:none" points="
  958.151,11.811 962.526,11.811 
  "/>
<polyline clip-path="url(#clip2402)" style="stroke:#009af9; stroke-width:2; stroke-opacity:1; fill:none" points="
  962.526,11.811 966.901,11.811 
  "/>
<polyline clip-path="url(#clip2402)" style="stroke:#009af9; stroke-width:2; stroke-opacity:1; fill:none" points="
  966.901,11.811 971.276,11.811 
  "/>
<polyline clip-path="url(#clip2402)" style="stroke:#009af9; stroke-width:2; stroke-opacity:1; fill:none" points="
  971.276,11.811 975.651,11.811 
  "/>
<polyline clip-path="url(#clip2402)" style="stroke:#009af9; stroke-width:2; stroke-opacity:1; fill:none" points="
  975.651,11.811 980.026,11.811 
  "/>
<polyline clip-path="url(#clip2402)" style="stroke:#009af9; stroke-width:2; stroke-opacity:1; fill:none" points="
  980.026,11.811 984.401,11.811 
  "/>
<polyline clip-path="url(#clip2402)" style="stroke:#009af9; stroke-width:2; stroke-opacity:1; fill:none" points="
  984.401,11.811 988.776,11.811 
  "/>
<polyline clip-path="url(#clip2402)" style="stroke:#009af9; stroke-width:2; stroke-opacity:1; fill:none" points="
  988.776,11.811 993.151,11.811 
  "/>
<polyline clip-path="url(#clip2402)" style="stroke:#009af9; stroke-width:2; stroke-opacity:1; fill:none" points="
  993.151,11.811 997.526,11.811 
  "/>
<polyline clip-path="url(#clip2402)" style="stroke:#009af9; stroke-width:2; stroke-opacity:1; fill:none" points="
  997.526,11.811 1001.9,11.811 
  "/>
<polyline clip-path="url(#clip2402)" style="stroke:#009af9; stroke-width:2; stroke-opacity:1; fill:none" points="
  1001.9,11.811 1006.28,11.811 
  "/>
<polyline clip-path="url(#clip2402)" style="stroke:#009af9; stroke-width:2; stroke-opacity:1; fill:none" points="
  1006.28,11.811 1010.65,11.811 
  "/>
</svg>
