<?xml version="1.0" encoding="utf-8"?>
<svg xmlns="http://www.w3.org/2000/svg" xmlns:xlink="http://www.w3.org/1999/xlink" width="150" height="100" viewBox="0 0 600 400">
<defs>
  <clipPath id="clip7000">
    <rect x="0" y="0" width="2000" height="2000"/>
  </clipPath>
</defs>
<defs>
  <clipPath id="clip7001">
    <rect x="0" y="0" width="600" height="400"/>
  </clipPath>
</defs>
<polygon clip-path="url(#clip7001)" points="
0,400 600,400 600,0 0,0 
  " fill="#ffffff" fill-opacity="1"/>
<defs>
  <clipPath id="clip7002">
    <rect x="120" y="0" width="421" height="400"/>
  </clipPath>
</defs>
<polygon clip-path="url(#clip7001)" points="
259.239,362.216 358.416,362.216 358.416,11.811 259.239,11.811 
  " fill="#ffffff" fill-opacity="1"/>
<defs>
  <clipPath id="clip7003">
    <rect x="259" y="11" width="100" height="351"/>
  </clipPath>
</defs>
<polyline clip-path="url(#clip7001)" style="stroke:#000000; stroke-width:1; stroke-opacity:1; fill:none" points="
  259.239,362.216 358.416,362.216 
  "/>
<polyline clip-path="url(#clip7001)" style="stroke:#000000; stroke-width:1; stroke-opacity:1; fill:none" points="
  259.239,362.216 259.239,11.811 
  "/>
<polyline clip-path="url(#clip7001)" style="stroke:#000000; stroke-width:1; stroke-opacity:1; fill:none" points="
  267.504,362.216 267.504,356.96 
  "/>
<polyline clip-path="url(#clip7001)" style="stroke:#000000; stroke-width:1; stroke-opacity:1; fill:none" points="
  288.166,362.216 288.166,356.96 
  "/>
<polyline clip-path="url(#clip7001)" style="stroke:#000000; stroke-width:1; stroke-opacity:1; fill:none" points="
  308.828,362.216 308.828,356.96 
  "/>
<polyline clip-path="url(#clip7001)" style="stroke:#000000; stroke-width:1; stroke-opacity:1; fill:none" points="
  329.489,362.216 329.489,356.96 
  "/>
<polyline clip-path="url(#clip7001)" style="stroke:#000000; stroke-width:1; stroke-opacity:1; fill:none" points="
  350.151,362.216 350.151,356.96 
  "/>
<polyline clip-path="url(#clip7001)" style="stroke:#000000; stroke-width:1; stroke-opacity:1; fill:none" points="
  259.239,352.304 260.727,352.304 
  "/>
<polyline clip-path="url(#clip7001)" style="stroke:#000000; stroke-width:1; stroke-opacity:1; fill:none" points="
  259.239,269.656 260.727,269.656 
  "/>
<polyline clip-path="url(#clip7001)" style="stroke:#000000; stroke-width:1; stroke-opacity:1; fill:none" points="
  259.239,187.009 260.727,187.009 
  "/>
<polyline clip-path="url(#clip7001)" style="stroke:#000000; stroke-width:1; stroke-opacity:1; fill:none" points="
  259.239,104.361 260.727,104.361 
  "/>
<polyline clip-path="url(#clip7001)" style="stroke:#000000; stroke-width:1; stroke-opacity:1; fill:none" points="
  259.239,21.7135 260.727,21.7135 
  "/>
<g clip-path="url(#clip7001)">
<text style="fill:#000000; fill-opacity:1; font-family:Arial,Helvetica Neue,Helvetica,sans-serif; font-size:12; text-anchor:middle;" transform="rotate(0, 267.504, 376.016)" x="267.504" y="376.016">-1.0</text>
</g>
<g clip-path="url(#clip7001)">
<text style="fill:#000000; fill-opacity:1; font-family:Arial,Helvetica Neue,Helvetica,sans-serif; font-size:12; text-anchor:middle;" transform="rotate(0, 288.166, 376.016)" x="288.166" y="376.016">-0.5</text>
</g>
<g clip-path="url(#clip7001)">
<text style="fill:#000000; fill-opacity:1; font-family:Arial,Helvetica Neue,Helvetica,sans-serif; font-size:12; text-anchor:middle;" transform="rotate(0, 308.828, 376.016)" x="308.828" y="376.016">0.0</text>
</g>
<g clip-path="url(#clip7001)">
<text style="fill:#000000; fill-opacity:1; font-family:Arial,Helvetica Neue,Helvetica,sans-serif; font-size:12; text-anchor:middle;" transform="rotate(0, 329.489, 376.016)" x="329.489" y="376.016">0.5</text>
</g>
<g clip-path="url(#clip7001)">
<text style="fill:#000000; fill-opacity:1; font-family:Arial,Helvetica Neue,Helvetica,sans-serif; font-size:12; text-anchor:middle;" transform="rotate(0, 350.151, 376.016)" x="350.151" y="376.016">1.0</text>
</g>
<g clip-path="url(#clip7001)">
<text style="fill:#000000; fill-opacity:1; font-family:Arial,Helvetica Neue,Helvetica,sans-serif; font-size:12; text-anchor:end;" transform="rotate(0, 253.239, 356.804)" x="253.239" y="356.804">-4</text>
</g>
<g clip-path="url(#clip7001)">
<text style="fill:#000000; fill-opacity:1; font-family:Arial,Helvetica Neue,Helvetica,sans-serif; font-size:12; text-anchor:end;" transform="rotate(0, 253.239, 274.156)" x="253.239" y="274.156">-2</text>
</g>
<g clip-path="url(#clip7001)">
<text style="fill:#000000; fill-opacity:1; font-family:Arial,Helvetica Neue,Helvetica,sans-serif; font-size:12; text-anchor:end;" transform="rotate(0, 253.239, 191.509)" x="253.239" y="191.509">0</text>
</g>
<g clip-path="url(#clip7001)">
<text style="fill:#000000; fill-opacity:1; font-family:Arial,Helvetica Neue,Helvetica,sans-serif; font-size:12; text-anchor:end;" transform="rotate(0, 253.239, 108.861)" x="253.239" y="108.861">2</text>
</g>
<g clip-path="url(#clip7001)">
<text style="fill:#000000; fill-opacity:1; font-family:Arial,Helvetica Neue,Helvetica,sans-serif; font-size:12; text-anchor:end;" transform="rotate(0, 253.239, 26.2135)" x="253.239" y="26.2135">4</text>
</g>
<g clip-path="url(#clip7001)">
<text style="fill:#000000; fill-opacity:1; font-family:Arial,Helvetica Neue,Helvetica,sans-serif; font-size:16; text-anchor:middle;" transform="rotate(0, 308.828, 397.6)" x="308.828" y="397.6">t</text>
</g>
<polyline clip-path="url(#clip7003)" style="stroke:#00bfff; stroke-width:2; stroke-opacity:1; fill:none" points="
  60.8848,164.835 63.3767,160.801 65.8686,157.148 68.3605,153.928 70.8524,151.189 73.3443,148.97 75.8362,147.303 78.328,146.214 80.8199,145.717 83.3118,145.82 
  85.8037,146.522 88.2956,147.811 90.7875,149.671 93.2794,152.072 95.7712,154.981 98.2631,158.355 100.755,162.146 103.247,166.298 105.739,170.75 108.231,175.439 
  110.723,180.296 113.214,185.251 115.706,190.231 118.198,195.164 120.69,199.978 123.182,204.605 125.674,208.975 128.166,213.027 130.658,216.7 133.15,219.943 
  135.641,222.706 138.133,224.952 140.625,226.645 143.117,227.764 145.609,228.29 148.101,228.216 150.593,227.544 153.085,226.283 155.577,224.451 158.068,222.075 
  160.56,219.19 163.052,215.838 165.544,212.066 168.036,207.931 170.528,203.491 173.02,198.813 175.512,193.962 178.004,189.011 180.495,184.031 182.987,179.093 
  185.479,174.271 187.971,169.634 190.463,165.249 192.955,161.181 195.447,157.488 197.939,154.223 200.43,151.435 202.922,149.163 205.414,147.442 207.906,146.295 
  210.398,145.74 212.89,145.784 215.382,146.427 217.874,147.659 220.366,149.464 222.857,151.813 225.349,154.674 227.841,158.005 230.333,161.757 232.825,165.876 
  235.317,170.302 237.809,174.971 240.301,179.814 242.793,184.762 245.284,189.743 247.776,194.684 250.268,199.513 252.76,204.161 255.252,208.56 257.744,212.645 
  260.236,216.358 262.728,219.645 265.22,222.458 267.711,224.755 270.203,226.504 272.695,227.68 275.187,228.265 277.679,228.25 280.171,227.636 282.663,226.432 
  285.155,224.655 287.647,222.331 290.138,219.495 292.63,216.186 295.122,212.453 297.614,208.351 300.106,203.938 302.598,199.28 305.09,194.444 307.582,189.499 
  310.074,184.518 312.565,179.574 315.057,174.737 317.549,170.079 320.041,165.667 322.533,161.564 325.025,157.832 327.517,154.523 330.009,151.686 332.5,149.362 
  334.992,147.585 337.484,146.381 339.976,145.768 342.468,145.753 344.96,146.337 347.452,147.513 349.944,149.262 352.436,151.56 354.927,154.372 357.419,157.659 
  359.911,161.372 362.403,165.458 364.895,169.856 367.387,174.504 369.879,179.333 372.371,184.274 374.863,189.255 377.354,194.203 379.846,199.047 382.338,203.715 
  384.83,208.141 387.322,212.26 389.814,216.012 392.306,219.343 394.798,222.204 397.29,224.554 399.781,226.358 402.273,227.591 404.765,228.234 407.257,228.278 
  409.749,227.722 412.241,226.576 414.733,224.854 417.225,222.583 419.717,219.794 422.208,216.53 424.7,212.836 427.192,208.768 429.684,204.383 432.176,199.746 
  434.668,194.924 437.16,189.987 439.652,185.006 442.143,180.055 444.635,175.205 447.127,170.526 449.619,166.087 452.111,161.951 454.603,158.18 457.095,154.827 
  459.587,151.942 462.079,149.566 464.57,147.735 467.062,146.474 469.554,145.801 472.046,145.728 474.538,146.254 477.03,147.372 479.522,149.066 482.014,151.311 
  484.506,154.075 486.997,157.317 489.489,160.991 491.981,165.042 494.473,169.413 496.965,174.039 499.457,178.854 501.949,183.787 504.441,188.767 506.933,193.721 
  509.424,198.578 511.916,203.267 514.408,207.72 516.9,211.871 519.392,215.662 521.884,219.036 524.376,221.945 526.868,224.347 529.36,226.206 531.851,227.496 
  534.343,228.197 536.835,228.3 539.327,227.803 541.819,226.714 544.311,225.048 546.803,222.829 549.295,220.09 551.787,216.87 554.278,213.216 556.77,209.182 
  
  "/>
<polyline clip-path="url(#clip7003)" style="stroke:#d3ca3a; stroke-width:2; stroke-opacity:1; fill:none" points="
  60.8848,37.0121 63.3767,29.7459 65.8686,24.7643 68.3605,22.1397 70.8524,21.9102 73.3443,24.0792 75.8362,28.6151 78.328,35.4521 80.8199,44.4908 83.3118,55.6 
  85.8037,68.6181 88.2956,83.3562 90.7875,99.6001 93.2794,117.114 95.7712,135.643 98.2631,154.918 100.755,174.66 103.247,194.581 105.739,214.392 108.231,233.805 
  110.723,252.538 113.214,270.319 115.706,286.89 118.198,302.01 120.69,315.46 123.182,327.043 125.674,336.592 128.166,343.968 130.658,349.063 133.15,351.805 
  135.641,352.152 138.133,350.1 140.625,345.679 143.117,338.953 145.609,330.019 148.101,319.008 150.593,306.079 153.085,291.421 155.577,275.245 158.068,257.788 
  160.56,239.303 163.052,220.057 165.544,200.332 168.036,180.413 170.528,160.59 173.02,141.151 175.512,122.378 178.004,104.544 180.495,87.9076 182.987,72.7112 
  185.479,59.1752 187.971,47.4963 190.463,37.8441 192.955,30.359 195.447,25.1495 197.939,22.2915 200.43,21.8264 202.922,23.761 205.414,28.0671 207.906,34.6823 
  210.398,43.5104 212.89,54.4231 215.382,67.262 217.874,81.8405 220.366,97.9468 222.857,115.347 225.349,133.788 227.841,153.003 230.333,172.711 232.825,192.627 
  235.317,212.462 237.809,231.926 240.301,250.739 242.793,268.625 245.284,285.326 247.776,300.598 250.268,314.22 252.76,325.994 255.252,335.749 257.744,343.344 
  260.236,348.667 262.728,351.641 265.22,352.224 267.711,350.407 270.203,346.216 272.695,339.712 275.187,330.99 277.679,320.176 280.171,307.427 282.663,292.929 
  285.155,276.893 287.647,259.55 290.138,241.154 292.63,221.971 295.122,202.28 297.614,182.367 300.106,162.522 302.598,143.033 305.09,124.182 307.582,106.244 
  310.074,89.4794 312.565,74.1316 315.057,60.4236 317.549,48.5546 320.041,38.697 322.533,30.994 325.025,25.5574 327.517,22.4664 330.009,21.7657 332.5,23.4656 
  334.992,27.5414 337.484,33.9338 339.976,42.55 342.468,53.2648 344.96,65.9226 347.452,80.3395 349.944,96.306 352.436,113.59 354.927,131.941 357.419,151.092 
  359.911,170.764 362.403,190.673 364.895,210.528 367.387,230.042 369.879,248.93 372.371,266.919 374.863,283.747 377.354,299.17 379.846,312.963 382.338,324.926 
  384.83,334.886 387.322,342.698 389.814,348.248 392.306,351.455 394.798,352.273 397.29,350.691 399.781,346.731 402.273,340.45 404.765,331.94 407.257,321.325 
  409.749,308.758 412.241,294.423 414.733,278.527 417.225,261.302 419.717,242.997 422.208,223.879 424.7,204.226 427.192,184.322 429.684,164.457 432.176,144.92 
  434.668,125.995 437.16,107.956 439.652,91.0647 442.143,75.5678 444.635,61.6897 447.127,49.6323 449.619,39.5706 452.111,31.6508 454.603,25.9879 457.095,22.6643 
  459.587,21.7282 462.079,23.1931 464.57,27.0379 467.062,33.2067 469.554,41.6099 472.046,52.1253 474.538,64.6002 477.03,78.8534 479.522,94.6778 482.014,111.844 
  484.506,130.101 486.997,149.186 489.489,168.82 491.981,188.718 494.473,208.591 496.965,228.151 499.457,247.113 501.949,265.202 504.441,282.155 506.933,297.726 
  509.424,311.688 511.916,323.839 514.408,334.002 516.9,342.03 519.392,347.806 521.884,351.246 524.376,352.299 526.868,350.952 529.36,347.223 531.851,341.166 
  534.343,332.87 536.835,322.455 539.327,310.072 541.819,295.901 544.311,280.149 546.803,263.043 549.295,244.833 551.787,225.783 554.278,206.169 556.77,186.277 
  
  "/>
</svg>
