<?xml version="1.0" encoding="utf-8" standalone="no"?>
<!DOCTYPE svg PUBLIC "-//W3C//DTD SVG 1.1//EN"
  "http://www.w3.org/Graphics/SVG/1.1/DTD/svg11.dtd">
<!-- Created with matplotlib (http://matplotlib.org/) -->
<svg height="288pt" version="1.1" viewBox="0 0 432 288" width="432pt" xmlns="http://www.w3.org/2000/svg" xmlns:xlink="http://www.w3.org/1999/xlink">
 <defs>
  <style type="text/css">
*{stroke-linecap:butt;stroke-linejoin:round;}
  </style>
 </defs>
 <g id="figure_1">
  <g id="patch_1">
   <path d="M 0 288 
L 432 288 
L 432 0 
L 0 0 
z
" style="fill:#ffffff;"/>
  </g>
  <g id="axes_1">
   <g id="patch_2">
    <path d="M 26.758266 261.105354 
L 414.186734 261.105354 
L 414.186734 2.834646 
L 26.758266 2.834646 
z
" style="fill:#ffffff;"/>
   </g>
   <g id="line2d_1">
    <path clip-path="url(#pf721e44069)" d="M 26.758266 114.642416 
L 28.705143 111.490451 
L 30.65202 108.635944 
L 32.598896 106.120364 
L 34.545773 103.980257 
L 36.49265 102.246712 
L 38.439527 100.944914 
L 40.386403 100.093775 
L 42.33328 99.705659 
L 44.280157 99.786205 
L 46.227033 100.334242 
L 48.17391 101.34181 
L 50.120787 102.79427 
L 52.067664 104.670522 
L 54.01454 106.943309 
L 55.961417 109.579613 
L 57.908294 112.541135 
L 59.85517 115.784852 
L 63.748924 122.926964 
L 75.430184 145.713523 
L 77.377061 149.128254 
L 79.323938 152.293661 
L 81.270814 155.16376 
L 83.217691 157.696855 
L 85.164568 159.856146 
L 87.111445 161.610265 
L 89.058321 162.933729 
L 91.005198 163.807311 
L 92.952075 164.21832 
L 94.898951 164.160785 
L 96.845828 163.635542 
L 98.792705 162.650222 
L 100.739582 161.219139 
L 102.686458 159.363083 
L 104.633335 157.109017 
L 106.580212 154.489687 
L 108.527088 151.543146 
L 110.473965 148.3122 
L 114.367719 141.18829 
L 120.208349 129.639301 
L 124.102102 122.0145 
L 127.995856 114.965882 
L 129.942732 111.787143 
L 131.889609 108.901553 
L 133.836486 106.351032 
L 135.783363 104.172632 
L 137.730239 102.398 
L 139.677116 101.052916 
L 141.623993 100.156923 
L 143.570869 99.723035 
L 145.517746 99.757557 
L 147.464623 100.259986 
L 149.4115 101.223024 
L 151.358376 102.632681 
L 153.305253 104.468477 
L 155.25213 106.703743 
L 157.199007 109.306006 
L 159.145883 112.237463 
L 161.09276 115.455526 
L 164.986513 122.560985 
L 170.827144 134.102312 
L 174.720897 141.735781 
L 178.61465 148.803593 
L 180.561527 151.995552 
L 182.508404 154.896532 
L 184.455281 157.464391 
L 186.402157 159.661823 
L 188.349034 161.456907 
L 190.295911 162.823562 
L 192.242788 163.741937 
L 194.189664 164.198688 
L 196.136541 164.18718 
L 198.083418 163.707582 
L 200.030294 162.766859 
L 201.977171 161.378679 
L 203.924048 159.563207 
L 205.870925 157.346819 
L 207.817801 154.761713 
L 209.764678 151.845443 
L 211.711555 148.640377 
L 215.605308 141.553617 
L 221.445938 130.020354 
L 225.339692 122.378486 
L 229.233445 115.291726 
L 231.180322 112.086659 
L 233.127199 109.17039 
L 235.074075 106.585283 
L 237.020952 104.368895 
L 238.967829 102.553424 
L 240.914706 101.165244 
L 242.861582 100.224521 
L 244.808459 99.744922 
L 246.755336 99.733415 
L 248.702212 100.190166 
L 250.649089 101.10854 
L 252.595966 102.475196 
L 254.542843 104.270279 
L 256.489719 106.467712 
L 258.436596 109.03557 
L 260.383473 111.936551 
L 262.33035 115.128509 
L 266.224103 122.196322 
L 272.064733 133.721116 
L 275.958487 141.371118 
L 279.85224 148.476577 
L 281.799117 151.69464 
L 283.745993 154.626096 
L 285.69287 157.22836 
L 287.639747 159.463626 
L 289.586624 161.299422 
L 291.5335 162.709078 
L 293.480377 163.672117 
L 295.427254 164.174546 
L 297.374131 164.209068 
L 299.321007 163.77518 
L 301.267884 162.879186 
L 303.214761 161.534103 
L 305.161637 159.759471 
L 307.108514 157.581071 
L 309.055391 155.030549 
L 311.002268 152.144959 
L 312.949144 148.966221 
L 316.842898 141.917603 
L 322.683528 130.40168 
L 326.577281 122.743813 
L 330.471035 115.619903 
L 332.417912 112.388957 
L 334.364788 109.442416 
L 336.311665 106.823086 
L 338.258542 104.56902 
L 340.205418 102.712964 
L 342.152295 101.28188 
L 344.099172 100.29656 
L 346.046049 99.771318 
L 347.992925 99.713783 
L 349.939802 100.124792 
L 351.886679 100.998374 
L 353.833555 102.321837 
L 355.780432 104.075956 
L 357.727309 106.235248 
L 359.674186 108.768343 
L 361.621062 111.638441 
L 363.567939 114.803849 
L 367.461692 121.833026 
L 373.302323 133.339675 
L 377.196076 141.005139 
L 381.08983 148.147251 
L 383.036706 151.390968 
L 384.983583 154.35249 
L 386.93046 156.988794 
L 388.877336 159.261581 
L 390.824213 161.137833 
L 392.77109 162.590293 
L 394.717967 163.59786 
L 396.664843 164.145898 
L 398.61172 164.226444 
L 400.558597 163.838328 
L 402.505473 162.987188 
L 404.45235 161.68539 
L 406.399227 159.951846 
L 408.346104 157.811739 
L 410.29298 155.296159 
L 412.239857 152.441652 
L 414.186734 149.289687 
L 414.186734 149.289687 
" style="fill:none;stroke:#00bfff;stroke-linecap:round;stroke-width:2;"/>
   </g>
   <g id="matplotlib.axis_1">
    <g id="xtick_1">
     <g id="line2d_2">
      <defs>
       <path d="M 0 0 
L 0 -3.5 
" id="m5f68e90e71" style="stroke:#000000;stroke-width:0.8;"/>
      </defs>
      <g>
       <use style="stroke:#000000;stroke-width:0.8;" x="26.758266" xlink:href="#m5f68e90e71" y="261.105354"/>
      </g>
     </g>
     <g id="text_1">
      <!-- -6 -->
      <defs>
       <path d="M 4.890625 31.390625 
L 31.203125 31.390625 
L 31.203125 23.390625 
L 4.890625 23.390625 
z
" id="DejaVuSans-2d"/>
       <path d="M 33.015625 40.375 
Q 26.375 40.375 22.484375 35.828125 
Q 18.609375 31.296875 18.609375 23.390625 
Q 18.609375 15.53125 22.484375 10.953125 
Q 26.375 6.390625 33.015625 6.390625 
Q 39.65625 6.390625 43.53125 10.953125 
Q 47.40625 15.53125 47.40625 23.390625 
Q 47.40625 31.296875 43.53125 35.828125 
Q 39.65625 40.375 33.015625 40.375 
M 52.59375 71.296875 
L 52.59375 62.3125 
Q 48.875 64.0625 45.09375 64.984375 
Q 41.3125 65.921875 37.59375 65.921875 
Q 27.828125 65.921875 22.671875 59.328125 
Q 17.53125 52.734375 16.796875 39.40625 
Q 19.671875 43.65625 24.015625 45.921875 
Q 28.375 48.1875 33.59375 48.1875 
Q 44.578125 48.1875 50.953125 41.515625 
Q 57.328125 34.859375 57.328125 23.390625 
Q 57.328125 12.15625 50.6875 5.359375 
Q 44.046875 -1.421875 33.015625 -1.421875 
Q 20.359375 -1.421875 13.671875 8.265625 
Q 6.984375 17.96875 6.984375 36.375 
Q 6.984375 53.65625 15.1875 63.9375 
Q 23.390625 74.21875 37.203125 74.21875 
Q 40.921875 74.21875 44.703125 73.484375 
Q 48.484375 72.75 52.59375 71.296875 
" id="DejaVuSans-36"/>
      </defs>
      <g transform="translate(22.770141 270.684104)scale(0.08 -0.08)">
       <use xlink:href="#DejaVuSans-2d"/>
       <use x="36.083984" xlink:href="#DejaVuSans-36"/>
      </g>
     </g>
    </g>
    <g id="xtick_2">
     <g id="line2d_3">
      <g>
       <use style="stroke:#000000;stroke-width:0.8;" x="91.329677" xlink:href="#m5f68e90e71" y="261.105354"/>
      </g>
     </g>
     <g id="text_2">
      <!-- -4 -->
      <defs>
       <path d="M 37.796875 64.3125 
L 12.890625 25.390625 
L 37.796875 25.390625 
z
M 35.203125 72.90625 
L 47.609375 72.90625 
L 47.609375 25.390625 
L 58.015625 25.390625 
L 58.015625 17.1875 
L 47.609375 17.1875 
L 47.609375 0 
L 37.796875 0 
L 37.796875 17.1875 
L 4.890625 17.1875 
L 4.890625 26.703125 
z
" id="DejaVuSans-34"/>
      </defs>
      <g transform="translate(87.341552 270.684104)scale(0.08 -0.08)">
       <use xlink:href="#DejaVuSans-2d"/>
       <use x="36.083984" xlink:href="#DejaVuSans-34"/>
      </g>
     </g>
    </g>
    <g id="xtick_3">
     <g id="line2d_4">
      <g>
       <use style="stroke:#000000;stroke-width:0.8;" x="155.901089" xlink:href="#m5f68e90e71" y="261.105354"/>
      </g>
     </g>
     <g id="text_3">
      <!-- -2 -->
      <defs>
       <path d="M 19.1875 8.296875 
L 53.609375 8.296875 
L 53.609375 0 
L 7.328125 0 
L 7.328125 8.296875 
Q 12.9375 14.109375 22.625 23.890625 
Q 32.328125 33.6875 34.8125 36.53125 
Q 39.546875 41.84375 41.421875 45.53125 
Q 43.3125 49.21875 43.3125 52.78125 
Q 43.3125 58.59375 39.234375 62.25 
Q 35.15625 65.921875 28.609375 65.921875 
Q 23.96875 65.921875 18.8125 64.3125 
Q 13.671875 62.703125 7.8125 59.421875 
L 7.8125 69.390625 
Q 13.765625 71.78125 18.9375 73 
Q 24.125 74.21875 28.421875 74.21875 
Q 39.75 74.21875 46.484375 68.546875 
Q 53.21875 62.890625 53.21875 53.421875 
Q 53.21875 48.921875 51.53125 44.890625 
Q 49.859375 40.875 45.40625 35.40625 
Q 44.1875 33.984375 37.640625 27.21875 
Q 31.109375 20.453125 19.1875 8.296875 
" id="DejaVuSans-32"/>
      </defs>
      <g transform="translate(151.912964 270.684104)scale(0.08 -0.08)">
       <use xlink:href="#DejaVuSans-2d"/>
       <use x="36.083984" xlink:href="#DejaVuSans-32"/>
      </g>
     </g>
    </g>
    <g id="xtick_4">
     <g id="line2d_5">
      <g>
       <use style="stroke:#000000;stroke-width:0.8;" x="220.4725" xlink:href="#m5f68e90e71" y="261.105354"/>
      </g>
     </g>
     <g id="text_4">
      <!-- 0 -->
      <defs>
       <path d="M 31.78125 66.40625 
Q 24.171875 66.40625 20.328125 58.90625 
Q 16.5 51.421875 16.5 36.375 
Q 16.5 21.390625 20.328125 13.890625 
Q 24.171875 6.390625 31.78125 6.390625 
Q 39.453125 6.390625 43.28125 13.890625 
Q 47.125 21.390625 47.125 36.375 
Q 47.125 51.421875 43.28125 58.90625 
Q 39.453125 66.40625 31.78125 66.40625 
M 31.78125 74.21875 
Q 44.046875 74.21875 50.515625 64.515625 
Q 56.984375 54.828125 56.984375 36.375 
Q 56.984375 17.96875 50.515625 8.265625 
Q 44.046875 -1.421875 31.78125 -1.421875 
Q 19.53125 -1.421875 13.0625 8.265625 
Q 6.59375 17.96875 6.59375 36.375 
Q 6.59375 54.828125 13.0625 64.515625 
Q 19.53125 74.21875 31.78125 74.21875 
" id="DejaVuSans-30"/>
      </defs>
      <g transform="translate(217.9275 270.684104)scale(0.08 -0.08)">
       <use xlink:href="#DejaVuSans-30"/>
      </g>
     </g>
    </g>
    <g id="xtick_5">
     <g id="line2d_6">
      <g>
       <use style="stroke:#000000;stroke-width:0.8;" x="285.043911" xlink:href="#m5f68e90e71" y="261.105354"/>
      </g>
     </g>
     <g id="text_5">
      <!-- 2 -->
      <g transform="translate(282.498911 270.684104)scale(0.08 -0.08)">
       <use xlink:href="#DejaVuSans-32"/>
      </g>
     </g>
    </g>
    <g id="xtick_6">
     <g id="line2d_7">
      <g>
       <use style="stroke:#000000;stroke-width:0.8;" x="349.615323" xlink:href="#m5f68e90e71" y="261.105354"/>
      </g>
     </g>
     <g id="text_6">
      <!-- 4 -->
      <g transform="translate(347.070323 270.684104)scale(0.08 -0.08)">
       <use xlink:href="#DejaVuSans-34"/>
      </g>
     </g>
    </g>
    <g id="xtick_7">
     <g id="line2d_8">
      <g>
       <use style="stroke:#000000;stroke-width:0.8;" x="414.186734" xlink:href="#m5f68e90e71" y="261.105354"/>
      </g>
     </g>
     <g id="text_7">
      <!-- 6 -->
      <g transform="translate(411.641734 270.684104)scale(0.08 -0.08)">
       <use xlink:href="#DejaVuSans-36"/>
      </g>
     </g>
    </g>
    <g id="text_8">
     <!-- t -->
     <defs>
      <path d="M 18.3125 70.21875 
L 18.3125 54.6875 
L 36.8125 54.6875 
L 36.8125 47.703125 
L 18.3125 47.703125 
L 18.3125 18.015625 
Q 18.3125 11.328125 20.140625 9.421875 
Q 21.96875 7.515625 27.59375 7.515625 
L 36.8125 7.515625 
L 36.8125 0 
L 27.59375 0 
Q 17.1875 0 13.234375 3.875 
Q 9.28125 7.765625 9.28125 18.015625 
L 9.28125 47.703125 
L 2.6875 47.703125 
L 2.6875 54.6875 
L 9.28125 54.6875 
L 9.28125 70.21875 
z
" id="DejaVuSans-74"/>
     </defs>
     <g transform="translate(218.316328 284.706136)scale(0.11 -0.11)">
      <use xlink:href="#DejaVuSans-74"/>
     </g>
    </g>
   </g>
   <g id="matplotlib.axis_2">
    <g id="ytick_1">
     <g id="line2d_9">
      <defs>
       <path d="M 0 0 
L 3.5 0 
" id="m63661edf41" style="stroke:#000000;stroke-width:0.8;"/>
      </defs>
      <g>
       <use style="stroke:#000000;stroke-width:0.8;" x="26.758266" xlink:href="#m63661edf41" y="228.823168"/>
      </g>
     </g>
     <g id="text_9">
      <!-- -3 -->
      <defs>
       <path d="M 40.578125 39.3125 
Q 47.65625 37.796875 51.625 33 
Q 55.609375 28.21875 55.609375 21.1875 
Q 55.609375 10.40625 48.1875 4.484375 
Q 40.765625 -1.421875 27.09375 -1.421875 
Q 22.515625 -1.421875 17.65625 -0.515625 
Q 12.796875 0.390625 7.625 2.203125 
L 7.625 11.71875 
Q 11.71875 9.328125 16.59375 8.109375 
Q 21.484375 6.890625 26.8125 6.890625 
Q 36.078125 6.890625 40.9375 10.546875 
Q 45.796875 14.203125 45.796875 21.1875 
Q 45.796875 27.640625 41.28125 31.265625 
Q 36.765625 34.90625 28.71875 34.90625 
L 20.21875 34.90625 
L 20.21875 43.015625 
L 29.109375 43.015625 
Q 36.375 43.015625 40.234375 45.921875 
Q 44.09375 48.828125 44.09375 54.296875 
Q 44.09375 59.90625 40.109375 62.90625 
Q 36.140625 65.921875 28.71875 65.921875 
Q 24.65625 65.921875 20.015625 65.03125 
Q 15.375 64.15625 9.8125 62.3125 
L 9.8125 71.09375 
Q 15.4375 72.65625 20.34375 73.4375 
Q 25.25 74.21875 29.59375 74.21875 
Q 40.828125 74.21875 47.359375 69.109375 
Q 53.90625 64.015625 53.90625 55.328125 
Q 53.90625 49.265625 50.4375 45.09375 
Q 46.96875 40.921875 40.578125 39.3125 
" id="DejaVuSans-33"/>
      </defs>
      <g transform="translate(15.282016 231.862543)scale(0.08 -0.08)">
       <use xlink:href="#DejaVuSans-2d"/>
       <use x="36.083984" xlink:href="#DejaVuSans-33"/>
      </g>
     </g>
    </g>
    <g id="ytick_2">
     <g id="line2d_10">
      <g>
       <use style="stroke:#000000;stroke-width:0.8;" x="26.758266" xlink:href="#m63661edf41" y="196.537463"/>
      </g>
     </g>
     <g id="text_10">
      <!-- -2 -->
      <g transform="translate(15.282016 199.576838)scale(0.08 -0.08)">
       <use xlink:href="#DejaVuSans-2d"/>
       <use x="36.083984" xlink:href="#DejaVuSans-32"/>
      </g>
     </g>
    </g>
    <g id="ytick_3">
     <g id="line2d_11">
      <g>
       <use style="stroke:#000000;stroke-width:0.8;" x="26.758266" xlink:href="#m63661edf41" y="164.251757"/>
      </g>
     </g>
     <g id="text_11">
      <!-- -1 -->
      <defs>
       <path d="M 12.40625 8.296875 
L 28.515625 8.296875 
L 28.515625 63.921875 
L 10.984375 60.40625 
L 10.984375 69.390625 
L 28.421875 72.90625 
L 38.28125 72.90625 
L 38.28125 8.296875 
L 54.390625 8.296875 
L 54.390625 0 
L 12.40625 0 
z
" id="DejaVuSans-31"/>
      </defs>
      <g transform="translate(15.282016 167.291132)scale(0.08 -0.08)">
       <use xlink:href="#DejaVuSans-2d"/>
       <use x="36.083984" xlink:href="#DejaVuSans-31"/>
      </g>
     </g>
    </g>
    <g id="ytick_4">
     <g id="line2d_12">
      <g>
       <use style="stroke:#000000;stroke-width:0.8;" x="26.758266" xlink:href="#m63661edf41" y="131.966051"/>
      </g>
     </g>
     <g id="text_12">
      <!-- 0 -->
      <g transform="translate(18.168266 135.005426)scale(0.08 -0.08)">
       <use xlink:href="#DejaVuSans-30"/>
      </g>
     </g>
    </g>
    <g id="ytick_5">
     <g id="line2d_13">
      <g>
       <use style="stroke:#000000;stroke-width:0.8;" x="26.758266" xlink:href="#m63661edf41" y="99.680346"/>
      </g>
     </g>
     <g id="text_13">
      <!-- 1 -->
      <g transform="translate(18.168266 102.719721)scale(0.08 -0.08)">
       <use xlink:href="#DejaVuSans-31"/>
      </g>
     </g>
    </g>
    <g id="ytick_6">
     <g id="line2d_14">
      <g>
       <use style="stroke:#000000;stroke-width:0.8;" x="26.758266" xlink:href="#m63661edf41" y="67.39464"/>
      </g>
     </g>
     <g id="text_14">
      <!-- 2 -->
      <g transform="translate(18.168266 70.434015)scale(0.08 -0.08)">
       <use xlink:href="#DejaVuSans-32"/>
      </g>
     </g>
    </g>
    <g id="ytick_7">
     <g id="line2d_15">
      <g>
       <use style="stroke:#000000;stroke-width:0.8;" x="26.758266" xlink:href="#m63661edf41" y="35.108934"/>
      </g>
     </g>
     <g id="text_15">
      <!-- 3 -->
      <g transform="translate(18.168266 38.148309)scale(0.08 -0.08)">
       <use xlink:href="#DejaVuSans-33"/>
      </g>
     </g>
    </g>
   </g>
   <g id="line2d_16">
    <path clip-path="url(#pf721e44069)" d="M 26.758266 14.775813 
L 28.705143 9.098796 
L 30.65202 5.20673 
L 32.598896 3.156155 
L 34.545773 2.976862 
L 36.49265 4.671455 
L 38.439527 8.215315 
L 40.386403 13.556961 
L 42.33328 20.61879 
L 44.280157 29.298213 
L 46.227033 39.469139 
L 48.17391 50.983811 
L 50.120787 63.67495 
L 52.067664 77.358185 
L 55.961417 106.89429 
L 65.695801 183.163283 
L 67.642677 197.055577 
L 69.589554 210.002285 
L 71.536431 221.815325 
L 73.483308 232.323082 
L 75.430184 241.372906 
L 77.377061 248.833325 
L 79.323938 254.595959 
L 81.270814 258.577092 
L 83.217691 260.718887 
L 85.164568 260.990229 
L 87.111445 259.387177 
L 89.058321 255.933019 
L 91.005198 250.677935 
L 92.952075 243.698269 
L 94.898951 235.095416 
L 96.845828 224.994355 
L 98.792705 213.541829 
L 100.739582 200.904213 
L 102.686458 187.2651 
L 106.580212 157.786622 
L 116.314595 81.470912 
L 118.261472 67.537338 
L 120.208349 54.539751 
L 122.155226 42.666971 
L 124.102102 32.091481 
L 126.048979 22.966915 
L 127.995856 15.42583 
L 129.942732 9.577779 
L 131.889609 5.50772 
L 133.836486 3.27478 
L 135.783363 2.911398 
L 137.730239 4.422853 
L 139.677116 7.787188 
L 141.623993 12.955526 
L 143.570869 19.852786 
L 145.517746 28.378768 
L 147.464623 38.40961 
L 149.4115 49.799591 
L 151.358376 62.383241 
L 153.305253 75.977754 
L 157.199007 105.397574 
L 166.93339 181.757333 
L 168.880267 195.731698 
L 170.827144 208.779711 
L 172.77402 220.711815 
L 174.720897 231.354669 
L 176.667774 240.553658 
L 178.61465 248.175144 
L 180.561527 254.108406 
L 182.508404 258.26725 
L 184.455281 260.591257 
L 186.402157 261.046666 
L 188.349034 259.626861 
L 190.295911 256.352467 
L 192.242788 251.271055 
L 194.189664 244.456443 
L 196.136541 236.00763 
L 198.083418 226.047357 
L 200.030294 214.720321 
L 201.977171 202.191076 
L 203.924048 188.641638 
L 207.817801 159.281506 
L 217.552185 82.88037 
L 219.499062 68.865701 
L 221.445938 55.76772 
L 223.392815 43.776708 
L 225.339692 33.066863 
L 227.286569 23.793774 
L 229.233445 16.092153 
L 231.180322 10.073886 
L 233.127199 5.826403 
L 235.074075 3.41141 
L 237.020952 2.86399 
L 238.967829 4.192096 
L 240.914706 7.376434 
L 242.861582 12.370743 
L 244.808459 19.102469 
L 246.755336 27.473816 
L 248.702212 37.363171 
L 250.649089 48.626866 
L 252.595966 61.101269 
L 254.542843 74.605157 
L 258.436596 103.904575 
L 268.17098 180.344416 
L 270.117856 194.398898 
L 272.064733 207.546389 
L 274.01161 219.595889 
L 275.958487 230.37235 
L 277.905363 239.719217 
L 279.85224 247.500703 
L 281.799117 253.603764 
L 283.745993 257.939737 
L 285.69287 260.445631 
L 287.639747 261.085043 
L 289.586624 259.848683 
L 291.5335 256.754512 
L 293.480377 251.847482 
L 295.427254 245.198878 
L 297.374131 236.905288 
L 299.321007 227.087196 
L 301.267884 215.887236 
L 303.214761 203.468113 
L 305.161637 190.010247 
L 309.055391 160.772568 
L 318.789774 84.296696 
L 320.736651 70.202892 
L 322.683528 57.006351 
L 324.630405 44.898784 
L 326.577281 34.056084 
L 328.524158 24.635767 
L 330.471035 16.774688 
L 332.417912 10.587047 
L 334.364788 6.162735 
L 336.311665 3.566027 
L 338.258542 2.834646 
L 340.205418 3.979217 
L 342.152295 6.983112 
L 344.099172 11.802692 
L 346.046049 18.367942 
L 347.992925 26.583484 
L 349.939802 36.329968 
L 351.886679 47.465802 
L 353.833555 59.829211 
L 355.780432 73.240585 
L 359.674186 102.415502 
L 369.408569 178.92473 
L 371.355446 193.057362 
L 373.302323 206.302493 
L 375.249199 218.467703 
L 377.196076 229.376263 
L 379.142953 238.8697 
L 381.08983 246.810098 
L 383.036706 253.082103 
L 384.983583 257.594598 
L 386.93046 260.282029 
L 388.877336 261.105354 
L 390.824213 260.052613 
L 392.77109 257.139098 
L 394.717967 252.407136 
L 396.664843 245.92547 
L 398.61172 237.788263 
L 400.558597 228.113727 
L 402.505473 217.042409 
L 404.45235 204.735147 
L 406.399227 191.370735 
L 410.29298 162.2596 
L 414.186734 131.394504 
L 414.186734 131.394504 
" style="fill:none;stroke:#d4ca3a;stroke-linecap:round;stroke-width:2;"/>
   </g>
   <g id="patch_3">
    <path d="M 26.758266 261.105354 
L 26.758266 2.834646 
" style="fill:none;stroke:#000000;stroke-linecap:square;stroke-linejoin:miter;stroke-width:0.8;"/>
   </g>
   <g id="patch_4">
    <path d="M 26.758266 261.105354 
L 414.186734 261.105354 
" style="fill:none;stroke:#000000;stroke-linecap:square;stroke-linejoin:miter;stroke-width:0.8;"/>
   </g>
  </g>
 </g>
 <defs>
  <clipPath id="pf721e44069">
   <rect height="258.270709" width="387.428468" x="26.758266" y="2.834646"/>
  </clipPath>
 </defs>
</svg>
