<?xml version="1.0" encoding="utf-8"?>
<svg xmlns="http://www.w3.org/2000/svg" xmlns:xlink="http://www.w3.org/1999/xlink" width="600" height="400" viewBox="0 0 600 400">
<defs>
  <clipPath id="clip3600">
    <rect x="0" y="0" width="600" height="400"/>
  </clipPath>
</defs>
<polygon clip-path="url(#clip3600)" points="
0,400 600,400 600,0 0,0 
  " fill="#ffffff" fill-opacity="1"/>
<defs>
  <clipPath id="clip3601">
    <rect x="120" y="0" width="421" height="400"/>
  </clipPath>
</defs>
<polygon clip-path="url(#clip3600)" points="
252.327,362.216 357.454,362.216 357.454,11.811 252.327,11.811 
  " fill="#ffffff" fill-opacity="1"/>
<defs>
  <clipPath id="clip3602">
    <rect x="252" y="11" width="106" height="351"/>
  </clipPath>
</defs>
<polyline clip-path="url(#clip3600)" style="stroke:#000000; stroke-width:1; stroke-opacity:1; fill:none" points="
  252.327,362.216 357.454,362.216 
  "/>
<polyline clip-path="url(#clip3600)" style="stroke:#000000; stroke-width:1; stroke-opacity:1; fill:none" points="
  252.327,362.216 252.327,11.811 
  "/>
<polyline clip-path="url(#clip3600)" style="stroke:#000000; stroke-width:1; stroke-opacity:1; fill:none" points="
  261.087,362.216 261.087,356.96 
  "/>
<polyline clip-path="url(#clip3600)" style="stroke:#000000; stroke-width:1; stroke-opacity:1; fill:none" points="
  282.989,362.216 282.989,356.96 
  "/>
<polyline clip-path="url(#clip3600)" style="stroke:#000000; stroke-width:1; stroke-opacity:1; fill:none" points="
  304.891,362.216 304.891,356.96 
  "/>
<polyline clip-path="url(#clip3600)" style="stroke:#000000; stroke-width:1; stroke-opacity:1; fill:none" points="
  326.792,362.216 326.792,356.96 
  "/>
<polyline clip-path="url(#clip3600)" style="stroke:#000000; stroke-width:1; stroke-opacity:1; fill:none" points="
  348.694,362.216 348.694,356.96 
  "/>
<polyline clip-path="url(#clip3600)" style="stroke:#000000; stroke-width:1; stroke-opacity:1; fill:none" points="
  252.327,318.418 253.904,318.418 
  "/>
<polyline clip-path="url(#clip3600)" style="stroke:#000000; stroke-width:1; stroke-opacity:1; fill:none" points="
  252.327,274.615 253.904,274.615 
  "/>
<polyline clip-path="url(#clip3600)" style="stroke:#000000; stroke-width:1; stroke-opacity:1; fill:none" points="
  252.327,230.812 253.904,230.812 
  "/>
<polyline clip-path="url(#clip3600)" style="stroke:#000000; stroke-width:1; stroke-opacity:1; fill:none" points="
  252.327,187.008 253.904,187.008 
  "/>
<polyline clip-path="url(#clip3600)" style="stroke:#000000; stroke-width:1; stroke-opacity:1; fill:none" points="
  252.327,143.205 253.904,143.205 
  "/>
<polyline clip-path="url(#clip3600)" style="stroke:#000000; stroke-width:1; stroke-opacity:1; fill:none" points="
  252.327,99.402 253.904,99.402 
  "/>
<polyline clip-path="url(#clip3600)" style="stroke:#000000; stroke-width:1; stroke-opacity:1; fill:none" points="
  252.327,55.5987 253.904,55.5987 
  "/>
<g clip-path="url(#clip3600)">
<text style="fill:#000000; fill-opacity:1; font-family:Arial,Helvetica Neue,Helvetica,sans-serif; font-size:12; text-anchor:middle;" transform="rotate(0, 261.087, 376.016)" x="261.087" y="376.016">-1.0</text>
</g>
<g clip-path="url(#clip3600)">
<text style="fill:#000000; fill-opacity:1; font-family:Arial,Helvetica Neue,Helvetica,sans-serif; font-size:12; text-anchor:middle;" transform="rotate(0, 282.989, 376.016)" x="282.989" y="376.016">-0.5</text>
</g>
<g clip-path="url(#clip3600)">
<text style="fill:#000000; fill-opacity:1; font-family:Arial,Helvetica Neue,Helvetica,sans-serif; font-size:12; text-anchor:middle;" transform="rotate(0, 304.891, 376.016)" x="304.891" y="376.016">0.0</text>
</g>
<g clip-path="url(#clip3600)">
<text style="fill:#000000; fill-opacity:1; font-family:Arial,Helvetica Neue,Helvetica,sans-serif; font-size:12; text-anchor:middle;" transform="rotate(0, 326.792, 376.016)" x="326.792" y="376.016">0.5</text>
</g>
<g clip-path="url(#clip3600)">
<text style="fill:#000000; fill-opacity:1; font-family:Arial,Helvetica Neue,Helvetica,sans-serif; font-size:12; text-anchor:middle;" transform="rotate(0, 348.694, 376.016)" x="348.694" y="376.016">1.0</text>
</g>
<g clip-path="url(#clip3600)">
<text style="fill:#000000; fill-opacity:1; font-family:Arial,Helvetica Neue,Helvetica,sans-serif; font-size:12; text-anchor:end;" transform="rotate(0, 246.327, 322.918)" x="246.327" y="322.918">-3</text>
</g>
<g clip-path="url(#clip3600)">
<text style="fill:#000000; fill-opacity:1; font-family:Arial,Helvetica Neue,Helvetica,sans-serif; font-size:12; text-anchor:end;" transform="rotate(0, 246.327, 279.115)" x="246.327" y="279.115">-2</text>
</g>
<g clip-path="url(#clip3600)">
<text style="fill:#000000; fill-opacity:1; font-family:Arial,Helvetica Neue,Helvetica,sans-serif; font-size:12; text-anchor:end;" transform="rotate(0, 246.327, 235.312)" x="246.327" y="235.312">-1</text>
</g>
<g clip-path="url(#clip3600)">
<text style="fill:#000000; fill-opacity:1; font-family:Arial,Helvetica Neue,Helvetica,sans-serif; font-size:12; text-anchor:end;" transform="rotate(0, 246.327, 191.508)" x="246.327" y="191.508">0</text>
</g>
<g clip-path="url(#clip3600)">
<text style="fill:#000000; fill-opacity:1; font-family:Arial,Helvetica Neue,Helvetica,sans-serif; font-size:12; text-anchor:end;" transform="rotate(0, 246.327, 147.705)" x="246.327" y="147.705">1</text>
</g>
<g clip-path="url(#clip3600)">
<text style="fill:#000000; fill-opacity:1; font-family:Arial,Helvetica Neue,Helvetica,sans-serif; font-size:12; text-anchor:end;" transform="rotate(0, 246.327, 103.902)" x="246.327" y="103.902">2</text>
</g>
<g clip-path="url(#clip3600)">
<text style="fill:#000000; fill-opacity:1; font-family:Arial,Helvetica Neue,Helvetica,sans-serif; font-size:12; text-anchor:end;" transform="rotate(0, 246.327, 60.0987)" x="246.327" y="60.0987">3</text>
</g>
<g clip-path="url(#clip3600)">
<text style="fill:#000000; fill-opacity:1; font-family:Arial,Helvetica Neue,Helvetica,sans-serif; font-size:16; text-anchor:middle;" transform="rotate(0, 304.891, 397.6)" x="304.891" y="397.6">t</text>
</g>
<polyline clip-path="url(#clip3602)" style="stroke:#00bfff; stroke-width:2; stroke-opacity:1; fill:none" points="
  42.0713,163.505 44.7127,159.228 47.3541,155.356 49.9955,151.943 52.6369,149.039 55.2783,146.687 57.9197,144.921 60.5611,143.766 63.2025,143.24 65.8439,143.349 
  68.4853,144.092 71.1267,145.459 73.7681,147.43 76.4095,149.976 79.0509,153.059 81.6923,156.636 84.3337,160.654 86.9751,165.055 89.6165,169.775 92.2579,174.745 
  94.8993,179.893 97.5407,185.145 100.182,190.424 102.823,195.653 105.465,200.756 108.106,205.66 110.748,210.293 113.389,214.588 116.03,218.482 118.672,221.918 
  121.313,224.848 123.955,227.228 126.596,229.023 129.237,230.209 131.879,230.766 134.52,230.688 137.162,229.976 139.803,228.639 142.444,226.697 145.086,224.179 
  147.727,221.121 150.369,217.567 153.01,213.569 155.651,209.186 158.293,204.48 160.934,199.521 163.576,194.379 166.217,189.131 168.858,183.852 171.5,178.618 
  174.141,173.507 176.783,168.591 179.424,163.944 182.065,159.631 184.707,155.716 187.348,152.256 189.99,149.3 192.631,146.892 195.272,145.067 197.914,143.852 
  200.555,143.263 203.197,143.31 205.838,143.992 208.479,145.298 211.121,147.211 213.762,149.701 216.404,152.734 219.045,156.265 221.686,160.242 224.328,164.608 
  226.969,169.299 229.611,174.248 232.252,179.382 234.893,184.627 237.535,189.907 240.176,195.144 242.818,200.263 245.459,205.19 248.1,209.853 250.742,214.183 
  253.383,218.119 256.025,221.603 258.666,224.584 261.307,227.02 263.949,228.874 266.59,230.12 269.232,230.74 271.873,230.724 274.514,230.073 277.156,228.797 
  279.797,226.914 282.439,224.45 285.08,221.443 287.721,217.936 290.363,213.979 293.004,209.631 295.646,204.954 298.287,200.016 300.928,194.889 303.57,189.648 
  306.211,184.369 308.853,179.127 311.494,174.001 314.135,169.063 316.777,164.386 319.418,160.037 322.06,156.081 324.701,152.573 327.342,149.566 329.984,147.103 
  332.625,145.22 335.267,143.943 337.908,143.293 340.549,143.277 343.191,143.897 345.832,145.143 348.474,146.997 351.115,149.433 353.756,152.414 356.398,155.898 
  359.039,159.834 361.681,164.164 364.322,168.827 366.963,173.753 369.605,178.873 372.246,184.11 374.888,189.39 377.529,194.634 380.17,199.769 382.812,204.717 
  385.453,209.409 388.095,213.775 390.736,217.752 393.377,221.283 396.019,224.315 398.66,226.806 401.302,228.719 403.943,230.025 406.584,230.707 409.226,230.754 
  411.867,230.165 414.509,228.949 417.15,227.124 419.791,224.717 422.433,221.761 425.074,218.301 427.716,214.386 430.357,210.073 432.998,205.425 435.64,200.51 
  438.281,195.399 440.923,190.165 443.564,184.886 446.205,179.638 448.847,174.496 451.488,169.537 454.13,164.831 456.771,160.447 459.412,156.45 462.054,152.896 
  464.695,149.838 467.337,147.32 469.978,145.378 472.619,144.041 475.261,143.329 477.902,143.251 480.544,143.808 483.185,144.993 485.826,146.789 488.468,149.169 
  491.109,152.098 493.751,155.535 496.392,159.429 499.033,163.724 501.675,168.357 504.316,173.261 506.958,178.364 509.599,183.593 512.24,188.872 514.882,194.124 
  517.523,199.272 520.165,204.242 522.806,208.962 525.447,213.363 528.089,217.381 530.73,220.958 533.372,224.041 536.013,226.587 538.654,228.557 541.296,229.924 
  543.937,230.668 546.579,230.777 549.22,230.251 551.861,229.096 554.503,227.33 557.144,224.978 559.786,222.074 562.427,218.661 565.068,214.788 567.71,210.512 
  
  "/>
<polyline clip-path="url(#clip3602)" style="stroke:#d3ca3a; stroke-width:2; stroke-opacity:1; fill:none" points="
  42.0713,28.012 44.7127,20.3098 47.3541,15.0293 49.9955,12.2472 52.6369,12.004 55.2783,14.3031 57.9197,19.1112 60.5611,26.3584 63.2025,35.9394 65.8439,47.7151 
  68.4853,61.5144 71.1267,77.1368 73.7681,94.3553 76.4095,112.92 79.0509,132.561 81.6923,152.993 84.3337,173.919 86.9751,195.035 89.6165,216.034 92.2579,236.612 
  94.8993,256.47 97.5407,275.318 100.182,292.883 102.823,308.91 105.465,323.166 108.106,335.445 110.748,345.567 113.389,353.385 116.03,358.786 118.672,361.692 
  121.313,362.06 123.955,359.885 126.596,355.199 129.237,348.069 131.879,338.6 134.52,326.928 137.162,313.223 139.803,297.685 142.444,280.539 145.086,262.035 
  147.727,242.44 150.369,222.04 153.01,201.131 155.651,180.017 158.293,159.005 160.934,138.399 163.576,118.5 166.217,99.5956 168.858,81.9613 171.5,65.853 
  174.141,51.5049 176.783,39.1252 179.424,28.894 182.065,20.9597 184.707,15.4377 187.348,12.4082 189.99,11.9152 192.631,13.9658 195.272,18.5303 197.914,25.5424 
  200.555,34.9002 203.197,46.4677 205.838,60.0769 208.479,75.5301 211.121,92.6028 213.762,111.047 216.404,130.595 219.045,150.962 221.686,171.853 224.328,192.964 
  226.969,213.989 229.611,234.621 232.252,254.562 234.893,273.522 237.535,291.224 240.176,307.413 242.818,321.853 245.459,334.333 248.1,344.674 250.742,352.723 
  253.383,358.366 256.025,361.519 258.666,362.137 261.307,360.211 263.949,355.768 266.59,348.874 269.232,339.628 271.873,328.165 274.514,314.652 277.156,299.284 
  279.797,282.285 282.439,263.902 285.08,244.402 287.721,224.068 290.363,203.196 293.004,182.089 295.646,161.053 298.287,140.394 300.928,120.412 303.57,101.398 
  306.211,83.6273 308.853,67.3586 311.494,52.8282 314.135,40.247 316.777,29.798 319.418,21.6328 322.06,15.8701 324.701,12.5935 327.342,11.8508 329.984,13.6527 
  332.625,17.973 335.267,24.749 337.908,33.8822 340.549,45.2399 343.191,58.6572 345.832,73.939 348.474,90.8635 351.115,109.185 353.756,128.637 356.398,148.936 
  359.039,169.789 361.681,190.892 364.322,211.939 366.963,232.623 369.605,252.645 372.246,271.713 374.888,289.551 377.529,305.899 380.17,320.52 382.812,333.201 
  385.453,343.759 388.095,352.039 390.736,357.922 393.377,361.321 396.019,362.189 398.66,360.511 401.302,356.314 403.943,349.656 406.584,340.636 409.226,329.383 
  411.867,316.063 414.509,300.867 417.15,284.018 419.791,265.759 422.433,246.356 425.074,226.091 427.716,205.258 430.357,184.161 432.998,163.104 435.64,142.395 
  438.281,122.334 440.923,103.212 443.564,85.3078 446.205,68.881 448.847,54.1703 451.488,41.3894 454.13,30.724 456.771,22.329 459.412,16.3264 462.054,12.8033 
  464.695,11.811 467.337,13.3639 469.978,17.4394 472.619,23.9783 475.261,32.8856 477.902,44.032 480.544,57.2554 483.185,72.3638 485.826,89.1377 488.468,107.333 
  491.109,126.687 493.751,146.916 496.392,167.728 499.033,188.82 501.675,209.886 504.316,230.619 506.958,250.719 509.599,269.893 512.24,287.863 514.882,304.368 
  517.523,319.168 520.165,332.049 522.806,342.822 525.447,351.331 528.089,357.453 530.73,361.099 533.372,362.216 536.013,360.788 538.654,356.835 541.296,350.415 
  543.937,341.621 546.579,330.581 549.22,317.456 551.861,302.435 554.503,285.737 557.144,267.605 559.786,248.302 562.427,228.109 565.068,207.318 567.71,186.233 
  
  "/>
</svg>
