<?xml version="1.0" encoding="utf-8"?>
<svg xmlns="http://www.w3.org/2000/svg" xmlns:xlink="http://www.w3.org/1999/xlink" width="600" height="200" viewBox="0 0 600 200">
<defs>
  <clipPath id="clip00">
    <rect x="0" y="0" width="600" height="200"/>
  </clipPath>
</defs>
<polygon clip-path="url(#clip3200)" points="
0,200 600,200 600,0 0,0 
  " fill="#ffffff" fill-opacity="1"/>
<defs>
  <clipPath id="clip01">
    <rect x="120" y="0" width="421" height="200"/>
  </clipPath>
</defs>
<polygon clip-path="url(#clip3200)" points="
137.166,162.175 498.04,162.175 498.04,11.811 137.166,11.811 
  " fill="#ffffff" fill-opacity="1"/>
<defs>
  <clipPath id="clip02">
    <rect x="137" y="11" width="362" height="151"/>
  </clipPath>
</defs>
<polyline clip-path="url(#clip3200)" style="stroke:#000000; stroke-width:1; stroke-opacity:1; fill:none" points="
  137.166,162.175 498.04,162.175 
  "/>
<polyline clip-path="url(#clip3200)" style="stroke:#000000; stroke-width:1; stroke-opacity:1; fill:none" points="
  137.166,162.175 137.166,11.811 
  "/>
<polyline clip-path="url(#clip3200)" style="stroke:#000000; stroke-width:1; stroke-opacity:1; fill:none" points="
  167.239,162.175 167.239,159.92 
  "/>
<polyline clip-path="url(#clip3200)" style="stroke:#000000; stroke-width:1; stroke-opacity:1; fill:none" points="
  242.421,162.175 242.421,159.92 
  "/>
<polyline clip-path="url(#clip3200)" style="stroke:#000000; stroke-width:1; stroke-opacity:1; fill:none" points="
  317.603,162.175 317.603,159.92 
  "/>
<polyline clip-path="url(#clip3200)" style="stroke:#000000; stroke-width:1; stroke-opacity:1; fill:none" points="
  392.785,162.175 392.785,159.92 
  "/>
<polyline clip-path="url(#clip3200)" style="stroke:#000000; stroke-width:1; stroke-opacity:1; fill:none" points="
  467.967,162.175 467.967,159.92 
  "/>
<polyline clip-path="url(#clip3200)" style="stroke:#000000; stroke-width:1; stroke-opacity:1; fill:none" points="
  137.166,132.102 142.58,132.102 
  "/>
<polyline clip-path="url(#clip3200)" style="stroke:#000000; stroke-width:1; stroke-opacity:1; fill:none" points="
  137.166,102.029 142.58,102.029 
  "/>
<polyline clip-path="url(#clip3200)" style="stroke:#000000; stroke-width:1; stroke-opacity:1; fill:none" points="
  137.166,71.9566 142.58,71.9566 
  "/>
<polyline clip-path="url(#clip3200)" style="stroke:#000000; stroke-width:1; stroke-opacity:1; fill:none" points="
  137.166,41.8838 142.58,41.8838 
  "/>
<g clip-path="url(#clip3200)">
<text style="fill:#000000; fill-opacity:1; font-family:Arial,Helvetica Neue,Helvetica,sans-serif; font-size:12; text-anchor:middle;" transform="rotate(0, 167.239, 175.975)" x="167.239" y="175.975">-1.0</text>
</g>
<g clip-path="url(#clip3200)">
<text style="fill:#000000; fill-opacity:1; font-family:Arial,Helvetica Neue,Helvetica,sans-serif; font-size:12; text-anchor:middle;" transform="rotate(0, 242.421, 175.975)" x="242.421" y="175.975">-0.5</text>
</g>
<g clip-path="url(#clip3200)">
<text style="fill:#000000; fill-opacity:1; font-family:Arial,Helvetica Neue,Helvetica,sans-serif; font-size:12; text-anchor:middle;" transform="rotate(0, 317.603, 175.975)" x="317.603" y="175.975">0.0</text>
</g>
<g clip-path="url(#clip3200)">
<text style="fill:#000000; fill-opacity:1; font-family:Arial,Helvetica Neue,Helvetica,sans-serif; font-size:12; text-anchor:middle;" transform="rotate(0, 392.785, 175.975)" x="392.785" y="175.975">0.5</text>
</g>
<g clip-path="url(#clip3200)">
<text style="fill:#000000; fill-opacity:1; font-family:Arial,Helvetica Neue,Helvetica,sans-serif; font-size:12; text-anchor:middle;" transform="rotate(0, 467.967, 175.975)" x="467.967" y="175.975">1.0</text>
</g>
<g clip-path="url(#clip3200)">
<text style="fill:#000000; fill-opacity:1; font-family:Arial,Helvetica Neue,Helvetica,sans-serif; font-size:12; text-anchor:end;" transform="rotate(0, 131.166, 136.602)" x="131.166" y="136.602">-0.8</text>
</g>
<g clip-path="url(#clip3200)">
<text style="fill:#000000; fill-opacity:1; font-family:Arial,Helvetica Neue,Helvetica,sans-serif; font-size:12; text-anchor:end;" transform="rotate(0, 131.166, 106.529)" x="131.166" y="106.529">-0.6</text>
</g>
<g clip-path="url(#clip3200)">
<text style="fill:#000000; fill-opacity:1; font-family:Arial,Helvetica Neue,Helvetica,sans-serif; font-size:12; text-anchor:end;" transform="rotate(0, 131.166, 76.4566)" x="131.166" y="76.4566">-0.4</text>
</g>
<g clip-path="url(#clip3200)">
<text style="fill:#000000; fill-opacity:1; font-family:Arial,Helvetica Neue,Helvetica,sans-serif; font-size:12; text-anchor:end;" transform="rotate(0, 131.166, 46.3838)" x="131.166" y="46.3838">-0.2</text>
</g>
<g clip-path="url(#clip3200)">
<text style="fill:#000000; fill-opacity:1; font-family:Arial,Helvetica Neue,Helvetica,sans-serif; font-size:16; text-anchor:middle;" transform="rotate(0, 317.603, 197.6)" x="317.603" y="197.6">t</text>
</g>
<g clip-path="url(#clip3200)">
<text style="fill:#000000; fill-opacity:1; font-family:Arial,Helvetica Neue,Helvetica,sans-serif; font-size:16; text-anchor:middle;" transform="rotate(-90, 14.4, 86.993)" x="14.4" y="86.993">Smoothed Ramp</text>
</g>
<polyline clip-path="url(#clip3202)" style="stroke:#009af9; stroke-width:2; stroke-opacity:1; fill:none" points="
  167.239,11.811 171.017,11.811 
  "/>
<polyline clip-path="url(#clip3202)" style="stroke:#009af9; stroke-width:2; stroke-opacity:1; fill:none" points="
  171.017,11.811 174.795,11.811 
  "/>
<polyline clip-path="url(#clip3202)" style="stroke:#009af9; stroke-width:2; stroke-opacity:1; fill:none" points="
  174.795,11.811 178.573,11.811 
  "/>
<polyline clip-path="url(#clip3202)" style="stroke:#009af9; stroke-width:2; stroke-opacity:1; fill:none" points="
  178.573,11.811 182.351,11.811 
  "/>
<polyline clip-path="url(#clip3202)" style="stroke:#009af9; stroke-width:2; stroke-opacity:1; fill:none" points="
  182.351,11.811 186.129,11.811 
  "/>
<polyline clip-path="url(#clip3202)" style="stroke:#009af9; stroke-width:2; stroke-opacity:1; fill:none" points="
  186.129,11.811 189.907,11.811 
  "/>
<polyline clip-path="url(#clip3202)" style="stroke:#009af9; stroke-width:2; stroke-opacity:1; fill:none" points="
  189.907,11.811 193.685,11.811 
  "/>
<polyline clip-path="url(#clip3202)" style="stroke:#009af9; stroke-width:2; stroke-opacity:1; fill:none" points="
  193.685,11.811 197.463,11.811 
  "/>
<polyline clip-path="url(#clip3202)" style="stroke:#009af9; stroke-width:2; stroke-opacity:1; fill:none" points="
  197.463,11.811 201.241,11.811 
  "/>
<polyline clip-path="url(#clip3202)" style="stroke:#009af9; stroke-width:2; stroke-opacity:1; fill:none" points="
  201.241,11.811 205.019,11.811 
  "/>
<polyline clip-path="url(#clip3202)" style="stroke:#009af9; stroke-width:2; stroke-opacity:1; fill:none" points="
  205.019,11.811 208.797,11.811 
  "/>
<polyline clip-path="url(#clip3202)" style="stroke:#009af9; stroke-width:2; stroke-opacity:1; fill:none" points="
  208.797,11.811 212.575,11.811 
  "/>
<polyline clip-path="url(#clip3202)" style="stroke:#009af9; stroke-width:2; stroke-opacity:1; fill:none" points="
  212.575,11.811 216.353,11.811 
  "/>
<polyline clip-path="url(#clip3202)" style="stroke:#009af9; stroke-width:2; stroke-opacity:1; fill:none" points="
  216.353,11.811 220.131,11.811 
  "/>
<polyline clip-path="url(#clip3202)" style="stroke:#009af9; stroke-width:2; stroke-opacity:1; fill:none" points="
  220.131,11.811 223.909,11.811 
  "/>
<polyline clip-path="url(#clip3202)" style="stroke:#009af9; stroke-width:2; stroke-opacity:1; fill:none" points="
  223.909,11.811 227.687,11.811 
  "/>
<polyline clip-path="url(#clip3202)" style="stroke:#009af9; stroke-width:2; stroke-opacity:1; fill:none" points="
  227.687,11.811 231.465,11.811 
  "/>
<polyline clip-path="url(#clip3202)" style="stroke:#009af9; stroke-width:2; stroke-opacity:1; fill:none" points="
  231.465,11.811 235.243,11.811 
  "/>
<polyline clip-path="url(#clip3202)" style="stroke:#009af9; stroke-width:2; stroke-opacity:1; fill:none" points="
  235.243,11.811 239.021,11.811 
  "/>
<polyline clip-path="url(#clip3202)" style="stroke:#009af9; stroke-width:2; stroke-opacity:1; fill:none" points="
  239.021,11.811 242.799,11.811 
  "/>
<polyline clip-path="url(#clip3202)" style="stroke:#009af9; stroke-width:2; stroke-opacity:1; fill:none" points="
  242.799,11.811 246.577,11.811 
  "/>
<polyline clip-path="url(#clip3202)" style="stroke:#009af9; stroke-width:2; stroke-opacity:1; fill:none" points="
  246.577,11.811 250.355,11.811 
  "/>
<polyline clip-path="url(#clip3202)" style="stroke:#009af9; stroke-width:2; stroke-opacity:1; fill:none" points="
  250.355,11.811 254.133,11.811 
  "/>
<polyline clip-path="url(#clip3202)" style="stroke:#009af9; stroke-width:2; stroke-opacity:1; fill:none" points="
  254.133,11.811 257.911,11.811 
  "/>
<polyline clip-path="url(#clip3202)" style="stroke:#009af9; stroke-width:2; stroke-opacity:1; fill:none" points="
  257.911,11.811 261.689,11.811 
  "/>
<polyline clip-path="url(#clip3202)" style="stroke:#009af9; stroke-width:2; stroke-opacity:1; fill:none" points="
  261.689,11.811 265.467,11.811 
  "/>
<polyline clip-path="url(#clip3202)" style="stroke:#009af9; stroke-width:2; stroke-opacity:1; fill:none" points="
  265.467,11.811 269.245,11.811 
  "/>
<polyline clip-path="url(#clip3202)" style="stroke:#009af9; stroke-width:2; stroke-opacity:1; fill:none" points="
  269.245,11.811 273.023,11.811 
  "/>
<polyline clip-path="url(#clip3202)" style="stroke:#009af9; stroke-width:2; stroke-opacity:1; fill:none" points="
  273.023,11.811 276.801,11.811 
  "/>
<polyline clip-path="url(#clip3202)" style="stroke:#009af9; stroke-width:2; stroke-opacity:1; fill:none" points="
  276.801,11.811 280.579,11.811 
  "/>
<polyline clip-path="url(#clip3202)" style="stroke:#009af9; stroke-width:2; stroke-opacity:1; fill:none" points="
  280.579,11.811 284.357,11.811 
  "/>
<polyline clip-path="url(#clip3202)" style="stroke:#009af9; stroke-width:2; stroke-opacity:1; fill:none" points="
  284.357,11.811 288.135,11.811 
  "/>
<polyline clip-path="url(#clip3202)" style="stroke:#009af9; stroke-width:2; stroke-opacity:1; fill:none" points="
  288.135,11.811 291.913,11.811 
  "/>
<polyline clip-path="url(#clip3202)" style="stroke:#009af9; stroke-width:2; stroke-opacity:1; fill:none" points="
  291.913,11.811 295.691,11.811 
  "/>
<polyline clip-path="url(#clip3202)" style="stroke:#009af9; stroke-width:2; stroke-opacity:1; fill:none" points="
  295.691,11.811 299.469,11.811 
  "/>
<polyline clip-path="url(#clip3202)" style="stroke:#009af9; stroke-width:2; stroke-opacity:1; fill:none" points="
  299.469,11.811 303.247,11.811 
  "/>
<polyline clip-path="url(#clip3202)" style="stroke:#009af9; stroke-width:2; stroke-opacity:1; fill:none" points="
  303.247,11.811 307.025,11.811 
  "/>
<polyline clip-path="url(#clip3202)" style="stroke:#009af9; stroke-width:2; stroke-opacity:1; fill:none" points="
  307.025,11.811 310.803,11.811 
  "/>
<polyline clip-path="url(#clip3202)" style="stroke:#009af9; stroke-width:2; stroke-opacity:1; fill:none" points="
  310.803,11.811 314.581,11.811 
  "/>
<polyline clip-path="url(#clip3202)" style="stroke:#009af9; stroke-width:2; stroke-opacity:1; fill:none" points="
  314.581,11.811 318.359,11.811 
  "/>
<polyline clip-path="url(#clip3202)" style="stroke:#009af9; stroke-width:2; stroke-opacity:1; fill:none" points="
  318.359,11.811 322.137,11.811 
  "/>
<polyline clip-path="url(#clip3202)" style="stroke:#009af9; stroke-width:2; stroke-opacity:1; fill:none" points="
  322.137,11.811 325.915,11.811 
  "/>
<polyline clip-path="url(#clip3202)" style="stroke:#009af9; stroke-width:2; stroke-opacity:1; fill:none" points="
  325.915,11.811 329.693,11.811 
  "/>
<polyline clip-path="url(#clip3202)" style="stroke:#009af9; stroke-width:2; stroke-opacity:1; fill:none" points="
  329.693,11.811 333.471,11.811 
  "/>
<polyline clip-path="url(#clip3202)" style="stroke:#009af9; stroke-width:2; stroke-opacity:1; fill:none" points="
  333.471,11.811 337.249,11.811 
  "/>
<polyline clip-path="url(#clip3202)" style="stroke:#009af9; stroke-width:2; stroke-opacity:1; fill:none" points="
  337.249,11.811 341.027,11.811 
  "/>
<polyline clip-path="url(#clip3202)" style="stroke:#009af9; stroke-width:2; stroke-opacity:1; fill:none" points="
  341.027,11.811 344.805,11.811 
  "/>
<polyline clip-path="url(#clip3202)" style="stroke:#009af9; stroke-width:2; stroke-opacity:1; fill:none" points="
  344.805,11.811 348.583,11.811 
  "/>
<polyline clip-path="url(#clip3202)" style="stroke:#009af9; stroke-width:2; stroke-opacity:1; fill:none" points="
  348.583,11.811 352.361,11.811 
  "/>
<polyline clip-path="url(#clip3202)" style="stroke:#009af9; stroke-width:2; stroke-opacity:1; fill:none" points="
  352.361,11.811 356.139,11.811 
  "/>
<polyline clip-path="url(#clip3202)" style="stroke:#009af9; stroke-width:2; stroke-opacity:1; fill:none" points="
  356.139,11.811 359.917,11.811 
  "/>
<polyline clip-path="url(#clip3202)" style="stroke:#009af9; stroke-width:2; stroke-opacity:1; fill:none" points="
  359.917,11.811 363.695,11.811 
  "/>
<polyline clip-path="url(#clip3202)" style="stroke:#009af9; stroke-width:2; stroke-opacity:1; fill:none" points="
  363.695,11.811 367.473,11.811 
  "/>
<polyline clip-path="url(#clip3202)" style="stroke:#009af9; stroke-width:2; stroke-opacity:1; fill:none" points="
  367.473,11.811 371.251,11.811 
  "/>
<polyline clip-path="url(#clip3202)" style="stroke:#009af9; stroke-width:2; stroke-opacity:1; fill:none" points="
  371.251,11.811 375.029,11.811 
  "/>
<polyline clip-path="url(#clip3202)" style="stroke:#009af9; stroke-width:2; stroke-opacity:1; fill:none" points="
  375.029,11.811 378.807,11.811 
  "/>
<polyline clip-path="url(#clip3202)" style="stroke:#009af9; stroke-width:2; stroke-opacity:1; fill:none" points="
  378.807,11.811 382.585,11.811 
  "/>
<polyline clip-path="url(#clip3202)" style="stroke:#009af9; stroke-width:2; stroke-opacity:1; fill:none" points="
  382.585,11.811 386.363,11.811 
  "/>
<polyline clip-path="url(#clip3202)" style="stroke:#009af9; stroke-width:2; stroke-opacity:1; fill:none" points="
  386.363,11.811 390.141,11.811 
  "/>
<polyline clip-path="url(#clip3202)" style="stroke:#009af9; stroke-width:2; stroke-opacity:1; fill:none" points="
  390.141,11.811 393.919,11.811 
  "/>
<polyline clip-path="url(#clip3202)" style="stroke:#009af9; stroke-width:2; stroke-opacity:1; fill:none" points="
  393.919,11.811 397.697,11.811 
  "/>
<polyline clip-path="url(#clip3202)" style="stroke:#009af9; stroke-width:2; stroke-opacity:1; fill:none" points="
  397.697,11.811 401.475,11.811 
  "/>
<polyline clip-path="url(#clip3202)" style="stroke:#009af9; stroke-width:2; stroke-opacity:1; fill:none" points="
  401.475,11.811 405.253,11.811 
  "/>
<polyline clip-path="url(#clip3202)" style="stroke:#009af9; stroke-width:2; stroke-opacity:1; fill:none" points="
  405.253,11.811 409.031,11.811 
  "/>
<polyline clip-path="url(#clip3202)" style="stroke:#009af9; stroke-width:2; stroke-opacity:1; fill:none" points="
  409.031,11.811 412.809,11.811 
  "/>
<polyline clip-path="url(#clip3202)" style="stroke:#009af9; stroke-width:2; stroke-opacity:1; fill:none" points="
  412.809,11.811 416.587,11.811 
  "/>
<polyline clip-path="url(#clip3202)" style="stroke:#009af9; stroke-width:2; stroke-opacity:1; fill:none" points="
  416.587,11.811 420.365,11.811 
  "/>
<polyline clip-path="url(#clip3202)" style="stroke:#009af9; stroke-width:2; stroke-opacity:1; fill:none" points="
  420.365,11.811 424.143,11.8111 
  "/>
<polyline clip-path="url(#clip3202)" style="stroke:#009af9; stroke-width:2; stroke-opacity:1; fill:none" points="
  424.143,11.8111 427.921,11.8111 
  "/>
<polyline clip-path="url(#clip3202)" style="stroke:#009af9; stroke-width:2; stroke-opacity:1; fill:none" points="
  427.921,11.8111 431.699,11.8111 
  "/>
<polyline clip-path="url(#clip3202)" style="stroke:#009af9; stroke-width:2; stroke-opacity:1; fill:none" points="
  431.699,11.8111 435.477,11.8111 
  "/>
<polyline clip-path="url(#clip3202)" style="stroke:#009af9; stroke-width:2; stroke-opacity:1; fill:none" points="
  435.477,11.8111 439.255,11.8111 
  "/>
<polyline clip-path="url(#clip3202)" style="stroke:#009af9; stroke-width:2; stroke-opacity:1; fill:none" points="
  439.255,11.8111 443.033,11.8111 
  "/>
<polyline clip-path="url(#clip3202)" style="stroke:#009af9; stroke-width:2; stroke-opacity:1; fill:none" points="
  443.033,11.8111 446.811,11.8112 
  "/>
<polyline clip-path="url(#clip3202)" style="stroke:#009af9; stroke-width:2; stroke-opacity:1; fill:none" points="
  446.811,11.8112 450.589,11.8113 
  "/>
<polyline clip-path="url(#clip3202)" style="stroke:#009af9; stroke-width:2; stroke-opacity:1; fill:none" points="
  450.589,11.8113 454.367,11.8113 
  "/>
<polyline clip-path="url(#clip3202)" style="stroke:#009af9; stroke-width:2; stroke-opacity:1; fill:none" points="
  454.367,11.8113 458.145,11.8114 
  "/>
<polyline clip-path="url(#clip3202)" style="stroke:#009af9; stroke-width:2; stroke-opacity:1; fill:none" points="
  458.145,11.8114 461.923,11.8116 
  "/>
<polyline clip-path="url(#clip3202)" style="stroke:#009af9; stroke-width:2; stroke-opacity:1; fill:none" points="
  461.923,11.8116 465.701,11.8118 
  "/>
<polyline clip-path="url(#clip3202)" style="stroke:#009af9; stroke-width:2; stroke-opacity:1; fill:none" points="
  465.701,11.8118 469.479,11.8121 
  "/>
<polyline clip-path="url(#clip3202)" style="stroke:#009af9; stroke-width:2; stroke-opacity:1; fill:none" points="
  469.479,11.8121 473.257,11.8124 
  "/>
<polyline clip-path="url(#clip3202)" style="stroke:#009af9; stroke-width:2; stroke-opacity:1; fill:none" points="
  473.257,11.8124 477.034,11.8129 
  "/>
<polyline clip-path="url(#clip3202)" style="stroke:#009af9; stroke-width:2; stroke-opacity:1; fill:none" points="
  477.034,11.8129 480.812,11.8136 
  "/>
<polyline clip-path="url(#clip3202)" style="stroke:#009af9; stroke-width:2; stroke-opacity:1; fill:none" points="
  480.812,11.8136 484.59,11.8145 
  "/>
<polyline clip-path="url(#clip3202)" style="stroke:#009af9; stroke-width:2; stroke-opacity:1; fill:none" points="
  484.59,11.8145 488.368,11.8157 
  "/>
<polyline clip-path="url(#clip3202)" style="stroke:#009af9; stroke-width:2; stroke-opacity:1; fill:none" points="
  488.368,11.8157 492.146,11.8174 
  "/>
<polyline clip-path="url(#clip3202)" style="stroke:#009af9; stroke-width:2; stroke-opacity:1; fill:none" points="
  492.146,11.8174 495.924,11.8196 
  "/>
<polyline clip-path="url(#clip3202)" style="stroke:#009af9; stroke-width:2; stroke-opacity:1; fill:none" points="
  495.924,11.8196 499.702,11.8227 
  "/>
<polyline clip-path="url(#clip3202)" style="stroke:#009af9; stroke-width:2; stroke-opacity:1; fill:none" points="
  499.702,11.8227 503.48,11.8267 
  "/>
<polyline clip-path="url(#clip3202)" style="stroke:#009af9; stroke-width:2; stroke-opacity:1; fill:none" points="
  503.48,11.8267 507.258,11.8323 
  "/>
<polyline clip-path="url(#clip3202)" style="stroke:#009af9; stroke-width:2; stroke-opacity:1; fill:none" points="
  507.258,11.8323 511.036,11.8397 
  "/>
<polyline clip-path="url(#clip3202)" style="stroke:#009af9; stroke-width:2; stroke-opacity:1; fill:none" points="
  511.036,11.8397 514.814,11.8499 
  "/>
<polyline clip-path="url(#clip3202)" style="stroke:#009af9; stroke-width:2; stroke-opacity:1; fill:none" points="
  514.814,11.8499 518.592,11.8635 
  "/>
<polyline clip-path="url(#clip3202)" style="stroke:#009af9; stroke-width:2; stroke-opacity:1; fill:none" points="
  518.592,11.8635 522.37,11.882 
  "/>
<polyline clip-path="url(#clip3202)" style="stroke:#009af9; stroke-width:2; stroke-opacity:1; fill:none" points="
  522.37,11.882 526.148,11.9069 
  "/>
<polyline clip-path="url(#clip3202)" style="stroke:#009af9; stroke-width:2; stroke-opacity:1; fill:none" points="
  526.148,11.9069 529.926,11.9407 
  "/>
<polyline clip-path="url(#clip3202)" style="stroke:#009af9; stroke-width:2; stroke-opacity:1; fill:none" points="
  529.926,11.9407 533.704,11.9862 
  "/>
<polyline clip-path="url(#clip3202)" style="stroke:#009af9; stroke-width:2; stroke-opacity:1; fill:none" points="
  533.704,11.9862 537.482,12.0478 
  "/>
<polyline clip-path="url(#clip3202)" style="stroke:#009af9; stroke-width:2; stroke-opacity:1; fill:none" points="
  537.482,12.0478 541.26,12.1309 
  "/>
<polyline clip-path="url(#clip3202)" style="stroke:#009af9; stroke-width:2; stroke-opacity:1; fill:none" points="
  541.26,12.1309 545.038,12.2431 
  "/>
<polyline clip-path="url(#clip3202)" style="stroke:#009af9; stroke-width:2; stroke-opacity:1; fill:none" points="
  545.038,12.2431 548.816,12.3946 
  "/>
<polyline clip-path="url(#clip3202)" style="stroke:#009af9; stroke-width:2; stroke-opacity:1; fill:none" points="
  548.816,12.3946 552.594,12.5989 
  "/>
<polyline clip-path="url(#clip3202)" style="stroke:#009af9; stroke-width:2; stroke-opacity:1; fill:none" points="
  552.594,12.5989 556.372,12.8742 
  "/>
<polyline clip-path="url(#clip3202)" style="stroke:#009af9; stroke-width:2; stroke-opacity:1; fill:none" points="
  556.372,12.8742 560.15,13.2447 
  "/>
<polyline clip-path="url(#clip3202)" style="stroke:#009af9; stroke-width:2; stroke-opacity:1; fill:none" points="
  560.15,13.2447 563.928,13.7428 
  "/>
<polyline clip-path="url(#clip3202)" style="stroke:#009af9; stroke-width:2; stroke-opacity:1; fill:none" points="
  563.928,13.7428 567.706,14.4108 
  "/>
<polyline clip-path="url(#clip3202)" style="stroke:#009af9; stroke-width:2; stroke-opacity:1; fill:none" points="
  567.706,14.4108 571.484,15.3044 
  "/>
<polyline clip-path="url(#clip3202)" style="stroke:#009af9; stroke-width:2; stroke-opacity:1; fill:none" points="
  571.484,15.3044 575.262,16.4954 
  "/>
<polyline clip-path="url(#clip3202)" style="stroke:#009af9; stroke-width:2; stroke-opacity:1; fill:none" points="
  575.262,16.4954 579.04,18.0751 
  "/>
<polyline clip-path="url(#clip3202)" style="stroke:#009af9; stroke-width:2; stroke-opacity:1; fill:none" points="
  579.04,18.0751 582.818,20.157 
  "/>
<polyline clip-path="url(#clip3202)" style="stroke:#009af9; stroke-width:2; stroke-opacity:1; fill:none" points="
  582.818,20.157 586.596,22.8778 
  "/>
<polyline clip-path="url(#clip3202)" style="stroke:#009af9; stroke-width:2; stroke-opacity:1; fill:none" points="
  586.596,22.8778 590.374,26.3944 
  "/>
<polyline clip-path="url(#clip3202)" style="stroke:#009af9; stroke-width:2; stroke-opacity:1; fill:none" points="
  590.374,26.3944 594.152,30.8756 
  "/>
<polyline clip-path="url(#clip3202)" style="stroke:#009af9; stroke-width:2; stroke-opacity:1; fill:none" points="
  594.152,30.8756 597.93,36.4835 
  "/>
<polyline clip-path="url(#clip3202)" style="stroke:#009af9; stroke-width:2; stroke-opacity:1; fill:none" points="
  597.93,36.4835 601.708,43.3449 
  "/>
<polyline clip-path="url(#clip3202)" style="stroke:#009af9; stroke-width:2; stroke-opacity:1; fill:none" points="
  601.708,43.3449 605.486,51.5117 
  "/>
<polyline clip-path="url(#clip3202)" style="stroke:#009af9; stroke-width:2; stroke-opacity:1; fill:none" points="
  605.486,51.5117 609.264,60.9194 
  "/>
<polyline clip-path="url(#clip3202)" style="stroke:#009af9; stroke-width:2; stroke-opacity:1; fill:none" points="
  609.264,60.9194 613.042,71.357 
  "/>
<polyline clip-path="url(#clip3202)" style="stroke:#009af9; stroke-width:2; stroke-opacity:1; fill:none" points="
  613.042,71.357 616.82,82.4649 
  "/>
<polyline clip-path="url(#clip3202)" style="stroke:#009af9; stroke-width:2; stroke-opacity:1; fill:none" points="
  616.82,82.4649 620.598,93.7749 
  "/>
<polyline clip-path="url(#clip3202)" style="stroke:#009af9; stroke-width:2; stroke-opacity:1; fill:none" points="
  620.598,93.7749 624.376,104.784 
  "/>
<polyline clip-path="url(#clip3202)" style="stroke:#009af9; stroke-width:2; stroke-opacity:1; fill:none" points="
  624.376,104.784 628.154,115.04 
  "/>
<polyline clip-path="url(#clip3202)" style="stroke:#009af9; stroke-width:2; stroke-opacity:1; fill:none" points="
  628.154,115.04 631.932,124.211 
  "/>
<polyline clip-path="url(#clip3202)" style="stroke:#009af9; stroke-width:2; stroke-opacity:1; fill:none" points="
  631.932,124.211 635.71,132.118 
  "/>
<polyline clip-path="url(#clip3202)" style="stroke:#009af9; stroke-width:2; stroke-opacity:1; fill:none" points="
  635.71,132.118 639.488,138.721 
  "/>
<polyline clip-path="url(#clip3202)" style="stroke:#009af9; stroke-width:2; stroke-opacity:1; fill:none" points="
  639.488,138.721 643.266,144.092 
  "/>
<polyline clip-path="url(#clip3202)" style="stroke:#009af9; stroke-width:2; stroke-opacity:1; fill:none" points="
  643.266,144.092 647.044,148.367 
  "/>
<polyline clip-path="url(#clip3202)" style="stroke:#009af9; stroke-width:2; stroke-opacity:1; fill:none" points="
  647.044,148.367 650.822,151.711 
  "/>
<polyline clip-path="url(#clip3202)" style="stroke:#009af9; stroke-width:2; stroke-opacity:1; fill:none" points="
  650.822,151.711 654.6,154.292 
  "/>
<polyline clip-path="url(#clip3202)" style="stroke:#009af9; stroke-width:2; stroke-opacity:1; fill:none" points="
  654.6,154.292 658.378,156.263 
  "/>
<polyline clip-path="url(#clip3202)" style="stroke:#009af9; stroke-width:2; stroke-opacity:1; fill:none" points="
  658.378,156.263 662.156,157.757 
  "/>
<polyline clip-path="url(#clip3202)" style="stroke:#009af9; stroke-width:2; stroke-opacity:1; fill:none" points="
  662.156,157.757 665.934,158.882 
  "/>
<polyline clip-path="url(#clip3202)" style="stroke:#009af9; stroke-width:2; stroke-opacity:1; fill:none" points="
  665.934,158.882 669.712,159.725 
  "/>
<polyline clip-path="url(#clip3202)" style="stroke:#009af9; stroke-width:2; stroke-opacity:1; fill:none" points="
  669.712,159.725 673.49,160.355 
  "/>
<polyline clip-path="url(#clip3202)" style="stroke:#009af9; stroke-width:2; stroke-opacity:1; fill:none" points="
  673.49,160.355 677.268,160.824 
  "/>
<polyline clip-path="url(#clip3202)" style="stroke:#009af9; stroke-width:2; stroke-opacity:1; fill:none" points="
  677.268,160.824 681.046,161.174 
  "/>
<polyline clip-path="url(#clip3202)" style="stroke:#009af9; stroke-width:2; stroke-opacity:1; fill:none" points="
  681.046,161.174 684.824,161.433 
  "/>
<polyline clip-path="url(#clip3202)" style="stroke:#009af9; stroke-width:2; stroke-opacity:1; fill:none" points="
  684.824,161.433 688.602,161.625 
  "/>
<polyline clip-path="url(#clip3202)" style="stroke:#009af9; stroke-width:2; stroke-opacity:1; fill:none" points="
  688.602,161.625 692.38,161.768 
  "/>
<polyline clip-path="url(#clip3202)" style="stroke:#009af9; stroke-width:2; stroke-opacity:1; fill:none" points="
  692.38,161.768 696.158,161.874 
  "/>
<polyline clip-path="url(#clip3202)" style="stroke:#009af9; stroke-width:2; stroke-opacity:1; fill:none" points="
  696.158,161.874 699.936,161.952 
  "/>
<polyline clip-path="url(#clip3202)" style="stroke:#009af9; stroke-width:2; stroke-opacity:1; fill:none" points="
  699.936,161.952 703.714,162.01 
  "/>
<polyline clip-path="url(#clip3202)" style="stroke:#009af9; stroke-width:2; stroke-opacity:1; fill:none" points="
  703.714,162.01 707.492,162.053 
  "/>
<polyline clip-path="url(#clip3202)" style="stroke:#009af9; stroke-width:2; stroke-opacity:1; fill:none" points="
  707.492,162.053 711.27,162.085 
  "/>
<polyline clip-path="url(#clip3202)" style="stroke:#009af9; stroke-width:2; stroke-opacity:1; fill:none" points="
  711.27,162.085 715.048,162.108 
  "/>
<polyline clip-path="url(#clip3202)" style="stroke:#009af9; stroke-width:2; stroke-opacity:1; fill:none" points="
  715.048,162.108 718.826,162.126 
  "/>
<polyline clip-path="url(#clip3202)" style="stroke:#009af9; stroke-width:2; stroke-opacity:1; fill:none" points="
  718.826,162.126 722.604,162.138 
  "/>
<polyline clip-path="url(#clip3202)" style="stroke:#009af9; stroke-width:2; stroke-opacity:1; fill:none" points="
  722.604,162.138 726.382,162.148 
  "/>
<polyline clip-path="url(#clip3202)" style="stroke:#009af9; stroke-width:2; stroke-opacity:1; fill:none" points="
  726.382,162.148 730.16,162.155 
  "/>
<polyline clip-path="url(#clip3202)" style="stroke:#009af9; stroke-width:2; stroke-opacity:1; fill:none" points="
  730.16,162.155 733.938,162.16 
  "/>
<polyline clip-path="url(#clip3202)" style="stroke:#009af9; stroke-width:2; stroke-opacity:1; fill:none" points="
  733.938,162.16 737.716,162.164 
  "/>
<polyline clip-path="url(#clip3202)" style="stroke:#009af9; stroke-width:2; stroke-opacity:1; fill:none" points="
  737.716,162.164 741.494,162.167 
  "/>
<polyline clip-path="url(#clip3202)" style="stroke:#009af9; stroke-width:2; stroke-opacity:1; fill:none" points="
  741.494,162.167 745.272,162.169 
  "/>
<polyline clip-path="url(#clip3202)" style="stroke:#009af9; stroke-width:2; stroke-opacity:1; fill:none" points="
  745.272,162.169 749.05,162.171 
  "/>
<polyline clip-path="url(#clip3202)" style="stroke:#009af9; stroke-width:2; stroke-opacity:1; fill:none" points="
  749.05,162.171 752.828,162.172 
  "/>
<polyline clip-path="url(#clip3202)" style="stroke:#009af9; stroke-width:2; stroke-opacity:1; fill:none" points="
  752.828,162.172 756.606,162.173 
  "/>
<polyline clip-path="url(#clip3202)" style="stroke:#009af9; stroke-width:2; stroke-opacity:1; fill:none" points="
  756.606,162.173 760.384,162.173 
  "/>
<polyline clip-path="url(#clip3202)" style="stroke:#009af9; stroke-width:2; stroke-opacity:1; fill:none" points="
  760.384,162.173 764.162,162.174 
  "/>
<polyline clip-path="url(#clip3202)" style="stroke:#009af9; stroke-width:2; stroke-opacity:1; fill:none" points="
  764.162,162.174 767.94,162.174 
  "/>
<polyline clip-path="url(#clip3202)" style="stroke:#009af9; stroke-width:2; stroke-opacity:1; fill:none" points="
  767.94,162.174 771.718,162.174 
  "/>
<polyline clip-path="url(#clip3202)" style="stroke:#009af9; stroke-width:2; stroke-opacity:1; fill:none" points="
  771.718,162.174 775.496,162.175 
  "/>
<polyline clip-path="url(#clip3202)" style="stroke:#009af9; stroke-width:2; stroke-opacity:1; fill:none" points="
  775.496,162.175 779.274,162.175 
  "/>
<polyline clip-path="url(#clip3202)" style="stroke:#009af9; stroke-width:2; stroke-opacity:1; fill:none" points="
  779.274,162.175 783.052,162.175 
  "/>
<polyline clip-path="url(#clip3202)" style="stroke:#009af9; stroke-width:2; stroke-opacity:1; fill:none" points="
  783.052,162.175 786.83,162.175 
  "/>
<polyline clip-path="url(#clip3202)" style="stroke:#009af9; stroke-width:2; stroke-opacity:1; fill:none" points="
  786.83,162.175 790.608,162.175 
  "/>
<polyline clip-path="url(#clip3202)" style="stroke:#009af9; stroke-width:2; stroke-opacity:1; fill:none" points="
  790.608,162.175 794.386,162.175 
  "/>
<polyline clip-path="url(#clip3202)" style="stroke:#009af9; stroke-width:2; stroke-opacity:1; fill:none" points="
  794.386,162.175 798.164,162.175 
  "/>
<polyline clip-path="url(#clip3202)" style="stroke:#009af9; stroke-width:2; stroke-opacity:1; fill:none" points="
  798.164,162.175 801.942,162.175 
  "/>
<polyline clip-path="url(#clip3202)" style="stroke:#009af9; stroke-width:2; stroke-opacity:1; fill:none" points="
  801.942,162.175 805.72,162.175 
  "/>
<polyline clip-path="url(#clip3202)" style="stroke:#009af9; stroke-width:2; stroke-opacity:1; fill:none" points="
  805.72,162.175 809.498,162.175 
  "/>
<polyline clip-path="url(#clip3202)" style="stroke:#009af9; stroke-width:2; stroke-opacity:1; fill:none" points="
  809.498,162.175 813.276,162.175 
  "/>
<polyline clip-path="url(#clip3202)" style="stroke:#009af9; stroke-width:2; stroke-opacity:1; fill:none" points="
  813.276,162.175 817.054,162.175 
  "/>
<polyline clip-path="url(#clip3202)" style="stroke:#009af9; stroke-width:2; stroke-opacity:1; fill:none" points="
  817.054,162.175 820.832,162.175 
  "/>
<polyline clip-path="url(#clip3202)" style="stroke:#009af9; stroke-width:2; stroke-opacity:1; fill:none" points="
  820.832,162.175 824.61,162.175 
  "/>
<polyline clip-path="url(#clip3202)" style="stroke:#009af9; stroke-width:2; stroke-opacity:1; fill:none" points="
  824.61,162.175 828.388,162.175 
  "/>
<polyline clip-path="url(#clip3202)" style="stroke:#009af9; stroke-width:2; stroke-opacity:1; fill:none" points="
  828.388,162.175 832.166,162.175 
  "/>
<polyline clip-path="url(#clip3202)" style="stroke:#009af9; stroke-width:2; stroke-opacity:1; fill:none" points="
  832.166,162.175 835.944,162.175 
  "/>
<polyline clip-path="url(#clip3202)" style="stroke:#009af9; stroke-width:2; stroke-opacity:1; fill:none" points="
  835.944,162.175 839.722,162.175 
  "/>
<polyline clip-path="url(#clip3202)" style="stroke:#009af9; stroke-width:2; stroke-opacity:1; fill:none" points="
  839.722,162.175 843.5,162.175 
  "/>
<polyline clip-path="url(#clip3202)" style="stroke:#009af9; stroke-width:2; stroke-opacity:1; fill:none" points="
  843.5,162.175 847.278,162.175 
  "/>
<polyline clip-path="url(#clip3202)" style="stroke:#009af9; stroke-width:2; stroke-opacity:1; fill:none" points="
  847.278,162.175 851.056,162.175 
  "/>
<polyline clip-path="url(#clip3202)" style="stroke:#009af9; stroke-width:2; stroke-opacity:1; fill:none" points="
  851.056,162.175 854.834,162.175 
  "/>
<polyline clip-path="url(#clip3202)" style="stroke:#009af9; stroke-width:2; stroke-opacity:1; fill:none" points="
  854.834,162.175 858.612,162.175 
  "/>
<polyline clip-path="url(#clip3202)" style="stroke:#009af9; stroke-width:2; stroke-opacity:1; fill:none" points="
  858.612,162.175 862.39,162.175 
  "/>
<polyline clip-path="url(#clip3202)" style="stroke:#009af9; stroke-width:2; stroke-opacity:1; fill:none" points="
  862.39,162.175 866.168,162.175 
  "/>
<polyline clip-path="url(#clip3202)" style="stroke:#009af9; stroke-width:2; stroke-opacity:1; fill:none" points="
  866.168,162.175 869.946,162.175 
  "/>
<polyline clip-path="url(#clip3202)" style="stroke:#009af9; stroke-width:2; stroke-opacity:1; fill:none" points="
  869.946,162.175 873.724,162.175 
  "/>
<polyline clip-path="url(#clip3202)" style="stroke:#009af9; stroke-width:2; stroke-opacity:1; fill:none" points="
  873.724,162.175 877.501,162.175 
  "/>
<polyline clip-path="url(#clip3202)" style="stroke:#009af9; stroke-width:2; stroke-opacity:1; fill:none" points="
  877.501,162.175 881.279,162.175 
  "/>
<polyline clip-path="url(#clip3202)" style="stroke:#009af9; stroke-width:2; stroke-opacity:1; fill:none" points="
  881.279,162.175 885.057,162.175 
  "/>
<polyline clip-path="url(#clip3202)" style="stroke:#009af9; stroke-width:2; stroke-opacity:1; fill:none" points="
  885.057,162.175 888.835,162.175 
  "/>
<polyline clip-path="url(#clip3202)" style="stroke:#009af9; stroke-width:2; stroke-opacity:1; fill:none" points="
  888.835,162.175 892.613,162.175 
  "/>
<polyline clip-path="url(#clip3202)" style="stroke:#009af9; stroke-width:2; stroke-opacity:1; fill:none" points="
  892.613,162.175 896.391,162.175 
  "/>
<polyline clip-path="url(#clip3202)" style="stroke:#009af9; stroke-width:2; stroke-opacity:1; fill:none" points="
  896.391,162.175 900.169,162.175 
  "/>
<polyline clip-path="url(#clip3202)" style="stroke:#009af9; stroke-width:2; stroke-opacity:1; fill:none" points="
  900.169,162.175 903.947,162.175 
  "/>
<polyline clip-path="url(#clip3202)" style="stroke:#009af9; stroke-width:2; stroke-opacity:1; fill:none" points="
  903.947,162.175 907.725,162.175 
  "/>
<polyline clip-path="url(#clip3202)" style="stroke:#009af9; stroke-width:2; stroke-opacity:1; fill:none" points="
  907.725,162.175 911.503,162.175 
  "/>
<polyline clip-path="url(#clip3202)" style="stroke:#009af9; stroke-width:2; stroke-opacity:1; fill:none" points="
  911.503,162.175 915.281,162.175 
  "/>
<polyline clip-path="url(#clip3202)" style="stroke:#009af9; stroke-width:2; stroke-opacity:1; fill:none" points="
  915.281,162.175 919.059,162.175 
  "/>
</svg>
