<?xml version="1.0" encoding="utf-8"?>
<svg xmlns="http://www.w3.org/2000/svg" xmlns:xlink="http://www.w3.org/1999/xlink" width="600" height="200" viewBox="0 0 600 200">
<defs>
  <clipPath id="clip0200">
    <rect x="0" y="0" width="600" height="200"/>
  </clipPath>
</defs>
<polygon clip-path="url(#clip0200)" points="
0,200 600,200 600,0 0,0 
  " fill="#ffffff" fill-opacity="1"/>
<defs>
  <clipPath id="clip0201">
    <rect x="120" y="0" width="421" height="200"/>
  </clipPath>
</defs>
<polygon clip-path="url(#clip0200)" points="
137.296,162.216 498.269,162.216 498.269,11.811 137.296,11.811 
  " fill="#ffffff" fill-opacity="1"/>
<defs>
  <clipPath id="clip0202">
    <rect x="137" y="11" width="362" height="151"/>
  </clipPath>
</defs>
<polyline clip-path="url(#clip0200)" style="stroke:#000000; stroke-width:1; stroke-opacity:1; fill:none" points="
  137.296,162.216 498.269,162.216 
  "/>
<polyline clip-path="url(#clip0200)" style="stroke:#000000; stroke-width:1; stroke-opacity:1; fill:none" points="
  137.296,162.216 137.296,11.811 
  "/>
<polyline clip-path="url(#clip0200)" style="stroke:#000000; stroke-width:1; stroke-opacity:1; fill:none" points="
  167.377,162.216 167.377,159.96 
  "/>
<polyline clip-path="url(#clip0200)" style="stroke:#000000; stroke-width:1; stroke-opacity:1; fill:none" points="
  242.58,162.216 242.58,159.96 
  "/>
<polyline clip-path="url(#clip0200)" style="stroke:#000000; stroke-width:1; stroke-opacity:1; fill:none" points="
  317.783,162.216 317.783,159.96 
  "/>
<polyline clip-path="url(#clip0200)" style="stroke:#000000; stroke-width:1; stroke-opacity:1; fill:none" points="
  392.985,162.216 392.985,159.96 
  "/>
<polyline clip-path="url(#clip0200)" style="stroke:#000000; stroke-width:1; stroke-opacity:1; fill:none" points="
  468.188,162.216 468.188,159.96 
  "/>
<polyline clip-path="url(#clip0200)" style="stroke:#000000; stroke-width:1; stroke-opacity:1; fill:none" points="
  137.296,132.135 142.711,132.135 
  "/>
<polyline clip-path="url(#clip0200)" style="stroke:#000000; stroke-width:1; stroke-opacity:1; fill:none" points="
  137.296,102.054 142.711,102.054 
  "/>
<polyline clip-path="url(#clip0200)" style="stroke:#000000; stroke-width:1; stroke-opacity:1; fill:none" points="
  137.296,71.9732 142.711,71.9732 
  "/>
<polyline clip-path="url(#clip0200)" style="stroke:#000000; stroke-width:1; stroke-opacity:1; fill:none" points="
  137.296,41.8921 142.711,41.8921 
  "/>
<g clip-path="url(#clip0200)">
<text style="fill:#000000; fill-opacity:1; font-family:Arial,Helvetica Neue,Helvetica,sans-serif; font-size:12; text-anchor:middle;" transform="rotate(0, 167.377, 176.016)" x="167.377" y="176.016">-1.0</text>
</g>
<g clip-path="url(#clip0200)">
<text style="fill:#000000; fill-opacity:1; font-family:Arial,Helvetica Neue,Helvetica,sans-serif; font-size:12; text-anchor:middle;" transform="rotate(0, 242.58, 176.016)" x="242.58" y="176.016">-0.5</text>
</g>
<g clip-path="url(#clip0200)">
<text style="fill:#000000; fill-opacity:1; font-family:Arial,Helvetica Neue,Helvetica,sans-serif; font-size:12; text-anchor:middle;" transform="rotate(0, 317.783, 176.016)" x="317.783" y="176.016">0.0</text>
</g>
<g clip-path="url(#clip0200)">
<text style="fill:#000000; fill-opacity:1; font-family:Arial,Helvetica Neue,Helvetica,sans-serif; font-size:12; text-anchor:middle;" transform="rotate(0, 392.985, 176.016)" x="392.985" y="176.016">0.5</text>
</g>
<g clip-path="url(#clip0200)">
<text style="fill:#000000; fill-opacity:1; font-family:Arial,Helvetica Neue,Helvetica,sans-serif; font-size:12; text-anchor:middle;" transform="rotate(0, 468.188, 176.016)" x="468.188" y="176.016">1.0</text>
</g>
<g clip-path="url(#clip0200)">
<text style="fill:#000000; fill-opacity:1; font-family:Arial,Helvetica Neue,Helvetica,sans-serif; font-size:12; text-anchor:end;" transform="rotate(0, 131.296, 136.635)" x="131.296" y="136.635">-0.8</text>
</g>
<g clip-path="url(#clip0200)">
<text style="fill:#000000; fill-opacity:1; font-family:Arial,Helvetica Neue,Helvetica,sans-serif; font-size:12; text-anchor:end;" transform="rotate(0, 131.296, 106.554)" x="131.296" y="106.554">-0.6</text>
</g>
<g clip-path="url(#clip0200)">
<text style="fill:#000000; fill-opacity:1; font-family:Arial,Helvetica Neue,Helvetica,sans-serif; font-size:12; text-anchor:end;" transform="rotate(0, 131.296, 76.4732)" x="131.296" y="76.4732">-0.4</text>
</g>
<g clip-path="url(#clip0200)">
<text style="fill:#000000; fill-opacity:1; font-family:Arial,Helvetica Neue,Helvetica,sans-serif; font-size:12; text-anchor:end;" transform="rotate(0, 131.296, 46.3921)" x="131.296" y="46.3921">-0.2</text>
</g>
<g clip-path="url(#clip0200)">
<text style="fill:#000000; fill-opacity:1; font-family:Arial,Helvetica Neue,Helvetica,sans-serif; font-size:16; text-anchor:middle;" transform="rotate(0, 317.783, 197.6)" x="317.783" y="197.6">t</text>
</g>
<g clip-path="url(#clip0200)">
<text style="fill:#000000; fill-opacity:1; font-family:Arial,Helvetica Neue,Helvetica,sans-serif; font-size:16; text-anchor:middle;" transform="rotate(-90, 14.4, 87.0137)" x="14.4" y="87.0137">Smoothed Ramp</text>
</g>
<polyline clip-path="url(#clip0202)" style="stroke:#009af9; stroke-width:2; stroke-opacity:1; fill:none" points="
  167.377,11.811 171.156,11.811 174.935,11.811 178.714,11.811 182.493,11.811 186.272,11.811 190.051,11.811 193.83,11.811 197.609,11.811 201.388,11.811 
  205.167,11.811 208.946,11.811 212.725,11.811 216.504,11.811 220.283,11.811 224.063,11.811 227.842,11.811 231.621,11.811 235.4,11.811 239.179,11.811 
  242.958,11.811 246.737,11.811 250.516,11.811 254.295,11.811 258.074,11.811 261.853,11.811 265.632,11.811 269.411,11.811 273.19,11.811 276.969,11.811 
  280.748,11.811 284.527,11.811 288.306,11.811 292.085,11.811 295.864,11.811 299.643,11.811 303.422,11.811 307.201,11.811 310.98,11.811 314.759,11.811 
  318.538,11.811 322.317,11.811 326.096,11.811 329.875,11.811 333.654,11.811 337.433,11.811 341.212,11.811 344.992,11.811 348.771,11.811 352.55,11.811 
  356.329,11.811 360.108,11.811 363.887,11.811 367.666,11.811 371.445,11.811 375.224,11.811 379.003,11.811 382.782,11.811 386.561,11.811 390.34,11.811 
  394.119,11.811 397.898,11.811 401.677,11.811 405.456,11.811 409.235,11.811 413.014,11.811 416.793,11.811 420.572,11.811 424.351,11.8111 428.13,11.8111 
  431.909,11.8111 435.688,11.8111 439.467,11.8111 443.246,11.8111 447.025,11.8112 450.804,11.8113 454.583,11.8113 458.362,11.8114 462.142,11.8116 465.921,11.8118 
  469.7,11.8121 473.479,11.8124 477.258,11.8129 481.037,11.8136 484.816,11.8145 488.595,11.8157 492.374,11.8174 496.153,11.8196 499.932,11.8227 503.711,11.8267 
  507.49,11.8323 511.269,11.8398 515.048,11.8499 518.827,11.8635 522.606,11.882 526.385,11.907 530.164,11.9407 533.943,11.9863 537.722,12.0478 541.501,12.131 
  545.28,12.2433 549.059,12.3948 552.838,12.5991 556.617,12.8745 560.396,13.2451 564.175,13.7433 567.954,14.4115 571.733,15.3053 575.512,16.4967 579.291,18.0768 
  583.071,20.1593 586.85,22.8808 590.629,26.3985 594.408,30.8809 598.187,36.4903 601.966,43.3536 605.745,51.5226 609.524,60.933 613.303,71.3734 617.082,82.4844 
  620.861,93.7975 624.64,104.809 628.419,115.068 632.198,124.242 635.977,132.151 639.756,138.756 643.535,144.128 647.314,148.404 651.093,151.749 654.872,154.331 
  658.651,156.303 662.43,157.797 666.209,158.922 669.988,159.766 673.767,160.396 677.546,160.866 681.325,161.215 685.104,161.474 688.883,161.667 692.662,161.809 
  696.441,161.915 700.22,161.994 704,162.051 707.779,162.094 711.558,162.126 715.337,162.15 719.116,162.167 722.895,162.18 726.674,162.189 730.453,162.196 
  734.232,162.202 738.011,162.206 741.79,162.208 745.569,162.21 749.348,162.212 753.127,162.213 756.906,162.214 760.685,162.215 764.464,162.215 768.243,162.215 
  772.022,162.216 775.801,162.216 779.58,162.216 783.359,162.216 787.138,162.216 790.917,162.216 794.696,162.216 798.475,162.216 802.254,162.216 806.033,162.216 
  809.812,162.216 813.591,162.216 817.37,162.216 821.149,162.216 824.929,162.216 828.708,162.216 832.487,162.216 836.266,162.216 840.045,162.216 843.824,162.216 
  847.603,162.216 851.382,162.216 855.161,162.216 858.94,162.216 862.719,162.216 866.498,162.216 870.277,162.216 874.056,162.216 877.835,162.216 881.614,162.216 
  885.393,162.216 889.172,162.216 892.951,162.216 896.73,162.216 900.509,162.216 904.288,162.216 908.067,162.216 911.846,162.216 915.625,162.216 919.404,162.216 
  
  "/>
</svg>
