<?xml version="1.0" encoding="utf-8"?>
<svg xmlns="http://www.w3.org/2000/svg" xmlns:xlink="http://www.w3.org/1999/xlink" width="150" height="50" viewBox="0 0 600 200">
<defs>
  <clipPath id="clip6600">
    <rect x="0" y="0" width="2000" height="2000"/>
  </clipPath>
</defs>
<defs>
  <clipPath id="clip6601">
    <rect x="0" y="0" width="600" height="200"/>
  </clipPath>
</defs>
<polygon clip-path="url(#clip6601)" points="
0,200 600,200 600,0 0,0 
  " fill="#ffffff" fill-opacity="1"/>
<defs>
  <clipPath id="clip6602">
    <rect x="120" y="0" width="421" height="200"/>
  </clipPath>
</defs>
<polygon clip-path="url(#clip6601)" points="
154.794,162.216 495.335,162.216 495.335,11.811 154.794,11.811 
  " fill="#ffffff" fill-opacity="1"/>
<defs>
  <clipPath id="clip6603">
    <rect x="154" y="11" width="342" height="151"/>
  </clipPath>
</defs>
<polyline clip-path="url(#clip6601)" style="stroke:#000000; stroke-width:1; stroke-opacity:1; fill:none" points="
  154.794,162.216 495.335,162.216 
  "/>
<polyline clip-path="url(#clip6601)" style="stroke:#000000; stroke-width:1; stroke-opacity:1; fill:none" points="
  154.794,162.216 154.794,11.811 
  "/>
<polyline clip-path="url(#clip6601)" style="stroke:#000000; stroke-width:1; stroke-opacity:1; fill:none" points="
  183.173,162.216 183.173,159.96 
  "/>
<polyline clip-path="url(#clip6601)" style="stroke:#000000; stroke-width:1; stroke-opacity:1; fill:none" points="
  254.119,162.216 254.119,159.96 
  "/>
<polyline clip-path="url(#clip6601)" style="stroke:#000000; stroke-width:1; stroke-opacity:1; fill:none" points="
  325.065,162.216 325.065,159.96 
  "/>
<polyline clip-path="url(#clip6601)" style="stroke:#000000; stroke-width:1; stroke-opacity:1; fill:none" points="
  396.011,162.216 396.011,159.96 
  "/>
<polyline clip-path="url(#clip6601)" style="stroke:#000000; stroke-width:1; stroke-opacity:1; fill:none" points="
  466.957,162.216 466.957,159.96 
  "/>
<polyline clip-path="url(#clip6601)" style="stroke:#000000; stroke-width:1; stroke-opacity:1; fill:none" points="
  154.794,157.96 159.903,157.96 
  "/>
<polyline clip-path="url(#clip6601)" style="stroke:#000000; stroke-width:1; stroke-opacity:1; fill:none" points="
  154.794,122.487 159.903,122.487 
  "/>
<polyline clip-path="url(#clip6601)" style="stroke:#000000; stroke-width:1; stroke-opacity:1; fill:none" points="
  154.794,87.0137 159.903,87.0137 
  "/>
<polyline clip-path="url(#clip6601)" style="stroke:#000000; stroke-width:1; stroke-opacity:1; fill:none" points="
  154.794,51.5408 159.903,51.5408 
  "/>
<polyline clip-path="url(#clip6601)" style="stroke:#000000; stroke-width:1; stroke-opacity:1; fill:none" points="
  154.794,16.0678 159.903,16.0678 
  "/>
<g clip-path="url(#clip6601)">
<text style="fill:#000000; fill-opacity:1; font-family:Arial,Helvetica Neue,Helvetica,sans-serif; font-size:12; text-anchor:middle;" transform="rotate(0, 183.173, 176.016)" x="183.173" y="176.016">-1.0</text>
</g>
<g clip-path="url(#clip6601)">
<text style="fill:#000000; fill-opacity:1; font-family:Arial,Helvetica Neue,Helvetica,sans-serif; font-size:12; text-anchor:middle;" transform="rotate(0, 254.119, 176.016)" x="254.119" y="176.016">-0.5</text>
</g>
<g clip-path="url(#clip6601)">
<text style="fill:#000000; fill-opacity:1; font-family:Arial,Helvetica Neue,Helvetica,sans-serif; font-size:12; text-anchor:middle;" transform="rotate(0, 325.065, 176.016)" x="325.065" y="176.016">0.0</text>
</g>
<g clip-path="url(#clip6601)">
<text style="fill:#000000; fill-opacity:1; font-family:Arial,Helvetica Neue,Helvetica,sans-serif; font-size:12; text-anchor:middle;" transform="rotate(0, 396.011, 176.016)" x="396.011" y="176.016">0.5</text>
</g>
<g clip-path="url(#clip6601)">
<text style="fill:#000000; fill-opacity:1; font-family:Arial,Helvetica Neue,Helvetica,sans-serif; font-size:12; text-anchor:middle;" transform="rotate(0, 466.957, 176.016)" x="466.957" y="176.016">1.0</text>
</g>
<g clip-path="url(#clip6601)">
<text style="fill:#000000; fill-opacity:1; font-family:Arial,Helvetica Neue,Helvetica,sans-serif; font-size:12; text-anchor:end;" transform="rotate(0, 148.794, 162.46)" x="148.794" y="162.46">-1.00</text>
</g>
<g clip-path="url(#clip6601)">
<text style="fill:#000000; fill-opacity:1; font-family:Arial,Helvetica Neue,Helvetica,sans-serif; font-size:12; text-anchor:end;" transform="rotate(0, 148.794, 126.987)" x="148.794" y="126.987">-0.75</text>
</g>
<g clip-path="url(#clip6601)">
<text style="fill:#000000; fill-opacity:1; font-family:Arial,Helvetica Neue,Helvetica,sans-serif; font-size:12; text-anchor:end;" transform="rotate(0, 148.794, 91.5137)" x="148.794" y="91.5137">-0.50</text>
</g>
<g clip-path="url(#clip6601)">
<text style="fill:#000000; fill-opacity:1; font-family:Arial,Helvetica Neue,Helvetica,sans-serif; font-size:12; text-anchor:end;" transform="rotate(0, 148.794, 56.0408)" x="148.794" y="56.0408">-0.25</text>
</g>
<g clip-path="url(#clip6601)">
<text style="fill:#000000; fill-opacity:1; font-family:Arial,Helvetica Neue,Helvetica,sans-serif; font-size:12; text-anchor:end;" transform="rotate(0, 148.794, 20.5678)" x="148.794" y="20.5678">0.00</text>
</g>
<g clip-path="url(#clip6601)">
<text style="fill:#000000; fill-opacity:1; font-family:Arial,Helvetica Neue,Helvetica,sans-serif; font-size:16; text-anchor:middle;" transform="rotate(0, 325.065, 197.6)" x="325.065" y="197.6">t</text>
</g>
<g clip-path="url(#clip6601)">
<text style="fill:#000000; fill-opacity:1; font-family:Arial,Helvetica Neue,Helvetica,sans-serif; font-size:16; text-anchor:middle;" transform="rotate(-90, 14.4, 87.0137)" x="14.4" y="87.0137">Smoothed Ramp</text>
</g>
<polyline clip-path="url(#clip6603)" style="stroke:#009af9; stroke-width:2; stroke-opacity:1; fill:none" points="
  183.173,16.0678 186.738,16.0678 190.303,16.0678 193.868,16.0678 197.433,16.0678 200.998,16.0678 204.564,16.0678 208.129,16.0678 211.694,16.0678 215.259,16.0678 
  218.824,16.0678 222.389,16.0678 225.954,16.0678 229.519,16.0678 233.085,16.0678 236.65,16.0678 240.215,16.0678 243.78,16.0678 247.345,16.0678 250.91,16.0678 
  254.475,16.0678 258.04,16.0678 261.606,16.0678 265.171,16.0678 268.736,16.0678 272.301,16.0678 275.866,16.0678 279.431,16.0678 282.996,16.0678 286.561,16.0678 
  290.127,16.0678 293.692,16.0678 297.257,16.0678 300.822,16.0678 304.387,16.0678 307.952,16.0678 311.517,16.0678 315.082,16.0678 318.648,16.0678 322.213,16.0678 
  325.778,16.0678 329.343,16.0678 332.908,16.0678 336.473,16.0678 340.038,16.0678 343.603,16.0678 347.169,16.0678 350.734,16.0678 354.299,16.0678 357.864,16.0678 
  361.429,16.0678 364.994,16.0678 368.559,16.0678 372.124,16.0678 375.69,16.0678 379.255,16.0678 382.82,16.0678 386.385,16.0678 389.95,16.0678 393.515,16.0678 
  397.08,16.0678 400.645,16.0678 404.211,16.0678 407.776,16.0678 411.341,16.0678 414.906,16.0678 418.471,16.0678 422.036,16.0678 425.601,16.0678 429.166,16.0678 
  432.732,16.0678 436.297,16.0678 439.862,16.0679 443.427,16.0679 446.992,16.0679 450.557,16.068 454.122,16.0681 457.687,16.0682 461.253,16.0683 464.818,16.0685 
  468.383,16.0688 471.948,16.0691 475.513,16.0696 479.078,16.0702 482.643,16.0711 486.208,16.0722 489.774,16.0738 493.339,16.0759 496.904,16.0788 500.469,16.0826 
  504.034,16.0878 507.599,16.0949 511.164,16.1044 514.729,16.1173 518.295,16.1347 521.86,16.1583 525.425,16.1901 528.99,16.2331 532.555,16.2912 536.12,16.3696 
  539.685,16.4755 543.25,16.6185 546.816,16.8113 550.381,17.071 553.946,17.4207 557.511,17.8907 561.076,18.5211 564.641,19.3643 568.206,20.4882 571.771,21.9789 
  575.337,23.9435 578.902,26.511 582.467,29.8295 586.032,34.0582 589.597,39.3502 593.162,45.8249 596.727,53.5315 600.292,62.4092 603.857,72.2587 607.423,82.7408 
  610.988,93.4135 614.553,103.802 618.118,113.48 621.683,122.135 625.248,129.596 628.813,135.827 632.378,140.895 635.944,144.929 639.509,148.085 643.074,150.521 
  646.639,152.381 650.204,153.79 653.769,154.852 657.334,155.648 660.899,156.242 664.465,156.685 668.03,157.015 671.595,157.26 675.16,157.441 678.725,157.576 
  682.29,157.675 685.855,157.749 689.42,157.804 692.986,157.845 696.551,157.875 700.116,157.897 703.681,157.913 707.246,157.925 710.811,157.934 714.376,157.941 
  717.941,157.946 721.507,157.949 725.072,157.952 728.637,157.954 732.202,157.956 735.767,157.957 739.332,157.957 742.897,157.958 746.462,157.958 750.028,157.959 
  753.593,157.959 757.158,157.959 760.723,157.959 764.288,157.959 767.853,157.96 771.418,157.96 774.983,157.96 778.549,157.96 782.114,157.96 785.679,157.96 
  789.244,157.96 792.809,157.96 796.374,157.96 799.939,157.96 803.504,157.96 807.07,157.96 810.635,157.96 814.2,157.96 817.765,157.96 821.33,157.96 
  824.895,157.96 828.46,157.96 832.025,157.96 835.591,157.96 839.156,157.96 842.721,157.96 846.286,157.96 849.851,157.96 853.416,157.96 856.981,157.96 
  860.546,157.96 864.112,157.96 867.677,157.96 871.242,157.96 874.807,157.96 878.372,157.96 881.937,157.96 885.502,157.96 889.067,157.96 892.633,157.96 
  
  "/>
</svg>
