<?xml version="1.0" encoding="utf-8"?>
<svg xmlns="http://www.w3.org/2000/svg" xmlns:xlink="http://www.w3.org/1999/xlink" width="600" height="400" viewBox="0 0 600 400">
<defs>
  <clipPath id="clip00">
    <rect x="0" y="0" width="600" height="400"/>
  </clipPath>
</defs>
<polygon clip-path="url(#clip2200)" points="
0,400 600,400 600,0 0,0 
  " fill="#ffffff" fill-opacity="1"/>
<defs>
  <clipPath id="clip01">
    <rect x="120" y="0" width="421" height="400"/>
  </clipPath>
</defs>
<polygon clip-path="url(#clip2200)" points="
54.8916,295.401 580.315,295.401 580.315,76.475 54.8916,76.475 
  " fill="#ffffff" fill-opacity="1"/>
<defs>
  <clipPath id="clip02">
    <rect x="54" y="76" width="526" height="220"/>
  </clipPath>
</defs>
<polyline clip-path="url(#clip2200)" style="stroke:#000000; stroke-width:1; stroke-opacity:1; fill:none" points="
  54.8916,295.401 580.315,295.401 
  "/>
<polyline clip-path="url(#clip2200)" style="stroke:#000000; stroke-width:1; stroke-opacity:1; fill:none" points="
  54.8916,295.401 54.8916,76.475 
  "/>
<polyline clip-path="url(#clip2200)" style="stroke:#000000; stroke-width:1; stroke-opacity:1; fill:none" points="
  98.6769,295.401 98.6769,292.118 
  "/>
<polyline clip-path="url(#clip2200)" style="stroke:#000000; stroke-width:1; stroke-opacity:1; fill:none" points="
  208.14,295.401 208.14,292.118 
  "/>
<polyline clip-path="url(#clip2200)" style="stroke:#000000; stroke-width:1; stroke-opacity:1; fill:none" points="
  317.603,295.401 317.603,292.118 
  "/>
<polyline clip-path="url(#clip2200)" style="stroke:#000000; stroke-width:1; stroke-opacity:1; fill:none" points="
  427.066,295.401 427.066,292.118 
  "/>
<polyline clip-path="url(#clip2200)" style="stroke:#000000; stroke-width:1; stroke-opacity:1; fill:none" points="
  536.53,295.401 536.53,292.118 
  "/>
<polyline clip-path="url(#clip2200)" style="stroke:#000000; stroke-width:1; stroke-opacity:1; fill:none" points="
  54.8916,251.616 62.773,251.616 
  "/>
<polyline clip-path="url(#clip2200)" style="stroke:#000000; stroke-width:1; stroke-opacity:1; fill:none" points="
  54.8916,207.831 62.773,207.831 
  "/>
<polyline clip-path="url(#clip2200)" style="stroke:#000000; stroke-width:1; stroke-opacity:1; fill:none" points="
  54.8916,164.046 62.773,164.046 
  "/>
<polyline clip-path="url(#clip2200)" style="stroke:#000000; stroke-width:1; stroke-opacity:1; fill:none" points="
  54.8916,120.26 62.773,120.26 
  "/>
<g clip-path="url(#clip2200)">
<text style="fill:#000000; fill-opacity:1; font-family:Arial,Helvetica Neue,Helvetica,sans-serif; font-size:12; text-anchor:middle;" transform="rotate(0, 98.6769, 309.201)" x="98.6769" y="309.201">-1.0</text>
</g>
<g clip-path="url(#clip2200)">
<text style="fill:#000000; fill-opacity:1; font-family:Arial,Helvetica Neue,Helvetica,sans-serif; font-size:12; text-anchor:middle;" transform="rotate(0, 208.14, 309.201)" x="208.14" y="309.201">-0.5</text>
</g>
<g clip-path="url(#clip2200)">
<text style="fill:#000000; fill-opacity:1; font-family:Arial,Helvetica Neue,Helvetica,sans-serif; font-size:12; text-anchor:middle;" transform="rotate(0, 317.603, 309.201)" x="317.603" y="309.201">0.0</text>
</g>
<g clip-path="url(#clip2200)">
<text style="fill:#000000; fill-opacity:1; font-family:Arial,Helvetica Neue,Helvetica,sans-serif; font-size:12; text-anchor:middle;" transform="rotate(0, 427.066, 309.201)" x="427.066" y="309.201">0.5</text>
</g>
<g clip-path="url(#clip2200)">
<text style="fill:#000000; fill-opacity:1; font-family:Arial,Helvetica Neue,Helvetica,sans-serif; font-size:12; text-anchor:middle;" transform="rotate(0, 536.53, 309.201)" x="536.53" y="309.201">1.0</text>
</g>
<g clip-path="url(#clip2200)">
<text style="fill:#000000; fill-opacity:1; font-family:Arial,Helvetica Neue,Helvetica,sans-serif; font-size:12; text-anchor:end;" transform="rotate(0, 48.8916, 256.116)" x="48.8916" y="256.116">-0.8</text>
</g>
<g clip-path="url(#clip2200)">
<text style="fill:#000000; fill-opacity:1; font-family:Arial,Helvetica Neue,Helvetica,sans-serif; font-size:12; text-anchor:end;" transform="rotate(0, 48.8916, 212.331)" x="48.8916" y="212.331">-0.6</text>
</g>
<g clip-path="url(#clip2200)">
<text style="fill:#000000; fill-opacity:1; font-family:Arial,Helvetica Neue,Helvetica,sans-serif; font-size:12; text-anchor:end;" transform="rotate(0, 48.8916, 168.546)" x="48.8916" y="168.546">-0.4</text>
</g>
<g clip-path="url(#clip2200)">
<text style="fill:#000000; fill-opacity:1; font-family:Arial,Helvetica Neue,Helvetica,sans-serif; font-size:12; text-anchor:end;" transform="rotate(0, 48.8916, 124.76)" x="48.8916" y="124.76">-0.2</text>
</g>
<g clip-path="url(#clip2200)">
<text style="fill:#000000; fill-opacity:1; font-family:Arial,Helvetica Neue,Helvetica,sans-serif; font-size:16; text-anchor:middle;" transform="rotate(0, 317.603, 397.6)" x="317.603" y="397.6">t</text>
</g>
<g clip-path="url(#clip2200)">
<text style="fill:#000000; fill-opacity:1; font-family:Arial,Helvetica Neue,Helvetica,sans-serif; font-size:16; text-anchor:middle;" transform="rotate(-90, 14.4, 185.938)" x="14.4" y="185.938">Smoothed Ramp</text>
</g>
<polyline clip-path="url(#clip2202)" style="stroke:#009af9; stroke-width:2; stroke-opacity:1; fill:none" points="
  98.6769,76.475 104.178,76.475 
  "/>
<polyline clip-path="url(#clip2202)" style="stroke:#009af9; stroke-width:2; stroke-opacity:1; fill:none" points="
  104.178,76.475 109.678,76.475 
  "/>
<polyline clip-path="url(#clip2202)" style="stroke:#009af9; stroke-width:2; stroke-opacity:1; fill:none" points="
  109.678,76.475 115.179,76.475 
  "/>
<polyline clip-path="url(#clip2202)" style="stroke:#009af9; stroke-width:2; stroke-opacity:1; fill:none" points="
  115.179,76.475 120.68,76.475 
  "/>
<polyline clip-path="url(#clip2202)" style="stroke:#009af9; stroke-width:2; stroke-opacity:1; fill:none" points="
  120.68,76.475 126.18,76.475 
  "/>
<polyline clip-path="url(#clip2202)" style="stroke:#009af9; stroke-width:2; stroke-opacity:1; fill:none" points="
  126.18,76.475 131.681,76.475 
  "/>
<polyline clip-path="url(#clip2202)" style="stroke:#009af9; stroke-width:2; stroke-opacity:1; fill:none" points="
  131.681,76.475 137.182,76.475 
  "/>
<polyline clip-path="url(#clip2202)" style="stroke:#009af9; stroke-width:2; stroke-opacity:1; fill:none" points="
  137.182,76.475 142.682,76.475 
  "/>
<polyline clip-path="url(#clip2202)" style="stroke:#009af9; stroke-width:2; stroke-opacity:1; fill:none" points="
  142.682,76.475 148.183,76.475 
  "/>
<polyline clip-path="url(#clip2202)" style="stroke:#009af9; stroke-width:2; stroke-opacity:1; fill:none" points="
  148.183,76.475 153.684,76.475 
  "/>
<polyline clip-path="url(#clip2202)" style="stroke:#009af9; stroke-width:2; stroke-opacity:1; fill:none" points="
  153.684,76.475 159.184,76.475 
  "/>
<polyline clip-path="url(#clip2202)" style="stroke:#009af9; stroke-width:2; stroke-opacity:1; fill:none" points="
  159.184,76.475 164.685,76.475 
  "/>
<polyline clip-path="url(#clip2202)" style="stroke:#009af9; stroke-width:2; stroke-opacity:1; fill:none" points="
  164.685,76.475 170.186,76.475 
  "/>
<polyline clip-path="url(#clip2202)" style="stroke:#009af9; stroke-width:2; stroke-opacity:1; fill:none" points="
  170.186,76.475 175.686,76.475 
  "/>
<polyline clip-path="url(#clip2202)" style="stroke:#009af9; stroke-width:2; stroke-opacity:1; fill:none" points="
  175.686,76.475 181.187,76.475 
  "/>
<polyline clip-path="url(#clip2202)" style="stroke:#009af9; stroke-width:2; stroke-opacity:1; fill:none" points="
  181.187,76.475 186.688,76.475 
  "/>
<polyline clip-path="url(#clip2202)" style="stroke:#009af9; stroke-width:2; stroke-opacity:1; fill:none" points="
  186.688,76.475 192.188,76.475 
  "/>
<polyline clip-path="url(#clip2202)" style="stroke:#009af9; stroke-width:2; stroke-opacity:1; fill:none" points="
  192.188,76.475 197.689,76.475 
  "/>
<polyline clip-path="url(#clip2202)" style="stroke:#009af9; stroke-width:2; stroke-opacity:1; fill:none" points="
  197.689,76.475 203.189,76.475 
  "/>
<polyline clip-path="url(#clip2202)" style="stroke:#009af9; stroke-width:2; stroke-opacity:1; fill:none" points="
  203.189,76.475 208.69,76.475 
  "/>
<polyline clip-path="url(#clip2202)" style="stroke:#009af9; stroke-width:2; stroke-opacity:1; fill:none" points="
  208.69,76.475 214.191,76.475 
  "/>
<polyline clip-path="url(#clip2202)" style="stroke:#009af9; stroke-width:2; stroke-opacity:1; fill:none" points="
  214.191,76.475 219.691,76.475 
  "/>
<polyline clip-path="url(#clip2202)" style="stroke:#009af9; stroke-width:2; stroke-opacity:1; fill:none" points="
  219.691,76.475 225.192,76.475 
  "/>
<polyline clip-path="url(#clip2202)" style="stroke:#009af9; stroke-width:2; stroke-opacity:1; fill:none" points="
  225.192,76.475 230.693,76.475 
  "/>
<polyline clip-path="url(#clip2202)" style="stroke:#009af9; stroke-width:2; stroke-opacity:1; fill:none" points="
  230.693,76.475 236.193,76.475 
  "/>
<polyline clip-path="url(#clip2202)" style="stroke:#009af9; stroke-width:2; stroke-opacity:1; fill:none" points="
  236.193,76.475 241.694,76.475 
  "/>
<polyline clip-path="url(#clip2202)" style="stroke:#009af9; stroke-width:2; stroke-opacity:1; fill:none" points="
  241.694,76.475 247.195,76.475 
  "/>
<polyline clip-path="url(#clip2202)" style="stroke:#009af9; stroke-width:2; stroke-opacity:1; fill:none" points="
  247.195,76.475 252.695,76.475 
  "/>
<polyline clip-path="url(#clip2202)" style="stroke:#009af9; stroke-width:2; stroke-opacity:1; fill:none" points="
  252.695,76.475 258.196,76.475 
  "/>
<polyline clip-path="url(#clip2202)" style="stroke:#009af9; stroke-width:2; stroke-opacity:1; fill:none" points="
  258.196,76.475 263.697,76.475 
  "/>
<polyline clip-path="url(#clip2202)" style="stroke:#009af9; stroke-width:2; stroke-opacity:1; fill:none" points="
  263.697,76.475 269.197,76.475 
  "/>
<polyline clip-path="url(#clip2202)" style="stroke:#009af9; stroke-width:2; stroke-opacity:1; fill:none" points="
  269.197,76.475 274.698,76.475 
  "/>
<polyline clip-path="url(#clip2202)" style="stroke:#009af9; stroke-width:2; stroke-opacity:1; fill:none" points="
  274.698,76.475 280.199,76.475 
  "/>
<polyline clip-path="url(#clip2202)" style="stroke:#009af9; stroke-width:2; stroke-opacity:1; fill:none" points="
  280.199,76.475 285.699,76.475 
  "/>
<polyline clip-path="url(#clip2202)" style="stroke:#009af9; stroke-width:2; stroke-opacity:1; fill:none" points="
  285.699,76.475 291.2,76.475 
  "/>
<polyline clip-path="url(#clip2202)" style="stroke:#009af9; stroke-width:2; stroke-opacity:1; fill:none" points="
  291.2,76.475 296.701,76.475 
  "/>
<polyline clip-path="url(#clip2202)" style="stroke:#009af9; stroke-width:2; stroke-opacity:1; fill:none" points="
  296.701,76.475 302.201,76.475 
  "/>
<polyline clip-path="url(#clip2202)" style="stroke:#009af9; stroke-width:2; stroke-opacity:1; fill:none" points="
  302.201,76.475 307.702,76.475 
  "/>
<polyline clip-path="url(#clip2202)" style="stroke:#009af9; stroke-width:2; stroke-opacity:1; fill:none" points="
  307.702,76.475 313.203,76.475 
  "/>
<polyline clip-path="url(#clip2202)" style="stroke:#009af9; stroke-width:2; stroke-opacity:1; fill:none" points="
  313.203,76.475 318.703,76.475 
  "/>
<polyline clip-path="url(#clip2202)" style="stroke:#009af9; stroke-width:2; stroke-opacity:1; fill:none" points="
  318.703,76.475 324.204,76.475 
  "/>
<polyline clip-path="url(#clip2202)" style="stroke:#009af9; stroke-width:2; stroke-opacity:1; fill:none" points="
  324.204,76.475 329.705,76.475 
  "/>
<polyline clip-path="url(#clip2202)" style="stroke:#009af9; stroke-width:2; stroke-opacity:1; fill:none" points="
  329.705,76.475 335.205,76.475 
  "/>
<polyline clip-path="url(#clip2202)" style="stroke:#009af9; stroke-width:2; stroke-opacity:1; fill:none" points="
  335.205,76.475 340.706,76.475 
  "/>
<polyline clip-path="url(#clip2202)" style="stroke:#009af9; stroke-width:2; stroke-opacity:1; fill:none" points="
  340.706,76.475 346.207,76.475 
  "/>
<polyline clip-path="url(#clip2202)" style="stroke:#009af9; stroke-width:2; stroke-opacity:1; fill:none" points="
  346.207,76.475 351.707,76.475 
  "/>
<polyline clip-path="url(#clip2202)" style="stroke:#009af9; stroke-width:2; stroke-opacity:1; fill:none" points="
  351.707,76.475 357.208,76.475 
  "/>
<polyline clip-path="url(#clip2202)" style="stroke:#009af9; stroke-width:2; stroke-opacity:1; fill:none" points="
  357.208,76.475 362.709,76.475 
  "/>
<polyline clip-path="url(#clip2202)" style="stroke:#009af9; stroke-width:2; stroke-opacity:1; fill:none" points="
  362.709,76.475 368.209,76.475 
  "/>
<polyline clip-path="url(#clip2202)" style="stroke:#009af9; stroke-width:2; stroke-opacity:1; fill:none" points="
  368.209,76.475 373.71,76.475 
  "/>
<polyline clip-path="url(#clip2202)" style="stroke:#009af9; stroke-width:2; stroke-opacity:1; fill:none" points="
  373.71,76.475 379.211,76.475 
  "/>
<polyline clip-path="url(#clip2202)" style="stroke:#009af9; stroke-width:2; stroke-opacity:1; fill:none" points="
  379.211,76.475 384.711,76.475 
  "/>
<polyline clip-path="url(#clip2202)" style="stroke:#009af9; stroke-width:2; stroke-opacity:1; fill:none" points="
  384.711,76.475 390.212,76.475 
  "/>
<polyline clip-path="url(#clip2202)" style="stroke:#009af9; stroke-width:2; stroke-opacity:1; fill:none" points="
  390.212,76.475 395.713,76.475 
  "/>
<polyline clip-path="url(#clip2202)" style="stroke:#009af9; stroke-width:2; stroke-opacity:1; fill:none" points="
  395.713,76.475 401.213,76.475 
  "/>
<polyline clip-path="url(#clip2202)" style="stroke:#009af9; stroke-width:2; stroke-opacity:1; fill:none" points="
  401.213,76.475 406.714,76.475 
  "/>
<polyline clip-path="url(#clip2202)" style="stroke:#009af9; stroke-width:2; stroke-opacity:1; fill:none" points="
  406.714,76.475 412.215,76.475 
  "/>
<polyline clip-path="url(#clip2202)" style="stroke:#009af9; stroke-width:2; stroke-opacity:1; fill:none" points="
  412.215,76.475 417.715,76.475 
  "/>
<polyline clip-path="url(#clip2202)" style="stroke:#009af9; stroke-width:2; stroke-opacity:1; fill:none" points="
  417.715,76.475 423.216,76.475 
  "/>
<polyline clip-path="url(#clip2202)" style="stroke:#009af9; stroke-width:2; stroke-opacity:1; fill:none" points="
  423.216,76.475 428.717,76.475 
  "/>
<polyline clip-path="url(#clip2202)" style="stroke:#009af9; stroke-width:2; stroke-opacity:1; fill:none" points="
  428.717,76.475 434.217,76.475 
  "/>
<polyline clip-path="url(#clip2202)" style="stroke:#009af9; stroke-width:2; stroke-opacity:1; fill:none" points="
  434.217,76.475 439.718,76.475 
  "/>
<polyline clip-path="url(#clip2202)" style="stroke:#009af9; stroke-width:2; stroke-opacity:1; fill:none" points="
  439.718,76.475 445.219,76.475 
  "/>
<polyline clip-path="url(#clip2202)" style="stroke:#009af9; stroke-width:2; stroke-opacity:1; fill:none" points="
  445.219,76.475 450.719,76.475 
  "/>
<polyline clip-path="url(#clip2202)" style="stroke:#009af9; stroke-width:2; stroke-opacity:1; fill:none" points="
  450.719,76.475 456.22,76.475 
  "/>
<polyline clip-path="url(#clip2202)" style="stroke:#009af9; stroke-width:2; stroke-opacity:1; fill:none" points="
  456.22,76.475 461.721,76.475 
  "/>
<polyline clip-path="url(#clip2202)" style="stroke:#009af9; stroke-width:2; stroke-opacity:1; fill:none" points="
  461.721,76.475 467.221,76.4751 
  "/>
<polyline clip-path="url(#clip2202)" style="stroke:#009af9; stroke-width:2; stroke-opacity:1; fill:none" points="
  467.221,76.4751 472.722,76.4751 
  "/>
<polyline clip-path="url(#clip2202)" style="stroke:#009af9; stroke-width:2; stroke-opacity:1; fill:none" points="
  472.722,76.4751 478.223,76.4751 
  "/>
<polyline clip-path="url(#clip2202)" style="stroke:#009af9; stroke-width:2; stroke-opacity:1; fill:none" points="
  478.223,76.4751 483.723,76.4751 
  "/>
<polyline clip-path="url(#clip2202)" style="stroke:#009af9; stroke-width:2; stroke-opacity:1; fill:none" points="
  483.723,76.4751 489.224,76.4751 
  "/>
<polyline clip-path="url(#clip2202)" style="stroke:#009af9; stroke-width:2; stroke-opacity:1; fill:none" points="
  489.224,76.4751 494.725,76.4752 
  "/>
<polyline clip-path="url(#clip2202)" style="stroke:#009af9; stroke-width:2; stroke-opacity:1; fill:none" points="
  494.725,76.4752 500.225,76.4752 
  "/>
<polyline clip-path="url(#clip2202)" style="stroke:#009af9; stroke-width:2; stroke-opacity:1; fill:none" points="
  500.225,76.4752 505.726,76.4753 
  "/>
<polyline clip-path="url(#clip2202)" style="stroke:#009af9; stroke-width:2; stroke-opacity:1; fill:none" points="
  505.726,76.4753 511.227,76.4754 
  "/>
<polyline clip-path="url(#clip2202)" style="stroke:#009af9; stroke-width:2; stroke-opacity:1; fill:none" points="
  511.227,76.4754 516.727,76.4755 
  "/>
<polyline clip-path="url(#clip2202)" style="stroke:#009af9; stroke-width:2; stroke-opacity:1; fill:none" points="
  516.727,76.4755 522.228,76.4756 
  "/>
<polyline clip-path="url(#clip2202)" style="stroke:#009af9; stroke-width:2; stroke-opacity:1; fill:none" points="
  522.228,76.4756 527.729,76.4759 
  "/>
<polyline clip-path="url(#clip2202)" style="stroke:#009af9; stroke-width:2; stroke-opacity:1; fill:none" points="
  527.729,76.4759 533.229,76.4761 
  "/>
<polyline clip-path="url(#clip2202)" style="stroke:#009af9; stroke-width:2; stroke-opacity:1; fill:none" points="
  533.229,76.4761 538.73,76.4765 
  "/>
<polyline clip-path="url(#clip2202)" style="stroke:#009af9; stroke-width:2; stroke-opacity:1; fill:none" points="
  538.73,76.4765 544.231,76.4771 
  "/>
<polyline clip-path="url(#clip2202)" style="stroke:#009af9; stroke-width:2; stroke-opacity:1; fill:none" points="
  544.231,76.4771 549.731,76.4778 
  "/>
<polyline clip-path="url(#clip2202)" style="stroke:#009af9; stroke-width:2; stroke-opacity:1; fill:none" points="
  549.731,76.4778 555.232,76.4788 
  "/>
<polyline clip-path="url(#clip2202)" style="stroke:#009af9; stroke-width:2; stroke-opacity:1; fill:none" points="
  555.232,76.4788 560.733,76.4801 
  "/>
<polyline clip-path="url(#clip2202)" style="stroke:#009af9; stroke-width:2; stroke-opacity:1; fill:none" points="
  560.733,76.4801 566.233,76.4819 
  "/>
<polyline clip-path="url(#clip2202)" style="stroke:#009af9; stroke-width:2; stroke-opacity:1; fill:none" points="
  566.233,76.4819 571.734,76.4843 
  "/>
<polyline clip-path="url(#clip2202)" style="stroke:#009af9; stroke-width:2; stroke-opacity:1; fill:none" points="
  571.734,76.4843 577.235,76.4875 
  "/>
<polyline clip-path="url(#clip2202)" style="stroke:#009af9; stroke-width:2; stroke-opacity:1; fill:none" points="
  577.235,76.4875 582.735,76.492 
  "/>
<polyline clip-path="url(#clip2202)" style="stroke:#009af9; stroke-width:2; stroke-opacity:1; fill:none" points="
  582.735,76.492 588.236,76.4979 
  "/>
<polyline clip-path="url(#clip2202)" style="stroke:#009af9; stroke-width:2; stroke-opacity:1; fill:none" points="
  588.236,76.4979 593.737,76.506 
  "/>
<polyline clip-path="url(#clip2202)" style="stroke:#009af9; stroke-width:2; stroke-opacity:1; fill:none" points="
  593.737,76.506 599.237,76.5168 
  "/>
<polyline clip-path="url(#clip2202)" style="stroke:#009af9; stroke-width:2; stroke-opacity:1; fill:none" points="
  599.237,76.5168 604.738,76.5316 
  "/>
<polyline clip-path="url(#clip2202)" style="stroke:#009af9; stroke-width:2; stroke-opacity:1; fill:none" points="
  604.738,76.5316 610.239,76.5515 
  "/>
<polyline clip-path="url(#clip2202)" style="stroke:#009af9; stroke-width:2; stroke-opacity:1; fill:none" points="
  610.239,76.5515 615.739,76.5783 
  "/>
<polyline clip-path="url(#clip2202)" style="stroke:#009af9; stroke-width:2; stroke-opacity:1; fill:none" points="
  615.739,76.5783 621.24,76.6147 
  "/>
<polyline clip-path="url(#clip2202)" style="stroke:#009af9; stroke-width:2; stroke-opacity:1; fill:none" points="
  621.24,76.6147 626.741,76.6638 
  "/>
<polyline clip-path="url(#clip2202)" style="stroke:#009af9; stroke-width:2; stroke-opacity:1; fill:none" points="
  626.741,76.6638 632.241,76.7301 
  "/>
<polyline clip-path="url(#clip2202)" style="stroke:#009af9; stroke-width:2; stroke-opacity:1; fill:none" points="
  632.241,76.7301 637.742,76.8197 
  "/>
<polyline clip-path="url(#clip2202)" style="stroke:#009af9; stroke-width:2; stroke-opacity:1; fill:none" points="
  637.742,76.8197 643.243,76.9408 
  "/>
<polyline clip-path="url(#clip2202)" style="stroke:#009af9; stroke-width:2; stroke-opacity:1; fill:none" points="
  643.243,76.9408 648.743,77.1042 
  "/>
<polyline clip-path="url(#clip2202)" style="stroke:#009af9; stroke-width:2; stroke-opacity:1; fill:none" points="
  648.743,77.1042 654.244,77.3247 
  "/>
<polyline clip-path="url(#clip2202)" style="stroke:#009af9; stroke-width:2; stroke-opacity:1; fill:none" points="
  654.244,77.3247 659.745,77.6221 
  "/>
<polyline clip-path="url(#clip2202)" style="stroke:#009af9; stroke-width:2; stroke-opacity:1; fill:none" points="
  659.745,77.6221 665.245,78.023 
  "/>
<polyline clip-path="url(#clip2202)" style="stroke:#009af9; stroke-width:2; stroke-opacity:1; fill:none" points="
  665.245,78.023 670.746,78.5625 
  "/>
<polyline clip-path="url(#clip2202)" style="stroke:#009af9; stroke-width:2; stroke-opacity:1; fill:none" points="
  670.746,78.5625 676.247,79.2876 
  "/>
<polyline clip-path="url(#clip2202)" style="stroke:#009af9; stroke-width:2; stroke-opacity:1; fill:none" points="
  676.247,79.2876 681.747,80.2602 
  "/>
<polyline clip-path="url(#clip2202)" style="stroke:#009af9; stroke-width:2; stroke-opacity:1; fill:none" points="
  681.747,80.2602 687.248,81.5612 
  "/>
<polyline clip-path="url(#clip2202)" style="stroke:#009af9; stroke-width:2; stroke-opacity:1; fill:none" points="
  687.248,81.5612 692.749,83.2953 
  "/>
<polyline clip-path="url(#clip2202)" style="stroke:#009af9; stroke-width:2; stroke-opacity:1; fill:none" points="
  692.749,83.2953 698.249,85.5953 
  "/>
<polyline clip-path="url(#clip2202)" style="stroke:#009af9; stroke-width:2; stroke-opacity:1; fill:none" points="
  698.249,85.5953 703.75,88.6266 
  "/>
<polyline clip-path="url(#clip2202)" style="stroke:#009af9; stroke-width:2; stroke-opacity:1; fill:none" points="
  703.75,88.6266 709.251,92.588 
  "/>
<polyline clip-path="url(#clip2202)" style="stroke:#009af9; stroke-width:2; stroke-opacity:1; fill:none" points="
  709.251,92.588 714.751,97.7081 
  "/>
<polyline clip-path="url(#clip2202)" style="stroke:#009af9; stroke-width:2; stroke-opacity:1; fill:none" points="
  714.751,97.7081 720.252,104.233 
  "/>
<polyline clip-path="url(#clip2202)" style="stroke:#009af9; stroke-width:2; stroke-opacity:1; fill:none" points="
  720.252,104.233 725.752,112.398 
  "/>
<polyline clip-path="url(#clip2202)" style="stroke:#009af9; stroke-width:2; stroke-opacity:1; fill:none" points="
  725.752,112.398 731.253,122.388 
  "/>
<polyline clip-path="url(#clip2202)" style="stroke:#009af9; stroke-width:2; stroke-opacity:1; fill:none" points="
  731.253,122.388 736.754,134.278 
  "/>
<polyline clip-path="url(#clip2202)" style="stroke:#009af9; stroke-width:2; stroke-opacity:1; fill:none" points="
  736.754,134.278 742.254,147.976 
  "/>
<polyline clip-path="url(#clip2202)" style="stroke:#009af9; stroke-width:2; stroke-opacity:1; fill:none" points="
  742.254,147.976 747.755,163.172 
  "/>
<polyline clip-path="url(#clip2202)" style="stroke:#009af9; stroke-width:2; stroke-opacity:1; fill:none" points="
  747.755,163.172 753.256,179.345 
  "/>
<polyline clip-path="url(#clip2202)" style="stroke:#009af9; stroke-width:2; stroke-opacity:1; fill:none" points="
  753.256,179.345 758.756,195.813 
  "/>
<polyline clip-path="url(#clip2202)" style="stroke:#009af9; stroke-width:2; stroke-opacity:1; fill:none" points="
  758.756,195.813 764.257,211.841 
  "/>
<polyline clip-path="url(#clip2202)" style="stroke:#009af9; stroke-width:2; stroke-opacity:1; fill:none" points="
  764.257,211.841 769.758,226.773 
  "/>
<polyline clip-path="url(#clip2202)" style="stroke:#009af9; stroke-width:2; stroke-opacity:1; fill:none" points="
  769.758,226.773 775.258,240.127 
  "/>
<polyline clip-path="url(#clip2202)" style="stroke:#009af9; stroke-width:2; stroke-opacity:1; fill:none" points="
  775.258,240.127 780.759,251.639 
  "/>
<polyline clip-path="url(#clip2202)" style="stroke:#009af9; stroke-width:2; stroke-opacity:1; fill:none" points="
  780.759,251.639 786.26,261.253 
  "/>
<polyline clip-path="url(#clip2202)" style="stroke:#009af9; stroke-width:2; stroke-opacity:1; fill:none" points="
  786.26,261.253 791.76,269.073 
  "/>
<polyline clip-path="url(#clip2202)" style="stroke:#009af9; stroke-width:2; stroke-opacity:1; fill:none" points="
  791.76,269.073 797.261,275.297 
  "/>
<polyline clip-path="url(#clip2202)" style="stroke:#009af9; stroke-width:2; stroke-opacity:1; fill:none" points="
  797.261,275.297 802.762,280.166 
  "/>
<polyline clip-path="url(#clip2202)" style="stroke:#009af9; stroke-width:2; stroke-opacity:1; fill:none" points="
  802.762,280.166 808.262,283.924 
  "/>
<polyline clip-path="url(#clip2202)" style="stroke:#009af9; stroke-width:2; stroke-opacity:1; fill:none" points="
  808.262,283.924 813.763,286.794 
  "/>
<polyline clip-path="url(#clip2202)" style="stroke:#009af9; stroke-width:2; stroke-opacity:1; fill:none" points="
  813.763,286.794 819.264,288.969 
  "/>
<polyline clip-path="url(#clip2202)" style="stroke:#009af9; stroke-width:2; stroke-opacity:1; fill:none" points="
  819.264,288.969 824.764,290.606 
  "/>
<polyline clip-path="url(#clip2202)" style="stroke:#009af9; stroke-width:2; stroke-opacity:1; fill:none" points="
  824.764,290.606 830.265,291.834 
  "/>
<polyline clip-path="url(#clip2202)" style="stroke:#009af9; stroke-width:2; stroke-opacity:1; fill:none" points="
  830.265,291.834 835.766,292.751 
  "/>
<polyline clip-path="url(#clip2202)" style="stroke:#009af9; stroke-width:2; stroke-opacity:1; fill:none" points="
  835.766,292.751 841.266,293.435 
  "/>
<polyline clip-path="url(#clip2202)" style="stroke:#009af9; stroke-width:2; stroke-opacity:1; fill:none" points="
  841.266,293.435 846.767,293.943 
  "/>
<polyline clip-path="url(#clip2202)" style="stroke:#009af9; stroke-width:2; stroke-opacity:1; fill:none" points="
  846.767,293.943 852.268,294.321 
  "/>
<polyline clip-path="url(#clip2202)" style="stroke:#009af9; stroke-width:2; stroke-opacity:1; fill:none" points="
  852.268,294.321 857.768,294.601 
  "/>
<polyline clip-path="url(#clip2202)" style="stroke:#009af9; stroke-width:2; stroke-opacity:1; fill:none" points="
  857.768,294.601 863.269,294.809 
  "/>
<polyline clip-path="url(#clip2202)" style="stroke:#009af9; stroke-width:2; stroke-opacity:1; fill:none" points="
  863.269,294.809 868.77,294.963 
  "/>
<polyline clip-path="url(#clip2202)" style="stroke:#009af9; stroke-width:2; stroke-opacity:1; fill:none" points="
  868.77,294.963 874.27,295.077 
  "/>
<polyline clip-path="url(#clip2202)" style="stroke:#009af9; stroke-width:2; stroke-opacity:1; fill:none" points="
  874.27,295.077 879.771,295.161 
  "/>
<polyline clip-path="url(#clip2202)" style="stroke:#009af9; stroke-width:2; stroke-opacity:1; fill:none" points="
  879.771,295.161 885.272,295.224 
  "/>
<polyline clip-path="url(#clip2202)" style="stroke:#009af9; stroke-width:2; stroke-opacity:1; fill:none" points="
  885.272,295.224 890.772,295.27 
  "/>
<polyline clip-path="url(#clip2202)" style="stroke:#009af9; stroke-width:2; stroke-opacity:1; fill:none" points="
  890.772,295.27 896.273,295.304 
  "/>
<polyline clip-path="url(#clip2202)" style="stroke:#009af9; stroke-width:2; stroke-opacity:1; fill:none" points="
  896.273,295.304 901.774,295.329 
  "/>
<polyline clip-path="url(#clip2202)" style="stroke:#009af9; stroke-width:2; stroke-opacity:1; fill:none" points="
  901.774,295.329 907.274,295.348 
  "/>
<polyline clip-path="url(#clip2202)" style="stroke:#009af9; stroke-width:2; stroke-opacity:1; fill:none" points="
  907.274,295.348 912.775,295.362 
  "/>
<polyline clip-path="url(#clip2202)" style="stroke:#009af9; stroke-width:2; stroke-opacity:1; fill:none" points="
  912.775,295.362 918.276,295.372 
  "/>
<polyline clip-path="url(#clip2202)" style="stroke:#009af9; stroke-width:2; stroke-opacity:1; fill:none" points="
  918.276,295.372 923.776,295.38 
  "/>
<polyline clip-path="url(#clip2202)" style="stroke:#009af9; stroke-width:2; stroke-opacity:1; fill:none" points="
  923.776,295.38 929.277,295.385 
  "/>
<polyline clip-path="url(#clip2202)" style="stroke:#009af9; stroke-width:2; stroke-opacity:1; fill:none" points="
  929.277,295.385 934.778,295.39 
  "/>
<polyline clip-path="url(#clip2202)" style="stroke:#009af9; stroke-width:2; stroke-opacity:1; fill:none" points="
  934.778,295.39 940.278,295.393 
  "/>
<polyline clip-path="url(#clip2202)" style="stroke:#009af9; stroke-width:2; stroke-opacity:1; fill:none" points="
  940.278,295.393 945.779,295.395 
  "/>
<polyline clip-path="url(#clip2202)" style="stroke:#009af9; stroke-width:2; stroke-opacity:1; fill:none" points="
  945.779,295.395 951.28,295.397 
  "/>
<polyline clip-path="url(#clip2202)" style="stroke:#009af9; stroke-width:2; stroke-opacity:1; fill:none" points="
  951.28,295.397 956.78,295.398 
  "/>
<polyline clip-path="url(#clip2202)" style="stroke:#009af9; stroke-width:2; stroke-opacity:1; fill:none" points="
  956.78,295.398 962.281,295.399 
  "/>
<polyline clip-path="url(#clip2202)" style="stroke:#009af9; stroke-width:2; stroke-opacity:1; fill:none" points="
  962.281,295.399 967.782,295.399 
  "/>
<polyline clip-path="url(#clip2202)" style="stroke:#009af9; stroke-width:2; stroke-opacity:1; fill:none" points="
  967.782,295.399 973.282,295.4 
  "/>
<polyline clip-path="url(#clip2202)" style="stroke:#009af9; stroke-width:2; stroke-opacity:1; fill:none" points="
  973.282,295.4 978.783,295.4 
  "/>
<polyline clip-path="url(#clip2202)" style="stroke:#009af9; stroke-width:2; stroke-opacity:1; fill:none" points="
  978.783,295.4 984.284,295.401 
  "/>
<polyline clip-path="url(#clip2202)" style="stroke:#009af9; stroke-width:2; stroke-opacity:1; fill:none" points="
  984.284,295.401 989.784,295.401 
  "/>
<polyline clip-path="url(#clip2202)" style="stroke:#009af9; stroke-width:2; stroke-opacity:1; fill:none" points="
  989.784,295.401 995.285,295.401 
  "/>
<polyline clip-path="url(#clip2202)" style="stroke:#009af9; stroke-width:2; stroke-opacity:1; fill:none" points="
  995.285,295.401 1000.79,295.401 
  "/>
<polyline clip-path="url(#clip2202)" style="stroke:#009af9; stroke-width:2; stroke-opacity:1; fill:none" points="
  1000.79,295.401 1006.29,295.401 
  "/>
<polyline clip-path="url(#clip2202)" style="stroke:#009af9; stroke-width:2; stroke-opacity:1; fill:none" points="
  1006.29,295.401 1011.79,295.401 
  "/>
<polyline clip-path="url(#clip2202)" style="stroke:#009af9; stroke-width:2; stroke-opacity:1; fill:none" points="
  1011.79,295.401 1017.29,295.401 
  "/>
<polyline clip-path="url(#clip2202)" style="stroke:#009af9; stroke-width:2; stroke-opacity:1; fill:none" points="
  1017.29,295.401 1022.79,295.401 
  "/>
<polyline clip-path="url(#clip2202)" style="stroke:#009af9; stroke-width:2; stroke-opacity:1; fill:none" points="
  1022.79,295.401 1028.29,295.401 
  "/>
<polyline clip-path="url(#clip2202)" style="stroke:#009af9; stroke-width:2; stroke-opacity:1; fill:none" points="
  1028.29,295.401 1033.79,295.401 
  "/>
<polyline clip-path="url(#clip2202)" style="stroke:#009af9; stroke-width:2; stroke-opacity:1; fill:none" points="
  1033.79,295.401 1039.29,295.401 
  "/>
<polyline clip-path="url(#clip2202)" style="stroke:#009af9; stroke-width:2; stroke-opacity:1; fill:none" points="
  1039.29,295.401 1044.79,295.401 
  "/>
<polyline clip-path="url(#clip2202)" style="stroke:#009af9; stroke-width:2; stroke-opacity:1; fill:none" points="
  1044.79,295.401 1050.29,295.401 
  "/>
<polyline clip-path="url(#clip2202)" style="stroke:#009af9; stroke-width:2; stroke-opacity:1; fill:none" points="
  1050.29,295.401 1055.79,295.401 
  "/>
<polyline clip-path="url(#clip2202)" style="stroke:#009af9; stroke-width:2; stroke-opacity:1; fill:none" points="
  1055.79,295.401 1061.29,295.401 
  "/>
<polyline clip-path="url(#clip2202)" style="stroke:#009af9; stroke-width:2; stroke-opacity:1; fill:none" points="
  1061.29,295.401 1066.79,295.401 
  "/>
<polyline clip-path="url(#clip2202)" style="stroke:#009af9; stroke-width:2; stroke-opacity:1; fill:none" points="
  1066.79,295.401 1072.29,295.401 
  "/>
<polyline clip-path="url(#clip2202)" style="stroke:#009af9; stroke-width:2; stroke-opacity:1; fill:none" points="
  1072.29,295.401 1077.79,295.401 
  "/>
<polyline clip-path="url(#clip2202)" style="stroke:#009af9; stroke-width:2; stroke-opacity:1; fill:none" points="
  1077.79,295.401 1083.3,295.401 
  "/>
<polyline clip-path="url(#clip2202)" style="stroke:#009af9; stroke-width:2; stroke-opacity:1; fill:none" points="
  1083.3,295.401 1088.8,295.401 
  "/>
<polyline clip-path="url(#clip2202)" style="stroke:#009af9; stroke-width:2; stroke-opacity:1; fill:none" points="
  1088.8,295.401 1094.3,295.401 
  "/>
<polyline clip-path="url(#clip2202)" style="stroke:#009af9; stroke-width:2; stroke-opacity:1; fill:none" points="
  1094.3,295.401 1099.8,295.401 
  "/>
<polyline clip-path="url(#clip2202)" style="stroke:#009af9; stroke-width:2; stroke-opacity:1; fill:none" points="
  1099.8,295.401 1105.3,295.401 
  "/>
<polyline clip-path="url(#clip2202)" style="stroke:#009af9; stroke-width:2; stroke-opacity:1; fill:none" points="
  1105.3,295.401 1110.8,295.401 
  "/>
<polyline clip-path="url(#clip2202)" style="stroke:#009af9; stroke-width:2; stroke-opacity:1; fill:none" points="
  1110.8,295.401 1116.3,295.401 
  "/>
<polyline clip-path="url(#clip2202)" style="stroke:#009af9; stroke-width:2; stroke-opacity:1; fill:none" points="
  1116.3,295.401 1121.8,295.401 
  "/>
<polyline clip-path="url(#clip2202)" style="stroke:#009af9; stroke-width:2; stroke-opacity:1; fill:none" points="
  1121.8,295.401 1127.3,295.401 
  "/>
<polyline clip-path="url(#clip2202)" style="stroke:#009af9; stroke-width:2; stroke-opacity:1; fill:none" points="
  1127.3,295.401 1132.8,295.401 
  "/>
<polyline clip-path="url(#clip2202)" style="stroke:#009af9; stroke-width:2; stroke-opacity:1; fill:none" points="
  1132.8,295.401 1138.3,295.401 
  "/>
<polyline clip-path="url(#clip2202)" style="stroke:#009af9; stroke-width:2; stroke-opacity:1; fill:none" points="
  1138.3,295.401 1143.8,295.401 
  "/>
<polyline clip-path="url(#clip2202)" style="stroke:#009af9; stroke-width:2; stroke-opacity:1; fill:none" points="
  1143.8,295.401 1149.3,295.401 
  "/>
<polyline clip-path="url(#clip2202)" style="stroke:#009af9; stroke-width:2; stroke-opacity:1; fill:none" points="
  1149.3,295.401 1154.8,295.401 
  "/>
<polyline clip-path="url(#clip2202)" style="stroke:#009af9; stroke-width:2; stroke-opacity:1; fill:none" points="
  1154.8,295.401 1160.3,295.401 
  "/>
<polyline clip-path="url(#clip2202)" style="stroke:#009af9; stroke-width:2; stroke-opacity:1; fill:none" points="
  1160.3,295.401 1165.81,295.401 
  "/>
<polyline clip-path="url(#clip2202)" style="stroke:#009af9; stroke-width:2; stroke-opacity:1; fill:none" points="
  1165.81,295.401 1171.31,295.401 
  "/>
<polyline clip-path="url(#clip2202)" style="stroke:#009af9; stroke-width:2; stroke-opacity:1; fill:none" points="
  1171.31,295.401 1176.81,295.401 
  "/>
<polyline clip-path="url(#clip2202)" style="stroke:#009af9; stroke-width:2; stroke-opacity:1; fill:none" points="
  1176.81,295.401 1182.31,295.401 
  "/>
<polyline clip-path="url(#clip2202)" style="stroke:#009af9; stroke-width:2; stroke-opacity:1; fill:none" points="
  1182.31,295.401 1187.81,295.401 
  "/>
<polyline clip-path="url(#clip2202)" style="stroke:#009af9; stroke-width:2; stroke-opacity:1; fill:none" points="
  1187.81,295.401 1193.31,295.401 
  "/>
</svg>
