<?xml version="1.0" encoding="utf-8"?>
<svg xmlns="http://www.w3.org/2000/svg" xmlns:xlink="http://www.w3.org/1999/xlink" width="600" height="400" viewBox="0 0 600 400">
<defs>
  <clipPath id="clip00">
    <rect x="0" y="0" width="600" height="400"/>
  </clipPath>
</defs>
<polygon clip-path="url(#clip2800)" points="
0,400 600,400 600,0 0,0 
  " fill="#ffffff" fill-opacity="1"/>
<defs>
  <clipPath id="clip01">
    <rect x="120" y="0" width="421" height="400"/>
  </clipPath>
</defs>
<polygon clip-path="url(#clip2800)" points="
204.724,360.065 413.677,360.065 413.677,11.811 204.724,11.811 
  " fill="#ffffff" fill-opacity="1"/>
<defs>
  <clipPath id="clip02">
    <rect x="204" y="11" width="210" height="349"/>
  </clipPath>
</defs>
<polyline clip-path="url(#clip2800)" style="stroke:#000000; stroke-width:1; stroke-opacity:1; fill:none" points="
  204.724,360.065 413.677,360.065 
  "/>
<polyline clip-path="url(#clip2800)" style="stroke:#000000; stroke-width:1; stroke-opacity:1; fill:none" points="
  204.724,360.065 204.724,11.811 
  "/>
<polyline clip-path="url(#clip2800)" style="stroke:#000000; stroke-width:1; stroke-opacity:1; fill:none" points="
  222.137,360.065 222.137,354.842 
  "/>
<polyline clip-path="url(#clip2800)" style="stroke:#000000; stroke-width:1; stroke-opacity:1; fill:none" points="
  265.669,360.065 265.669,354.842 
  "/>
<polyline clip-path="url(#clip2800)" style="stroke:#000000; stroke-width:1; stroke-opacity:1; fill:none" points="
  309.2,360.065 309.2,354.842 
  "/>
<polyline clip-path="url(#clip2800)" style="stroke:#000000; stroke-width:1; stroke-opacity:1; fill:none" points="
  352.732,360.065 352.732,354.842 
  "/>
<polyline clip-path="url(#clip2800)" style="stroke:#000000; stroke-width:1; stroke-opacity:1; fill:none" points="
  396.264,360.065 396.264,354.842 
  "/>
<polyline clip-path="url(#clip2800)" style="stroke:#000000; stroke-width:1; stroke-opacity:1; fill:none" points="
  204.724,273.002 207.858,273.002 
  "/>
<polyline clip-path="url(#clip2800)" style="stroke:#000000; stroke-width:1; stroke-opacity:1; fill:none" points="
  204.724,185.938 207.858,185.938 
  "/>
<polyline clip-path="url(#clip2800)" style="stroke:#000000; stroke-width:1; stroke-opacity:1; fill:none" points="
  204.724,98.8746 207.858,98.8746 
  "/>
<polyline clip-path="url(#clip2800)" style="stroke:#000000; stroke-width:1; stroke-opacity:1; fill:none" points="
  204.724,11.811 207.858,11.811 
  "/>
<g clip-path="url(#clip2800)">
<text style="fill:#000000; fill-opacity:1; font-family:Arial,Helvetica Neue,Helvetica,sans-serif; font-size:12; text-anchor:middle;" transform="rotate(0, 222.137, 373.865)" x="222.137" y="373.865">-1.0</text>
</g>
<g clip-path="url(#clip2800)">
<text style="fill:#000000; fill-opacity:1; font-family:Arial,Helvetica Neue,Helvetica,sans-serif; font-size:12; text-anchor:middle;" transform="rotate(0, 265.669, 373.865)" x="265.669" y="373.865">-0.5</text>
</g>
<g clip-path="url(#clip2800)">
<text style="fill:#000000; fill-opacity:1; font-family:Arial,Helvetica Neue,Helvetica,sans-serif; font-size:12; text-anchor:middle;" transform="rotate(0, 309.2, 373.865)" x="309.2" y="373.865">0.0</text>
</g>
<g clip-path="url(#clip2800)">
<text style="fill:#000000; fill-opacity:1; font-family:Arial,Helvetica Neue,Helvetica,sans-serif; font-size:12; text-anchor:middle;" transform="rotate(0, 352.732, 373.865)" x="352.732" y="373.865">0.5</text>
</g>
<g clip-path="url(#clip2800)">
<text style="fill:#000000; fill-opacity:1; font-family:Arial,Helvetica Neue,Helvetica,sans-serif; font-size:12; text-anchor:middle;" transform="rotate(0, 396.264, 373.865)" x="396.264" y="373.865">1.0</text>
</g>
<g clip-path="url(#clip2800)">
<text style="fill:#000000; fill-opacity:1; font-family:Arial,Helvetica Neue,Helvetica,sans-serif; font-size:12; text-anchor:end;" transform="rotate(0, 198.724, 277.502)" x="198.724" y="277.502">1</text>
</g>
<g clip-path="url(#clip2800)">
<text style="fill:#000000; fill-opacity:1; font-family:Arial,Helvetica Neue,Helvetica,sans-serif; font-size:12; text-anchor:end;" transform="rotate(0, 198.724, 190.438)" x="198.724" y="190.438">2</text>
</g>
<g clip-path="url(#clip2800)">
<text style="fill:#000000; fill-opacity:1; font-family:Arial,Helvetica Neue,Helvetica,sans-serif; font-size:12; text-anchor:end;" transform="rotate(0, 198.724, 103.375)" x="198.724" y="103.375">3</text>
</g>
<g clip-path="url(#clip2800)">
<text style="fill:#000000; fill-opacity:1; font-family:Arial,Helvetica Neue,Helvetica,sans-serif; font-size:12; text-anchor:end;" transform="rotate(0, 198.724, 16.311)" x="198.724" y="16.311">4</text>
</g>
<g clip-path="url(#clip2800)">
<text style="fill:#000000; fill-opacity:1; font-family:Arial,Helvetica Neue,Helvetica,sans-serif; font-size:16; text-anchor:middle;" transform="rotate(0, 309.2, 397.6)" x="309.2" y="397.6">t</text>
</g>
<g clip-path="url(#clip2800)">
<text style="fill:#000000; fill-opacity:1; font-family:Arial,Helvetica Neue,Helvetica,sans-serif; font-size:16; text-anchor:middle;" transform="rotate(-90, 14.4, 185.938)" x="14.4" y="185.938">Smoothed Ramp</text>
</g>
<polyline clip-path="url(#clip2802)" style="stroke:#009af9; stroke-width:2; stroke-opacity:1; fill:none" points="
  222.137,360.065 224.324,360.065 
  "/>
<polyline clip-path="url(#clip2802)" style="stroke:#009af9; stroke-width:2; stroke-opacity:1; fill:none" points="
  224.324,360.065 226.512,360.065 
  "/>
<polyline clip-path="url(#clip2802)" style="stroke:#009af9; stroke-width:2; stroke-opacity:1; fill:none" points="
  226.512,360.065 228.699,360.065 
  "/>
<polyline clip-path="url(#clip2802)" style="stroke:#009af9; stroke-width:2; stroke-opacity:1; fill:none" points="
  228.699,360.065 230.887,360.065 
  "/>
<polyline clip-path="url(#clip2802)" style="stroke:#009af9; stroke-width:2; stroke-opacity:1; fill:none" points="
  230.887,360.065 233.074,360.065 
  "/>
<polyline clip-path="url(#clip2802)" style="stroke:#009af9; stroke-width:2; stroke-opacity:1; fill:none" points="
  233.074,360.065 235.262,360.065 
  "/>
<polyline clip-path="url(#clip2802)" style="stroke:#009af9; stroke-width:2; stroke-opacity:1; fill:none" points="
  235.262,360.065 237.449,360.065 
  "/>
<polyline clip-path="url(#clip2802)" style="stroke:#009af9; stroke-width:2; stroke-opacity:1; fill:none" points="
  237.449,360.065 239.637,360.065 
  "/>
<polyline clip-path="url(#clip2802)" style="stroke:#009af9; stroke-width:2; stroke-opacity:1; fill:none" points="
  239.637,360.065 241.824,360.065 
  "/>
<polyline clip-path="url(#clip2802)" style="stroke:#009af9; stroke-width:2; stroke-opacity:1; fill:none" points="
  241.824,360.065 244.012,360.065 
  "/>
<polyline clip-path="url(#clip2802)" style="stroke:#009af9; stroke-width:2; stroke-opacity:1; fill:none" points="
  244.012,360.065 246.2,360.064 
  "/>
<polyline clip-path="url(#clip2802)" style="stroke:#009af9; stroke-width:2; stroke-opacity:1; fill:none" points="
  246.2,360.064 248.387,360.064 
  "/>
<polyline clip-path="url(#clip2802)" style="stroke:#009af9; stroke-width:2; stroke-opacity:1; fill:none" points="
  248.387,360.064 250.575,360.063 
  "/>
<polyline clip-path="url(#clip2802)" style="stroke:#009af9; stroke-width:2; stroke-opacity:1; fill:none" points="
  250.575,360.063 252.762,360.062 
  "/>
<polyline clip-path="url(#clip2802)" style="stroke:#009af9; stroke-width:2; stroke-opacity:1; fill:none" points="
  252.762,360.062 254.95,360.061 
  "/>
<polyline clip-path="url(#clip2802)" style="stroke:#009af9; stroke-width:2; stroke-opacity:1; fill:none" points="
  254.95,360.061 257.137,360.06 
  "/>
<polyline clip-path="url(#clip2802)" style="stroke:#009af9; stroke-width:2; stroke-opacity:1; fill:none" points="
  257.137,360.06 259.325,360.058 
  "/>
<polyline clip-path="url(#clip2802)" style="stroke:#009af9; stroke-width:2; stroke-opacity:1; fill:none" points="
  259.325,360.058 261.512,360.055 
  "/>
<polyline clip-path="url(#clip2802)" style="stroke:#009af9; stroke-width:2; stroke-opacity:1; fill:none" points="
  261.512,360.055 263.7,360.052 
  "/>
<polyline clip-path="url(#clip2802)" style="stroke:#009af9; stroke-width:2; stroke-opacity:1; fill:none" points="
  263.7,360.052 265.887,360.047 
  "/>
<polyline clip-path="url(#clip2802)" style="stroke:#009af9; stroke-width:2; stroke-opacity:1; fill:none" points="
  265.887,360.047 268.075,360.04 
  "/>
<polyline clip-path="url(#clip2802)" style="stroke:#009af9; stroke-width:2; stroke-opacity:1; fill:none" points="
  268.075,360.04 270.262,360.032 
  "/>
<polyline clip-path="url(#clip2802)" style="stroke:#009af9; stroke-width:2; stroke-opacity:1; fill:none" points="
  270.262,360.032 272.45,360.02 
  "/>
<polyline clip-path="url(#clip2802)" style="stroke:#009af9; stroke-width:2; stroke-opacity:1; fill:none" points="
  272.45,360.02 274.637,360.004 
  "/>
<polyline clip-path="url(#clip2802)" style="stroke:#009af9; stroke-width:2; stroke-opacity:1; fill:none" points="
  274.637,360.004 276.825,359.982 
  "/>
<polyline clip-path="url(#clip2802)" style="stroke:#009af9; stroke-width:2; stroke-opacity:1; fill:none" points="
  276.825,359.982 279.012,359.953 
  "/>
<polyline clip-path="url(#clip2802)" style="stroke:#009af9; stroke-width:2; stroke-opacity:1; fill:none" points="
  279.012,359.953 281.2,359.914 
  "/>
<polyline clip-path="url(#clip2802)" style="stroke:#009af9; stroke-width:2; stroke-opacity:1; fill:none" points="
  281.2,359.914 283.387,359.862 
  "/>
<polyline clip-path="url(#clip2802)" style="stroke:#009af9; stroke-width:2; stroke-opacity:1; fill:none" points="
  283.387,359.862 285.575,359.791 
  "/>
<polyline clip-path="url(#clip2802)" style="stroke:#009af9; stroke-width:2; stroke-opacity:1; fill:none" points="
  285.575,359.791 287.763,359.697 
  "/>
<polyline clip-path="url(#clip2802)" style="stroke:#009af9; stroke-width:2; stroke-opacity:1; fill:none" points="
  287.763,359.697 289.95,359.572 
  "/>
<polyline clip-path="url(#clip2802)" style="stroke:#009af9; stroke-width:2; stroke-opacity:1; fill:none" points="
  289.95,359.572 292.138,359.406 
  "/>
<polyline clip-path="url(#clip2802)" style="stroke:#009af9; stroke-width:2; stroke-opacity:1; fill:none" points="
  292.138,359.406 294.325,359.187 
  "/>
<polyline clip-path="url(#clip2802)" style="stroke:#009af9; stroke-width:2; stroke-opacity:1; fill:none" points="
  294.325,359.187 296.513,358.902 
  "/>
<polyline clip-path="url(#clip2802)" style="stroke:#009af9; stroke-width:2; stroke-opacity:1; fill:none" points="
  296.513,358.902 298.7,358.533 
  "/>
<polyline clip-path="url(#clip2802)" style="stroke:#009af9; stroke-width:2; stroke-opacity:1; fill:none" points="
  298.7,358.533 300.888,358.062 
  "/>
<polyline clip-path="url(#clip2802)" style="stroke:#009af9; stroke-width:2; stroke-opacity:1; fill:none" points="
  300.888,358.062 303.075,357.471 
  "/>
<polyline clip-path="url(#clip2802)" style="stroke:#009af9; stroke-width:2; stroke-opacity:1; fill:none" points="
  303.075,357.471 305.263,356.741 
  "/>
<polyline clip-path="url(#clip2802)" style="stroke:#009af9; stroke-width:2; stroke-opacity:1; fill:none" points="
  305.263,356.741 307.45,355.859 
  "/>
<polyline clip-path="url(#clip2802)" style="stroke:#009af9; stroke-width:2; stroke-opacity:1; fill:none" points="
  307.45,355.859 309.638,354.814 
  "/>
<polyline clip-path="url(#clip2802)" style="stroke:#009af9; stroke-width:2; stroke-opacity:1; fill:none" points="
  309.638,354.814 311.825,353.606 
  "/>
<polyline clip-path="url(#clip2802)" style="stroke:#009af9; stroke-width:2; stroke-opacity:1; fill:none" points="
  311.825,353.606 314.013,352.238 
  "/>
<polyline clip-path="url(#clip2802)" style="stroke:#009af9; stroke-width:2; stroke-opacity:1; fill:none" points="
  314.013,352.238 316.2,350.723 
  "/>
<polyline clip-path="url(#clip2802)" style="stroke:#009af9; stroke-width:2; stroke-opacity:1; fill:none" points="
  316.2,350.723 318.388,349.076 
  "/>
<polyline clip-path="url(#clip2802)" style="stroke:#009af9; stroke-width:2; stroke-opacity:1; fill:none" points="
  318.388,349.076 320.575,347.316 
  "/>
<polyline clip-path="url(#clip2802)" style="stroke:#009af9; stroke-width:2; stroke-opacity:1; fill:none" points="
  320.575,347.316 322.763,345.462 
  "/>
<polyline clip-path="url(#clip2802)" style="stroke:#009af9; stroke-width:2; stroke-opacity:1; fill:none" points="
  322.763,345.462 324.951,343.531 
  "/>
<polyline clip-path="url(#clip2802)" style="stroke:#009af9; stroke-width:2; stroke-opacity:1; fill:none" points="
  324.951,343.531 327.138,341.54 
  "/>
<polyline clip-path="url(#clip2802)" style="stroke:#009af9; stroke-width:2; stroke-opacity:1; fill:none" points="
  327.138,341.54 329.326,339.501 
  "/>
<polyline clip-path="url(#clip2802)" style="stroke:#009af9; stroke-width:2; stroke-opacity:1; fill:none" points="
  329.326,339.501 331.513,337.425 
  "/>
<polyline clip-path="url(#clip2802)" style="stroke:#009af9; stroke-width:2; stroke-opacity:1; fill:none" points="
  331.513,337.425 333.701,335.321 
  "/>
<polyline clip-path="url(#clip2802)" style="stroke:#009af9; stroke-width:2; stroke-opacity:1; fill:none" points="
  333.701,335.321 335.888,333.197 
  "/>
<polyline clip-path="url(#clip2802)" style="stroke:#009af9; stroke-width:2; stroke-opacity:1; fill:none" points="
  335.888,333.197 338.076,331.056 
  "/>
<polyline clip-path="url(#clip2802)" style="stroke:#009af9; stroke-width:2; stroke-opacity:1; fill:none" points="
  338.076,331.056 340.263,328.903 
  "/>
<polyline clip-path="url(#clip2802)" style="stroke:#009af9; stroke-width:2; stroke-opacity:1; fill:none" points="
  340.263,328.903 342.451,326.741 
  "/>
<polyline clip-path="url(#clip2802)" style="stroke:#009af9; stroke-width:2; stroke-opacity:1; fill:none" points="
  342.451,326.741 344.638,324.573 
  "/>
<polyline clip-path="url(#clip2802)" style="stroke:#009af9; stroke-width:2; stroke-opacity:1; fill:none" points="
  344.638,324.573 346.826,322.4 
  "/>
<polyline clip-path="url(#clip2802)" style="stroke:#009af9; stroke-width:2; stroke-opacity:1; fill:none" points="
  346.826,322.4 349.013,320.222 
  "/>
<polyline clip-path="url(#clip2802)" style="stroke:#009af9; stroke-width:2; stroke-opacity:1; fill:none" points="
  349.013,320.222 351.201,318.043 
  "/>
<polyline clip-path="url(#clip2802)" style="stroke:#009af9; stroke-width:2; stroke-opacity:1; fill:none" points="
  351.201,318.043 353.388,315.861 
  "/>
<polyline clip-path="url(#clip2802)" style="stroke:#009af9; stroke-width:2; stroke-opacity:1; fill:none" points="
  353.388,315.861 355.576,313.678 
  "/>
<polyline clip-path="url(#clip2802)" style="stroke:#009af9; stroke-width:2; stroke-opacity:1; fill:none" points="
  355.576,313.678 357.763,311.493 
  "/>
<polyline clip-path="url(#clip2802)" style="stroke:#009af9; stroke-width:2; stroke-opacity:1; fill:none" points="
  357.763,311.493 359.951,309.308 
  "/>
<polyline clip-path="url(#clip2802)" style="stroke:#009af9; stroke-width:2; stroke-opacity:1; fill:none" points="
  359.951,309.308 362.139,307.122 
  "/>
<polyline clip-path="url(#clip2802)" style="stroke:#009af9; stroke-width:2; stroke-opacity:1; fill:none" points="
  362.139,307.122 364.326,304.936 
  "/>
<polyline clip-path="url(#clip2802)" style="stroke:#009af9; stroke-width:2; stroke-opacity:1; fill:none" points="
  364.326,304.936 366.514,302.75 
  "/>
<polyline clip-path="url(#clip2802)" style="stroke:#009af9; stroke-width:2; stroke-opacity:1; fill:none" points="
  366.514,302.75 368.701,300.563 
  "/>
<polyline clip-path="url(#clip2802)" style="stroke:#009af9; stroke-width:2; stroke-opacity:1; fill:none" points="
  368.701,300.563 370.889,298.376 
  "/>
<polyline clip-path="url(#clip2802)" style="stroke:#009af9; stroke-width:2; stroke-opacity:1; fill:none" points="
  370.889,298.376 373.076,296.189 
  "/>
<polyline clip-path="url(#clip2802)" style="stroke:#009af9; stroke-width:2; stroke-opacity:1; fill:none" points="
  373.076,296.189 375.264,294.001 
  "/>
<polyline clip-path="url(#clip2802)" style="stroke:#009af9; stroke-width:2; stroke-opacity:1; fill:none" points="
  375.264,294.001 377.451,291.814 
  "/>
<polyline clip-path="url(#clip2802)" style="stroke:#009af9; stroke-width:2; stroke-opacity:1; fill:none" points="
  377.451,291.814 379.639,289.627 
  "/>
<polyline clip-path="url(#clip2802)" style="stroke:#009af9; stroke-width:2; stroke-opacity:1; fill:none" points="
  379.639,289.627 381.826,287.439 
  "/>
<polyline clip-path="url(#clip2802)" style="stroke:#009af9; stroke-width:2; stroke-opacity:1; fill:none" points="
  381.826,287.439 384.014,285.252 
  "/>
<polyline clip-path="url(#clip2802)" style="stroke:#009af9; stroke-width:2; stroke-opacity:1; fill:none" points="
  384.014,285.252 386.201,283.064 
  "/>
<polyline clip-path="url(#clip2802)" style="stroke:#009af9; stroke-width:2; stroke-opacity:1; fill:none" points="
  386.201,283.064 388.389,280.877 
  "/>
<polyline clip-path="url(#clip2802)" style="stroke:#009af9; stroke-width:2; stroke-opacity:1; fill:none" points="
  388.389,280.877 390.576,278.689 
  "/>
<polyline clip-path="url(#clip2802)" style="stroke:#009af9; stroke-width:2; stroke-opacity:1; fill:none" points="
  390.576,278.689 392.764,276.502 
  "/>
<polyline clip-path="url(#clip2802)" style="stroke:#009af9; stroke-width:2; stroke-opacity:1; fill:none" points="
  392.764,276.502 394.951,274.314 
  "/>
<polyline clip-path="url(#clip2802)" style="stroke:#009af9; stroke-width:2; stroke-opacity:1; fill:none" points="
  394.951,274.314 397.139,272.127 
  "/>
<polyline clip-path="url(#clip2802)" style="stroke:#009af9; stroke-width:2; stroke-opacity:1; fill:none" points="
  397.139,272.127 399.326,269.939 
  "/>
<polyline clip-path="url(#clip2802)" style="stroke:#009af9; stroke-width:2; stroke-opacity:1; fill:none" points="
  399.326,269.939 401.514,267.752 
  "/>
<polyline clip-path="url(#clip2802)" style="stroke:#009af9; stroke-width:2; stroke-opacity:1; fill:none" points="
  401.514,267.752 403.702,265.564 
  "/>
<polyline clip-path="url(#clip2802)" style="stroke:#009af9; stroke-width:2; stroke-opacity:1; fill:none" points="
  403.702,265.564 405.889,263.377 
  "/>
<polyline clip-path="url(#clip2802)" style="stroke:#009af9; stroke-width:2; stroke-opacity:1; fill:none" points="
  405.889,263.377 408.077,261.189 
  "/>
<polyline clip-path="url(#clip2802)" style="stroke:#009af9; stroke-width:2; stroke-opacity:1; fill:none" points="
  408.077,261.189 410.264,259.002 
  "/>
<polyline clip-path="url(#clip2802)" style="stroke:#009af9; stroke-width:2; stroke-opacity:1; fill:none" points="
  410.264,259.002 412.452,256.814 
  "/>
<polyline clip-path="url(#clip2802)" style="stroke:#009af9; stroke-width:2; stroke-opacity:1; fill:none" points="
  412.452,256.814 414.639,254.627 
  "/>
<polyline clip-path="url(#clip2802)" style="stroke:#009af9; stroke-width:2; stroke-opacity:1; fill:none" points="
  414.639,254.627 416.827,252.439 
  "/>
<polyline clip-path="url(#clip2802)" style="stroke:#009af9; stroke-width:2; stroke-opacity:1; fill:none" points="
  416.827,252.439 419.014,250.252 
  "/>
<polyline clip-path="url(#clip2802)" style="stroke:#009af9; stroke-width:2; stroke-opacity:1; fill:none" points="
  419.014,250.252 421.202,248.064 
  "/>
<polyline clip-path="url(#clip2802)" style="stroke:#009af9; stroke-width:2; stroke-opacity:1; fill:none" points="
  421.202,248.064 423.389,245.877 
  "/>
<polyline clip-path="url(#clip2802)" style="stroke:#009af9; stroke-width:2; stroke-opacity:1; fill:none" points="
  423.389,245.877 425.577,243.689 
  "/>
<polyline clip-path="url(#clip2802)" style="stroke:#009af9; stroke-width:2; stroke-opacity:1; fill:none" points="
  425.577,243.689 427.764,241.501 
  "/>
<polyline clip-path="url(#clip2802)" style="stroke:#009af9; stroke-width:2; stroke-opacity:1; fill:none" points="
  427.764,241.501 429.952,239.314 
  "/>
<polyline clip-path="url(#clip2802)" style="stroke:#009af9; stroke-width:2; stroke-opacity:1; fill:none" points="
  429.952,239.314 432.139,237.126 
  "/>
<polyline clip-path="url(#clip2802)" style="stroke:#009af9; stroke-width:2; stroke-opacity:1; fill:none" points="
  432.139,237.126 434.327,234.939 
  "/>
<polyline clip-path="url(#clip2802)" style="stroke:#009af9; stroke-width:2; stroke-opacity:1; fill:none" points="
  434.327,234.939 436.514,232.751 
  "/>
<polyline clip-path="url(#clip2802)" style="stroke:#009af9; stroke-width:2; stroke-opacity:1; fill:none" points="
  436.514,232.751 438.702,230.564 
  "/>
<polyline clip-path="url(#clip2802)" style="stroke:#009af9; stroke-width:2; stroke-opacity:1; fill:none" points="
  438.702,230.564 440.89,228.376 
  "/>
<polyline clip-path="url(#clip2802)" style="stroke:#009af9; stroke-width:2; stroke-opacity:1; fill:none" points="
  440.89,228.376 443.077,226.189 
  "/>
<polyline clip-path="url(#clip2802)" style="stroke:#009af9; stroke-width:2; stroke-opacity:1; fill:none" points="
  443.077,226.189 445.265,224.001 
  "/>
<polyline clip-path="url(#clip2802)" style="stroke:#009af9; stroke-width:2; stroke-opacity:1; fill:none" points="
  445.265,224.001 447.452,221.814 
  "/>
<polyline clip-path="url(#clip2802)" style="stroke:#009af9; stroke-width:2; stroke-opacity:1; fill:none" points="
  447.452,221.814 449.64,219.626 
  "/>
<polyline clip-path="url(#clip2802)" style="stroke:#009af9; stroke-width:2; stroke-opacity:1; fill:none" points="
  449.64,219.626 451.827,217.439 
  "/>
<polyline clip-path="url(#clip2802)" style="stroke:#009af9; stroke-width:2; stroke-opacity:1; fill:none" points="
  451.827,217.439 454.015,215.251 
  "/>
<polyline clip-path="url(#clip2802)" style="stroke:#009af9; stroke-width:2; stroke-opacity:1; fill:none" points="
  454.015,215.251 456.202,213.064 
  "/>
<polyline clip-path="url(#clip2802)" style="stroke:#009af9; stroke-width:2; stroke-opacity:1; fill:none" points="
  456.202,213.064 458.39,210.876 
  "/>
<polyline clip-path="url(#clip2802)" style="stroke:#009af9; stroke-width:2; stroke-opacity:1; fill:none" points="
  458.39,210.876 460.577,208.689 
  "/>
<polyline clip-path="url(#clip2802)" style="stroke:#009af9; stroke-width:2; stroke-opacity:1; fill:none" points="
  460.577,208.689 462.765,206.501 
  "/>
<polyline clip-path="url(#clip2802)" style="stroke:#009af9; stroke-width:2; stroke-opacity:1; fill:none" points="
  462.765,206.501 464.952,204.313 
  "/>
<polyline clip-path="url(#clip2802)" style="stroke:#009af9; stroke-width:2; stroke-opacity:1; fill:none" points="
  464.952,204.313 467.14,202.126 
  "/>
<polyline clip-path="url(#clip2802)" style="stroke:#009af9; stroke-width:2; stroke-opacity:1; fill:none" points="
  467.14,202.126 469.327,199.938 
  "/>
<polyline clip-path="url(#clip2802)" style="stroke:#009af9; stroke-width:2; stroke-opacity:1; fill:none" points="
  469.327,199.938 471.515,197.751 
  "/>
<polyline clip-path="url(#clip2802)" style="stroke:#009af9; stroke-width:2; stroke-opacity:1; fill:none" points="
  471.515,197.751 473.702,195.563 
  "/>
<polyline clip-path="url(#clip2802)" style="stroke:#009af9; stroke-width:2; stroke-opacity:1; fill:none" points="
  473.702,195.563 475.89,193.376 
  "/>
<polyline clip-path="url(#clip2802)" style="stroke:#009af9; stroke-width:2; stroke-opacity:1; fill:none" points="
  475.89,193.376 478.077,191.188 
  "/>
<polyline clip-path="url(#clip2802)" style="stroke:#009af9; stroke-width:2; stroke-opacity:1; fill:none" points="
  478.077,191.188 480.265,189.001 
  "/>
<polyline clip-path="url(#clip2802)" style="stroke:#009af9; stroke-width:2; stroke-opacity:1; fill:none" points="
  480.265,189.001 482.453,186.813 
  "/>
<polyline clip-path="url(#clip2802)" style="stroke:#009af9; stroke-width:2; stroke-opacity:1; fill:none" points="
  482.453,186.813 484.64,184.626 
  "/>
<polyline clip-path="url(#clip2802)" style="stroke:#009af9; stroke-width:2; stroke-opacity:1; fill:none" points="
  484.64,184.626 486.828,182.438 
  "/>
<polyline clip-path="url(#clip2802)" style="stroke:#009af9; stroke-width:2; stroke-opacity:1; fill:none" points="
  486.828,182.438 489.015,180.251 
  "/>
<polyline clip-path="url(#clip2802)" style="stroke:#009af9; stroke-width:2; stroke-opacity:1; fill:none" points="
  489.015,180.251 491.203,178.063 
  "/>
<polyline clip-path="url(#clip2802)" style="stroke:#009af9; stroke-width:2; stroke-opacity:1; fill:none" points="
  491.203,178.063 493.39,175.876 
  "/>
<polyline clip-path="url(#clip2802)" style="stroke:#009af9; stroke-width:2; stroke-opacity:1; fill:none" points="
  493.39,175.876 495.578,173.688 
  "/>
<polyline clip-path="url(#clip2802)" style="stroke:#009af9; stroke-width:2; stroke-opacity:1; fill:none" points="
  495.578,173.688 497.765,171.501 
  "/>
<polyline clip-path="url(#clip2802)" style="stroke:#009af9; stroke-width:2; stroke-opacity:1; fill:none" points="
  497.765,171.501 499.953,169.313 
  "/>
<polyline clip-path="url(#clip2802)" style="stroke:#009af9; stroke-width:2; stroke-opacity:1; fill:none" points="
  499.953,169.313 502.14,167.126 
  "/>
<polyline clip-path="url(#clip2802)" style="stroke:#009af9; stroke-width:2; stroke-opacity:1; fill:none" points="
  502.14,167.126 504.328,164.938 
  "/>
<polyline clip-path="url(#clip2802)" style="stroke:#009af9; stroke-width:2; stroke-opacity:1; fill:none" points="
  504.328,164.938 506.515,162.75 
  "/>
<polyline clip-path="url(#clip2802)" style="stroke:#009af9; stroke-width:2; stroke-opacity:1; fill:none" points="
  506.515,162.75 508.703,160.563 
  "/>
<polyline clip-path="url(#clip2802)" style="stroke:#009af9; stroke-width:2; stroke-opacity:1; fill:none" points="
  508.703,160.563 510.89,158.375 
  "/>
<polyline clip-path="url(#clip2802)" style="stroke:#009af9; stroke-width:2; stroke-opacity:1; fill:none" points="
  510.89,158.375 513.078,156.188 
  "/>
<polyline clip-path="url(#clip2802)" style="stroke:#009af9; stroke-width:2; stroke-opacity:1; fill:none" points="
  513.078,156.188 515.265,154 
  "/>
<polyline clip-path="url(#clip2802)" style="stroke:#009af9; stroke-width:2; stroke-opacity:1; fill:none" points="
  515.265,154 517.453,151.813 
  "/>
<polyline clip-path="url(#clip2802)" style="stroke:#009af9; stroke-width:2; stroke-opacity:1; fill:none" points="
  517.453,151.813 519.641,149.625 
  "/>
<polyline clip-path="url(#clip2802)" style="stroke:#009af9; stroke-width:2; stroke-opacity:1; fill:none" points="
  519.641,149.625 521.828,147.438 
  "/>
<polyline clip-path="url(#clip2802)" style="stroke:#009af9; stroke-width:2; stroke-opacity:1; fill:none" points="
  521.828,147.438 524.016,145.25 
  "/>
<polyline clip-path="url(#clip2802)" style="stroke:#009af9; stroke-width:2; stroke-opacity:1; fill:none" points="
  524.016,145.25 526.203,143.063 
  "/>
<polyline clip-path="url(#clip2802)" style="stroke:#009af9; stroke-width:2; stroke-opacity:1; fill:none" points="
  526.203,143.063 528.391,140.875 
  "/>
<polyline clip-path="url(#clip2802)" style="stroke:#009af9; stroke-width:2; stroke-opacity:1; fill:none" points="
  528.391,140.875 530.578,138.688 
  "/>
<polyline clip-path="url(#clip2802)" style="stroke:#009af9; stroke-width:2; stroke-opacity:1; fill:none" points="
  530.578,138.688 532.766,136.5 
  "/>
<polyline clip-path="url(#clip2802)" style="stroke:#009af9; stroke-width:2; stroke-opacity:1; fill:none" points="
  532.766,136.5 534.953,134.313 
  "/>
<polyline clip-path="url(#clip2802)" style="stroke:#009af9; stroke-width:2; stroke-opacity:1; fill:none" points="
  534.953,134.313 537.141,132.125 
  "/>
<polyline clip-path="url(#clip2802)" style="stroke:#009af9; stroke-width:2; stroke-opacity:1; fill:none" points="
  537.141,132.125 539.328,129.938 
  "/>
<polyline clip-path="url(#clip2802)" style="stroke:#009af9; stroke-width:2; stroke-opacity:1; fill:none" points="
  539.328,129.938 541.516,127.75 
  "/>
<polyline clip-path="url(#clip2802)" style="stroke:#009af9; stroke-width:2; stroke-opacity:1; fill:none" points="
  541.516,127.75 543.703,125.562 
  "/>
<polyline clip-path="url(#clip2802)" style="stroke:#009af9; stroke-width:2; stroke-opacity:1; fill:none" points="
  543.703,125.562 545.891,123.375 
  "/>
<polyline clip-path="url(#clip2802)" style="stroke:#009af9; stroke-width:2; stroke-opacity:1; fill:none" points="
  545.891,123.375 548.078,121.187 
  "/>
<polyline clip-path="url(#clip2802)" style="stroke:#009af9; stroke-width:2; stroke-opacity:1; fill:none" points="
  548.078,121.187 550.266,119 
  "/>
<polyline clip-path="url(#clip2802)" style="stroke:#009af9; stroke-width:2; stroke-opacity:1; fill:none" points="
  550.266,119 552.453,116.812 
  "/>
<polyline clip-path="url(#clip2802)" style="stroke:#009af9; stroke-width:2; stroke-opacity:1; fill:none" points="
  552.453,116.812 554.641,114.625 
  "/>
<polyline clip-path="url(#clip2802)" style="stroke:#009af9; stroke-width:2; stroke-opacity:1; fill:none" points="
  554.641,114.625 556.828,112.437 
  "/>
<polyline clip-path="url(#clip2802)" style="stroke:#009af9; stroke-width:2; stroke-opacity:1; fill:none" points="
  556.828,112.437 559.016,110.25 
  "/>
<polyline clip-path="url(#clip2802)" style="stroke:#009af9; stroke-width:2; stroke-opacity:1; fill:none" points="
  559.016,110.25 561.204,108.062 
  "/>
<polyline clip-path="url(#clip2802)" style="stroke:#009af9; stroke-width:2; stroke-opacity:1; fill:none" points="
  561.204,108.062 563.391,105.875 
  "/>
<polyline clip-path="url(#clip2802)" style="stroke:#009af9; stroke-width:2; stroke-opacity:1; fill:none" points="
  563.391,105.875 565.579,103.687 
  "/>
<polyline clip-path="url(#clip2802)" style="stroke:#009af9; stroke-width:2; stroke-opacity:1; fill:none" points="
  565.579,103.687 567.766,101.5 
  "/>
<polyline clip-path="url(#clip2802)" style="stroke:#009af9; stroke-width:2; stroke-opacity:1; fill:none" points="
  567.766,101.5 569.954,99.3121 
  "/>
<polyline clip-path="url(#clip2802)" style="stroke:#009af9; stroke-width:2; stroke-opacity:1; fill:none" points="
  569.954,99.3121 572.141,97.1246 
  "/>
<polyline clip-path="url(#clip2802)" style="stroke:#009af9; stroke-width:2; stroke-opacity:1; fill:none" points="
  572.141,97.1246 574.329,94.9371 
  "/>
<polyline clip-path="url(#clip2802)" style="stroke:#009af9; stroke-width:2; stroke-opacity:1; fill:none" points="
  574.329,94.9371 576.516,92.7496 
  "/>
<polyline clip-path="url(#clip2802)" style="stroke:#009af9; stroke-width:2; stroke-opacity:1; fill:none" points="
  576.516,92.7496 578.704,90.562 
  "/>
<polyline clip-path="url(#clip2802)" style="stroke:#009af9; stroke-width:2; stroke-opacity:1; fill:none" points="
  578.704,90.562 580.891,88.3745 
  "/>
<polyline clip-path="url(#clip2802)" style="stroke:#009af9; stroke-width:2; stroke-opacity:1; fill:none" points="
  580.891,88.3745 583.079,86.187 
  "/>
<polyline clip-path="url(#clip2802)" style="stroke:#009af9; stroke-width:2; stroke-opacity:1; fill:none" points="
  583.079,86.187 585.266,83.9994 
  "/>
<polyline clip-path="url(#clip2802)" style="stroke:#009af9; stroke-width:2; stroke-opacity:1; fill:none" points="
  585.266,83.9994 587.454,81.8119 
  "/>
<polyline clip-path="url(#clip2802)" style="stroke:#009af9; stroke-width:2; stroke-opacity:1; fill:none" points="
  587.454,81.8119 589.641,79.6244 
  "/>
<polyline clip-path="url(#clip2802)" style="stroke:#009af9; stroke-width:2; stroke-opacity:1; fill:none" points="
  589.641,79.6244 591.829,77.4369 
  "/>
<polyline clip-path="url(#clip2802)" style="stroke:#009af9; stroke-width:2; stroke-opacity:1; fill:none" points="
  591.829,77.4369 594.016,75.2493 
  "/>
<polyline clip-path="url(#clip2802)" style="stroke:#009af9; stroke-width:2; stroke-opacity:1; fill:none" points="
  594.016,75.2493 596.204,73.0618 
  "/>
<polyline clip-path="url(#clip2802)" style="stroke:#009af9; stroke-width:2; stroke-opacity:1; fill:none" points="
  596.204,73.0618 598.392,70.8743 
  "/>
<polyline clip-path="url(#clip2802)" style="stroke:#009af9; stroke-width:2; stroke-opacity:1; fill:none" points="
  598.392,70.8743 600.579,68.6867 
  "/>
<polyline clip-path="url(#clip2802)" style="stroke:#009af9; stroke-width:2; stroke-opacity:1; fill:none" points="
  600.579,68.6867 602.767,66.4992 
  "/>
<polyline clip-path="url(#clip2802)" style="stroke:#009af9; stroke-width:2; stroke-opacity:1; fill:none" points="
  602.767,66.4992 604.954,64.3117 
  "/>
<polyline clip-path="url(#clip2802)" style="stroke:#009af9; stroke-width:2; stroke-opacity:1; fill:none" points="
  604.954,64.3117 607.142,62.1242 
  "/>
<polyline clip-path="url(#clip2802)" style="stroke:#009af9; stroke-width:2; stroke-opacity:1; fill:none" points="
  607.142,62.1242 609.329,59.9366 
  "/>
<polyline clip-path="url(#clip2802)" style="stroke:#009af9; stroke-width:2; stroke-opacity:1; fill:none" points="
  609.329,59.9366 611.517,57.7491 
  "/>
<polyline clip-path="url(#clip2802)" style="stroke:#009af9; stroke-width:2; stroke-opacity:1; fill:none" points="
  611.517,57.7491 613.704,55.5616 
  "/>
<polyline clip-path="url(#clip2802)" style="stroke:#009af9; stroke-width:2; stroke-opacity:1; fill:none" points="
  613.704,55.5616 615.892,53.3741 
  "/>
<polyline clip-path="url(#clip2802)" style="stroke:#009af9; stroke-width:2; stroke-opacity:1; fill:none" points="
  615.892,53.3741 618.079,51.1865 
  "/>
<polyline clip-path="url(#clip2802)" style="stroke:#009af9; stroke-width:2; stroke-opacity:1; fill:none" points="
  618.079,51.1865 620.267,48.999 
  "/>
<polyline clip-path="url(#clip2802)" style="stroke:#009af9; stroke-width:2; stroke-opacity:1; fill:none" points="
  620.267,48.999 622.454,46.8115 
  "/>
<polyline clip-path="url(#clip2802)" style="stroke:#009af9; stroke-width:2; stroke-opacity:1; fill:none" points="
  622.454,46.8115 624.642,44.6239 
  "/>
<polyline clip-path="url(#clip2802)" style="stroke:#009af9; stroke-width:2; stroke-opacity:1; fill:none" points="
  624.642,44.6239 626.829,42.4364 
  "/>
<polyline clip-path="url(#clip2802)" style="stroke:#009af9; stroke-width:2; stroke-opacity:1; fill:none" points="
  626.829,42.4364 629.017,40.2489 
  "/>
<polyline clip-path="url(#clip2802)" style="stroke:#009af9; stroke-width:2; stroke-opacity:1; fill:none" points="
  629.017,40.2489 631.204,38.0614 
  "/>
<polyline clip-path="url(#clip2802)" style="stroke:#009af9; stroke-width:2; stroke-opacity:1; fill:none" points="
  631.204,38.0614 633.392,35.8738 
  "/>
<polyline clip-path="url(#clip2802)" style="stroke:#009af9; stroke-width:2; stroke-opacity:1; fill:none" points="
  633.392,35.8738 635.579,33.6863 
  "/>
<polyline clip-path="url(#clip2802)" style="stroke:#009af9; stroke-width:2; stroke-opacity:1; fill:none" points="
  635.579,33.6863 637.767,31.4988 
  "/>
<polyline clip-path="url(#clip2802)" style="stroke:#009af9; stroke-width:2; stroke-opacity:1; fill:none" points="
  637.767,31.4988 639.955,29.3112 
  "/>
<polyline clip-path="url(#clip2802)" style="stroke:#009af9; stroke-width:2; stroke-opacity:1; fill:none" points="
  639.955,29.3112 642.142,27.1237 
  "/>
<polyline clip-path="url(#clip2802)" style="stroke:#009af9; stroke-width:2; stroke-opacity:1; fill:none" points="
  642.142,27.1237 644.33,24.9362 
  "/>
<polyline clip-path="url(#clip2802)" style="stroke:#009af9; stroke-width:2; stroke-opacity:1; fill:none" points="
  644.33,24.9362 646.517,22.7487 
  "/>
<polyline clip-path="url(#clip2802)" style="stroke:#009af9; stroke-width:2; stroke-opacity:1; fill:none" points="
  646.517,22.7487 648.705,20.5611 
  "/>
<polyline clip-path="url(#clip2802)" style="stroke:#009af9; stroke-width:2; stroke-opacity:1; fill:none" points="
  648.705,20.5611 650.892,18.3736 
  "/>
<polyline clip-path="url(#clip2802)" style="stroke:#009af9; stroke-width:2; stroke-opacity:1; fill:none" points="
  650.892,18.3736 653.08,16.1861 
  "/>
<polyline clip-path="url(#clip2802)" style="stroke:#009af9; stroke-width:2; stroke-opacity:1; fill:none" points="
  653.08,16.1861 655.267,13.9986 
  "/>
<polyline clip-path="url(#clip2802)" style="stroke:#009af9; stroke-width:2; stroke-opacity:1; fill:none" points="
  655.267,13.9986 657.455,11.811 
  "/>
</svg>
