<?xml version="1.0" encoding="utf-8"?>
<svg xmlns="http://www.w3.org/2000/svg" xmlns:xlink="http://www.w3.org/1999/xlink" width="150" height="100" viewBox="0 0 600 400">
<defs>
  <clipPath id="clip6200">
    <rect x="0" y="0" width="2000" height="2000"/>
  </clipPath>
</defs>
<defs>
  <clipPath id="clip6201">
    <rect x="0" y="0" width="600" height="400"/>
  </clipPath>
</defs>
<polygon clip-path="url(#clip6201)" points="
0,400 600,400 600,0 0,0 
  " fill="#ffffff" fill-opacity="1"/>
<defs>
  <clipPath id="clip6202">
    <rect x="120" y="0" width="421" height="400"/>
  </clipPath>
</defs>
<polygon clip-path="url(#clip6201)" points="
214.61,360.121 411.766,360.121 411.766,11.811 214.61,11.811 
  " fill="#ffffff" fill-opacity="1"/>
<defs>
  <clipPath id="clip6203">
    <rect x="214" y="11" width="198" height="349"/>
  </clipPath>
</defs>
<polyline clip-path="url(#clip6201)" style="stroke:#000000; stroke-width:1; stroke-opacity:1; fill:none" points="
  214.61,360.121 411.766,360.121 
  "/>
<polyline clip-path="url(#clip6201)" style="stroke:#000000; stroke-width:1; stroke-opacity:1; fill:none" points="
  214.61,360.121 214.61,11.811 
  "/>
<polyline clip-path="url(#clip6201)" style="stroke:#000000; stroke-width:1; stroke-opacity:1; fill:none" points="
  231.039,360.121 231.039,354.896 
  "/>
<polyline clip-path="url(#clip6201)" style="stroke:#000000; stroke-width:1; stroke-opacity:1; fill:none" points="
  272.114,360.121 272.114,354.896 
  "/>
<polyline clip-path="url(#clip6201)" style="stroke:#000000; stroke-width:1; stroke-opacity:1; fill:none" points="
  313.188,360.121 313.188,354.896 
  "/>
<polyline clip-path="url(#clip6201)" style="stroke:#000000; stroke-width:1; stroke-opacity:1; fill:none" points="
  354.262,360.121 354.262,354.896 
  "/>
<polyline clip-path="url(#clip6201)" style="stroke:#000000; stroke-width:1; stroke-opacity:1; fill:none" points="
  395.336,360.121 395.336,354.896 
  "/>
<polyline clip-path="url(#clip6201)" style="stroke:#000000; stroke-width:1; stroke-opacity:1; fill:none" points="
  214.61,350.263 217.567,350.263 
  "/>
<polyline clip-path="url(#clip6201)" style="stroke:#000000; stroke-width:1; stroke-opacity:1; fill:none" points="
  214.61,268.114 217.567,268.114 
  "/>
<polyline clip-path="url(#clip6201)" style="stroke:#000000; stroke-width:1; stroke-opacity:1; fill:none" points="
  214.61,185.966 217.567,185.966 
  "/>
<polyline clip-path="url(#clip6201)" style="stroke:#000000; stroke-width:1; stroke-opacity:1; fill:none" points="
  214.61,103.817 217.567,103.817 
  "/>
<polyline clip-path="url(#clip6201)" style="stroke:#000000; stroke-width:1; stroke-opacity:1; fill:none" points="
  214.61,21.6688 217.567,21.6688 
  "/>
<g clip-path="url(#clip6201)">
<text style="fill:#000000; fill-opacity:1; font-family:Arial,Helvetica Neue,Helvetica,sans-serif; font-size:12; text-anchor:middle;" transform="rotate(0, 231.039, 373.921)" x="231.039" y="373.921">-1.0</text>
</g>
<g clip-path="url(#clip6201)">
<text style="fill:#000000; fill-opacity:1; font-family:Arial,Helvetica Neue,Helvetica,sans-serif; font-size:12; text-anchor:middle;" transform="rotate(0, 272.114, 373.921)" x="272.114" y="373.921">-0.5</text>
</g>
<g clip-path="url(#clip6201)">
<text style="fill:#000000; fill-opacity:1; font-family:Arial,Helvetica Neue,Helvetica,sans-serif; font-size:12; text-anchor:middle;" transform="rotate(0, 313.188, 373.921)" x="313.188" y="373.921">0.0</text>
</g>
<g clip-path="url(#clip6201)">
<text style="fill:#000000; fill-opacity:1; font-family:Arial,Helvetica Neue,Helvetica,sans-serif; font-size:12; text-anchor:middle;" transform="rotate(0, 354.262, 373.921)" x="354.262" y="373.921">0.5</text>
</g>
<g clip-path="url(#clip6201)">
<text style="fill:#000000; fill-opacity:1; font-family:Arial,Helvetica Neue,Helvetica,sans-serif; font-size:12; text-anchor:middle;" transform="rotate(0, 395.336, 373.921)" x="395.336" y="373.921">1.0</text>
</g>
<g clip-path="url(#clip6201)">
<text style="fill:#000000; fill-opacity:1; font-family:Arial,Helvetica Neue,Helvetica,sans-serif; font-size:12; text-anchor:end;" transform="rotate(0, 208.61, 354.763)" x="208.61" y="354.763">0</text>
</g>
<g clip-path="url(#clip6201)">
<text style="fill:#000000; fill-opacity:1; font-family:Arial,Helvetica Neue,Helvetica,sans-serif; font-size:12; text-anchor:end;" transform="rotate(0, 208.61, 272.614)" x="208.61" y="272.614">1</text>
</g>
<g clip-path="url(#clip6201)">
<text style="fill:#000000; fill-opacity:1; font-family:Arial,Helvetica Neue,Helvetica,sans-serif; font-size:12; text-anchor:end;" transform="rotate(0, 208.61, 190.466)" x="208.61" y="190.466">2</text>
</g>
<g clip-path="url(#clip6201)">
<text style="fill:#000000; fill-opacity:1; font-family:Arial,Helvetica Neue,Helvetica,sans-serif; font-size:12; text-anchor:end;" transform="rotate(0, 208.61, 108.317)" x="208.61" y="108.317">3</text>
</g>
<g clip-path="url(#clip6201)">
<text style="fill:#000000; fill-opacity:1; font-family:Arial,Helvetica Neue,Helvetica,sans-serif; font-size:12; text-anchor:end;" transform="rotate(0, 208.61, 26.1688)" x="208.61" y="26.1688">4</text>
</g>
<g clip-path="url(#clip6201)">
<text style="fill:#000000; fill-opacity:1; font-family:Arial,Helvetica Neue,Helvetica,sans-serif; font-size:16; text-anchor:middle;" transform="rotate(0, 313.188, 397.6)" x="313.188" y="397.6">t</text>
</g>
<g clip-path="url(#clip6201)">
<text style="fill:#000000; fill-opacity:1; font-family:Arial,Helvetica Neue,Helvetica,sans-serif; font-size:16; text-anchor:middle;" transform="rotate(-90, 14.4, 185.966)" x="14.4" y="185.966">Smoothed Ramp</text>
</g>
<polyline clip-path="url(#clip6203)" style="stroke:#009af9; stroke-width:2; stroke-opacity:1; fill:none" points="
  231.039,350.263 233.103,350.263 235.167,350.263 237.231,350.263 239.295,350.263 241.359,350.263 243.424,350.263 245.488,350.263 247.552,350.262 249.616,350.262 
  251.68,350.262 253.744,350.262 255.808,350.261 257.872,350.261 259.936,350.26 262,350.259 264.064,350.258 266.128,350.256 268.192,350.253 270.256,350.25 
  272.32,350.245 274.384,350.239 276.448,350.231 278.512,350.22 280.576,350.205 282.64,350.184 284.704,350.157 286.768,350.12 288.832,350.07 290.896,350.004 
  292.96,349.915 295.024,349.797 297.088,349.64 299.152,349.434 301.216,349.165 303.28,348.817 305.344,348.373 307.409,347.815 309.473,347.126 311.537,346.294 
  313.601,345.308 315.665,344.168 317.729,342.878 319.793,341.448 321.857,339.894 323.921,338.233 325.985,336.484 328.049,334.662 330.113,332.783 332.177,330.859 
  334.241,328.901 336.305,326.916 338.369,324.911 340.433,322.891 342.497,320.86 344.561,318.82 346.625,316.774 348.689,314.723 350.753,312.669 352.817,310.613 
  354.881,308.554 356.945,306.494 359.009,304.433 361.073,302.371 363.137,300.309 365.201,298.246 367.265,296.183 369.33,294.119 371.394,292.056 373.458,289.992 
  375.522,287.928 377.586,285.864 379.65,283.801 381.714,281.737 383.778,279.673 385.842,277.609 387.906,275.545 389.97,273.481 392.034,271.417 394.098,269.353 
  396.162,267.289 398.226,265.225 400.29,263.161 402.354,261.097 404.418,259.033 406.482,256.969 408.546,254.905 410.61,252.841 412.674,250.776 414.738,248.712 
  416.802,246.648 418.866,244.584 420.93,242.52 422.994,240.456 425.058,238.392 427.122,236.328 429.186,234.264 431.25,232.2 433.315,230.136 435.379,228.072 
  437.443,226.008 439.507,223.944 441.571,221.88 443.635,219.816 445.699,217.752 447.763,215.688 449.827,213.624 451.891,211.56 453.955,209.496 456.019,207.432 
  458.083,205.368 460.147,203.304 462.211,201.24 464.275,199.176 466.339,197.112 468.403,195.048 470.467,192.984 472.531,190.92 474.595,188.856 476.659,186.791 
  478.723,184.727 480.787,182.663 482.851,180.599 484.915,178.535 486.979,176.471 489.043,174.407 491.107,172.343 493.171,170.279 495.236,168.215 497.3,166.151 
  499.364,164.087 501.428,162.023 503.492,159.959 505.556,157.895 507.62,155.831 509.684,153.767 511.748,151.703 513.812,149.639 515.876,147.575 517.94,145.511 
  520.004,143.447 522.068,141.383 524.132,139.319 526.196,137.255 528.26,135.191 530.324,133.127 532.388,131.063 534.452,128.999 536.516,126.935 538.58,124.87 
  540.644,122.806 542.708,120.742 544.772,118.678 546.836,116.614 548.9,114.55 550.964,112.486 553.028,110.422 555.092,108.358 557.156,106.294 559.221,104.23 
  561.285,102.166 563.349,100.102 565.413,98.0381 567.477,95.974 569.541,93.91 571.605,91.846 573.669,89.7819 575.733,87.7179 577.797,85.6539 579.861,83.5898 
  581.925,81.5258 583.989,79.4618 586.053,77.3977 588.117,75.3337 590.181,73.2697 592.245,71.2056 594.309,69.1416 596.373,67.0776 598.437,65.0135 600.501,62.9495 
  602.565,60.8855 604.629,58.8214 606.693,56.7574 608.757,54.6934 610.821,52.6293 612.885,50.5653 614.949,48.5013 617.013,46.4372 619.077,44.3732 621.142,42.3092 
  623.206,40.2451 625.27,38.1811 627.334,36.1171 629.398,34.053 631.462,31.989 633.526,29.925 635.59,27.8609 637.654,25.7969 639.718,23.7329 641.782,21.6688 
  
  "/>
</svg>
