<?xml version="1.0" encoding="utf-8"?>
<svg xmlns="http://www.w3.org/2000/svg" xmlns:xlink="http://www.w3.org/1999/xlink" width="600" height="400" viewBox="0 0 600 400">
<defs>
  <clipPath id="clip00">
    <rect x="0" y="0" width="600" height="400"/>
  </clipPath>
</defs>
<polygon clip-path="url(#clip1600)" points="
0,400 600,400 600,0 0,0 
  " fill="#ffffff" fill-opacity="1"/>
<defs>
  <clipPath id="clip01">
    <rect x="120" y="0" width="421" height="400"/>
  </clipPath>
</defs>
<polygon clip-path="url(#clip1600)" points="
91.5413,360.065 526.859,360.065 526.859,11.811 91.5413,11.811 
  " fill="#ffffff" fill-opacity="1"/>
<defs>
  <clipPath id="clip02">
    <rect x="91" y="11" width="436" height="349"/>
  </clipPath>
</defs>
<polyline clip-path="url(#clip1600)" style="stroke:#000000; stroke-width:1; stroke-opacity:1; fill:none" points="
  91.5413,360.065 526.859,360.065 
  "/>
<polyline clip-path="url(#clip1600)" style="stroke:#000000; stroke-width:1; stroke-opacity:1; fill:none" points="
  91.5413,360.065 91.5413,11.811 
  "/>
<polyline clip-path="url(#clip1600)" style="stroke:#000000; stroke-width:1; stroke-opacity:1; fill:none" points="
  91.5413,360.065 91.5413,354.842 
  "/>
<polyline clip-path="url(#clip1600)" style="stroke:#000000; stroke-width:1; stroke-opacity:1; fill:none" points="
  178.605,360.065 178.605,354.842 
  "/>
<polyline clip-path="url(#clip1600)" style="stroke:#000000; stroke-width:1; stroke-opacity:1; fill:none" points="
  265.669,360.065 265.669,354.842 
  "/>
<polyline clip-path="url(#clip1600)" style="stroke:#000000; stroke-width:1; stroke-opacity:1; fill:none" points="
  352.732,360.065 352.732,354.842 
  "/>
<polyline clip-path="url(#clip1600)" style="stroke:#000000; stroke-width:1; stroke-opacity:1; fill:none" points="
  439.796,360.065 439.796,354.842 
  "/>
<polyline clip-path="url(#clip1600)" style="stroke:#000000; stroke-width:1; stroke-opacity:1; fill:none" points="
  526.859,360.065 526.859,354.842 
  "/>
<polyline clip-path="url(#clip1600)" style="stroke:#000000; stroke-width:1; stroke-opacity:1; fill:none" points="
  91.5413,273.002 98.0711,273.002 
  "/>
<polyline clip-path="url(#clip1600)" style="stroke:#000000; stroke-width:1; stroke-opacity:1; fill:none" points="
  91.5413,185.938 98.0711,185.938 
  "/>
<polyline clip-path="url(#clip1600)" style="stroke:#000000; stroke-width:1; stroke-opacity:1; fill:none" points="
  91.5413,98.8746 98.0711,98.8746 
  "/>
<polyline clip-path="url(#clip1600)" style="stroke:#000000; stroke-width:1; stroke-opacity:1; fill:none" points="
  91.5413,11.811 98.0711,11.811 
  "/>
<g clip-path="url(#clip1600)">
<text style="fill:#000000; fill-opacity:1; font-family:Arial,Helvetica Neue,Helvetica,sans-serif; font-size:12; text-anchor:middle;" transform="rotate(0, 91.5413, 373.865)" x="91.5413" y="373.865">-1</text>
</g>
<g clip-path="url(#clip1600)">
<text style="fill:#000000; fill-opacity:1; font-family:Arial,Helvetica Neue,Helvetica,sans-serif; font-size:12; text-anchor:middle;" transform="rotate(0, 178.605, 373.865)" x="178.605" y="373.865">0</text>
</g>
<g clip-path="url(#clip1600)">
<text style="fill:#000000; fill-opacity:1; font-family:Arial,Helvetica Neue,Helvetica,sans-serif; font-size:12; text-anchor:middle;" transform="rotate(0, 265.669, 373.865)" x="265.669" y="373.865">1</text>
</g>
<g clip-path="url(#clip1600)">
<text style="fill:#000000; fill-opacity:1; font-family:Arial,Helvetica Neue,Helvetica,sans-serif; font-size:12; text-anchor:middle;" transform="rotate(0, 352.732, 373.865)" x="352.732" y="373.865">2</text>
</g>
<g clip-path="url(#clip1600)">
<text style="fill:#000000; fill-opacity:1; font-family:Arial,Helvetica Neue,Helvetica,sans-serif; font-size:12; text-anchor:middle;" transform="rotate(0, 439.796, 373.865)" x="439.796" y="373.865">3</text>
</g>
<g clip-path="url(#clip1600)">
<text style="fill:#000000; fill-opacity:1; font-family:Arial,Helvetica Neue,Helvetica,sans-serif; font-size:12; text-anchor:middle;" transform="rotate(0, 526.859, 373.865)" x="526.859" y="373.865">4</text>
</g>
<g clip-path="url(#clip1600)">
<text style="fill:#000000; fill-opacity:1; font-family:Arial,Helvetica Neue,Helvetica,sans-serif; font-size:12; text-anchor:end;" transform="rotate(0, 85.5413, 277.502)" x="85.5413" y="277.502">1</text>
</g>
<g clip-path="url(#clip1600)">
<text style="fill:#000000; fill-opacity:1; font-family:Arial,Helvetica Neue,Helvetica,sans-serif; font-size:12; text-anchor:end;" transform="rotate(0, 85.5413, 190.438)" x="85.5413" y="190.438">2</text>
</g>
<g clip-path="url(#clip1600)">
<text style="fill:#000000; fill-opacity:1; font-family:Arial,Helvetica Neue,Helvetica,sans-serif; font-size:12; text-anchor:end;" transform="rotate(0, 85.5413, 103.375)" x="85.5413" y="103.375">3</text>
</g>
<g clip-path="url(#clip1600)">
<text style="fill:#000000; fill-opacity:1; font-family:Arial,Helvetica Neue,Helvetica,sans-serif; font-size:12; text-anchor:end;" transform="rotate(0, 85.5413, 16.311)" x="85.5413" y="16.311">4</text>
</g>
<g clip-path="url(#clip1600)">
<text style="fill:#000000; fill-opacity:1; font-family:Arial,Helvetica Neue,Helvetica,sans-serif; font-size:16; text-anchor:middle;" transform="rotate(0, 309.2, 397.6)" x="309.2" y="397.6">t</text>
</g>
<g clip-path="url(#clip1600)">
<text style="fill:#000000; fill-opacity:1; font-family:Arial,Helvetica Neue,Helvetica,sans-serif; font-size:16; text-anchor:middle;" transform="rotate(-90, 14.4, 185.938)" x="14.4" y="185.938">Smoothed Ramp</text>
</g>
<polyline clip-path="url(#clip1602)" style="stroke:#009af9; stroke-width:2; stroke-opacity:1; fill:none" points="
  91.5413,360.065 93.7288,360.065 
  "/>
<polyline clip-path="url(#clip1602)" style="stroke:#009af9; stroke-width:2; stroke-opacity:1; fill:none" points="
  93.7288,360.065 95.9164,360.065 
  "/>
<polyline clip-path="url(#clip1602)" style="stroke:#009af9; stroke-width:2; stroke-opacity:1; fill:none" points="
  95.9164,360.065 98.1039,360.065 
  "/>
<polyline clip-path="url(#clip1602)" style="stroke:#009af9; stroke-width:2; stroke-opacity:1; fill:none" points="
  98.1039,360.065 100.291,360.065 
  "/>
<polyline clip-path="url(#clip1602)" style="stroke:#009af9; stroke-width:2; stroke-opacity:1; fill:none" points="
  100.291,360.065 102.479,360.065 
  "/>
<polyline clip-path="url(#clip1602)" style="stroke:#009af9; stroke-width:2; stroke-opacity:1; fill:none" points="
  102.479,360.065 104.666,360.065 
  "/>
<polyline clip-path="url(#clip1602)" style="stroke:#009af9; stroke-width:2; stroke-opacity:1; fill:none" points="
  104.666,360.065 106.854,360.065 
  "/>
<polyline clip-path="url(#clip1602)" style="stroke:#009af9; stroke-width:2; stroke-opacity:1; fill:none" points="
  106.854,360.065 109.042,360.065 
  "/>
<polyline clip-path="url(#clip1602)" style="stroke:#009af9; stroke-width:2; stroke-opacity:1; fill:none" points="
  109.042,360.065 111.229,360.065 
  "/>
<polyline clip-path="url(#clip1602)" style="stroke:#009af9; stroke-width:2; stroke-opacity:1; fill:none" points="
  111.229,360.065 113.417,360.065 
  "/>
<polyline clip-path="url(#clip1602)" style="stroke:#009af9; stroke-width:2; stroke-opacity:1; fill:none" points="
  113.417,360.065 115.604,360.064 
  "/>
<polyline clip-path="url(#clip1602)" style="stroke:#009af9; stroke-width:2; stroke-opacity:1; fill:none" points="
  115.604,360.064 117.792,360.064 
  "/>
<polyline clip-path="url(#clip1602)" style="stroke:#009af9; stroke-width:2; stroke-opacity:1; fill:none" points="
  117.792,360.064 119.979,360.063 
  "/>
<polyline clip-path="url(#clip1602)" style="stroke:#009af9; stroke-width:2; stroke-opacity:1; fill:none" points="
  119.979,360.063 122.167,360.062 
  "/>
<polyline clip-path="url(#clip1602)" style="stroke:#009af9; stroke-width:2; stroke-opacity:1; fill:none" points="
  122.167,360.062 124.354,360.061 
  "/>
<polyline clip-path="url(#clip1602)" style="stroke:#009af9; stroke-width:2; stroke-opacity:1; fill:none" points="
  124.354,360.061 126.542,360.06 
  "/>
<polyline clip-path="url(#clip1602)" style="stroke:#009af9; stroke-width:2; stroke-opacity:1; fill:none" points="
  126.542,360.06 128.729,360.058 
  "/>
<polyline clip-path="url(#clip1602)" style="stroke:#009af9; stroke-width:2; stroke-opacity:1; fill:none" points="
  128.729,360.058 130.917,360.055 
  "/>
<polyline clip-path="url(#clip1602)" style="stroke:#009af9; stroke-width:2; stroke-opacity:1; fill:none" points="
  130.917,360.055 133.104,360.052 
  "/>
<polyline clip-path="url(#clip1602)" style="stroke:#009af9; stroke-width:2; stroke-opacity:1; fill:none" points="
  133.104,360.052 135.292,360.047 
  "/>
<polyline clip-path="url(#clip1602)" style="stroke:#009af9; stroke-width:2; stroke-opacity:1; fill:none" points="
  135.292,360.047 137.479,360.04 
  "/>
<polyline clip-path="url(#clip1602)" style="stroke:#009af9; stroke-width:2; stroke-opacity:1; fill:none" points="
  137.479,360.04 139.667,360.032 
  "/>
<polyline clip-path="url(#clip1602)" style="stroke:#009af9; stroke-width:2; stroke-opacity:1; fill:none" points="
  139.667,360.032 141.854,360.02 
  "/>
<polyline clip-path="url(#clip1602)" style="stroke:#009af9; stroke-width:2; stroke-opacity:1; fill:none" points="
  141.854,360.02 144.042,360.004 
  "/>
<polyline clip-path="url(#clip1602)" style="stroke:#009af9; stroke-width:2; stroke-opacity:1; fill:none" points="
  144.042,360.004 146.229,359.982 
  "/>
<polyline clip-path="url(#clip1602)" style="stroke:#009af9; stroke-width:2; stroke-opacity:1; fill:none" points="
  146.229,359.982 148.417,359.953 
  "/>
<polyline clip-path="url(#clip1602)" style="stroke:#009af9; stroke-width:2; stroke-opacity:1; fill:none" points="
  148.417,359.953 150.605,359.914 
  "/>
<polyline clip-path="url(#clip1602)" style="stroke:#009af9; stroke-width:2; stroke-opacity:1; fill:none" points="
  150.605,359.914 152.792,359.862 
  "/>
<polyline clip-path="url(#clip1602)" style="stroke:#009af9; stroke-width:2; stroke-opacity:1; fill:none" points="
  152.792,359.862 154.98,359.791 
  "/>
<polyline clip-path="url(#clip1602)" style="stroke:#009af9; stroke-width:2; stroke-opacity:1; fill:none" points="
  154.98,359.791 157.167,359.697 
  "/>
<polyline clip-path="url(#clip1602)" style="stroke:#009af9; stroke-width:2; stroke-opacity:1; fill:none" points="
  157.167,359.697 159.355,359.572 
  "/>
<polyline clip-path="url(#clip1602)" style="stroke:#009af9; stroke-width:2; stroke-opacity:1; fill:none" points="
  159.355,359.572 161.542,359.406 
  "/>
<polyline clip-path="url(#clip1602)" style="stroke:#009af9; stroke-width:2; stroke-opacity:1; fill:none" points="
  161.542,359.406 163.73,359.187 
  "/>
<polyline clip-path="url(#clip1602)" style="stroke:#009af9; stroke-width:2; stroke-opacity:1; fill:none" points="
  163.73,359.187 165.917,358.902 
  "/>
<polyline clip-path="url(#clip1602)" style="stroke:#009af9; stroke-width:2; stroke-opacity:1; fill:none" points="
  165.917,358.902 168.105,358.533 
  "/>
<polyline clip-path="url(#clip1602)" style="stroke:#009af9; stroke-width:2; stroke-opacity:1; fill:none" points="
  168.105,358.533 170.292,358.062 
  "/>
<polyline clip-path="url(#clip1602)" style="stroke:#009af9; stroke-width:2; stroke-opacity:1; fill:none" points="
  170.292,358.062 172.48,357.471 
  "/>
<polyline clip-path="url(#clip1602)" style="stroke:#009af9; stroke-width:2; stroke-opacity:1; fill:none" points="
  172.48,357.471 174.667,356.741 
  "/>
<polyline clip-path="url(#clip1602)" style="stroke:#009af9; stroke-width:2; stroke-opacity:1; fill:none" points="
  174.667,356.741 176.855,355.859 
  "/>
<polyline clip-path="url(#clip1602)" style="stroke:#009af9; stroke-width:2; stroke-opacity:1; fill:none" points="
  176.855,355.859 179.042,354.814 
  "/>
<polyline clip-path="url(#clip1602)" style="stroke:#009af9; stroke-width:2; stroke-opacity:1; fill:none" points="
  179.042,354.814 181.23,353.606 
  "/>
<polyline clip-path="url(#clip1602)" style="stroke:#009af9; stroke-width:2; stroke-opacity:1; fill:none" points="
  181.23,353.606 183.417,352.238 
  "/>
<polyline clip-path="url(#clip1602)" style="stroke:#009af9; stroke-width:2; stroke-opacity:1; fill:none" points="
  183.417,352.238 185.605,350.723 
  "/>
<polyline clip-path="url(#clip1602)" style="stroke:#009af9; stroke-width:2; stroke-opacity:1; fill:none" points="
  185.605,350.723 187.793,349.076 
  "/>
<polyline clip-path="url(#clip1602)" style="stroke:#009af9; stroke-width:2; stroke-opacity:1; fill:none" points="
  187.793,349.076 189.98,347.316 
  "/>
<polyline clip-path="url(#clip1602)" style="stroke:#009af9; stroke-width:2; stroke-opacity:1; fill:none" points="
  189.98,347.316 192.168,345.462 
  "/>
<polyline clip-path="url(#clip1602)" style="stroke:#009af9; stroke-width:2; stroke-opacity:1; fill:none" points="
  192.168,345.462 194.355,343.531 
  "/>
<polyline clip-path="url(#clip1602)" style="stroke:#009af9; stroke-width:2; stroke-opacity:1; fill:none" points="
  194.355,343.531 196.543,341.54 
  "/>
<polyline clip-path="url(#clip1602)" style="stroke:#009af9; stroke-width:2; stroke-opacity:1; fill:none" points="
  196.543,341.54 198.73,339.501 
  "/>
<polyline clip-path="url(#clip1602)" style="stroke:#009af9; stroke-width:2; stroke-opacity:1; fill:none" points="
  198.73,339.501 200.918,337.425 
  "/>
<polyline clip-path="url(#clip1602)" style="stroke:#009af9; stroke-width:2; stroke-opacity:1; fill:none" points="
  200.918,337.425 203.105,335.321 
  "/>
<polyline clip-path="url(#clip1602)" style="stroke:#009af9; stroke-width:2; stroke-opacity:1; fill:none" points="
  203.105,335.321 205.293,333.197 
  "/>
<polyline clip-path="url(#clip1602)" style="stroke:#009af9; stroke-width:2; stroke-opacity:1; fill:none" points="
  205.293,333.197 207.48,331.056 
  "/>
<polyline clip-path="url(#clip1602)" style="stroke:#009af9; stroke-width:2; stroke-opacity:1; fill:none" points="
  207.48,331.056 209.668,328.903 
  "/>
<polyline clip-path="url(#clip1602)" style="stroke:#009af9; stroke-width:2; stroke-opacity:1; fill:none" points="
  209.668,328.903 211.855,326.741 
  "/>
<polyline clip-path="url(#clip1602)" style="stroke:#009af9; stroke-width:2; stroke-opacity:1; fill:none" points="
  211.855,326.741 214.043,324.573 
  "/>
<polyline clip-path="url(#clip1602)" style="stroke:#009af9; stroke-width:2; stroke-opacity:1; fill:none" points="
  214.043,324.573 216.23,322.4 
  "/>
<polyline clip-path="url(#clip1602)" style="stroke:#009af9; stroke-width:2; stroke-opacity:1; fill:none" points="
  216.23,322.4 218.418,320.222 
  "/>
<polyline clip-path="url(#clip1602)" style="stroke:#009af9; stroke-width:2; stroke-opacity:1; fill:none" points="
  218.418,320.222 220.605,318.043 
  "/>
<polyline clip-path="url(#clip1602)" style="stroke:#009af9; stroke-width:2; stroke-opacity:1; fill:none" points="
  220.605,318.043 222.793,315.861 
  "/>
<polyline clip-path="url(#clip1602)" style="stroke:#009af9; stroke-width:2; stroke-opacity:1; fill:none" points="
  222.793,315.861 224.981,313.678 
  "/>
<polyline clip-path="url(#clip1602)" style="stroke:#009af9; stroke-width:2; stroke-opacity:1; fill:none" points="
  224.981,313.678 227.168,311.493 
  "/>
<polyline clip-path="url(#clip1602)" style="stroke:#009af9; stroke-width:2; stroke-opacity:1; fill:none" points="
  227.168,311.493 229.356,309.308 
  "/>
<polyline clip-path="url(#clip1602)" style="stroke:#009af9; stroke-width:2; stroke-opacity:1; fill:none" points="
  229.356,309.308 231.543,307.122 
  "/>
<polyline clip-path="url(#clip1602)" style="stroke:#009af9; stroke-width:2; stroke-opacity:1; fill:none" points="
  231.543,307.122 233.731,304.936 
  "/>
<polyline clip-path="url(#clip1602)" style="stroke:#009af9; stroke-width:2; stroke-opacity:1; fill:none" points="
  233.731,304.936 235.918,302.75 
  "/>
<polyline clip-path="url(#clip1602)" style="stroke:#009af9; stroke-width:2; stroke-opacity:1; fill:none" points="
  235.918,302.75 238.106,300.563 
  "/>
<polyline clip-path="url(#clip1602)" style="stroke:#009af9; stroke-width:2; stroke-opacity:1; fill:none" points="
  238.106,300.563 240.293,298.376 
  "/>
<polyline clip-path="url(#clip1602)" style="stroke:#009af9; stroke-width:2; stroke-opacity:1; fill:none" points="
  240.293,298.376 242.481,296.189 
  "/>
<polyline clip-path="url(#clip1602)" style="stroke:#009af9; stroke-width:2; stroke-opacity:1; fill:none" points="
  242.481,296.189 244.668,294.001 
  "/>
<polyline clip-path="url(#clip1602)" style="stroke:#009af9; stroke-width:2; stroke-opacity:1; fill:none" points="
  244.668,294.001 246.856,291.814 
  "/>
<polyline clip-path="url(#clip1602)" style="stroke:#009af9; stroke-width:2; stroke-opacity:1; fill:none" points="
  246.856,291.814 249.043,289.627 
  "/>
<polyline clip-path="url(#clip1602)" style="stroke:#009af9; stroke-width:2; stroke-opacity:1; fill:none" points="
  249.043,289.627 251.231,287.439 
  "/>
<polyline clip-path="url(#clip1602)" style="stroke:#009af9; stroke-width:2; stroke-opacity:1; fill:none" points="
  251.231,287.439 253.418,285.252 
  "/>
<polyline clip-path="url(#clip1602)" style="stroke:#009af9; stroke-width:2; stroke-opacity:1; fill:none" points="
  253.418,285.252 255.606,283.064 
  "/>
<polyline clip-path="url(#clip1602)" style="stroke:#009af9; stroke-width:2; stroke-opacity:1; fill:none" points="
  255.606,283.064 257.793,280.877 
  "/>
<polyline clip-path="url(#clip1602)" style="stroke:#009af9; stroke-width:2; stroke-opacity:1; fill:none" points="
  257.793,280.877 259.981,278.689 
  "/>
<polyline clip-path="url(#clip1602)" style="stroke:#009af9; stroke-width:2; stroke-opacity:1; fill:none" points="
  259.981,278.689 262.168,276.502 
  "/>
<polyline clip-path="url(#clip1602)" style="stroke:#009af9; stroke-width:2; stroke-opacity:1; fill:none" points="
  262.168,276.502 264.356,274.314 
  "/>
<polyline clip-path="url(#clip1602)" style="stroke:#009af9; stroke-width:2; stroke-opacity:1; fill:none" points="
  264.356,274.314 266.544,272.127 
  "/>
<polyline clip-path="url(#clip1602)" style="stroke:#009af9; stroke-width:2; stroke-opacity:1; fill:none" points="
  266.544,272.127 268.731,269.939 
  "/>
<polyline clip-path="url(#clip1602)" style="stroke:#009af9; stroke-width:2; stroke-opacity:1; fill:none" points="
  268.731,269.939 270.919,267.752 
  "/>
<polyline clip-path="url(#clip1602)" style="stroke:#009af9; stroke-width:2; stroke-opacity:1; fill:none" points="
  270.919,267.752 273.106,265.564 
  "/>
<polyline clip-path="url(#clip1602)" style="stroke:#009af9; stroke-width:2; stroke-opacity:1; fill:none" points="
  273.106,265.564 275.294,263.377 
  "/>
<polyline clip-path="url(#clip1602)" style="stroke:#009af9; stroke-width:2; stroke-opacity:1; fill:none" points="
  275.294,263.377 277.481,261.189 
  "/>
<polyline clip-path="url(#clip1602)" style="stroke:#009af9; stroke-width:2; stroke-opacity:1; fill:none" points="
  277.481,261.189 279.669,259.002 
  "/>
<polyline clip-path="url(#clip1602)" style="stroke:#009af9; stroke-width:2; stroke-opacity:1; fill:none" points="
  279.669,259.002 281.856,256.814 
  "/>
<polyline clip-path="url(#clip1602)" style="stroke:#009af9; stroke-width:2; stroke-opacity:1; fill:none" points="
  281.856,256.814 284.044,254.627 
  "/>
<polyline clip-path="url(#clip1602)" style="stroke:#009af9; stroke-width:2; stroke-opacity:1; fill:none" points="
  284.044,254.627 286.231,252.439 
  "/>
<polyline clip-path="url(#clip1602)" style="stroke:#009af9; stroke-width:2; stroke-opacity:1; fill:none" points="
  286.231,252.439 288.419,250.252 
  "/>
<polyline clip-path="url(#clip1602)" style="stroke:#009af9; stroke-width:2; stroke-opacity:1; fill:none" points="
  288.419,250.252 290.606,248.064 
  "/>
<polyline clip-path="url(#clip1602)" style="stroke:#009af9; stroke-width:2; stroke-opacity:1; fill:none" points="
  290.606,248.064 292.794,245.877 
  "/>
<polyline clip-path="url(#clip1602)" style="stroke:#009af9; stroke-width:2; stroke-opacity:1; fill:none" points="
  292.794,245.877 294.981,243.689 
  "/>
<polyline clip-path="url(#clip1602)" style="stroke:#009af9; stroke-width:2; stroke-opacity:1; fill:none" points="
  294.981,243.689 297.169,241.501 
  "/>
<polyline clip-path="url(#clip1602)" style="stroke:#009af9; stroke-width:2; stroke-opacity:1; fill:none" points="
  297.169,241.501 299.356,239.314 
  "/>
<polyline clip-path="url(#clip1602)" style="stroke:#009af9; stroke-width:2; stroke-opacity:1; fill:none" points="
  299.356,239.314 301.544,237.126 
  "/>
<polyline clip-path="url(#clip1602)" style="stroke:#009af9; stroke-width:2; stroke-opacity:1; fill:none" points="
  301.544,237.126 303.732,234.939 
  "/>
<polyline clip-path="url(#clip1602)" style="stroke:#009af9; stroke-width:2; stroke-opacity:1; fill:none" points="
  303.732,234.939 305.919,232.751 
  "/>
<polyline clip-path="url(#clip1602)" style="stroke:#009af9; stroke-width:2; stroke-opacity:1; fill:none" points="
  305.919,232.751 308.107,230.564 
  "/>
<polyline clip-path="url(#clip1602)" style="stroke:#009af9; stroke-width:2; stroke-opacity:1; fill:none" points="
  308.107,230.564 310.294,228.376 
  "/>
<polyline clip-path="url(#clip1602)" style="stroke:#009af9; stroke-width:2; stroke-opacity:1; fill:none" points="
  310.294,228.376 312.482,226.189 
  "/>
<polyline clip-path="url(#clip1602)" style="stroke:#009af9; stroke-width:2; stroke-opacity:1; fill:none" points="
  312.482,226.189 314.669,224.001 
  "/>
<polyline clip-path="url(#clip1602)" style="stroke:#009af9; stroke-width:2; stroke-opacity:1; fill:none" points="
  314.669,224.001 316.857,221.814 
  "/>
<polyline clip-path="url(#clip1602)" style="stroke:#009af9; stroke-width:2; stroke-opacity:1; fill:none" points="
  316.857,221.814 319.044,219.626 
  "/>
<polyline clip-path="url(#clip1602)" style="stroke:#009af9; stroke-width:2; stroke-opacity:1; fill:none" points="
  319.044,219.626 321.232,217.439 
  "/>
<polyline clip-path="url(#clip1602)" style="stroke:#009af9; stroke-width:2; stroke-opacity:1; fill:none" points="
  321.232,217.439 323.419,215.251 
  "/>
<polyline clip-path="url(#clip1602)" style="stroke:#009af9; stroke-width:2; stroke-opacity:1; fill:none" points="
  323.419,215.251 325.607,213.064 
  "/>
<polyline clip-path="url(#clip1602)" style="stroke:#009af9; stroke-width:2; stroke-opacity:1; fill:none" points="
  325.607,213.064 327.794,210.876 
  "/>
<polyline clip-path="url(#clip1602)" style="stroke:#009af9; stroke-width:2; stroke-opacity:1; fill:none" points="
  327.794,210.876 329.982,208.689 
  "/>
<polyline clip-path="url(#clip1602)" style="stroke:#009af9; stroke-width:2; stroke-opacity:1; fill:none" points="
  329.982,208.689 332.169,206.501 
  "/>
<polyline clip-path="url(#clip1602)" style="stroke:#009af9; stroke-width:2; stroke-opacity:1; fill:none" points="
  332.169,206.501 334.357,204.313 
  "/>
<polyline clip-path="url(#clip1602)" style="stroke:#009af9; stroke-width:2; stroke-opacity:1; fill:none" points="
  334.357,204.313 336.544,202.126 
  "/>
<polyline clip-path="url(#clip1602)" style="stroke:#009af9; stroke-width:2; stroke-opacity:1; fill:none" points="
  336.544,202.126 338.732,199.938 
  "/>
<polyline clip-path="url(#clip1602)" style="stroke:#009af9; stroke-width:2; stroke-opacity:1; fill:none" points="
  338.732,199.938 340.919,197.751 
  "/>
<polyline clip-path="url(#clip1602)" style="stroke:#009af9; stroke-width:2; stroke-opacity:1; fill:none" points="
  340.919,197.751 343.107,195.563 
  "/>
<polyline clip-path="url(#clip1602)" style="stroke:#009af9; stroke-width:2; stroke-opacity:1; fill:none" points="
  343.107,195.563 345.295,193.376 
  "/>
<polyline clip-path="url(#clip1602)" style="stroke:#009af9; stroke-width:2; stroke-opacity:1; fill:none" points="
  345.295,193.376 347.482,191.188 
  "/>
<polyline clip-path="url(#clip1602)" style="stroke:#009af9; stroke-width:2; stroke-opacity:1; fill:none" points="
  347.482,191.188 349.67,189.001 
  "/>
<polyline clip-path="url(#clip1602)" style="stroke:#009af9; stroke-width:2; stroke-opacity:1; fill:none" points="
  349.67,189.001 351.857,186.813 
  "/>
<polyline clip-path="url(#clip1602)" style="stroke:#009af9; stroke-width:2; stroke-opacity:1; fill:none" points="
  351.857,186.813 354.045,184.626 
  "/>
<polyline clip-path="url(#clip1602)" style="stroke:#009af9; stroke-width:2; stroke-opacity:1; fill:none" points="
  354.045,184.626 356.232,182.438 
  "/>
<polyline clip-path="url(#clip1602)" style="stroke:#009af9; stroke-width:2; stroke-opacity:1; fill:none" points="
  356.232,182.438 358.42,180.251 
  "/>
<polyline clip-path="url(#clip1602)" style="stroke:#009af9; stroke-width:2; stroke-opacity:1; fill:none" points="
  358.42,180.251 360.607,178.063 
  "/>
<polyline clip-path="url(#clip1602)" style="stroke:#009af9; stroke-width:2; stroke-opacity:1; fill:none" points="
  360.607,178.063 362.795,175.876 
  "/>
<polyline clip-path="url(#clip1602)" style="stroke:#009af9; stroke-width:2; stroke-opacity:1; fill:none" points="
  362.795,175.876 364.982,173.688 
  "/>
<polyline clip-path="url(#clip1602)" style="stroke:#009af9; stroke-width:2; stroke-opacity:1; fill:none" points="
  364.982,173.688 367.17,171.501 
  "/>
<polyline clip-path="url(#clip1602)" style="stroke:#009af9; stroke-width:2; stroke-opacity:1; fill:none" points="
  367.17,171.501 369.357,169.313 
  "/>
<polyline clip-path="url(#clip1602)" style="stroke:#009af9; stroke-width:2; stroke-opacity:1; fill:none" points="
  369.357,169.313 371.545,167.126 
  "/>
<polyline clip-path="url(#clip1602)" style="stroke:#009af9; stroke-width:2; stroke-opacity:1; fill:none" points="
  371.545,167.126 373.732,164.938 
  "/>
<polyline clip-path="url(#clip1602)" style="stroke:#009af9; stroke-width:2; stroke-opacity:1; fill:none" points="
  373.732,164.938 375.92,162.75 
  "/>
<polyline clip-path="url(#clip1602)" style="stroke:#009af9; stroke-width:2; stroke-opacity:1; fill:none" points="
  375.92,162.75 378.107,160.563 
  "/>
<polyline clip-path="url(#clip1602)" style="stroke:#009af9; stroke-width:2; stroke-opacity:1; fill:none" points="
  378.107,160.563 380.295,158.375 
  "/>
<polyline clip-path="url(#clip1602)" style="stroke:#009af9; stroke-width:2; stroke-opacity:1; fill:none" points="
  380.295,158.375 382.483,156.188 
  "/>
<polyline clip-path="url(#clip1602)" style="stroke:#009af9; stroke-width:2; stroke-opacity:1; fill:none" points="
  382.483,156.188 384.67,154 
  "/>
<polyline clip-path="url(#clip1602)" style="stroke:#009af9; stroke-width:2; stroke-opacity:1; fill:none" points="
  384.67,154 386.858,151.813 
  "/>
<polyline clip-path="url(#clip1602)" style="stroke:#009af9; stroke-width:2; stroke-opacity:1; fill:none" points="
  386.858,151.813 389.045,149.625 
  "/>
<polyline clip-path="url(#clip1602)" style="stroke:#009af9; stroke-width:2; stroke-opacity:1; fill:none" points="
  389.045,149.625 391.233,147.438 
  "/>
<polyline clip-path="url(#clip1602)" style="stroke:#009af9; stroke-width:2; stroke-opacity:1; fill:none" points="
  391.233,147.438 393.42,145.25 
  "/>
<polyline clip-path="url(#clip1602)" style="stroke:#009af9; stroke-width:2; stroke-opacity:1; fill:none" points="
  393.42,145.25 395.608,143.063 
  "/>
<polyline clip-path="url(#clip1602)" style="stroke:#009af9; stroke-width:2; stroke-opacity:1; fill:none" points="
  395.608,143.063 397.795,140.875 
  "/>
<polyline clip-path="url(#clip1602)" style="stroke:#009af9; stroke-width:2; stroke-opacity:1; fill:none" points="
  397.795,140.875 399.983,138.688 
  "/>
<polyline clip-path="url(#clip1602)" style="stroke:#009af9; stroke-width:2; stroke-opacity:1; fill:none" points="
  399.983,138.688 402.17,136.5 
  "/>
<polyline clip-path="url(#clip1602)" style="stroke:#009af9; stroke-width:2; stroke-opacity:1; fill:none" points="
  402.17,136.5 404.358,134.313 
  "/>
<polyline clip-path="url(#clip1602)" style="stroke:#009af9; stroke-width:2; stroke-opacity:1; fill:none" points="
  404.358,134.313 406.545,132.125 
  "/>
<polyline clip-path="url(#clip1602)" style="stroke:#009af9; stroke-width:2; stroke-opacity:1; fill:none" points="
  406.545,132.125 408.733,129.938 
  "/>
<polyline clip-path="url(#clip1602)" style="stroke:#009af9; stroke-width:2; stroke-opacity:1; fill:none" points="
  408.733,129.938 410.92,127.75 
  "/>
<polyline clip-path="url(#clip1602)" style="stroke:#009af9; stroke-width:2; stroke-opacity:1; fill:none" points="
  410.92,127.75 413.108,125.562 
  "/>
<polyline clip-path="url(#clip1602)" style="stroke:#009af9; stroke-width:2; stroke-opacity:1; fill:none" points="
  413.108,125.562 415.295,123.375 
  "/>
<polyline clip-path="url(#clip1602)" style="stroke:#009af9; stroke-width:2; stroke-opacity:1; fill:none" points="
  415.295,123.375 417.483,121.187 
  "/>
<polyline clip-path="url(#clip1602)" style="stroke:#009af9; stroke-width:2; stroke-opacity:1; fill:none" points="
  417.483,121.187 419.67,119 
  "/>
<polyline clip-path="url(#clip1602)" style="stroke:#009af9; stroke-width:2; stroke-opacity:1; fill:none" points="
  419.67,119 421.858,116.812 
  "/>
<polyline clip-path="url(#clip1602)" style="stroke:#009af9; stroke-width:2; stroke-opacity:1; fill:none" points="
  421.858,116.812 424.046,114.625 
  "/>
<polyline clip-path="url(#clip1602)" style="stroke:#009af9; stroke-width:2; stroke-opacity:1; fill:none" points="
  424.046,114.625 426.233,112.437 
  "/>
<polyline clip-path="url(#clip1602)" style="stroke:#009af9; stroke-width:2; stroke-opacity:1; fill:none" points="
  426.233,112.437 428.421,110.25 
  "/>
<polyline clip-path="url(#clip1602)" style="stroke:#009af9; stroke-width:2; stroke-opacity:1; fill:none" points="
  428.421,110.25 430.608,108.062 
  "/>
<polyline clip-path="url(#clip1602)" style="stroke:#009af9; stroke-width:2; stroke-opacity:1; fill:none" points="
  430.608,108.062 432.796,105.875 
  "/>
<polyline clip-path="url(#clip1602)" style="stroke:#009af9; stroke-width:2; stroke-opacity:1; fill:none" points="
  432.796,105.875 434.983,103.687 
  "/>
<polyline clip-path="url(#clip1602)" style="stroke:#009af9; stroke-width:2; stroke-opacity:1; fill:none" points="
  434.983,103.687 437.171,101.5 
  "/>
<polyline clip-path="url(#clip1602)" style="stroke:#009af9; stroke-width:2; stroke-opacity:1; fill:none" points="
  437.171,101.5 439.358,99.3121 
  "/>
<polyline clip-path="url(#clip1602)" style="stroke:#009af9; stroke-width:2; stroke-opacity:1; fill:none" points="
  439.358,99.3121 441.546,97.1246 
  "/>
<polyline clip-path="url(#clip1602)" style="stroke:#009af9; stroke-width:2; stroke-opacity:1; fill:none" points="
  441.546,97.1246 443.733,94.9371 
  "/>
<polyline clip-path="url(#clip1602)" style="stroke:#009af9; stroke-width:2; stroke-opacity:1; fill:none" points="
  443.733,94.9371 445.921,92.7496 
  "/>
<polyline clip-path="url(#clip1602)" style="stroke:#009af9; stroke-width:2; stroke-opacity:1; fill:none" points="
  445.921,92.7496 448.108,90.562 
  "/>
<polyline clip-path="url(#clip1602)" style="stroke:#009af9; stroke-width:2; stroke-opacity:1; fill:none" points="
  448.108,90.562 450.296,88.3745 
  "/>
<polyline clip-path="url(#clip1602)" style="stroke:#009af9; stroke-width:2; stroke-opacity:1; fill:none" points="
  450.296,88.3745 452.483,86.187 
  "/>
<polyline clip-path="url(#clip1602)" style="stroke:#009af9; stroke-width:2; stroke-opacity:1; fill:none" points="
  452.483,86.187 454.671,83.9994 
  "/>
<polyline clip-path="url(#clip1602)" style="stroke:#009af9; stroke-width:2; stroke-opacity:1; fill:none" points="
  454.671,83.9994 456.858,81.8119 
  "/>
<polyline clip-path="url(#clip1602)" style="stroke:#009af9; stroke-width:2; stroke-opacity:1; fill:none" points="
  456.858,81.8119 459.046,79.6244 
  "/>
<polyline clip-path="url(#clip1602)" style="stroke:#009af9; stroke-width:2; stroke-opacity:1; fill:none" points="
  459.046,79.6244 461.234,77.4369 
  "/>
<polyline clip-path="url(#clip1602)" style="stroke:#009af9; stroke-width:2; stroke-opacity:1; fill:none" points="
  461.234,77.4369 463.421,75.2493 
  "/>
<polyline clip-path="url(#clip1602)" style="stroke:#009af9; stroke-width:2; stroke-opacity:1; fill:none" points="
  463.421,75.2493 465.609,73.0618 
  "/>
<polyline clip-path="url(#clip1602)" style="stroke:#009af9; stroke-width:2; stroke-opacity:1; fill:none" points="
  465.609,73.0618 467.796,70.8743 
  "/>
<polyline clip-path="url(#clip1602)" style="stroke:#009af9; stroke-width:2; stroke-opacity:1; fill:none" points="
  467.796,70.8743 469.984,68.6867 
  "/>
<polyline clip-path="url(#clip1602)" style="stroke:#009af9; stroke-width:2; stroke-opacity:1; fill:none" points="
  469.984,68.6867 472.171,66.4992 
  "/>
<polyline clip-path="url(#clip1602)" style="stroke:#009af9; stroke-width:2; stroke-opacity:1; fill:none" points="
  472.171,66.4992 474.359,64.3117 
  "/>
<polyline clip-path="url(#clip1602)" style="stroke:#009af9; stroke-width:2; stroke-opacity:1; fill:none" points="
  474.359,64.3117 476.546,62.1242 
  "/>
<polyline clip-path="url(#clip1602)" style="stroke:#009af9; stroke-width:2; stroke-opacity:1; fill:none" points="
  476.546,62.1242 478.734,59.9366 
  "/>
<polyline clip-path="url(#clip1602)" style="stroke:#009af9; stroke-width:2; stroke-opacity:1; fill:none" points="
  478.734,59.9366 480.921,57.7491 
  "/>
<polyline clip-path="url(#clip1602)" style="stroke:#009af9; stroke-width:2; stroke-opacity:1; fill:none" points="
  480.921,57.7491 483.109,55.5616 
  "/>
<polyline clip-path="url(#clip1602)" style="stroke:#009af9; stroke-width:2; stroke-opacity:1; fill:none" points="
  483.109,55.5616 485.296,53.3741 
  "/>
<polyline clip-path="url(#clip1602)" style="stroke:#009af9; stroke-width:2; stroke-opacity:1; fill:none" points="
  485.296,53.3741 487.484,51.1865 
  "/>
<polyline clip-path="url(#clip1602)" style="stroke:#009af9; stroke-width:2; stroke-opacity:1; fill:none" points="
  487.484,51.1865 489.671,48.999 
  "/>
<polyline clip-path="url(#clip1602)" style="stroke:#009af9; stroke-width:2; stroke-opacity:1; fill:none" points="
  489.671,48.999 491.859,46.8115 
  "/>
<polyline clip-path="url(#clip1602)" style="stroke:#009af9; stroke-width:2; stroke-opacity:1; fill:none" points="
  491.859,46.8115 494.046,44.6239 
  "/>
<polyline clip-path="url(#clip1602)" style="stroke:#009af9; stroke-width:2; stroke-opacity:1; fill:none" points="
  494.046,44.6239 496.234,42.4364 
  "/>
<polyline clip-path="url(#clip1602)" style="stroke:#009af9; stroke-width:2; stroke-opacity:1; fill:none" points="
  496.234,42.4364 498.421,40.2489 
  "/>
<polyline clip-path="url(#clip1602)" style="stroke:#009af9; stroke-width:2; stroke-opacity:1; fill:none" points="
  498.421,40.2489 500.609,38.0614 
  "/>
<polyline clip-path="url(#clip1602)" style="stroke:#009af9; stroke-width:2; stroke-opacity:1; fill:none" points="
  500.609,38.0614 502.797,35.8738 
  "/>
<polyline clip-path="url(#clip1602)" style="stroke:#009af9; stroke-width:2; stroke-opacity:1; fill:none" points="
  502.797,35.8738 504.984,33.6863 
  "/>
<polyline clip-path="url(#clip1602)" style="stroke:#009af9; stroke-width:2; stroke-opacity:1; fill:none" points="
  504.984,33.6863 507.172,31.4988 
  "/>
<polyline clip-path="url(#clip1602)" style="stroke:#009af9; stroke-width:2; stroke-opacity:1; fill:none" points="
  507.172,31.4988 509.359,29.3112 
  "/>
<polyline clip-path="url(#clip1602)" style="stroke:#009af9; stroke-width:2; stroke-opacity:1; fill:none" points="
  509.359,29.3112 511.547,27.1237 
  "/>
<polyline clip-path="url(#clip1602)" style="stroke:#009af9; stroke-width:2; stroke-opacity:1; fill:none" points="
  511.547,27.1237 513.734,24.9362 
  "/>
<polyline clip-path="url(#clip1602)" style="stroke:#009af9; stroke-width:2; stroke-opacity:1; fill:none" points="
  513.734,24.9362 515.922,22.7487 
  "/>
<polyline clip-path="url(#clip1602)" style="stroke:#009af9; stroke-width:2; stroke-opacity:1; fill:none" points="
  515.922,22.7487 518.109,20.5611 
  "/>
<polyline clip-path="url(#clip1602)" style="stroke:#009af9; stroke-width:2; stroke-opacity:1; fill:none" points="
  518.109,20.5611 520.297,18.3736 
  "/>
<polyline clip-path="url(#clip1602)" style="stroke:#009af9; stroke-width:2; stroke-opacity:1; fill:none" points="
  520.297,18.3736 522.484,16.1861 
  "/>
<polyline clip-path="url(#clip1602)" style="stroke:#009af9; stroke-width:2; stroke-opacity:1; fill:none" points="
  522.484,16.1861 524.672,13.9986 
  "/>
<polyline clip-path="url(#clip1602)" style="stroke:#009af9; stroke-width:2; stroke-opacity:1; fill:none" points="
  524.672,13.9986 526.859,11.811 
  "/>
</svg>
