<?xml version="1.0" encoding="utf-8"?>
<svg xmlns="http://www.w3.org/2000/svg" xmlns:xlink="http://www.w3.org/1999/xlink" width="600" height="400" viewBox="0 0 600 400">
<defs>
  <clipPath id="clip2800">
    <rect x="0" y="0" width="600" height="400"/>
  </clipPath>
</defs>
<polygon clip-path="url(#clip2800)" points="
0,400 600,400 600,0 0,0 
  " fill="#ffffff" fill-opacity="1"/>
<defs>
  <clipPath id="clip2801">
    <rect x="120" y="0" width="421" height="400"/>
  </clipPath>
</defs>
<polygon clip-path="url(#clip2800)" points="
204.758,360.121 413.744,360.121 413.744,11.811 204.758,11.811 
  " fill="#ffffff" fill-opacity="1"/>
<defs>
  <clipPath id="clip2802">
    <rect x="204" y="11" width="210" height="349"/>
  </clipPath>
</defs>
<polyline clip-path="url(#clip2800)" style="stroke:#000000; stroke-width:1; stroke-opacity:1; fill:none" points="
  204.758,360.121 413.744,360.121 
  "/>
<polyline clip-path="url(#clip2800)" style="stroke:#000000; stroke-width:1; stroke-opacity:1; fill:none" points="
  204.758,360.121 204.758,11.811 
  "/>
<polyline clip-path="url(#clip2800)" style="stroke:#000000; stroke-width:1; stroke-opacity:1; fill:none" points="
  222.173,360.121 222.173,354.896 
  "/>
<polyline clip-path="url(#clip2800)" style="stroke:#000000; stroke-width:1; stroke-opacity:1; fill:none" points="
  265.712,360.121 265.712,354.896 
  "/>
<polyline clip-path="url(#clip2800)" style="stroke:#000000; stroke-width:1; stroke-opacity:1; fill:none" points="
  309.251,360.121 309.251,354.896 
  "/>
<polyline clip-path="url(#clip2800)" style="stroke:#000000; stroke-width:1; stroke-opacity:1; fill:none" points="
  352.79,360.121 352.79,354.896 
  "/>
<polyline clip-path="url(#clip2800)" style="stroke:#000000; stroke-width:1; stroke-opacity:1; fill:none" points="
  396.328,360.121 396.328,354.896 
  "/>
<polyline clip-path="url(#clip2800)" style="stroke:#000000; stroke-width:1; stroke-opacity:1; fill:none" points="
  204.758,273.043 207.893,273.043 
  "/>
<polyline clip-path="url(#clip2800)" style="stroke:#000000; stroke-width:1; stroke-opacity:1; fill:none" points="
  204.758,185.966 207.893,185.966 
  "/>
<polyline clip-path="url(#clip2800)" style="stroke:#000000; stroke-width:1; stroke-opacity:1; fill:none" points="
  204.758,98.8884 207.893,98.8884 
  "/>
<polyline clip-path="url(#clip2800)" style="stroke:#000000; stroke-width:1; stroke-opacity:1; fill:none" points="
  204.758,11.811 207.893,11.811 
  "/>
<g clip-path="url(#clip2800)">
<text style="fill:#000000; fill-opacity:1; font-family:Arial,Helvetica Neue,Helvetica,sans-serif; font-size:12; text-anchor:middle;" transform="rotate(0, 222.173, 373.921)" x="222.173" y="373.921">-1.0</text>
</g>
<g clip-path="url(#clip2800)">
<text style="fill:#000000; fill-opacity:1; font-family:Arial,Helvetica Neue,Helvetica,sans-serif; font-size:12; text-anchor:middle;" transform="rotate(0, 265.712, 373.921)" x="265.712" y="373.921">-0.5</text>
</g>
<g clip-path="url(#clip2800)">
<text style="fill:#000000; fill-opacity:1; font-family:Arial,Helvetica Neue,Helvetica,sans-serif; font-size:12; text-anchor:middle;" transform="rotate(0, 309.251, 373.921)" x="309.251" y="373.921">0.0</text>
</g>
<g clip-path="url(#clip2800)">
<text style="fill:#000000; fill-opacity:1; font-family:Arial,Helvetica Neue,Helvetica,sans-serif; font-size:12; text-anchor:middle;" transform="rotate(0, 352.79, 373.921)" x="352.79" y="373.921">0.5</text>
</g>
<g clip-path="url(#clip2800)">
<text style="fill:#000000; fill-opacity:1; font-family:Arial,Helvetica Neue,Helvetica,sans-serif; font-size:12; text-anchor:middle;" transform="rotate(0, 396.328, 373.921)" x="396.328" y="373.921">1.0</text>
</g>
<g clip-path="url(#clip2800)">
<text style="fill:#000000; fill-opacity:1; font-family:Arial,Helvetica Neue,Helvetica,sans-serif; font-size:12; text-anchor:end;" transform="rotate(0, 198.758, 277.543)" x="198.758" y="277.543">1</text>
</g>
<g clip-path="url(#clip2800)">
<text style="fill:#000000; fill-opacity:1; font-family:Arial,Helvetica Neue,Helvetica,sans-serif; font-size:12; text-anchor:end;" transform="rotate(0, 198.758, 190.466)" x="198.758" y="190.466">2</text>
</g>
<g clip-path="url(#clip2800)">
<text style="fill:#000000; fill-opacity:1; font-family:Arial,Helvetica Neue,Helvetica,sans-serif; font-size:12; text-anchor:end;" transform="rotate(0, 198.758, 103.388)" x="198.758" y="103.388">3</text>
</g>
<g clip-path="url(#clip2800)">
<text style="fill:#000000; fill-opacity:1; font-family:Arial,Helvetica Neue,Helvetica,sans-serif; font-size:12; text-anchor:end;" transform="rotate(0, 198.758, 16.311)" x="198.758" y="16.311">4</text>
</g>
<g clip-path="url(#clip2800)">
<text style="fill:#000000; fill-opacity:1; font-family:Arial,Helvetica Neue,Helvetica,sans-serif; font-size:16; text-anchor:middle;" transform="rotate(0, 309.251, 397.6)" x="309.251" y="397.6">t</text>
</g>
<g clip-path="url(#clip2800)">
<text style="fill:#000000; fill-opacity:1; font-family:Arial,Helvetica Neue,Helvetica,sans-serif; font-size:16; text-anchor:middle;" transform="rotate(-90, 14.4, 185.966)" x="14.4" y="185.966">Smoothed Ramp</text>
</g>
<polyline clip-path="url(#clip2802)" style="stroke:#009af9; stroke-width:2; stroke-opacity:1; fill:none" points="
  222.173,360.121 224.361,360.121 226.549,360.121 228.737,360.121 230.925,360.121 233.113,360.12 235.301,360.12 237.489,360.12 239.676,360.12 241.864,360.12 
  244.052,360.12 246.24,360.119 248.428,360.119 250.616,360.118 252.804,360.118 254.992,360.117 257.179,360.115 259.367,360.113 261.555,360.111 263.743,360.107 
  265.931,360.102 268.119,360.096 270.307,360.087 272.495,360.075 274.682,360.059 276.87,360.037 279.058,360.008 281.246,359.969 283.434,359.917 285.622,359.846 
  287.81,359.752 289.998,359.627 292.185,359.461 294.373,359.242 296.561,358.957 298.749,358.588 300.937,358.117 303.125,357.526 305.313,356.796 307.501,355.913 
  309.688,354.869 311.876,353.66 314.064,352.292 316.252,350.777 318.44,349.13 320.628,347.37 322.816,345.515 325.004,343.584 327.191,341.592 329.379,339.553 
  331.567,337.477 333.755,335.373 335.943,333.248 338.131,331.106 340.319,328.953 342.507,326.791 344.694,324.622 346.882,322.449 349.07,320.271 351.258,318.091 
  353.446,315.909 355.634,313.726 357.822,311.541 360.01,309.355 362.197,307.169 364.385,304.983 366.573,302.796 368.761,300.609 370.949,298.421 373.137,296.234 
  375.325,294.046 377.512,291.858 379.7,289.671 381.888,287.483 384.076,285.295 386.264,283.107 388.452,280.919 390.64,278.732 392.828,276.544 395.015,274.356 
  397.203,272.168 399.391,269.98 401.579,267.792 403.767,265.604 405.955,263.417 408.143,261.229 410.331,259.041 412.518,256.853 414.706,254.665 416.894,252.477 
  419.082,250.289 421.27,248.102 423.458,245.914 425.646,243.726 427.834,241.538 430.021,239.35 432.209,237.162 434.397,234.974 436.585,232.786 438.773,230.599 
  440.961,228.411 443.149,226.223 445.337,224.035 447.524,221.847 449.712,219.659 451.9,217.471 454.088,215.283 456.276,213.096 458.464,210.908 460.652,208.72 
  462.84,206.532 465.027,204.344 467.215,202.156 469.403,199.968 471.591,197.78 473.779,195.593 475.967,193.405 478.155,191.217 480.343,189.029 482.53,186.841 
  484.718,184.653 486.906,182.465 489.094,180.277 491.282,178.09 493.47,175.902 495.658,173.714 497.846,171.526 500.033,169.338 502.221,167.15 504.409,164.962 
  506.597,162.774 508.785,160.587 510.973,158.399 513.161,156.211 515.349,154.023 517.536,151.835 519.724,149.647 521.912,147.459 524.1,145.271 526.288,143.084 
  528.476,140.896 530.664,138.708 532.852,136.52 535.039,134.332 537.227,132.144 539.415,129.956 541.603,127.768 543.791,125.581 545.979,123.393 548.167,121.205 
  550.355,119.017 552.542,116.829 554.73,114.641 556.918,112.453 559.106,110.265 561.294,108.078 563.482,105.89 565.67,103.702 567.858,101.514 570.045,99.326 
  572.233,97.1381 574.421,94.9503 576.609,92.7624 578.797,90.5745 580.985,88.3866 583.173,86.1988 585.361,84.0109 587.548,81.823 589.736,79.6351 591.924,77.4473 
  594.112,75.2594 596.3,73.0715 598.488,70.8836 600.676,68.6958 602.864,66.5079 605.051,64.32 607.239,62.1321 609.427,59.9443 611.615,57.7564 613.803,55.5685 
  615.991,53.3806 618.179,51.1928 620.367,49.0049 622.554,46.817 624.742,44.6291 626.93,42.4413 629.118,40.2534 631.306,38.0655 633.494,35.8776 635.682,33.6898 
  637.87,31.5019 640.057,29.314 642.245,27.1261 644.433,24.9383 646.621,22.7504 648.809,20.5625 650.997,18.3746 653.185,16.1868 655.373,13.9989 657.56,11.811 
  
  "/>
</svg>
