<?xml version="1.0" encoding="utf-8"?>
<svg xmlns="http://www.w3.org/2000/svg" xmlns:xlink="http://www.w3.org/1999/xlink" width="400" height="300" viewBox="0 0 400 300">
<defs>
  <clipPath id="clip00">
    <rect x="0" y="0" width="400" height="300"/>
  </clipPath>
</defs>
<polygon clip-path="url(#clip5100)" points="
0,300 400,300 400,0 0,0 
  " fill="#ffffff" fill-opacity="1"/>
<defs>
  <clipPath id="clip01">
    <rect x="80" y="0" width="281" height="281"/>
  </clipPath>
</defs>
<polygon clip-path="url(#clip5100)" points="
135.04,259.011 283.36,259.011 283.36,11.811 135.04,11.811 
  " fill="#ffffff" fill-opacity="1"/>
<defs>
  <clipPath id="clip02">
    <rect x="135" y="11" width="149" height="248"/>
  </clipPath>
</defs>
<polyline clip-path="url(#clip5100)" style="stroke:#000000; stroke-width:1; stroke-opacity:1; fill:none" points="
  135.04,259.011 283.36,259.011 
  "/>
<polyline clip-path="url(#clip5100)" style="stroke:#000000; stroke-width:1; stroke-opacity:1; fill:none" points="
  135.04,259.011 135.04,11.811 
  "/>
<polyline clip-path="url(#clip5100)" style="stroke:#000000; stroke-width:1; stroke-opacity:1; fill:none" points="
  147.4,259.011 147.4,255.303 
  "/>
<polyline clip-path="url(#clip5100)" style="stroke:#000000; stroke-width:1; stroke-opacity:1; fill:none" points="
  178.3,259.011 178.3,255.303 
  "/>
<polyline clip-path="url(#clip5100)" style="stroke:#000000; stroke-width:1; stroke-opacity:1; fill:none" points="
  209.2,259.011 209.2,255.303 
  "/>
<polyline clip-path="url(#clip5100)" style="stroke:#000000; stroke-width:1; stroke-opacity:1; fill:none" points="
  240.1,259.011 240.1,255.303 
  "/>
<polyline clip-path="url(#clip5100)" style="stroke:#000000; stroke-width:1; stroke-opacity:1; fill:none" points="
  271,259.011 271,255.303 
  "/>
<polyline clip-path="url(#clip5100)" style="stroke:#000000; stroke-width:1; stroke-opacity:1; fill:none" points="
  135.04,197.211 137.265,197.211 
  "/>
<polyline clip-path="url(#clip5100)" style="stroke:#000000; stroke-width:1; stroke-opacity:1; fill:none" points="
  135.04,135.411 137.265,135.411 
  "/>
<polyline clip-path="url(#clip5100)" style="stroke:#000000; stroke-width:1; stroke-opacity:1; fill:none" points="
  135.04,73.6109 137.265,73.6109 
  "/>
<polyline clip-path="url(#clip5100)" style="stroke:#000000; stroke-width:1; stroke-opacity:1; fill:none" points="
  135.04,11.811 137.265,11.811 
  "/>
<g clip-path="url(#clip5100)">
<text style="fill:#000000; fill-opacity:1; font-family:Arial,Helvetica Neue,Helvetica,sans-serif; font-size:12; text-anchor:middle;" transform="rotate(0, 147.4, 271.811)" x="147.4" y="271.811">-1.0</text>
</g>
<g clip-path="url(#clip5100)">
<text style="fill:#000000; fill-opacity:1; font-family:Arial,Helvetica Neue,Helvetica,sans-serif; font-size:12; text-anchor:middle;" transform="rotate(0, 178.3, 271.811)" x="178.3" y="271.811">-0.5</text>
</g>
<g clip-path="url(#clip5100)">
<text style="fill:#000000; fill-opacity:1; font-family:Arial,Helvetica Neue,Helvetica,sans-serif; font-size:12; text-anchor:middle;" transform="rotate(0, 209.2, 271.811)" x="209.2" y="271.811">0.0</text>
</g>
<g clip-path="url(#clip5100)">
<text style="fill:#000000; fill-opacity:1; font-family:Arial,Helvetica Neue,Helvetica,sans-serif; font-size:12; text-anchor:middle;" transform="rotate(0, 240.1, 271.811)" x="240.1" y="271.811">0.5</text>
</g>
<g clip-path="url(#clip5100)">
<text style="fill:#000000; fill-opacity:1; font-family:Arial,Helvetica Neue,Helvetica,sans-serif; font-size:12; text-anchor:middle;" transform="rotate(0, 271, 271.811)" x="271" y="271.811">1.0</text>
</g>
<g clip-path="url(#clip5100)">
<text style="fill:#000000; fill-opacity:1; font-family:Arial,Helvetica Neue,Helvetica,sans-serif; font-size:12; text-anchor:end;" transform="rotate(0, 131.04, 201.711)" x="131.04" y="201.711">1</text>
</g>
<g clip-path="url(#clip5100)">
<text style="fill:#000000; fill-opacity:1; font-family:Arial,Helvetica Neue,Helvetica,sans-serif; font-size:12; text-anchor:end;" transform="rotate(0, 131.04, 139.911)" x="131.04" y="139.911">2</text>
</g>
<g clip-path="url(#clip5100)">
<text style="fill:#000000; fill-opacity:1; font-family:Arial,Helvetica Neue,Helvetica,sans-serif; font-size:12; text-anchor:end;" transform="rotate(0, 131.04, 78.1109)" x="131.04" y="78.1109">3</text>
</g>
<g clip-path="url(#clip5100)">
<text style="fill:#000000; fill-opacity:1; font-family:Arial,Helvetica Neue,Helvetica,sans-serif; font-size:12; text-anchor:end;" transform="rotate(0, 131.04, 16.311)" x="131.04" y="16.311">4</text>
</g>
<g clip-path="url(#clip5100)">
<text style="fill:#000000; fill-opacity:1; font-family:Arial,Helvetica Neue,Helvetica,sans-serif; font-size:16; text-anchor:middle;" transform="rotate(0, 209.2, 297.6)" x="209.2" y="297.6">t</text>
</g>
<g clip-path="url(#clip5100)">
<text style="fill:#000000; fill-opacity:1; font-family:Arial,Helvetica Neue,Helvetica,sans-serif; font-size:16; text-anchor:middle;" transform="rotate(-90, 14.4, 135.411)" x="14.4" y="135.411">Smoothed Ramp</text>
</g>
<polyline clip-path="url(#clip5102)" style="stroke:#009af9; stroke-width:2; stroke-opacity:1; fill:none" points="
  147.4,259.011 148.953,259.011 
  "/>
<polyline clip-path="url(#clip5102)" style="stroke:#009af9; stroke-width:2; stroke-opacity:1; fill:none" points="
  148.953,259.011 150.506,259.011 
  "/>
<polyline clip-path="url(#clip5102)" style="stroke:#009af9; stroke-width:2; stroke-opacity:1; fill:none" points="
  150.506,259.011 152.059,259.011 
  "/>
<polyline clip-path="url(#clip5102)" style="stroke:#009af9; stroke-width:2; stroke-opacity:1; fill:none" points="
  152.059,259.011 153.611,259.011 
  "/>
<polyline clip-path="url(#clip5102)" style="stroke:#009af9; stroke-width:2; stroke-opacity:1; fill:none" points="
  153.611,259.011 155.164,259.01 
  "/>
<polyline clip-path="url(#clip5102)" style="stroke:#009af9; stroke-width:2; stroke-opacity:1; fill:none" points="
  155.164,259.01 156.717,259.01 
  "/>
<polyline clip-path="url(#clip5102)" style="stroke:#009af9; stroke-width:2; stroke-opacity:1; fill:none" points="
  156.717,259.01 158.27,259.01 
  "/>
<polyline clip-path="url(#clip5102)" style="stroke:#009af9; stroke-width:2; stroke-opacity:1; fill:none" points="
  158.27,259.01 159.823,259.01 
  "/>
<polyline clip-path="url(#clip5102)" style="stroke:#009af9; stroke-width:2; stroke-opacity:1; fill:none" points="
  159.823,259.01 161.375,259.01 
  "/>
<polyline clip-path="url(#clip5102)" style="stroke:#009af9; stroke-width:2; stroke-opacity:1; fill:none" points="
  161.375,259.01 162.928,259.01 
  "/>
<polyline clip-path="url(#clip5102)" style="stroke:#009af9; stroke-width:2; stroke-opacity:1; fill:none" points="
  162.928,259.01 164.481,259.01 
  "/>
<polyline clip-path="url(#clip5102)" style="stroke:#009af9; stroke-width:2; stroke-opacity:1; fill:none" points="
  164.481,259.01 166.034,259.009 
  "/>
<polyline clip-path="url(#clip5102)" style="stroke:#009af9; stroke-width:2; stroke-opacity:1; fill:none" points="
  166.034,259.009 167.586,259.009 
  "/>
<polyline clip-path="url(#clip5102)" style="stroke:#009af9; stroke-width:2; stroke-opacity:1; fill:none" points="
  167.586,259.009 169.139,259.008 
  "/>
<polyline clip-path="url(#clip5102)" style="stroke:#009af9; stroke-width:2; stroke-opacity:1; fill:none" points="
  169.139,259.008 170.692,259.008 
  "/>
<polyline clip-path="url(#clip5102)" style="stroke:#009af9; stroke-width:2; stroke-opacity:1; fill:none" points="
  170.692,259.008 172.245,259.007 
  "/>
<polyline clip-path="url(#clip5102)" style="stroke:#009af9; stroke-width:2; stroke-opacity:1; fill:none" points="
  172.245,259.007 173.797,259.005 
  "/>
<polyline clip-path="url(#clip5102)" style="stroke:#009af9; stroke-width:2; stroke-opacity:1; fill:none" points="
  173.797,259.005 175.35,259.003 
  "/>
<polyline clip-path="url(#clip5102)" style="stroke:#009af9; stroke-width:2; stroke-opacity:1; fill:none" points="
  175.35,259.003 176.903,259.001 
  "/>
<polyline clip-path="url(#clip5102)" style="stroke:#009af9; stroke-width:2; stroke-opacity:1; fill:none" points="
  176.903,259.001 178.456,258.997 
  "/>
<polyline clip-path="url(#clip5102)" style="stroke:#009af9; stroke-width:2; stroke-opacity:1; fill:none" points="
  178.456,258.997 180.008,258.993 
  "/>
<polyline clip-path="url(#clip5102)" style="stroke:#009af9; stroke-width:2; stroke-opacity:1; fill:none" points="
  180.008,258.993 181.561,258.987 
  "/>
<polyline clip-path="url(#clip5102)" style="stroke:#009af9; stroke-width:2; stroke-opacity:1; fill:none" points="
  181.561,258.987 183.114,258.978 
  "/>
<polyline clip-path="url(#clip5102)" style="stroke:#009af9; stroke-width:2; stroke-opacity:1; fill:none" points="
  183.114,258.978 184.667,258.967 
  "/>
<polyline clip-path="url(#clip5102)" style="stroke:#009af9; stroke-width:2; stroke-opacity:1; fill:none" points="
  184.667,258.967 186.219,258.952 
  "/>
<polyline clip-path="url(#clip5102)" style="stroke:#009af9; stroke-width:2; stroke-opacity:1; fill:none" points="
  186.219,258.952 187.772,258.931 
  "/>
<polyline clip-path="url(#clip5102)" style="stroke:#009af9; stroke-width:2; stroke-opacity:1; fill:none" points="
  187.772,258.931 189.325,258.903 
  "/>
<polyline clip-path="url(#clip5102)" style="stroke:#009af9; stroke-width:2; stroke-opacity:1; fill:none" points="
  189.325,258.903 190.878,258.866 
  "/>
<polyline clip-path="url(#clip5102)" style="stroke:#009af9; stroke-width:2; stroke-opacity:1; fill:none" points="
  190.878,258.866 192.431,258.816 
  "/>
<polyline clip-path="url(#clip5102)" style="stroke:#009af9; stroke-width:2; stroke-opacity:1; fill:none" points="
  192.431,258.816 193.983,258.749 
  "/>
<polyline clip-path="url(#clip5102)" style="stroke:#009af9; stroke-width:2; stroke-opacity:1; fill:none" points="
  193.983,258.749 195.536,258.66 
  "/>
<polyline clip-path="url(#clip5102)" style="stroke:#009af9; stroke-width:2; stroke-opacity:1; fill:none" points="
  195.536,258.66 197.089,258.542 
  "/>
<polyline clip-path="url(#clip5102)" style="stroke:#009af9; stroke-width:2; stroke-opacity:1; fill:none" points="
  197.089,258.542 198.642,258.387 
  "/>
<polyline clip-path="url(#clip5102)" style="stroke:#009af9; stroke-width:2; stroke-opacity:1; fill:none" points="
  198.642,258.387 200.194,258.185 
  "/>
<polyline clip-path="url(#clip5102)" style="stroke:#009af9; stroke-width:2; stroke-opacity:1; fill:none" points="
  200.194,258.185 201.747,257.923 
  "/>
<polyline clip-path="url(#clip5102)" style="stroke:#009af9; stroke-width:2; stroke-opacity:1; fill:none" points="
  201.747,257.923 203.3,257.589 
  "/>
<polyline clip-path="url(#clip5102)" style="stroke:#009af9; stroke-width:2; stroke-opacity:1; fill:none" points="
  203.3,257.589 204.853,257.169 
  "/>
<polyline clip-path="url(#clip5102)" style="stroke:#009af9; stroke-width:2; stroke-opacity:1; fill:none" points="
  204.853,257.169 206.405,256.651 
  "/>
<polyline clip-path="url(#clip5102)" style="stroke:#009af9; stroke-width:2; stroke-opacity:1; fill:none" points="
  206.405,256.651 207.958,256.025 
  "/>
<polyline clip-path="url(#clip5102)" style="stroke:#009af9; stroke-width:2; stroke-opacity:1; fill:none" points="
  207.958,256.025 209.511,255.283 
  "/>
<polyline clip-path="url(#clip5102)" style="stroke:#009af9; stroke-width:2; stroke-opacity:1; fill:none" points="
  209.511,255.283 211.064,254.425 
  "/>
<polyline clip-path="url(#clip5102)" style="stroke:#009af9; stroke-width:2; stroke-opacity:1; fill:none" points="
  211.064,254.425 212.616,253.455 
  "/>
<polyline clip-path="url(#clip5102)" style="stroke:#009af9; stroke-width:2; stroke-opacity:1; fill:none" points="
  212.616,253.455 214.169,252.379 
  "/>
<polyline clip-path="url(#clip5102)" style="stroke:#009af9; stroke-width:2; stroke-opacity:1; fill:none" points="
  214.169,252.379 215.722,251.21 
  "/>
<polyline clip-path="url(#clip5102)" style="stroke:#009af9; stroke-width:2; stroke-opacity:1; fill:none" points="
  215.722,251.21 217.275,249.961 
  "/>
<polyline clip-path="url(#clip5102)" style="stroke:#009af9; stroke-width:2; stroke-opacity:1; fill:none" points="
  217.275,249.961 218.827,248.645 
  "/>
<polyline clip-path="url(#clip5102)" style="stroke:#009af9; stroke-width:2; stroke-opacity:1; fill:none" points="
  218.827,248.645 220.38,247.274 
  "/>
<polyline clip-path="url(#clip5102)" style="stroke:#009af9; stroke-width:2; stroke-opacity:1; fill:none" points="
  220.38,247.274 221.933,245.861 
  "/>
<polyline clip-path="url(#clip5102)" style="stroke:#009af9; stroke-width:2; stroke-opacity:1; fill:none" points="
  221.933,245.861 223.486,244.413 
  "/>
<polyline clip-path="url(#clip5102)" style="stroke:#009af9; stroke-width:2; stroke-opacity:1; fill:none" points="
  223.486,244.413 225.038,242.94 
  "/>
<polyline clip-path="url(#clip5102)" style="stroke:#009af9; stroke-width:2; stroke-opacity:1; fill:none" points="
  225.038,242.94 226.591,241.447 
  "/>
<polyline clip-path="url(#clip5102)" style="stroke:#009af9; stroke-width:2; stroke-opacity:1; fill:none" points="
  226.591,241.447 228.144,239.938 
  "/>
<polyline clip-path="url(#clip5102)" style="stroke:#009af9; stroke-width:2; stroke-opacity:1; fill:none" points="
  228.144,239.938 229.697,238.419 
  "/>
<polyline clip-path="url(#clip5102)" style="stroke:#009af9; stroke-width:2; stroke-opacity:1; fill:none" points="
  229.697,238.419 231.25,236.891 
  "/>
<polyline clip-path="url(#clip5102)" style="stroke:#009af9; stroke-width:2; stroke-opacity:1; fill:none" points="
  231.25,236.891 232.802,235.356 
  "/>
<polyline clip-path="url(#clip5102)" style="stroke:#009af9; stroke-width:2; stroke-opacity:1; fill:none" points="
  232.802,235.356 234.355,233.817 
  "/>
<polyline clip-path="url(#clip5102)" style="stroke:#009af9; stroke-width:2; stroke-opacity:1; fill:none" points="
  234.355,233.817 235.908,232.274 
  "/>
<polyline clip-path="url(#clip5102)" style="stroke:#009af9; stroke-width:2; stroke-opacity:1; fill:none" points="
  235.908,232.274 237.461,230.729 
  "/>
<polyline clip-path="url(#clip5102)" style="stroke:#009af9; stroke-width:2; stroke-opacity:1; fill:none" points="
  237.461,230.729 239.013,229.182 
  "/>
<polyline clip-path="url(#clip5102)" style="stroke:#009af9; stroke-width:2; stroke-opacity:1; fill:none" points="
  239.013,229.182 240.566,227.633 
  "/>
<polyline clip-path="url(#clip5102)" style="stroke:#009af9; stroke-width:2; stroke-opacity:1; fill:none" points="
  240.566,227.633 242.119,226.083 
  "/>
<polyline clip-path="url(#clip5102)" style="stroke:#009af9; stroke-width:2; stroke-opacity:1; fill:none" points="
  242.119,226.083 243.672,224.533 
  "/>
<polyline clip-path="url(#clip5102)" style="stroke:#009af9; stroke-width:2; stroke-opacity:1; fill:none" points="
  243.672,224.533 245.224,222.982 
  "/>
<polyline clip-path="url(#clip5102)" style="stroke:#009af9; stroke-width:2; stroke-opacity:1; fill:none" points="
  245.224,222.982 246.777,221.43 
  "/>
<polyline clip-path="url(#clip5102)" style="stroke:#009af9; stroke-width:2; stroke-opacity:1; fill:none" points="
  246.777,221.43 248.33,219.878 
  "/>
<polyline clip-path="url(#clip5102)" style="stroke:#009af9; stroke-width:2; stroke-opacity:1; fill:none" points="
  248.33,219.878 249.883,218.326 
  "/>
<polyline clip-path="url(#clip5102)" style="stroke:#009af9; stroke-width:2; stroke-opacity:1; fill:none" points="
  249.883,218.326 251.435,216.774 
  "/>
<polyline clip-path="url(#clip5102)" style="stroke:#009af9; stroke-width:2; stroke-opacity:1; fill:none" points="
  251.435,216.774 252.988,215.222 
  "/>
<polyline clip-path="url(#clip5102)" style="stroke:#009af9; stroke-width:2; stroke-opacity:1; fill:none" points="
  252.988,215.222 254.541,213.669 
  "/>
<polyline clip-path="url(#clip5102)" style="stroke:#009af9; stroke-width:2; stroke-opacity:1; fill:none" points="
  254.541,213.669 256.094,212.117 
  "/>
<polyline clip-path="url(#clip5102)" style="stroke:#009af9; stroke-width:2; stroke-opacity:1; fill:none" points="
  256.094,212.117 257.646,210.564 
  "/>
<polyline clip-path="url(#clip5102)" style="stroke:#009af9; stroke-width:2; stroke-opacity:1; fill:none" points="
  257.646,210.564 259.199,209.011 
  "/>
<polyline clip-path="url(#clip5102)" style="stroke:#009af9; stroke-width:2; stroke-opacity:1; fill:none" points="
  259.199,209.011 260.752,207.459 
  "/>
<polyline clip-path="url(#clip5102)" style="stroke:#009af9; stroke-width:2; stroke-opacity:1; fill:none" points="
  260.752,207.459 262.305,205.906 
  "/>
<polyline clip-path="url(#clip5102)" style="stroke:#009af9; stroke-width:2; stroke-opacity:1; fill:none" points="
  262.305,205.906 263.858,204.353 
  "/>
<polyline clip-path="url(#clip5102)" style="stroke:#009af9; stroke-width:2; stroke-opacity:1; fill:none" points="
  263.858,204.353 265.41,202.801 
  "/>
<polyline clip-path="url(#clip5102)" style="stroke:#009af9; stroke-width:2; stroke-opacity:1; fill:none" points="
  265.41,202.801 266.963,201.248 
  "/>
<polyline clip-path="url(#clip5102)" style="stroke:#009af9; stroke-width:2; stroke-opacity:1; fill:none" points="
  266.963,201.248 268.516,199.695 
  "/>
<polyline clip-path="url(#clip5102)" style="stroke:#009af9; stroke-width:2; stroke-opacity:1; fill:none" points="
  268.516,199.695 270.069,198.142 
  "/>
<polyline clip-path="url(#clip5102)" style="stroke:#009af9; stroke-width:2; stroke-opacity:1; fill:none" points="
  270.069,198.142 271.621,196.59 
  "/>
<polyline clip-path="url(#clip5102)" style="stroke:#009af9; stroke-width:2; stroke-opacity:1; fill:none" points="
  271.621,196.59 273.174,195.037 
  "/>
<polyline clip-path="url(#clip5102)" style="stroke:#009af9; stroke-width:2; stroke-opacity:1; fill:none" points="
  273.174,195.037 274.727,193.484 
  "/>
<polyline clip-path="url(#clip5102)" style="stroke:#009af9; stroke-width:2; stroke-opacity:1; fill:none" points="
  274.727,193.484 276.28,191.931 
  "/>
<polyline clip-path="url(#clip5102)" style="stroke:#009af9; stroke-width:2; stroke-opacity:1; fill:none" points="
  276.28,191.931 277.832,190.379 
  "/>
<polyline clip-path="url(#clip5102)" style="stroke:#009af9; stroke-width:2; stroke-opacity:1; fill:none" points="
  277.832,190.379 279.385,188.826 
  "/>
<polyline clip-path="url(#clip5102)" style="stroke:#009af9; stroke-width:2; stroke-opacity:1; fill:none" points="
  279.385,188.826 280.938,187.273 
  "/>
<polyline clip-path="url(#clip5102)" style="stroke:#009af9; stroke-width:2; stroke-opacity:1; fill:none" points="
  280.938,187.273 282.491,185.72 
  "/>
<polyline clip-path="url(#clip5102)" style="stroke:#009af9; stroke-width:2; stroke-opacity:1; fill:none" points="
  282.491,185.72 284.043,184.168 
  "/>
<polyline clip-path="url(#clip5102)" style="stroke:#009af9; stroke-width:2; stroke-opacity:1; fill:none" points="
  284.043,184.168 285.596,182.615 
  "/>
<polyline clip-path="url(#clip5102)" style="stroke:#009af9; stroke-width:2; stroke-opacity:1; fill:none" points="
  285.596,182.615 287.149,181.062 
  "/>
<polyline clip-path="url(#clip5102)" style="stroke:#009af9; stroke-width:2; stroke-opacity:1; fill:none" points="
  287.149,181.062 288.702,179.509 
  "/>
<polyline clip-path="url(#clip5102)" style="stroke:#009af9; stroke-width:2; stroke-opacity:1; fill:none" points="
  288.702,179.509 290.254,177.956 
  "/>
<polyline clip-path="url(#clip5102)" style="stroke:#009af9; stroke-width:2; stroke-opacity:1; fill:none" points="
  290.254,177.956 291.807,176.404 
  "/>
<polyline clip-path="url(#clip5102)" style="stroke:#009af9; stroke-width:2; stroke-opacity:1; fill:none" points="
  291.807,176.404 293.36,174.851 
  "/>
<polyline clip-path="url(#clip5102)" style="stroke:#009af9; stroke-width:2; stroke-opacity:1; fill:none" points="
  293.36,174.851 294.913,173.298 
  "/>
<polyline clip-path="url(#clip5102)" style="stroke:#009af9; stroke-width:2; stroke-opacity:1; fill:none" points="
  294.913,173.298 296.466,171.745 
  "/>
<polyline clip-path="url(#clip5102)" style="stroke:#009af9; stroke-width:2; stroke-opacity:1; fill:none" points="
  296.466,171.745 298.018,170.193 
  "/>
<polyline clip-path="url(#clip5102)" style="stroke:#009af9; stroke-width:2; stroke-opacity:1; fill:none" points="
  298.018,170.193 299.571,168.64 
  "/>
<polyline clip-path="url(#clip5102)" style="stroke:#009af9; stroke-width:2; stroke-opacity:1; fill:none" points="
  299.571,168.64 301.124,167.087 
  "/>
<polyline clip-path="url(#clip5102)" style="stroke:#009af9; stroke-width:2; stroke-opacity:1; fill:none" points="
  301.124,167.087 302.677,165.534 
  "/>
<polyline clip-path="url(#clip5102)" style="stroke:#009af9; stroke-width:2; stroke-opacity:1; fill:none" points="
  302.677,165.534 304.229,163.982 
  "/>
<polyline clip-path="url(#clip5102)" style="stroke:#009af9; stroke-width:2; stroke-opacity:1; fill:none" points="
  304.229,163.982 305.782,162.429 
  "/>
<polyline clip-path="url(#clip5102)" style="stroke:#009af9; stroke-width:2; stroke-opacity:1; fill:none" points="
  305.782,162.429 307.335,160.876 
  "/>
<polyline clip-path="url(#clip5102)" style="stroke:#009af9; stroke-width:2; stroke-opacity:1; fill:none" points="
  307.335,160.876 308.888,159.323 
  "/>
<polyline clip-path="url(#clip5102)" style="stroke:#009af9; stroke-width:2; stroke-opacity:1; fill:none" points="
  308.888,159.323 310.44,157.771 
  "/>
<polyline clip-path="url(#clip5102)" style="stroke:#009af9; stroke-width:2; stroke-opacity:1; fill:none" points="
  310.44,157.771 311.993,156.218 
  "/>
<polyline clip-path="url(#clip5102)" style="stroke:#009af9; stroke-width:2; stroke-opacity:1; fill:none" points="
  311.993,156.218 313.546,154.665 
  "/>
<polyline clip-path="url(#clip5102)" style="stroke:#009af9; stroke-width:2; stroke-opacity:1; fill:none" points="
  313.546,154.665 315.099,153.112 
  "/>
<polyline clip-path="url(#clip5102)" style="stroke:#009af9; stroke-width:2; stroke-opacity:1; fill:none" points="
  315.099,153.112 316.651,151.56 
  "/>
<polyline clip-path="url(#clip5102)" style="stroke:#009af9; stroke-width:2; stroke-opacity:1; fill:none" points="
  316.651,151.56 318.204,150.007 
  "/>
<polyline clip-path="url(#clip5102)" style="stroke:#009af9; stroke-width:2; stroke-opacity:1; fill:none" points="
  318.204,150.007 319.757,148.454 
  "/>
<polyline clip-path="url(#clip5102)" style="stroke:#009af9; stroke-width:2; stroke-opacity:1; fill:none" points="
  319.757,148.454 321.31,146.901 
  "/>
<polyline clip-path="url(#clip5102)" style="stroke:#009af9; stroke-width:2; stroke-opacity:1; fill:none" points="
  321.31,146.901 322.862,145.349 
  "/>
<polyline clip-path="url(#clip5102)" style="stroke:#009af9; stroke-width:2; stroke-opacity:1; fill:none" points="
  322.862,145.349 324.415,143.796 
  "/>
<polyline clip-path="url(#clip5102)" style="stroke:#009af9; stroke-width:2; stroke-opacity:1; fill:none" points="
  324.415,143.796 325.968,142.243 
  "/>
<polyline clip-path="url(#clip5102)" style="stroke:#009af9; stroke-width:2; stroke-opacity:1; fill:none" points="
  325.968,142.243 327.521,140.69 
  "/>
<polyline clip-path="url(#clip5102)" style="stroke:#009af9; stroke-width:2; stroke-opacity:1; fill:none" points="
  327.521,140.69 329.074,139.137 
  "/>
<polyline clip-path="url(#clip5102)" style="stroke:#009af9; stroke-width:2; stroke-opacity:1; fill:none" points="
  329.074,139.137 330.626,137.585 
  "/>
<polyline clip-path="url(#clip5102)" style="stroke:#009af9; stroke-width:2; stroke-opacity:1; fill:none" points="
  330.626,137.585 332.179,136.032 
  "/>
<polyline clip-path="url(#clip5102)" style="stroke:#009af9; stroke-width:2; stroke-opacity:1; fill:none" points="
  332.179,136.032 333.732,134.479 
  "/>
<polyline clip-path="url(#clip5102)" style="stroke:#009af9; stroke-width:2; stroke-opacity:1; fill:none" points="
  333.732,134.479 335.285,132.926 
  "/>
<polyline clip-path="url(#clip5102)" style="stroke:#009af9; stroke-width:2; stroke-opacity:1; fill:none" points="
  335.285,132.926 336.837,131.374 
  "/>
<polyline clip-path="url(#clip5102)" style="stroke:#009af9; stroke-width:2; stroke-opacity:1; fill:none" points="
  336.837,131.374 338.39,129.821 
  "/>
<polyline clip-path="url(#clip5102)" style="stroke:#009af9; stroke-width:2; stroke-opacity:1; fill:none" points="
  338.39,129.821 339.943,128.268 
  "/>
<polyline clip-path="url(#clip5102)" style="stroke:#009af9; stroke-width:2; stroke-opacity:1; fill:none" points="
  339.943,128.268 341.496,126.715 
  "/>
<polyline clip-path="url(#clip5102)" style="stroke:#009af9; stroke-width:2; stroke-opacity:1; fill:none" points="
  341.496,126.715 343.048,125.163 
  "/>
<polyline clip-path="url(#clip5102)" style="stroke:#009af9; stroke-width:2; stroke-opacity:1; fill:none" points="
  343.048,125.163 344.601,123.61 
  "/>
<polyline clip-path="url(#clip5102)" style="stroke:#009af9; stroke-width:2; stroke-opacity:1; fill:none" points="
  344.601,123.61 346.154,122.057 
  "/>
<polyline clip-path="url(#clip5102)" style="stroke:#009af9; stroke-width:2; stroke-opacity:1; fill:none" points="
  346.154,122.057 347.707,120.504 
  "/>
<polyline clip-path="url(#clip5102)" style="stroke:#009af9; stroke-width:2; stroke-opacity:1; fill:none" points="
  347.707,120.504 349.259,118.952 
  "/>
<polyline clip-path="url(#clip5102)" style="stroke:#009af9; stroke-width:2; stroke-opacity:1; fill:none" points="
  349.259,118.952 350.812,117.399 
  "/>
<polyline clip-path="url(#clip5102)" style="stroke:#009af9; stroke-width:2; stroke-opacity:1; fill:none" points="
  350.812,117.399 352.365,115.846 
  "/>
<polyline clip-path="url(#clip5102)" style="stroke:#009af9; stroke-width:2; stroke-opacity:1; fill:none" points="
  352.365,115.846 353.918,114.293 
  "/>
<polyline clip-path="url(#clip5102)" style="stroke:#009af9; stroke-width:2; stroke-opacity:1; fill:none" points="
  353.918,114.293 355.47,112.741 
  "/>
<polyline clip-path="url(#clip5102)" style="stroke:#009af9; stroke-width:2; stroke-opacity:1; fill:none" points="
  355.47,112.741 357.023,111.188 
  "/>
<polyline clip-path="url(#clip5102)" style="stroke:#009af9; stroke-width:2; stroke-opacity:1; fill:none" points="
  357.023,111.188 358.576,109.635 
  "/>
<polyline clip-path="url(#clip5102)" style="stroke:#009af9; stroke-width:2; stroke-opacity:1; fill:none" points="
  358.576,109.635 360.129,108.082 
  "/>
<polyline clip-path="url(#clip5102)" style="stroke:#009af9; stroke-width:2; stroke-opacity:1; fill:none" points="
  360.129,108.082 361.681,106.529 
  "/>
<polyline clip-path="url(#clip5102)" style="stroke:#009af9; stroke-width:2; stroke-opacity:1; fill:none" points="
  361.681,106.529 363.234,104.977 
  "/>
<polyline clip-path="url(#clip5102)" style="stroke:#009af9; stroke-width:2; stroke-opacity:1; fill:none" points="
  363.234,104.977 364.787,103.424 
  "/>
<polyline clip-path="url(#clip5102)" style="stroke:#009af9; stroke-width:2; stroke-opacity:1; fill:none" points="
  364.787,103.424 366.34,101.871 
  "/>
<polyline clip-path="url(#clip5102)" style="stroke:#009af9; stroke-width:2; stroke-opacity:1; fill:none" points="
  366.34,101.871 367.893,100.318 
  "/>
<polyline clip-path="url(#clip5102)" style="stroke:#009af9; stroke-width:2; stroke-opacity:1; fill:none" points="
  367.893,100.318 369.445,98.7657 
  "/>
<polyline clip-path="url(#clip5102)" style="stroke:#009af9; stroke-width:2; stroke-opacity:1; fill:none" points="
  369.445,98.7657 370.998,97.2129 
  "/>
<polyline clip-path="url(#clip5102)" style="stroke:#009af9; stroke-width:2; stroke-opacity:1; fill:none" points="
  370.998,97.2129 372.551,95.6601 
  "/>
<polyline clip-path="url(#clip5102)" style="stroke:#009af9; stroke-width:2; stroke-opacity:1; fill:none" points="
  372.551,95.6601 374.104,94.1074 
  "/>
<polyline clip-path="url(#clip5102)" style="stroke:#009af9; stroke-width:2; stroke-opacity:1; fill:none" points="
  374.104,94.1074 375.656,92.5546 
  "/>
<polyline clip-path="url(#clip5102)" style="stroke:#009af9; stroke-width:2; stroke-opacity:1; fill:none" points="
  375.656,92.5546 377.209,91.0019 
  "/>
<polyline clip-path="url(#clip5102)" style="stroke:#009af9; stroke-width:2; stroke-opacity:1; fill:none" points="
  377.209,91.0019 378.762,89.4491 
  "/>
<polyline clip-path="url(#clip5102)" style="stroke:#009af9; stroke-width:2; stroke-opacity:1; fill:none" points="
  378.762,89.4491 380.315,87.8963 
  "/>
<polyline clip-path="url(#clip5102)" style="stroke:#009af9; stroke-width:2; stroke-opacity:1; fill:none" points="
  380.315,87.8963 381.867,86.3436 
  "/>
<polyline clip-path="url(#clip5102)" style="stroke:#009af9; stroke-width:2; stroke-opacity:1; fill:none" points="
  381.867,86.3436 383.42,84.7908 
  "/>
<polyline clip-path="url(#clip5102)" style="stroke:#009af9; stroke-width:2; stroke-opacity:1; fill:none" points="
  383.42,84.7908 384.973,83.238 
  "/>
<polyline clip-path="url(#clip5102)" style="stroke:#009af9; stroke-width:2; stroke-opacity:1; fill:none" points="
  384.973,83.238 386.526,81.6853 
  "/>
<polyline clip-path="url(#clip5102)" style="stroke:#009af9; stroke-width:2; stroke-opacity:1; fill:none" points="
  386.526,81.6853 388.078,80.1325 
  "/>
<polyline clip-path="url(#clip5102)" style="stroke:#009af9; stroke-width:2; stroke-opacity:1; fill:none" points="
  388.078,80.1325 389.631,78.5798 
  "/>
<polyline clip-path="url(#clip5102)" style="stroke:#009af9; stroke-width:2; stroke-opacity:1; fill:none" points="
  389.631,78.5798 391.184,77.027 
  "/>
<polyline clip-path="url(#clip5102)" style="stroke:#009af9; stroke-width:2; stroke-opacity:1; fill:none" points="
  391.184,77.027 392.737,75.4742 
  "/>
<polyline clip-path="url(#clip5102)" style="stroke:#009af9; stroke-width:2; stroke-opacity:1; fill:none" points="
  392.737,75.4742 394.289,73.9215 
  "/>
<polyline clip-path="url(#clip5102)" style="stroke:#009af9; stroke-width:2; stroke-opacity:1; fill:none" points="
  394.289,73.9215 395.842,72.3687 
  "/>
<polyline clip-path="url(#clip5102)" style="stroke:#009af9; stroke-width:2; stroke-opacity:1; fill:none" points="
  395.842,72.3687 397.395,70.816 
  "/>
<polyline clip-path="url(#clip5102)" style="stroke:#009af9; stroke-width:2; stroke-opacity:1; fill:none" points="
  397.395,70.816 398.948,69.2632 
  "/>
<polyline clip-path="url(#clip5102)" style="stroke:#009af9; stroke-width:2; stroke-opacity:1; fill:none" points="
  398.948,69.2632 400.501,67.7104 
  "/>
<polyline clip-path="url(#clip5102)" style="stroke:#009af9; stroke-width:2; stroke-opacity:1; fill:none" points="
  400.501,67.7104 402.053,66.1577 
  "/>
<polyline clip-path="url(#clip5102)" style="stroke:#009af9; stroke-width:2; stroke-opacity:1; fill:none" points="
  402.053,66.1577 403.606,64.6049 
  "/>
<polyline clip-path="url(#clip5102)" style="stroke:#009af9; stroke-width:2; stroke-opacity:1; fill:none" points="
  403.606,64.6049 405.159,63.0521 
  "/>
<polyline clip-path="url(#clip5102)" style="stroke:#009af9; stroke-width:2; stroke-opacity:1; fill:none" points="
  405.159,63.0521 406.712,61.4994 
  "/>
<polyline clip-path="url(#clip5102)" style="stroke:#009af9; stroke-width:2; stroke-opacity:1; fill:none" points="
  406.712,61.4994 408.264,59.9466 
  "/>
<polyline clip-path="url(#clip5102)" style="stroke:#009af9; stroke-width:2; stroke-opacity:1; fill:none" points="
  408.264,59.9466 409.817,58.3939 
  "/>
<polyline clip-path="url(#clip5102)" style="stroke:#009af9; stroke-width:2; stroke-opacity:1; fill:none" points="
  409.817,58.3939 411.37,56.8411 
  "/>
<polyline clip-path="url(#clip5102)" style="stroke:#009af9; stroke-width:2; stroke-opacity:1; fill:none" points="
  411.37,56.8411 412.923,55.2883 
  "/>
<polyline clip-path="url(#clip5102)" style="stroke:#009af9; stroke-width:2; stroke-opacity:1; fill:none" points="
  412.923,55.2883 414.475,53.7356 
  "/>
<polyline clip-path="url(#clip5102)" style="stroke:#009af9; stroke-width:2; stroke-opacity:1; fill:none" points="
  414.475,53.7356 416.028,52.1828 
  "/>
<polyline clip-path="url(#clip5102)" style="stroke:#009af9; stroke-width:2; stroke-opacity:1; fill:none" points="
  416.028,52.1828 417.581,50.6301 
  "/>
<polyline clip-path="url(#clip5102)" style="stroke:#009af9; stroke-width:2; stroke-opacity:1; fill:none" points="
  417.581,50.6301 419.134,49.0773 
  "/>
<polyline clip-path="url(#clip5102)" style="stroke:#009af9; stroke-width:2; stroke-opacity:1; fill:none" points="
  419.134,49.0773 420.686,47.5245 
  "/>
<polyline clip-path="url(#clip5102)" style="stroke:#009af9; stroke-width:2; stroke-opacity:1; fill:none" points="
  420.686,47.5245 422.239,45.9718 
  "/>
<polyline clip-path="url(#clip5102)" style="stroke:#009af9; stroke-width:2; stroke-opacity:1; fill:none" points="
  422.239,45.9718 423.792,44.419 
  "/>
<polyline clip-path="url(#clip5102)" style="stroke:#009af9; stroke-width:2; stroke-opacity:1; fill:none" points="
  423.792,44.419 425.345,42.8663 
  "/>
<polyline clip-path="url(#clip5102)" style="stroke:#009af9; stroke-width:2; stroke-opacity:1; fill:none" points="
  425.345,42.8663 426.897,41.3135 
  "/>
<polyline clip-path="url(#clip5102)" style="stroke:#009af9; stroke-width:2; stroke-opacity:1; fill:none" points="
  426.897,41.3135 428.45,39.7607 
  "/>
<polyline clip-path="url(#clip5102)" style="stroke:#009af9; stroke-width:2; stroke-opacity:1; fill:none" points="
  428.45,39.7607 430.003,38.208 
  "/>
<polyline clip-path="url(#clip5102)" style="stroke:#009af9; stroke-width:2; stroke-opacity:1; fill:none" points="
  430.003,38.208 431.556,36.6552 
  "/>
<polyline clip-path="url(#clip5102)" style="stroke:#009af9; stroke-width:2; stroke-opacity:1; fill:none" points="
  431.556,36.6552 433.109,35.1024 
  "/>
<polyline clip-path="url(#clip5102)" style="stroke:#009af9; stroke-width:2; stroke-opacity:1; fill:none" points="
  433.109,35.1024 434.661,33.5497 
  "/>
<polyline clip-path="url(#clip5102)" style="stroke:#009af9; stroke-width:2; stroke-opacity:1; fill:none" points="
  434.661,33.5497 436.214,31.9969 
  "/>
<polyline clip-path="url(#clip5102)" style="stroke:#009af9; stroke-width:2; stroke-opacity:1; fill:none" points="
  436.214,31.9969 437.767,30.4442 
  "/>
<polyline clip-path="url(#clip5102)" style="stroke:#009af9; stroke-width:2; stroke-opacity:1; fill:none" points="
  437.767,30.4442 439.32,28.8914 
  "/>
<polyline clip-path="url(#clip5102)" style="stroke:#009af9; stroke-width:2; stroke-opacity:1; fill:none" points="
  439.32,28.8914 440.872,27.3386 
  "/>
<polyline clip-path="url(#clip5102)" style="stroke:#009af9; stroke-width:2; stroke-opacity:1; fill:none" points="
  440.872,27.3386 442.425,25.7859 
  "/>
<polyline clip-path="url(#clip5102)" style="stroke:#009af9; stroke-width:2; stroke-opacity:1; fill:none" points="
  442.425,25.7859 443.978,24.2331 
  "/>
<polyline clip-path="url(#clip5102)" style="stroke:#009af9; stroke-width:2; stroke-opacity:1; fill:none" points="
  443.978,24.2331 445.531,22.6804 
  "/>
<polyline clip-path="url(#clip5102)" style="stroke:#009af9; stroke-width:2; stroke-opacity:1; fill:none" points="
  445.531,22.6804 447.083,21.1276 
  "/>
<polyline clip-path="url(#clip5102)" style="stroke:#009af9; stroke-width:2; stroke-opacity:1; fill:none" points="
  447.083,21.1276 448.636,19.5748 
  "/>
<polyline clip-path="url(#clip5102)" style="stroke:#009af9; stroke-width:2; stroke-opacity:1; fill:none" points="
  448.636,19.5748 450.189,18.0221 
  "/>
<polyline clip-path="url(#clip5102)" style="stroke:#009af9; stroke-width:2; stroke-opacity:1; fill:none" points="
  450.189,18.0221 451.742,16.4693 
  "/>
<polyline clip-path="url(#clip5102)" style="stroke:#009af9; stroke-width:2; stroke-opacity:1; fill:none" points="
  451.742,16.4693 453.294,14.9165 
  "/>
<polyline clip-path="url(#clip5102)" style="stroke:#009af9; stroke-width:2; stroke-opacity:1; fill:none" points="
  453.294,14.9165 454.847,13.3638 
  "/>
<polyline clip-path="url(#clip5102)" style="stroke:#009af9; stroke-width:2; stroke-opacity:1; fill:none" points="
  454.847,13.3638 456.4,11.811 
  "/>
</svg>
