<?xml version="1.0" encoding="utf-8"?>
<svg xmlns="http://www.w3.org/2000/svg" xmlns:xlink="http://www.w3.org/1999/xlink" width="600" height="300" viewBox="0 0 600 300">
<defs>
  <clipPath id="clip00">
    <rect x="0" y="0" width="600" height="300"/>
  </clipPath>
</defs>
<polygon clip-path="url(#clip5300)" points="
0,300 600,300 600,0 0,0 
  " fill="#ffffff" fill-opacity="1"/>
<defs>
  <clipPath id="clip01">
    <rect x="120" y="0" width="421" height="300"/>
  </clipPath>
</defs>
<polygon clip-path="url(#clip5300)" points="
169.284,259.011 465.923,259.011 465.923,11.811 169.284,11.811 
  " fill="#ffffff" fill-opacity="1"/>
<defs>
  <clipPath id="clip02">
    <rect x="169" y="11" width="298" height="248"/>
  </clipPath>
</defs>
<polyline clip-path="url(#clip5300)" style="stroke:#000000; stroke-width:1; stroke-opacity:1; fill:none" points="
  169.284,259.011 465.923,259.011 
  "/>
<polyline clip-path="url(#clip5300)" style="stroke:#000000; stroke-width:1; stroke-opacity:1; fill:none" points="
  169.284,259.011 169.284,11.811 
  "/>
<polyline clip-path="url(#clip5300)" style="stroke:#000000; stroke-width:1; stroke-opacity:1; fill:none" points="
  194.003,259.011 194.003,255.303 
  "/>
<polyline clip-path="url(#clip5300)" style="stroke:#000000; stroke-width:1; stroke-opacity:1; fill:none" points="
  255.803,259.011 255.803,255.303 
  "/>
<polyline clip-path="url(#clip5300)" style="stroke:#000000; stroke-width:1; stroke-opacity:1; fill:none" points="
  317.603,259.011 317.603,255.303 
  "/>
<polyline clip-path="url(#clip5300)" style="stroke:#000000; stroke-width:1; stroke-opacity:1; fill:none" points="
  379.403,259.011 379.403,255.303 
  "/>
<polyline clip-path="url(#clip5300)" style="stroke:#000000; stroke-width:1; stroke-opacity:1; fill:none" points="
  441.203,259.011 441.203,255.303 
  "/>
<polyline clip-path="url(#clip5300)" style="stroke:#000000; stroke-width:1; stroke-opacity:1; fill:none" points="
  169.284,259.011 173.733,259.011 
  "/>
<polyline clip-path="url(#clip5300)" style="stroke:#000000; stroke-width:1; stroke-opacity:1; fill:none" points="
  169.284,197.211 173.733,197.211 
  "/>
<polyline clip-path="url(#clip5300)" style="stroke:#000000; stroke-width:1; stroke-opacity:1; fill:none" points="
  169.284,135.411 173.733,135.411 
  "/>
<polyline clip-path="url(#clip5300)" style="stroke:#000000; stroke-width:1; stroke-opacity:1; fill:none" points="
  169.284,73.6109 173.733,73.6109 
  "/>
<polyline clip-path="url(#clip5300)" style="stroke:#000000; stroke-width:1; stroke-opacity:1; fill:none" points="
  169.284,11.811 173.733,11.811 
  "/>
<g clip-path="url(#clip5300)">
<text style="fill:#000000; fill-opacity:1; font-family:Arial,Helvetica Neue,Helvetica,sans-serif; font-size:12; text-anchor:middle;" transform="rotate(0, 194.003, 272.811)" x="194.003" y="272.811">-1.0</text>
</g>
<g clip-path="url(#clip5300)">
<text style="fill:#000000; fill-opacity:1; font-family:Arial,Helvetica Neue,Helvetica,sans-serif; font-size:12; text-anchor:middle;" transform="rotate(0, 255.803, 272.811)" x="255.803" y="272.811">-0.5</text>
</g>
<g clip-path="url(#clip5300)">
<text style="fill:#000000; fill-opacity:1; font-family:Arial,Helvetica Neue,Helvetica,sans-serif; font-size:12; text-anchor:middle;" transform="rotate(0, 317.603, 272.811)" x="317.603" y="272.811">0.0</text>
</g>
<g clip-path="url(#clip5300)">
<text style="fill:#000000; fill-opacity:1; font-family:Arial,Helvetica Neue,Helvetica,sans-serif; font-size:12; text-anchor:middle;" transform="rotate(0, 379.403, 272.811)" x="379.403" y="272.811">0.5</text>
</g>
<g clip-path="url(#clip5300)">
<text style="fill:#000000; fill-opacity:1; font-family:Arial,Helvetica Neue,Helvetica,sans-serif; font-size:12; text-anchor:middle;" transform="rotate(0, 441.203, 272.811)" x="441.203" y="272.811">1.0</text>
</g>
<g clip-path="url(#clip5300)">
<text style="fill:#000000; fill-opacity:1; font-family:Arial,Helvetica Neue,Helvetica,sans-serif; font-size:12; text-anchor:end;" transform="rotate(0, 163.284, 263.511)" x="163.284" y="263.511">-2.0</text>
</g>
<g clip-path="url(#clip5300)">
<text style="fill:#000000; fill-opacity:1; font-family:Arial,Helvetica Neue,Helvetica,sans-serif; font-size:12; text-anchor:end;" transform="rotate(0, 163.284, 201.711)" x="163.284" y="201.711">-1.5</text>
</g>
<g clip-path="url(#clip5300)">
<text style="fill:#000000; fill-opacity:1; font-family:Arial,Helvetica Neue,Helvetica,sans-serif; font-size:12; text-anchor:end;" transform="rotate(0, 163.284, 139.911)" x="163.284" y="139.911">-1.0</text>
</g>
<g clip-path="url(#clip5300)">
<text style="fill:#000000; fill-opacity:1; font-family:Arial,Helvetica Neue,Helvetica,sans-serif; font-size:12; text-anchor:end;" transform="rotate(0, 163.284, 78.1109)" x="163.284" y="78.1109">-0.5</text>
</g>
<g clip-path="url(#clip5300)">
<text style="fill:#000000; fill-opacity:1; font-family:Arial,Helvetica Neue,Helvetica,sans-serif; font-size:12; text-anchor:end;" transform="rotate(0, 163.284, 16.311)" x="163.284" y="16.311">0.0</text>
</g>
<g clip-path="url(#clip5300)">
<text style="fill:#000000; fill-opacity:1; font-family:Arial,Helvetica Neue,Helvetica,sans-serif; font-size:16; text-anchor:middle;" transform="rotate(0, 317.603, 297.6)" x="317.603" y="297.6">t</text>
</g>
<g clip-path="url(#clip5300)">
<text style="fill:#000000; fill-opacity:1; font-family:Arial,Helvetica Neue,Helvetica,sans-serif; font-size:16; text-anchor:middle;" transform="rotate(-90, 14.4, 135.411)" x="14.4" y="135.411">Smoothed Ramp</text>
</g>
<polyline clip-path="url(#clip5302)" style="stroke:#009af9; stroke-width:2; stroke-opacity:1; fill:none" points="
  194.003,11.811 197.109,11.811 
  "/>
<polyline clip-path="url(#clip5302)" style="stroke:#009af9; stroke-width:2; stroke-opacity:1; fill:none" points="
  197.109,11.811 200.215,11.811 
  "/>
<polyline clip-path="url(#clip5302)" style="stroke:#009af9; stroke-width:2; stroke-opacity:1; fill:none" points="
  200.215,11.811 203.32,11.811 
  "/>
<polyline clip-path="url(#clip5302)" style="stroke:#009af9; stroke-width:2; stroke-opacity:1; fill:none" points="
  203.32,11.811 206.426,11.811 
  "/>
<polyline clip-path="url(#clip5302)" style="stroke:#009af9; stroke-width:2; stroke-opacity:1; fill:none" points="
  206.426,11.811 209.531,11.811 
  "/>
<polyline clip-path="url(#clip5302)" style="stroke:#009af9; stroke-width:2; stroke-opacity:1; fill:none" points="
  209.531,11.811 212.637,11.811 
  "/>
<polyline clip-path="url(#clip5302)" style="stroke:#009af9; stroke-width:2; stroke-opacity:1; fill:none" points="
  212.637,11.811 215.742,11.811 
  "/>
<polyline clip-path="url(#clip5302)" style="stroke:#009af9; stroke-width:2; stroke-opacity:1; fill:none" points="
  215.742,11.811 218.848,11.811 
  "/>
<polyline clip-path="url(#clip5302)" style="stroke:#009af9; stroke-width:2; stroke-opacity:1; fill:none" points="
  218.848,11.811 221.953,11.811 
  "/>
<polyline clip-path="url(#clip5302)" style="stroke:#009af9; stroke-width:2; stroke-opacity:1; fill:none" points="
  221.953,11.811 225.059,11.811 
  "/>
<polyline clip-path="url(#clip5302)" style="stroke:#009af9; stroke-width:2; stroke-opacity:1; fill:none" points="
  225.059,11.811 228.164,11.811 
  "/>
<polyline clip-path="url(#clip5302)" style="stroke:#009af9; stroke-width:2; stroke-opacity:1; fill:none" points="
  228.164,11.811 231.27,11.811 
  "/>
<polyline clip-path="url(#clip5302)" style="stroke:#009af9; stroke-width:2; stroke-opacity:1; fill:none" points="
  231.27,11.811 234.375,11.811 
  "/>
<polyline clip-path="url(#clip5302)" style="stroke:#009af9; stroke-width:2; stroke-opacity:1; fill:none" points="
  234.375,11.811 237.481,11.811 
  "/>
<polyline clip-path="url(#clip5302)" style="stroke:#009af9; stroke-width:2; stroke-opacity:1; fill:none" points="
  237.481,11.811 240.586,11.811 
  "/>
<polyline clip-path="url(#clip5302)" style="stroke:#009af9; stroke-width:2; stroke-opacity:1; fill:none" points="
  240.586,11.811 243.692,11.811 
  "/>
<polyline clip-path="url(#clip5302)" style="stroke:#009af9; stroke-width:2; stroke-opacity:1; fill:none" points="
  243.692,11.811 246.797,11.811 
  "/>
<polyline clip-path="url(#clip5302)" style="stroke:#009af9; stroke-width:2; stroke-opacity:1; fill:none" points="
  246.797,11.811 249.903,11.811 
  "/>
<polyline clip-path="url(#clip5302)" style="stroke:#009af9; stroke-width:2; stroke-opacity:1; fill:none" points="
  249.903,11.811 253.008,11.811 
  "/>
<polyline clip-path="url(#clip5302)" style="stroke:#009af9; stroke-width:2; stroke-opacity:1; fill:none" points="
  253.008,11.811 256.114,11.811 
  "/>
<polyline clip-path="url(#clip5302)" style="stroke:#009af9; stroke-width:2; stroke-opacity:1; fill:none" points="
  256.114,11.811 259.219,11.811 
  "/>
<polyline clip-path="url(#clip5302)" style="stroke:#009af9; stroke-width:2; stroke-opacity:1; fill:none" points="
  259.219,11.811 262.325,11.811 
  "/>
<polyline clip-path="url(#clip5302)" style="stroke:#009af9; stroke-width:2; stroke-opacity:1; fill:none" points="
  262.325,11.811 265.431,11.811 
  "/>
<polyline clip-path="url(#clip5302)" style="stroke:#009af9; stroke-width:2; stroke-opacity:1; fill:none" points="
  265.431,11.811 268.536,11.811 
  "/>
<polyline clip-path="url(#clip5302)" style="stroke:#009af9; stroke-width:2; stroke-opacity:1; fill:none" points="
  268.536,11.811 271.642,11.811 
  "/>
<polyline clip-path="url(#clip5302)" style="stroke:#009af9; stroke-width:2; stroke-opacity:1; fill:none" points="
  271.642,11.811 274.747,11.811 
  "/>
<polyline clip-path="url(#clip5302)" style="stroke:#009af9; stroke-width:2; stroke-opacity:1; fill:none" points="
  274.747,11.811 277.853,11.811 
  "/>
<polyline clip-path="url(#clip5302)" style="stroke:#009af9; stroke-width:2; stroke-opacity:1; fill:none" points="
  277.853,11.811 280.958,11.811 
  "/>
<polyline clip-path="url(#clip5302)" style="stroke:#009af9; stroke-width:2; stroke-opacity:1; fill:none" points="
  280.958,11.811 284.064,11.811 
  "/>
<polyline clip-path="url(#clip5302)" style="stroke:#009af9; stroke-width:2; stroke-opacity:1; fill:none" points="
  284.064,11.811 287.169,11.811 
  "/>
<polyline clip-path="url(#clip5302)" style="stroke:#009af9; stroke-width:2; stroke-opacity:1; fill:none" points="
  287.169,11.811 290.275,11.811 
  "/>
<polyline clip-path="url(#clip5302)" style="stroke:#009af9; stroke-width:2; stroke-opacity:1; fill:none" points="
  290.275,11.811 293.38,11.811 
  "/>
<polyline clip-path="url(#clip5302)" style="stroke:#009af9; stroke-width:2; stroke-opacity:1; fill:none" points="
  293.38,11.811 296.486,11.811 
  "/>
<polyline clip-path="url(#clip5302)" style="stroke:#009af9; stroke-width:2; stroke-opacity:1; fill:none" points="
  296.486,11.811 299.591,11.811 
  "/>
<polyline clip-path="url(#clip5302)" style="stroke:#009af9; stroke-width:2; stroke-opacity:1; fill:none" points="
  299.591,11.811 302.697,11.811 
  "/>
<polyline clip-path="url(#clip5302)" style="stroke:#009af9; stroke-width:2; stroke-opacity:1; fill:none" points="
  302.697,11.811 305.802,11.811 
  "/>
<polyline clip-path="url(#clip5302)" style="stroke:#009af9; stroke-width:2; stroke-opacity:1; fill:none" points="
  305.802,11.811 308.908,11.811 
  "/>
<polyline clip-path="url(#clip5302)" style="stroke:#009af9; stroke-width:2; stroke-opacity:1; fill:none" points="
  308.908,11.811 312.013,11.811 
  "/>
<polyline clip-path="url(#clip5302)" style="stroke:#009af9; stroke-width:2; stroke-opacity:1; fill:none" points="
  312.013,11.811 315.119,11.811 
  "/>
<polyline clip-path="url(#clip5302)" style="stroke:#009af9; stroke-width:2; stroke-opacity:1; fill:none" points="
  315.119,11.811 318.224,11.811 
  "/>
<polyline clip-path="url(#clip5302)" style="stroke:#009af9; stroke-width:2; stroke-opacity:1; fill:none" points="
  318.224,11.811 321.33,11.811 
  "/>
<polyline clip-path="url(#clip5302)" style="stroke:#009af9; stroke-width:2; stroke-opacity:1; fill:none" points="
  321.33,11.811 324.435,11.811 
  "/>
<polyline clip-path="url(#clip5302)" style="stroke:#009af9; stroke-width:2; stroke-opacity:1; fill:none" points="
  324.435,11.811 327.541,11.811 
  "/>
<polyline clip-path="url(#clip5302)" style="stroke:#009af9; stroke-width:2; stroke-opacity:1; fill:none" points="
  327.541,11.811 330.646,11.811 
  "/>
<polyline clip-path="url(#clip5302)" style="stroke:#009af9; stroke-width:2; stroke-opacity:1; fill:none" points="
  330.646,11.811 333.752,11.811 
  "/>
<polyline clip-path="url(#clip5302)" style="stroke:#009af9; stroke-width:2; stroke-opacity:1; fill:none" points="
  333.752,11.811 336.858,11.811 
  "/>
<polyline clip-path="url(#clip5302)" style="stroke:#009af9; stroke-width:2; stroke-opacity:1; fill:none" points="
  336.858,11.811 339.963,11.811 
  "/>
<polyline clip-path="url(#clip5302)" style="stroke:#009af9; stroke-width:2; stroke-opacity:1; fill:none" points="
  339.963,11.811 343.069,11.811 
  "/>
<polyline clip-path="url(#clip5302)" style="stroke:#009af9; stroke-width:2; stroke-opacity:1; fill:none" points="
  343.069,11.811 346.174,11.811 
  "/>
<polyline clip-path="url(#clip5302)" style="stroke:#009af9; stroke-width:2; stroke-opacity:1; fill:none" points="
  346.174,11.811 349.28,11.811 
  "/>
<polyline clip-path="url(#clip5302)" style="stroke:#009af9; stroke-width:2; stroke-opacity:1; fill:none" points="
  349.28,11.811 352.385,11.811 
  "/>
<polyline clip-path="url(#clip5302)" style="stroke:#009af9; stroke-width:2; stroke-opacity:1; fill:none" points="
  352.385,11.811 355.491,11.811 
  "/>
<polyline clip-path="url(#clip5302)" style="stroke:#009af9; stroke-width:2; stroke-opacity:1; fill:none" points="
  355.491,11.811 358.596,11.811 
  "/>
<polyline clip-path="url(#clip5302)" style="stroke:#009af9; stroke-width:2; stroke-opacity:1; fill:none" points="
  358.596,11.811 361.702,11.811 
  "/>
<polyline clip-path="url(#clip5302)" style="stroke:#009af9; stroke-width:2; stroke-opacity:1; fill:none" points="
  361.702,11.811 364.807,11.811 
  "/>
<polyline clip-path="url(#clip5302)" style="stroke:#009af9; stroke-width:2; stroke-opacity:1; fill:none" points="
  364.807,11.811 367.913,11.811 
  "/>
<polyline clip-path="url(#clip5302)" style="stroke:#009af9; stroke-width:2; stroke-opacity:1; fill:none" points="
  367.913,11.811 371.018,11.811 
  "/>
<polyline clip-path="url(#clip5302)" style="stroke:#009af9; stroke-width:2; stroke-opacity:1; fill:none" points="
  371.018,11.811 374.124,11.811 
  "/>
<polyline clip-path="url(#clip5302)" style="stroke:#009af9; stroke-width:2; stroke-opacity:1; fill:none" points="
  374.124,11.811 377.229,11.811 
  "/>
<polyline clip-path="url(#clip5302)" style="stroke:#009af9; stroke-width:2; stroke-opacity:1; fill:none" points="
  377.229,11.811 380.335,11.811 
  "/>
<polyline clip-path="url(#clip5302)" style="stroke:#009af9; stroke-width:2; stroke-opacity:1; fill:none" points="
  380.335,11.811 383.44,11.811 
  "/>
<polyline clip-path="url(#clip5302)" style="stroke:#009af9; stroke-width:2; stroke-opacity:1; fill:none" points="
  383.44,11.811 386.546,11.811 
  "/>
<polyline clip-path="url(#clip5302)" style="stroke:#009af9; stroke-width:2; stroke-opacity:1; fill:none" points="
  386.546,11.811 389.651,11.811 
  "/>
<polyline clip-path="url(#clip5302)" style="stroke:#009af9; stroke-width:2; stroke-opacity:1; fill:none" points="
  389.651,11.811 392.757,11.811 
  "/>
<polyline clip-path="url(#clip5302)" style="stroke:#009af9; stroke-width:2; stroke-opacity:1; fill:none" points="
  392.757,11.811 395.862,11.811 
  "/>
<polyline clip-path="url(#clip5302)" style="stroke:#009af9; stroke-width:2; stroke-opacity:1; fill:none" points="
  395.862,11.811 398.968,11.811 
  "/>
<polyline clip-path="url(#clip5302)" style="stroke:#009af9; stroke-width:2; stroke-opacity:1; fill:none" points="
  398.968,11.811 402.073,11.811 
  "/>
<polyline clip-path="url(#clip5302)" style="stroke:#009af9; stroke-width:2; stroke-opacity:1; fill:none" points="
  402.073,11.811 405.179,11.811 
  "/>
<polyline clip-path="url(#clip5302)" style="stroke:#009af9; stroke-width:2; stroke-opacity:1; fill:none" points="
  405.179,11.811 408.285,11.811 
  "/>
<polyline clip-path="url(#clip5302)" style="stroke:#009af9; stroke-width:2; stroke-opacity:1; fill:none" points="
  408.285,11.811 411.39,11.811 
  "/>
<polyline clip-path="url(#clip5302)" style="stroke:#009af9; stroke-width:2; stroke-opacity:1; fill:none" points="
  411.39,11.811 414.496,11.811 
  "/>
<polyline clip-path="url(#clip5302)" style="stroke:#009af9; stroke-width:2; stroke-opacity:1; fill:none" points="
  414.496,11.811 417.601,11.811 
  "/>
<polyline clip-path="url(#clip5302)" style="stroke:#009af9; stroke-width:2; stroke-opacity:1; fill:none" points="
  417.601,11.811 420.707,11.811 
  "/>
<polyline clip-path="url(#clip5302)" style="stroke:#009af9; stroke-width:2; stroke-opacity:1; fill:none" points="
  420.707,11.811 423.812,11.811 
  "/>
<polyline clip-path="url(#clip5302)" style="stroke:#009af9; stroke-width:2; stroke-opacity:1; fill:none" points="
  423.812,11.811 426.918,11.811 
  "/>
<polyline clip-path="url(#clip5302)" style="stroke:#009af9; stroke-width:2; stroke-opacity:1; fill:none" points="
  426.918,11.811 430.023,11.811 
  "/>
<polyline clip-path="url(#clip5302)" style="stroke:#009af9; stroke-width:2; stroke-opacity:1; fill:none" points="
  430.023,11.811 433.129,11.8111 
  "/>
<polyline clip-path="url(#clip5302)" style="stroke:#009af9; stroke-width:2; stroke-opacity:1; fill:none" points="
  433.129,11.8111 436.234,11.8111 
  "/>
<polyline clip-path="url(#clip5302)" style="stroke:#009af9; stroke-width:2; stroke-opacity:1; fill:none" points="
  436.234,11.8111 439.34,11.8111 
  "/>
<polyline clip-path="url(#clip5302)" style="stroke:#009af9; stroke-width:2; stroke-opacity:1; fill:none" points="
  439.34,11.8111 442.445,11.8111 
  "/>
<polyline clip-path="url(#clip5302)" style="stroke:#009af9; stroke-width:2; stroke-opacity:1; fill:none" points="
  442.445,11.8111 445.551,11.8111 
  "/>
<polyline clip-path="url(#clip5302)" style="stroke:#009af9; stroke-width:2; stroke-opacity:1; fill:none" points="
  445.551,11.8111 448.656,11.8112 
  "/>
<polyline clip-path="url(#clip5302)" style="stroke:#009af9; stroke-width:2; stroke-opacity:1; fill:none" points="
  448.656,11.8112 451.762,11.8112 
  "/>
<polyline clip-path="url(#clip5302)" style="stroke:#009af9; stroke-width:2; stroke-opacity:1; fill:none" points="
  451.762,11.8112 454.867,11.8113 
  "/>
<polyline clip-path="url(#clip5302)" style="stroke:#009af9; stroke-width:2; stroke-opacity:1; fill:none" points="
  454.867,11.8113 457.973,11.8113 
  "/>
<polyline clip-path="url(#clip5302)" style="stroke:#009af9; stroke-width:2; stroke-opacity:1; fill:none" points="
  457.973,11.8113 461.078,11.8115 
  "/>
<polyline clip-path="url(#clip5302)" style="stroke:#009af9; stroke-width:2; stroke-opacity:1; fill:none" points="
  461.078,11.8115 464.184,11.8116 
  "/>
<polyline clip-path="url(#clip5302)" style="stroke:#009af9; stroke-width:2; stroke-opacity:1; fill:none" points="
  464.184,11.8116 467.289,11.8118 
  "/>
<polyline clip-path="url(#clip5302)" style="stroke:#009af9; stroke-width:2; stroke-opacity:1; fill:none" points="
  467.289,11.8118 470.395,11.8121 
  "/>
<polyline clip-path="url(#clip5302)" style="stroke:#009af9; stroke-width:2; stroke-opacity:1; fill:none" points="
  470.395,11.8121 473.501,11.8125 
  "/>
<polyline clip-path="url(#clip5302)" style="stroke:#009af9; stroke-width:2; stroke-opacity:1; fill:none" points="
  473.501,11.8125 476.606,11.813 
  "/>
<polyline clip-path="url(#clip5302)" style="stroke:#009af9; stroke-width:2; stroke-opacity:1; fill:none" points="
  476.606,11.813 479.712,11.8137 
  "/>
<polyline clip-path="url(#clip5302)" style="stroke:#009af9; stroke-width:2; stroke-opacity:1; fill:none" points="
  479.712,11.8137 482.817,11.8146 
  "/>
<polyline clip-path="url(#clip5302)" style="stroke:#009af9; stroke-width:2; stroke-opacity:1; fill:none" points="
  482.817,11.8146 485.923,11.8159 
  "/>
<polyline clip-path="url(#clip5302)" style="stroke:#009af9; stroke-width:2; stroke-opacity:1; fill:none" points="
  485.923,11.8159 489.028,11.8176 
  "/>
<polyline clip-path="url(#clip5302)" style="stroke:#009af9; stroke-width:2; stroke-opacity:1; fill:none" points="
  489.028,11.8176 492.134,11.8199 
  "/>
<polyline clip-path="url(#clip5302)" style="stroke:#009af9; stroke-width:2; stroke-opacity:1; fill:none" points="
  492.134,11.8199 495.239,11.823 
  "/>
<polyline clip-path="url(#clip5302)" style="stroke:#009af9; stroke-width:2; stroke-opacity:1; fill:none" points="
  495.239,11.823 498.345,11.8273 
  "/>
<polyline clip-path="url(#clip5302)" style="stroke:#009af9; stroke-width:2; stroke-opacity:1; fill:none" points="
  498.345,11.8273 501.45,11.833 
  "/>
<polyline clip-path="url(#clip5302)" style="stroke:#009af9; stroke-width:2; stroke-opacity:1; fill:none" points="
  501.45,11.833 504.556,11.8407 
  "/>
<polyline clip-path="url(#clip5302)" style="stroke:#009af9; stroke-width:2; stroke-opacity:1; fill:none" points="
  504.556,11.8407 507.661,11.8511 
  "/>
<polyline clip-path="url(#clip5302)" style="stroke:#009af9; stroke-width:2; stroke-opacity:1; fill:none" points="
  507.661,11.8511 510.767,11.8651 
  "/>
<polyline clip-path="url(#clip5302)" style="stroke:#009af9; stroke-width:2; stroke-opacity:1; fill:none" points="
  510.767,11.8651 513.872,11.8841 
  "/>
<polyline clip-path="url(#clip5302)" style="stroke:#009af9; stroke-width:2; stroke-opacity:1; fill:none" points="
  513.872,11.8841 516.978,11.9097 
  "/>
<polyline clip-path="url(#clip5302)" style="stroke:#009af9; stroke-width:2; stroke-opacity:1; fill:none" points="
  516.978,11.9097 520.083,11.9442 
  "/>
<polyline clip-path="url(#clip5302)" style="stroke:#009af9; stroke-width:2; stroke-opacity:1; fill:none" points="
  520.083,11.9442 523.189,11.9907 
  "/>
<polyline clip-path="url(#clip5302)" style="stroke:#009af9; stroke-width:2; stroke-opacity:1; fill:none" points="
  523.189,11.9907 526.294,12.0531 
  "/>
<polyline clip-path="url(#clip5302)" style="stroke:#009af9; stroke-width:2; stroke-opacity:1; fill:none" points="
  526.294,12.0531 529.4,12.137 
  "/>
<polyline clip-path="url(#clip5302)" style="stroke:#009af9; stroke-width:2; stroke-opacity:1; fill:none" points="
  529.4,12.137 532.505,12.2493 
  "/>
<polyline clip-path="url(#clip5302)" style="stroke:#009af9; stroke-width:2; stroke-opacity:1; fill:none" points="
  532.505,12.2493 535.611,12.3992 
  "/>
<polyline clip-path="url(#clip5302)" style="stroke:#009af9; stroke-width:2; stroke-opacity:1; fill:none" points="
  535.611,12.3992 538.716,12.5984 
  "/>
<polyline clip-path="url(#clip5302)" style="stroke:#009af9; stroke-width:2; stroke-opacity:1; fill:none" points="
  538.716,12.5984 541.822,12.8618 
  "/>
<polyline clip-path="url(#clip5302)" style="stroke:#009af9; stroke-width:2; stroke-opacity:1; fill:none" points="
  541.822,12.8618 544.928,13.2075 
  "/>
<polyline clip-path="url(#clip5302)" style="stroke:#009af9; stroke-width:2; stroke-opacity:1; fill:none" points="
  544.928,13.2075 548.033,13.6571 
  "/>
<polyline clip-path="url(#clip5302)" style="stroke:#009af9; stroke-width:2; stroke-opacity:1; fill:none" points="
  548.033,13.6571 551.139,14.2353 
  "/>
<polyline clip-path="url(#clip5302)" style="stroke:#009af9; stroke-width:2; stroke-opacity:1; fill:none" points="
  551.139,14.2353 554.244,14.9686 
  "/>
<polyline clip-path="url(#clip5302)" style="stroke:#009af9; stroke-width:2; stroke-opacity:1; fill:none" points="
  554.244,14.9686 557.35,15.8837 
  "/>
<polyline clip-path="url(#clip5302)" style="stroke:#009af9; stroke-width:2; stroke-opacity:1; fill:none" points="
  557.35,15.8837 560.455,17.0043 
  "/>
<polyline clip-path="url(#clip5302)" style="stroke:#009af9; stroke-width:2; stroke-opacity:1; fill:none" points="
  560.455,17.0043 563.561,18.348 
  "/>
<polyline clip-path="url(#clip5302)" style="stroke:#009af9; stroke-width:2; stroke-opacity:1; fill:none" points="
  563.561,18.348 566.666,19.9242 
  "/>
<polyline clip-path="url(#clip5302)" style="stroke:#009af9; stroke-width:2; stroke-opacity:1; fill:none" points="
  566.666,19.9242 569.772,21.7316 
  "/>
<polyline clip-path="url(#clip5302)" style="stroke:#009af9; stroke-width:2; stroke-opacity:1; fill:none" points="
  569.772,21.7316 572.877,23.7593 
  "/>
<polyline clip-path="url(#clip5302)" style="stroke:#009af9; stroke-width:2; stroke-opacity:1; fill:none" points="
  572.877,23.7593 575.983,25.9881 
  "/>
<polyline clip-path="url(#clip5302)" style="stroke:#009af9; stroke-width:2; stroke-opacity:1; fill:none" points="
  575.983,25.9881 579.088,28.3935 
  "/>
<polyline clip-path="url(#clip5302)" style="stroke:#009af9; stroke-width:2; stroke-opacity:1; fill:none" points="
  579.088,28.3935 582.194,30.9486 
  "/>
<polyline clip-path="url(#clip5302)" style="stroke:#009af9; stroke-width:2; stroke-opacity:1; fill:none" points="
  582.194,30.9486 585.299,33.6272 
  "/>
<polyline clip-path="url(#clip5302)" style="stroke:#009af9; stroke-width:2; stroke-opacity:1; fill:none" points="
  585.299,33.6272 588.405,36.4052 
  "/>
<polyline clip-path="url(#clip5302)" style="stroke:#009af9; stroke-width:2; stroke-opacity:1; fill:none" points="
  588.405,36.4052 591.51,39.2615 
  "/>
<polyline clip-path="url(#clip5302)" style="stroke:#009af9; stroke-width:2; stroke-opacity:1; fill:none" points="
  591.51,39.2615 594.616,42.1787 
  "/>
<polyline clip-path="url(#clip5302)" style="stroke:#009af9; stroke-width:2; stroke-opacity:1; fill:none" points="
  594.616,42.1787 597.721,45.1427 
  "/>
<polyline clip-path="url(#clip5302)" style="stroke:#009af9; stroke-width:2; stroke-opacity:1; fill:none" points="
  597.721,45.1427 600.827,48.1423 
  "/>
<polyline clip-path="url(#clip5302)" style="stroke:#009af9; stroke-width:2; stroke-opacity:1; fill:none" points="
  600.827,48.1423 603.932,51.1687 
  "/>
<polyline clip-path="url(#clip5302)" style="stroke:#009af9; stroke-width:2; stroke-opacity:1; fill:none" points="
  603.932,51.1687 607.038,54.2153 
  "/>
<polyline clip-path="url(#clip5302)" style="stroke:#009af9; stroke-width:2; stroke-opacity:1; fill:none" points="
  607.038,54.2153 610.143,57.2771 
  "/>
<polyline clip-path="url(#clip5302)" style="stroke:#009af9; stroke-width:2; stroke-opacity:1; fill:none" points="
  610.143,57.2771 613.249,60.3501 
  "/>
<polyline clip-path="url(#clip5302)" style="stroke:#009af9; stroke-width:2; stroke-opacity:1; fill:none" points="
  613.249,60.3501 616.355,63.4315 
  "/>
<polyline clip-path="url(#clip5302)" style="stroke:#009af9; stroke-width:2; stroke-opacity:1; fill:none" points="
  616.355,63.4315 619.46,66.5192 
  "/>
<polyline clip-path="url(#clip5302)" style="stroke:#009af9; stroke-width:2; stroke-opacity:1; fill:none" points="
  619.46,66.5192 622.566,69.6115 
  "/>
<polyline clip-path="url(#clip5302)" style="stroke:#009af9; stroke-width:2; stroke-opacity:1; fill:none" points="
  622.566,69.6115 625.671,72.7072 
  "/>
<polyline clip-path="url(#clip5302)" style="stroke:#009af9; stroke-width:2; stroke-opacity:1; fill:none" points="
  625.671,72.7072 628.777,75.8054 
  "/>
<polyline clip-path="url(#clip5302)" style="stroke:#009af9; stroke-width:2; stroke-opacity:1; fill:none" points="
  628.777,75.8054 631.882,78.9056 
  "/>
<polyline clip-path="url(#clip5302)" style="stroke:#009af9; stroke-width:2; stroke-opacity:1; fill:none" points="
  631.882,78.9056 634.988,82.0071 
  "/>
<polyline clip-path="url(#clip5302)" style="stroke:#009af9; stroke-width:2; stroke-opacity:1; fill:none" points="
  634.988,82.0071 638.093,85.1097 
  "/>
<polyline clip-path="url(#clip5302)" style="stroke:#009af9; stroke-width:2; stroke-opacity:1; fill:none" points="
  638.093,85.1097 641.199,88.2131 
  "/>
<polyline clip-path="url(#clip5302)" style="stroke:#009af9; stroke-width:2; stroke-opacity:1; fill:none" points="
  641.199,88.2131 644.304,91.317 
  "/>
<polyline clip-path="url(#clip5302)" style="stroke:#009af9; stroke-width:2; stroke-opacity:1; fill:none" points="
  644.304,91.317 647.41,94.4213 
  "/>
<polyline clip-path="url(#clip5302)" style="stroke:#009af9; stroke-width:2; stroke-opacity:1; fill:none" points="
  647.41,94.4213 650.515,97.5259 
  "/>
<polyline clip-path="url(#clip5302)" style="stroke:#009af9; stroke-width:2; stroke-opacity:1; fill:none" points="
  650.515,97.5259 653.621,100.631 
  "/>
<polyline clip-path="url(#clip5302)" style="stroke:#009af9; stroke-width:2; stroke-opacity:1; fill:none" points="
  653.621,100.631 656.726,103.736 
  "/>
<polyline clip-path="url(#clip5302)" style="stroke:#009af9; stroke-width:2; stroke-opacity:1; fill:none" points="
  656.726,103.736 659.832,106.841 
  "/>
<polyline clip-path="url(#clip5302)" style="stroke:#009af9; stroke-width:2; stroke-opacity:1; fill:none" points="
  659.832,106.841 662.937,109.946 
  "/>
<polyline clip-path="url(#clip5302)" style="stroke:#009af9; stroke-width:2; stroke-opacity:1; fill:none" points="
  662.937,109.946 666.043,113.052 
  "/>
<polyline clip-path="url(#clip5302)" style="stroke:#009af9; stroke-width:2; stroke-opacity:1; fill:none" points="
  666.043,113.052 669.148,116.157 
  "/>
<polyline clip-path="url(#clip5302)" style="stroke:#009af9; stroke-width:2; stroke-opacity:1; fill:none" points="
  669.148,116.157 672.254,119.262 
  "/>
<polyline clip-path="url(#clip5302)" style="stroke:#009af9; stroke-width:2; stroke-opacity:1; fill:none" points="
  672.254,119.262 675.359,122.368 
  "/>
<polyline clip-path="url(#clip5302)" style="stroke:#009af9; stroke-width:2; stroke-opacity:1; fill:none" points="
  675.359,122.368 678.465,125.473 
  "/>
<polyline clip-path="url(#clip5302)" style="stroke:#009af9; stroke-width:2; stroke-opacity:1; fill:none" points="
  678.465,125.473 681.571,128.579 
  "/>
<polyline clip-path="url(#clip5302)" style="stroke:#009af9; stroke-width:2; stroke-opacity:1; fill:none" points="
  681.571,128.579 684.676,131.684 
  "/>
<polyline clip-path="url(#clip5302)" style="stroke:#009af9; stroke-width:2; stroke-opacity:1; fill:none" points="
  684.676,131.684 687.782,134.79 
  "/>
<polyline clip-path="url(#clip5302)" style="stroke:#009af9; stroke-width:2; stroke-opacity:1; fill:none" points="
  687.782,134.79 690.887,137.895 
  "/>
<polyline clip-path="url(#clip5302)" style="stroke:#009af9; stroke-width:2; stroke-opacity:1; fill:none" points="
  690.887,137.895 693.993,141.001 
  "/>
<polyline clip-path="url(#clip5302)" style="stroke:#009af9; stroke-width:2; stroke-opacity:1; fill:none" points="
  693.993,141.001 697.098,144.106 
  "/>
<polyline clip-path="url(#clip5302)" style="stroke:#009af9; stroke-width:2; stroke-opacity:1; fill:none" points="
  697.098,144.106 700.204,147.212 
  "/>
<polyline clip-path="url(#clip5302)" style="stroke:#009af9; stroke-width:2; stroke-opacity:1; fill:none" points="
  700.204,147.212 703.309,150.317 
  "/>
<polyline clip-path="url(#clip5302)" style="stroke:#009af9; stroke-width:2; stroke-opacity:1; fill:none" points="
  703.309,150.317 706.415,153.423 
  "/>
<polyline clip-path="url(#clip5302)" style="stroke:#009af9; stroke-width:2; stroke-opacity:1; fill:none" points="
  706.415,153.423 709.52,156.528 
  "/>
<polyline clip-path="url(#clip5302)" style="stroke:#009af9; stroke-width:2; stroke-opacity:1; fill:none" points="
  709.52,156.528 712.626,159.634 
  "/>
<polyline clip-path="url(#clip5302)" style="stroke:#009af9; stroke-width:2; stroke-opacity:1; fill:none" points="
  712.626,159.634 715.731,162.739 
  "/>
<polyline clip-path="url(#clip5302)" style="stroke:#009af9; stroke-width:2; stroke-opacity:1; fill:none" points="
  715.731,162.739 718.837,165.845 
  "/>
<polyline clip-path="url(#clip5302)" style="stroke:#009af9; stroke-width:2; stroke-opacity:1; fill:none" points="
  718.837,165.845 721.942,168.95 
  "/>
<polyline clip-path="url(#clip5302)" style="stroke:#009af9; stroke-width:2; stroke-opacity:1; fill:none" points="
  721.942,168.95 725.048,172.056 
  "/>
<polyline clip-path="url(#clip5302)" style="stroke:#009af9; stroke-width:2; stroke-opacity:1; fill:none" points="
  725.048,172.056 728.153,175.162 
  "/>
<polyline clip-path="url(#clip5302)" style="stroke:#009af9; stroke-width:2; stroke-opacity:1; fill:none" points="
  728.153,175.162 731.259,178.267 
  "/>
<polyline clip-path="url(#clip5302)" style="stroke:#009af9; stroke-width:2; stroke-opacity:1; fill:none" points="
  731.259,178.267 734.364,181.373 
  "/>
<polyline clip-path="url(#clip5302)" style="stroke:#009af9; stroke-width:2; stroke-opacity:1; fill:none" points="
  734.364,181.373 737.47,184.478 
  "/>
<polyline clip-path="url(#clip5302)" style="stroke:#009af9; stroke-width:2; stroke-opacity:1; fill:none" points="
  737.47,184.478 740.575,187.584 
  "/>
<polyline clip-path="url(#clip5302)" style="stroke:#009af9; stroke-width:2; stroke-opacity:1; fill:none" points="
  740.575,187.584 743.681,190.689 
  "/>
<polyline clip-path="url(#clip5302)" style="stroke:#009af9; stroke-width:2; stroke-opacity:1; fill:none" points="
  743.681,190.689 746.786,193.795 
  "/>
<polyline clip-path="url(#clip5302)" style="stroke:#009af9; stroke-width:2; stroke-opacity:1; fill:none" points="
  746.786,193.795 749.892,196.9 
  "/>
<polyline clip-path="url(#clip5302)" style="stroke:#009af9; stroke-width:2; stroke-opacity:1; fill:none" points="
  749.892,196.9 752.998,200.006 
  "/>
<polyline clip-path="url(#clip5302)" style="stroke:#009af9; stroke-width:2; stroke-opacity:1; fill:none" points="
  752.998,200.006 756.103,203.111 
  "/>
<polyline clip-path="url(#clip5302)" style="stroke:#009af9; stroke-width:2; stroke-opacity:1; fill:none" points="
  756.103,203.111 759.209,206.217 
  "/>
<polyline clip-path="url(#clip5302)" style="stroke:#009af9; stroke-width:2; stroke-opacity:1; fill:none" points="
  759.209,206.217 762.314,209.322 
  "/>
<polyline clip-path="url(#clip5302)" style="stroke:#009af9; stroke-width:2; stroke-opacity:1; fill:none" points="
  762.314,209.322 765.42,212.428 
  "/>
<polyline clip-path="url(#clip5302)" style="stroke:#009af9; stroke-width:2; stroke-opacity:1; fill:none" points="
  765.42,212.428 768.525,215.533 
  "/>
<polyline clip-path="url(#clip5302)" style="stroke:#009af9; stroke-width:2; stroke-opacity:1; fill:none" points="
  768.525,215.533 771.631,218.639 
  "/>
<polyline clip-path="url(#clip5302)" style="stroke:#009af9; stroke-width:2; stroke-opacity:1; fill:none" points="
  771.631,218.639 774.736,221.744 
  "/>
<polyline clip-path="url(#clip5302)" style="stroke:#009af9; stroke-width:2; stroke-opacity:1; fill:none" points="
  774.736,221.744 777.842,224.85 
  "/>
<polyline clip-path="url(#clip5302)" style="stroke:#009af9; stroke-width:2; stroke-opacity:1; fill:none" points="
  777.842,224.85 780.947,227.955 
  "/>
<polyline clip-path="url(#clip5302)" style="stroke:#009af9; stroke-width:2; stroke-opacity:1; fill:none" points="
  780.947,227.955 784.053,231.061 
  "/>
<polyline clip-path="url(#clip5302)" style="stroke:#009af9; stroke-width:2; stroke-opacity:1; fill:none" points="
  784.053,231.061 787.158,234.166 
  "/>
<polyline clip-path="url(#clip5302)" style="stroke:#009af9; stroke-width:2; stroke-opacity:1; fill:none" points="
  787.158,234.166 790.264,237.272 
  "/>
<polyline clip-path="url(#clip5302)" style="stroke:#009af9; stroke-width:2; stroke-opacity:1; fill:none" points="
  790.264,237.272 793.369,240.377 
  "/>
<polyline clip-path="url(#clip5302)" style="stroke:#009af9; stroke-width:2; stroke-opacity:1; fill:none" points="
  793.369,240.377 796.475,243.483 
  "/>
<polyline clip-path="url(#clip5302)" style="stroke:#009af9; stroke-width:2; stroke-opacity:1; fill:none" points="
  796.475,243.483 799.58,246.589 
  "/>
<polyline clip-path="url(#clip5302)" style="stroke:#009af9; stroke-width:2; stroke-opacity:1; fill:none" points="
  799.58,246.589 802.686,249.694 
  "/>
<polyline clip-path="url(#clip5302)" style="stroke:#009af9; stroke-width:2; stroke-opacity:1; fill:none" points="
  802.686,249.694 805.791,252.8 
  "/>
<polyline clip-path="url(#clip5302)" style="stroke:#009af9; stroke-width:2; stroke-opacity:1; fill:none" points="
  805.791,252.8 808.897,255.905 
  "/>
<polyline clip-path="url(#clip5302)" style="stroke:#009af9; stroke-width:2; stroke-opacity:1; fill:none" points="
  808.897,255.905 812.002,259.011 
  "/>
</svg>
