<?xml version="1.0" encoding="utf-8"?>
<svg xmlns="http://www.w3.org/2000/svg" xmlns:xlink="http://www.w3.org/1999/xlink" width="600" height="400" viewBox="0 0 600 400">
<defs>
  <clipPath id="clip00">
    <rect x="0" y="0" width="600" height="400"/>
  </clipPath>
</defs>
<polygon clip-path="url(#clip2000)" points="
0,400 600,400 600,0 0,0 
  " fill="#ffffff" fill-opacity="1"/>
<defs>
  <clipPath id="clip01">
    <rect x="120" y="0" width="421" height="400"/>
  </clipPath>
</defs>
<polygon clip-path="url(#clip2000)" points="
108.651,360.065 526.556,360.065 526.556,11.811 108.651,11.811 
  " fill="#ffffff" fill-opacity="1"/>
<defs>
  <clipPath id="clip02">
    <rect x="108" y="11" width="419" height="349"/>
  </clipPath>
</defs>
<polyline clip-path="url(#clip2000)" style="stroke:#000000; stroke-width:1; stroke-opacity:1; fill:none" points="
  108.651,360.065 526.556,360.065 
  "/>
<polyline clip-path="url(#clip2000)" style="stroke:#000000; stroke-width:1; stroke-opacity:1; fill:none" points="
  108.651,360.065 108.651,11.811 
  "/>
<polyline clip-path="url(#clip2000)" style="stroke:#000000; stroke-width:1; stroke-opacity:1; fill:none" points="
  143.476,360.065 143.476,354.842 
  "/>
<polyline clip-path="url(#clip2000)" style="stroke:#000000; stroke-width:1; stroke-opacity:1; fill:none" points="
  230.54,360.065 230.54,354.842 
  "/>
<polyline clip-path="url(#clip2000)" style="stroke:#000000; stroke-width:1; stroke-opacity:1; fill:none" points="
  317.603,360.065 317.603,354.842 
  "/>
<polyline clip-path="url(#clip2000)" style="stroke:#000000; stroke-width:1; stroke-opacity:1; fill:none" points="
  404.667,360.065 404.667,354.842 
  "/>
<polyline clip-path="url(#clip2000)" style="stroke:#000000; stroke-width:1; stroke-opacity:1; fill:none" points="
  491.73,360.065 491.73,354.842 
  "/>
<polyline clip-path="url(#clip2000)" style="stroke:#000000; stroke-width:1; stroke-opacity:1; fill:none" points="
  108.651,360.065 114.919,360.065 
  "/>
<polyline clip-path="url(#clip2000)" style="stroke:#000000; stroke-width:1; stroke-opacity:1; fill:none" points="
  108.651,273.002 114.919,273.002 
  "/>
<polyline clip-path="url(#clip2000)" style="stroke:#000000; stroke-width:1; stroke-opacity:1; fill:none" points="
  108.651,185.938 114.919,185.938 
  "/>
<polyline clip-path="url(#clip2000)" style="stroke:#000000; stroke-width:1; stroke-opacity:1; fill:none" points="
  108.651,98.8746 114.919,98.8746 
  "/>
<polyline clip-path="url(#clip2000)" style="stroke:#000000; stroke-width:1; stroke-opacity:1; fill:none" points="
  108.651,11.811 114.919,11.811 
  "/>
<g clip-path="url(#clip2000)">
<text style="fill:#000000; fill-opacity:1; font-family:Arial,Helvetica Neue,Helvetica,sans-serif; font-size:12; text-anchor:middle;" transform="rotate(0, 143.476, 373.865)" x="143.476" y="373.865">-1.0</text>
</g>
<g clip-path="url(#clip2000)">
<text style="fill:#000000; fill-opacity:1; font-family:Arial,Helvetica Neue,Helvetica,sans-serif; font-size:12; text-anchor:middle;" transform="rotate(0, 230.54, 373.865)" x="230.54" y="373.865">-0.5</text>
</g>
<g clip-path="url(#clip2000)">
<text style="fill:#000000; fill-opacity:1; font-family:Arial,Helvetica Neue,Helvetica,sans-serif; font-size:12; text-anchor:middle;" transform="rotate(0, 317.603, 373.865)" x="317.603" y="373.865">0.0</text>
</g>
<g clip-path="url(#clip2000)">
<text style="fill:#000000; fill-opacity:1; font-family:Arial,Helvetica Neue,Helvetica,sans-serif; font-size:12; text-anchor:middle;" transform="rotate(0, 404.667, 373.865)" x="404.667" y="373.865">0.5</text>
</g>
<g clip-path="url(#clip2000)">
<text style="fill:#000000; fill-opacity:1; font-family:Arial,Helvetica Neue,Helvetica,sans-serif; font-size:12; text-anchor:middle;" transform="rotate(0, 491.73, 373.865)" x="491.73" y="373.865">1.0</text>
</g>
<g clip-path="url(#clip2000)">
<text style="fill:#000000; fill-opacity:1; font-family:Arial,Helvetica Neue,Helvetica,sans-serif; font-size:12; text-anchor:end;" transform="rotate(0, 102.651, 364.565)" x="102.651" y="364.565">-2.0</text>
</g>
<g clip-path="url(#clip2000)">
<text style="fill:#000000; fill-opacity:1; font-family:Arial,Helvetica Neue,Helvetica,sans-serif; font-size:12; text-anchor:end;" transform="rotate(0, 102.651, 277.502)" x="102.651" y="277.502">-1.5</text>
</g>
<g clip-path="url(#clip2000)">
<text style="fill:#000000; fill-opacity:1; font-family:Arial,Helvetica Neue,Helvetica,sans-serif; font-size:12; text-anchor:end;" transform="rotate(0, 102.651, 190.438)" x="102.651" y="190.438">-1.0</text>
</g>
<g clip-path="url(#clip2000)">
<text style="fill:#000000; fill-opacity:1; font-family:Arial,Helvetica Neue,Helvetica,sans-serif; font-size:12; text-anchor:end;" transform="rotate(0, 102.651, 103.375)" x="102.651" y="103.375">-0.5</text>
</g>
<g clip-path="url(#clip2000)">
<text style="fill:#000000; fill-opacity:1; font-family:Arial,Helvetica Neue,Helvetica,sans-serif; font-size:12; text-anchor:end;" transform="rotate(0, 102.651, 16.311)" x="102.651" y="16.311">0.0</text>
</g>
<g clip-path="url(#clip2000)">
<text style="fill:#000000; fill-opacity:1; font-family:Arial,Helvetica Neue,Helvetica,sans-serif; font-size:16; text-anchor:middle;" transform="rotate(0, 317.603, 397.6)" x="317.603" y="397.6">t</text>
</g>
<g clip-path="url(#clip2000)">
<text style="fill:#000000; fill-opacity:1; font-family:Arial,Helvetica Neue,Helvetica,sans-serif; font-size:16; text-anchor:middle;" transform="rotate(-90, 14.4, 185.938)" x="14.4" y="185.938">Smoothed Ramp</text>
</g>
<polyline clip-path="url(#clip2002)" style="stroke:#009af9; stroke-width:2; stroke-opacity:1; fill:none" points="
  143.476,11.811 147.851,11.811 
  "/>
<polyline clip-path="url(#clip2002)" style="stroke:#009af9; stroke-width:2; stroke-opacity:1; fill:none" points="
  147.851,11.811 152.226,11.811 
  "/>
<polyline clip-path="url(#clip2002)" style="stroke:#009af9; stroke-width:2; stroke-opacity:1; fill:none" points="
  152.226,11.811 156.601,11.811 
  "/>
<polyline clip-path="url(#clip2002)" style="stroke:#009af9; stroke-width:2; stroke-opacity:1; fill:none" points="
  156.601,11.811 160.976,11.811 
  "/>
<polyline clip-path="url(#clip2002)" style="stroke:#009af9; stroke-width:2; stroke-opacity:1; fill:none" points="
  160.976,11.811 165.351,11.811 
  "/>
<polyline clip-path="url(#clip2002)" style="stroke:#009af9; stroke-width:2; stroke-opacity:1; fill:none" points="
  165.351,11.811 169.726,11.811 
  "/>
<polyline clip-path="url(#clip2002)" style="stroke:#009af9; stroke-width:2; stroke-opacity:1; fill:none" points="
  169.726,11.811 174.101,11.811 
  "/>
<polyline clip-path="url(#clip2002)" style="stroke:#009af9; stroke-width:2; stroke-opacity:1; fill:none" points="
  174.101,11.811 178.477,11.811 
  "/>
<polyline clip-path="url(#clip2002)" style="stroke:#009af9; stroke-width:2; stroke-opacity:1; fill:none" points="
  178.477,11.811 182.852,11.811 
  "/>
<polyline clip-path="url(#clip2002)" style="stroke:#009af9; stroke-width:2; stroke-opacity:1; fill:none" points="
  182.852,11.811 187.227,11.811 
  "/>
<polyline clip-path="url(#clip2002)" style="stroke:#009af9; stroke-width:2; stroke-opacity:1; fill:none" points="
  187.227,11.811 191.602,11.811 
  "/>
<polyline clip-path="url(#clip2002)" style="stroke:#009af9; stroke-width:2; stroke-opacity:1; fill:none" points="
  191.602,11.811 195.977,11.811 
  "/>
<polyline clip-path="url(#clip2002)" style="stroke:#009af9; stroke-width:2; stroke-opacity:1; fill:none" points="
  195.977,11.811 200.352,11.811 
  "/>
<polyline clip-path="url(#clip2002)" style="stroke:#009af9; stroke-width:2; stroke-opacity:1; fill:none" points="
  200.352,11.811 204.727,11.811 
  "/>
<polyline clip-path="url(#clip2002)" style="stroke:#009af9; stroke-width:2; stroke-opacity:1; fill:none" points="
  204.727,11.811 209.102,11.811 
  "/>
<polyline clip-path="url(#clip2002)" style="stroke:#009af9; stroke-width:2; stroke-opacity:1; fill:none" points="
  209.102,11.811 213.477,11.811 
  "/>
<polyline clip-path="url(#clip2002)" style="stroke:#009af9; stroke-width:2; stroke-opacity:1; fill:none" points="
  213.477,11.811 217.852,11.811 
  "/>
<polyline clip-path="url(#clip2002)" style="stroke:#009af9; stroke-width:2; stroke-opacity:1; fill:none" points="
  217.852,11.811 222.227,11.811 
  "/>
<polyline clip-path="url(#clip2002)" style="stroke:#009af9; stroke-width:2; stroke-opacity:1; fill:none" points="
  222.227,11.811 226.602,11.811 
  "/>
<polyline clip-path="url(#clip2002)" style="stroke:#009af9; stroke-width:2; stroke-opacity:1; fill:none" points="
  226.602,11.811 230.977,11.811 
  "/>
<polyline clip-path="url(#clip2002)" style="stroke:#009af9; stroke-width:2; stroke-opacity:1; fill:none" points="
  230.977,11.811 235.352,11.811 
  "/>
<polyline clip-path="url(#clip2002)" style="stroke:#009af9; stroke-width:2; stroke-opacity:1; fill:none" points="
  235.352,11.811 239.727,11.811 
  "/>
<polyline clip-path="url(#clip2002)" style="stroke:#009af9; stroke-width:2; stroke-opacity:1; fill:none" points="
  239.727,11.811 244.102,11.811 
  "/>
<polyline clip-path="url(#clip2002)" style="stroke:#009af9; stroke-width:2; stroke-opacity:1; fill:none" points="
  244.102,11.811 248.477,11.811 
  "/>
<polyline clip-path="url(#clip2002)" style="stroke:#009af9; stroke-width:2; stroke-opacity:1; fill:none" points="
  248.477,11.811 252.852,11.811 
  "/>
<polyline clip-path="url(#clip2002)" style="stroke:#009af9; stroke-width:2; stroke-opacity:1; fill:none" points="
  252.852,11.811 257.228,11.811 
  "/>
<polyline clip-path="url(#clip2002)" style="stroke:#009af9; stroke-width:2; stroke-opacity:1; fill:none" points="
  257.228,11.811 261.603,11.811 
  "/>
<polyline clip-path="url(#clip2002)" style="stroke:#009af9; stroke-width:2; stroke-opacity:1; fill:none" points="
  261.603,11.811 265.978,11.811 
  "/>
<polyline clip-path="url(#clip2002)" style="stroke:#009af9; stroke-width:2; stroke-opacity:1; fill:none" points="
  265.978,11.811 270.353,11.811 
  "/>
<polyline clip-path="url(#clip2002)" style="stroke:#009af9; stroke-width:2; stroke-opacity:1; fill:none" points="
  270.353,11.811 274.728,11.811 
  "/>
<polyline clip-path="url(#clip2002)" style="stroke:#009af9; stroke-width:2; stroke-opacity:1; fill:none" points="
  274.728,11.811 279.103,11.811 
  "/>
<polyline clip-path="url(#clip2002)" style="stroke:#009af9; stroke-width:2; stroke-opacity:1; fill:none" points="
  279.103,11.811 283.478,11.811 
  "/>
<polyline clip-path="url(#clip2002)" style="stroke:#009af9; stroke-width:2; stroke-opacity:1; fill:none" points="
  283.478,11.811 287.853,11.811 
  "/>
<polyline clip-path="url(#clip2002)" style="stroke:#009af9; stroke-width:2; stroke-opacity:1; fill:none" points="
  287.853,11.811 292.228,11.811 
  "/>
<polyline clip-path="url(#clip2002)" style="stroke:#009af9; stroke-width:2; stroke-opacity:1; fill:none" points="
  292.228,11.811 296.603,11.811 
  "/>
<polyline clip-path="url(#clip2002)" style="stroke:#009af9; stroke-width:2; stroke-opacity:1; fill:none" points="
  296.603,11.811 300.978,11.811 
  "/>
<polyline clip-path="url(#clip2002)" style="stroke:#009af9; stroke-width:2; stroke-opacity:1; fill:none" points="
  300.978,11.811 305.353,11.811 
  "/>
<polyline clip-path="url(#clip2002)" style="stroke:#009af9; stroke-width:2; stroke-opacity:1; fill:none" points="
  305.353,11.811 309.728,11.811 
  "/>
<polyline clip-path="url(#clip2002)" style="stroke:#009af9; stroke-width:2; stroke-opacity:1; fill:none" points="
  309.728,11.811 314.103,11.811 
  "/>
<polyline clip-path="url(#clip2002)" style="stroke:#009af9; stroke-width:2; stroke-opacity:1; fill:none" points="
  314.103,11.811 318.478,11.811 
  "/>
<polyline clip-path="url(#clip2002)" style="stroke:#009af9; stroke-width:2; stroke-opacity:1; fill:none" points="
  318.478,11.811 322.853,11.811 
  "/>
<polyline clip-path="url(#clip2002)" style="stroke:#009af9; stroke-width:2; stroke-opacity:1; fill:none" points="
  322.853,11.811 327.228,11.811 
  "/>
<polyline clip-path="url(#clip2002)" style="stroke:#009af9; stroke-width:2; stroke-opacity:1; fill:none" points="
  327.228,11.811 331.603,11.811 
  "/>
<polyline clip-path="url(#clip2002)" style="stroke:#009af9; stroke-width:2; stroke-opacity:1; fill:none" points="
  331.603,11.811 335.979,11.811 
  "/>
<polyline clip-path="url(#clip2002)" style="stroke:#009af9; stroke-width:2; stroke-opacity:1; fill:none" points="
  335.979,11.811 340.354,11.811 
  "/>
<polyline clip-path="url(#clip2002)" style="stroke:#009af9; stroke-width:2; stroke-opacity:1; fill:none" points="
  340.354,11.811 344.729,11.811 
  "/>
<polyline clip-path="url(#clip2002)" style="stroke:#009af9; stroke-width:2; stroke-opacity:1; fill:none" points="
  344.729,11.811 349.104,11.811 
  "/>
<polyline clip-path="url(#clip2002)" style="stroke:#009af9; stroke-width:2; stroke-opacity:1; fill:none" points="
  349.104,11.811 353.479,11.811 
  "/>
<polyline clip-path="url(#clip2002)" style="stroke:#009af9; stroke-width:2; stroke-opacity:1; fill:none" points="
  353.479,11.811 357.854,11.811 
  "/>
<polyline clip-path="url(#clip2002)" style="stroke:#009af9; stroke-width:2; stroke-opacity:1; fill:none" points="
  357.854,11.811 362.229,11.811 
  "/>
<polyline clip-path="url(#clip2002)" style="stroke:#009af9; stroke-width:2; stroke-opacity:1; fill:none" points="
  362.229,11.811 366.604,11.811 
  "/>
<polyline clip-path="url(#clip2002)" style="stroke:#009af9; stroke-width:2; stroke-opacity:1; fill:none" points="
  366.604,11.811 370.979,11.811 
  "/>
<polyline clip-path="url(#clip2002)" style="stroke:#009af9; stroke-width:2; stroke-opacity:1; fill:none" points="
  370.979,11.811 375.354,11.811 
  "/>
<polyline clip-path="url(#clip2002)" style="stroke:#009af9; stroke-width:2; stroke-opacity:1; fill:none" points="
  375.354,11.811 379.729,11.811 
  "/>
<polyline clip-path="url(#clip2002)" style="stroke:#009af9; stroke-width:2; stroke-opacity:1; fill:none" points="
  379.729,11.811 384.104,11.811 
  "/>
<polyline clip-path="url(#clip2002)" style="stroke:#009af9; stroke-width:2; stroke-opacity:1; fill:none" points="
  384.104,11.811 388.479,11.811 
  "/>
<polyline clip-path="url(#clip2002)" style="stroke:#009af9; stroke-width:2; stroke-opacity:1; fill:none" points="
  388.479,11.811 392.854,11.811 
  "/>
<polyline clip-path="url(#clip2002)" style="stroke:#009af9; stroke-width:2; stroke-opacity:1; fill:none" points="
  392.854,11.811 397.229,11.811 
  "/>
<polyline clip-path="url(#clip2002)" style="stroke:#009af9; stroke-width:2; stroke-opacity:1; fill:none" points="
  397.229,11.811 401.604,11.811 
  "/>
<polyline clip-path="url(#clip2002)" style="stroke:#009af9; stroke-width:2; stroke-opacity:1; fill:none" points="
  401.604,11.811 405.979,11.811 
  "/>
<polyline clip-path="url(#clip2002)" style="stroke:#009af9; stroke-width:2; stroke-opacity:1; fill:none" points="
  405.979,11.811 410.354,11.811 
  "/>
<polyline clip-path="url(#clip2002)" style="stroke:#009af9; stroke-width:2; stroke-opacity:1; fill:none" points="
  410.354,11.811 414.73,11.811 
  "/>
<polyline clip-path="url(#clip2002)" style="stroke:#009af9; stroke-width:2; stroke-opacity:1; fill:none" points="
  414.73,11.811 419.105,11.811 
  "/>
<polyline clip-path="url(#clip2002)" style="stroke:#009af9; stroke-width:2; stroke-opacity:1; fill:none" points="
  419.105,11.811 423.48,11.811 
  "/>
<polyline clip-path="url(#clip2002)" style="stroke:#009af9; stroke-width:2; stroke-opacity:1; fill:none" points="
  423.48,11.811 427.855,11.811 
  "/>
<polyline clip-path="url(#clip2002)" style="stroke:#009af9; stroke-width:2; stroke-opacity:1; fill:none" points="
  427.855,11.811 432.23,11.811 
  "/>
<polyline clip-path="url(#clip2002)" style="stroke:#009af9; stroke-width:2; stroke-opacity:1; fill:none" points="
  432.23,11.811 436.605,11.811 
  "/>
<polyline clip-path="url(#clip2002)" style="stroke:#009af9; stroke-width:2; stroke-opacity:1; fill:none" points="
  436.605,11.811 440.98,11.811 
  "/>
<polyline clip-path="url(#clip2002)" style="stroke:#009af9; stroke-width:2; stroke-opacity:1; fill:none" points="
  440.98,11.811 445.355,11.811 
  "/>
<polyline clip-path="url(#clip2002)" style="stroke:#009af9; stroke-width:2; stroke-opacity:1; fill:none" points="
  445.355,11.811 449.73,11.811 
  "/>
<polyline clip-path="url(#clip2002)" style="stroke:#009af9; stroke-width:2; stroke-opacity:1; fill:none" points="
  449.73,11.811 454.105,11.811 
  "/>
<polyline clip-path="url(#clip2002)" style="stroke:#009af9; stroke-width:2; stroke-opacity:1; fill:none" points="
  454.105,11.811 458.48,11.811 
  "/>
<polyline clip-path="url(#clip2002)" style="stroke:#009af9; stroke-width:2; stroke-opacity:1; fill:none" points="
  458.48,11.811 462.855,11.811 
  "/>
<polyline clip-path="url(#clip2002)" style="stroke:#009af9; stroke-width:2; stroke-opacity:1; fill:none" points="
  462.855,11.811 467.23,11.811 
  "/>
<polyline clip-path="url(#clip2002)" style="stroke:#009af9; stroke-width:2; stroke-opacity:1; fill:none" points="
  467.23,11.811 471.605,11.811 
  "/>
<polyline clip-path="url(#clip2002)" style="stroke:#009af9; stroke-width:2; stroke-opacity:1; fill:none" points="
  471.605,11.811 475.98,11.8111 
  "/>
<polyline clip-path="url(#clip2002)" style="stroke:#009af9; stroke-width:2; stroke-opacity:1; fill:none" points="
  475.98,11.8111 480.355,11.8111 
  "/>
<polyline clip-path="url(#clip2002)" style="stroke:#009af9; stroke-width:2; stroke-opacity:1; fill:none" points="
  480.355,11.8111 484.73,11.8111 
  "/>
<polyline clip-path="url(#clip2002)" style="stroke:#009af9; stroke-width:2; stroke-opacity:1; fill:none" points="
  484.73,11.8111 489.105,11.8111 
  "/>
<polyline clip-path="url(#clip2002)" style="stroke:#009af9; stroke-width:2; stroke-opacity:1; fill:none" points="
  489.105,11.8111 493.481,11.8111 
  "/>
<polyline clip-path="url(#clip2002)" style="stroke:#009af9; stroke-width:2; stroke-opacity:1; fill:none" points="
  493.481,11.8111 497.856,11.8112 
  "/>
<polyline clip-path="url(#clip2002)" style="stroke:#009af9; stroke-width:2; stroke-opacity:1; fill:none" points="
  497.856,11.8112 502.231,11.8112 
  "/>
<polyline clip-path="url(#clip2002)" style="stroke:#009af9; stroke-width:2; stroke-opacity:1; fill:none" points="
  502.231,11.8112 506.606,11.8113 
  "/>
<polyline clip-path="url(#clip2002)" style="stroke:#009af9; stroke-width:2; stroke-opacity:1; fill:none" points="
  506.606,11.8113 510.981,11.8114 
  "/>
<polyline clip-path="url(#clip2002)" style="stroke:#009af9; stroke-width:2; stroke-opacity:1; fill:none" points="
  510.981,11.8114 515.356,11.8115 
  "/>
<polyline clip-path="url(#clip2002)" style="stroke:#009af9; stroke-width:2; stroke-opacity:1; fill:none" points="
  515.356,11.8115 519.731,11.8116 
  "/>
<polyline clip-path="url(#clip2002)" style="stroke:#009af9; stroke-width:2; stroke-opacity:1; fill:none" points="
  519.731,11.8116 524.106,11.8119 
  "/>
<polyline clip-path="url(#clip2002)" style="stroke:#009af9; stroke-width:2; stroke-opacity:1; fill:none" points="
  524.106,11.8119 528.481,11.8121 
  "/>
<polyline clip-path="url(#clip2002)" style="stroke:#009af9; stroke-width:2; stroke-opacity:1; fill:none" points="
  528.481,11.8121 532.856,11.8125 
  "/>
<polyline clip-path="url(#clip2002)" style="stroke:#009af9; stroke-width:2; stroke-opacity:1; fill:none" points="
  532.856,11.8125 537.231,11.8131 
  "/>
<polyline clip-path="url(#clip2002)" style="stroke:#009af9; stroke-width:2; stroke-opacity:1; fill:none" points="
  537.231,11.8131 541.606,11.8138 
  "/>
<polyline clip-path="url(#clip2002)" style="stroke:#009af9; stroke-width:2; stroke-opacity:1; fill:none" points="
  541.606,11.8138 545.981,11.8148 
  "/>
<polyline clip-path="url(#clip2002)" style="stroke:#009af9; stroke-width:2; stroke-opacity:1; fill:none" points="
  545.981,11.8148 550.356,11.8161 
  "/>
<polyline clip-path="url(#clip2002)" style="stroke:#009af9; stroke-width:2; stroke-opacity:1; fill:none" points="
  550.356,11.8161 554.731,11.8179 
  "/>
<polyline clip-path="url(#clip2002)" style="stroke:#009af9; stroke-width:2; stroke-opacity:1; fill:none" points="
  554.731,11.8179 559.106,11.8203 
  "/>
<polyline clip-path="url(#clip2002)" style="stroke:#009af9; stroke-width:2; stroke-opacity:1; fill:none" points="
  559.106,11.8203 563.481,11.8235 
  "/>
<polyline clip-path="url(#clip2002)" style="stroke:#009af9; stroke-width:2; stroke-opacity:1; fill:none" points="
  563.481,11.8235 567.856,11.8279 
  "/>
<polyline clip-path="url(#clip2002)" style="stroke:#009af9; stroke-width:2; stroke-opacity:1; fill:none" points="
  567.856,11.8279 572.232,11.8339 
  "/>
<polyline clip-path="url(#clip2002)" style="stroke:#009af9; stroke-width:2; stroke-opacity:1; fill:none" points="
  572.232,11.8339 576.607,11.8419 
  "/>
<polyline clip-path="url(#clip2002)" style="stroke:#009af9; stroke-width:2; stroke-opacity:1; fill:none" points="
  576.607,11.8419 580.982,11.8528 
  "/>
<polyline clip-path="url(#clip2002)" style="stroke:#009af9; stroke-width:2; stroke-opacity:1; fill:none" points="
  580.982,11.8528 585.357,11.8675 
  "/>
<polyline clip-path="url(#clip2002)" style="stroke:#009af9; stroke-width:2; stroke-opacity:1; fill:none" points="
  585.357,11.8675 589.732,11.8873 
  "/>
<polyline clip-path="url(#clip2002)" style="stroke:#009af9; stroke-width:2; stroke-opacity:1; fill:none" points="
  589.732,11.8873 594.107,11.914 
  "/>
<polyline clip-path="url(#clip2002)" style="stroke:#009af9; stroke-width:2; stroke-opacity:1; fill:none" points="
  594.107,11.914 598.482,11.95 
  "/>
<polyline clip-path="url(#clip2002)" style="stroke:#009af9; stroke-width:2; stroke-opacity:1; fill:none" points="
  598.482,11.95 602.857,11.9987 
  "/>
<polyline clip-path="url(#clip2002)" style="stroke:#009af9; stroke-width:2; stroke-opacity:1; fill:none" points="
  602.857,11.9987 607.232,12.0641 
  "/>
<polyline clip-path="url(#clip2002)" style="stroke:#009af9; stroke-width:2; stroke-opacity:1; fill:none" points="
  607.232,12.0641 611.607,12.1521 
  "/>
<polyline clip-path="url(#clip2002)" style="stroke:#009af9; stroke-width:2; stroke-opacity:1; fill:none" points="
  611.607,12.1521 615.982,12.2703 
  "/>
<polyline clip-path="url(#clip2002)" style="stroke:#009af9; stroke-width:2; stroke-opacity:1; fill:none" points="
  615.982,12.2703 620.357,12.4285 
  "/>
<polyline clip-path="url(#clip2002)" style="stroke:#009af9; stroke-width:2; stroke-opacity:1; fill:none" points="
  620.357,12.4285 624.732,12.6397 
  "/>
<polyline clip-path="url(#clip2002)" style="stroke:#009af9; stroke-width:2; stroke-opacity:1; fill:none" points="
  624.732,12.6397 629.107,12.9203 
  "/>
<polyline clip-path="url(#clip2002)" style="stroke:#009af9; stroke-width:2; stroke-opacity:1; fill:none" points="
  629.107,12.9203 633.482,13.2914 
  "/>
<polyline clip-path="url(#clip2002)" style="stroke:#009af9; stroke-width:2; stroke-opacity:1; fill:none" points="
  633.482,13.2914 637.857,13.7784 
  "/>
<polyline clip-path="url(#clip2002)" style="stroke:#009af9; stroke-width:2; stroke-opacity:1; fill:none" points="
  637.857,13.7784 642.232,14.4117 
  "/>
<polyline clip-path="url(#clip2002)" style="stroke:#009af9; stroke-width:2; stroke-opacity:1; fill:none" points="
  642.232,14.4117 646.607,15.2263 
  "/>
<polyline clip-path="url(#clip2002)" style="stroke:#009af9; stroke-width:2; stroke-opacity:1; fill:none" points="
  646.607,15.2263 650.982,16.2595 
  "/>
<polyline clip-path="url(#clip2002)" style="stroke:#009af9; stroke-width:2; stroke-opacity:1; fill:none" points="
  650.982,16.2595 655.358,17.5487 
  "/>
<polyline clip-path="url(#clip2002)" style="stroke:#009af9; stroke-width:2; stroke-opacity:1; fill:none" points="
  655.358,17.5487 659.733,19.1273 
  "/>
<polyline clip-path="url(#clip2002)" style="stroke:#009af9; stroke-width:2; stroke-opacity:1; fill:none" points="
  659.733,19.1273 664.108,21.0204 
  "/>
<polyline clip-path="url(#clip2002)" style="stroke:#009af9; stroke-width:2; stroke-opacity:1; fill:none" points="
  664.108,21.0204 668.483,23.2408 
  "/>
<polyline clip-path="url(#clip2002)" style="stroke:#009af9; stroke-width:2; stroke-opacity:1; fill:none" points="
  668.483,23.2408 672.858,25.7871 
  "/>
<polyline clip-path="url(#clip2002)" style="stroke:#009af9; stroke-width:2; stroke-opacity:1; fill:none" points="
  672.858,25.7871 677.233,28.6438 
  "/>
<polyline clip-path="url(#clip2002)" style="stroke:#009af9; stroke-width:2; stroke-opacity:1; fill:none" points="
  677.233,28.6438 681.608,31.7837 
  "/>
<polyline clip-path="url(#clip2002)" style="stroke:#009af9; stroke-width:2; stroke-opacity:1; fill:none" points="
  681.608,31.7837 685.983,35.1724 
  "/>
<polyline clip-path="url(#clip2002)" style="stroke:#009af9; stroke-width:2; stroke-opacity:1; fill:none" points="
  685.983,35.1724 690.358,38.772 
  "/>
<polyline clip-path="url(#clip2002)" style="stroke:#009af9; stroke-width:2; stroke-opacity:1; fill:none" points="
  690.358,38.772 694.733,42.5457 
  "/>
<polyline clip-path="url(#clip2002)" style="stroke:#009af9; stroke-width:2; stroke-opacity:1; fill:none" points="
  694.733,42.5457 699.108,46.4592 
  "/>
<polyline clip-path="url(#clip2002)" style="stroke:#009af9; stroke-width:2; stroke-opacity:1; fill:none" points="
  699.108,46.4592 703.483,50.4832 
  "/>
<polyline clip-path="url(#clip2002)" style="stroke:#009af9; stroke-width:2; stroke-opacity:1; fill:none" points="
  703.483,50.4832 707.858,54.593 
  "/>
<polyline clip-path="url(#clip2002)" style="stroke:#009af9; stroke-width:2; stroke-opacity:1; fill:none" points="
  707.858,54.593 712.233,58.7686 
  "/>
<polyline clip-path="url(#clip2002)" style="stroke:#009af9; stroke-width:2; stroke-opacity:1; fill:none" points="
  712.233,58.7686 716.608,62.9944 
  "/>
<polyline clip-path="url(#clip2002)" style="stroke:#009af9; stroke-width:2; stroke-opacity:1; fill:none" points="
  716.608,62.9944 720.983,67.2581 
  "/>
<polyline clip-path="url(#clip2002)" style="stroke:#009af9; stroke-width:2; stroke-opacity:1; fill:none" points="
  720.983,67.2581 725.358,71.5502 
  "/>
<polyline clip-path="url(#clip2002)" style="stroke:#009af9; stroke-width:2; stroke-opacity:1; fill:none" points="
  725.358,71.5502 729.733,75.8635 
  "/>
<polyline clip-path="url(#clip2002)" style="stroke:#009af9; stroke-width:2; stroke-opacity:1; fill:none" points="
  729.733,75.8635 734.109,80.1928 
  "/>
<polyline clip-path="url(#clip2002)" style="stroke:#009af9; stroke-width:2; stroke-opacity:1; fill:none" points="
  734.109,80.1928 738.484,84.5339 
  "/>
<polyline clip-path="url(#clip2002)" style="stroke:#009af9; stroke-width:2; stroke-opacity:1; fill:none" points="
  738.484,84.5339 742.859,88.8838 
  "/>
<polyline clip-path="url(#clip2002)" style="stroke:#009af9; stroke-width:2; stroke-opacity:1; fill:none" points="
  742.859,88.8838 747.234,93.2402 
  "/>
<polyline clip-path="url(#clip2002)" style="stroke:#009af9; stroke-width:2; stroke-opacity:1; fill:none" points="
  747.234,93.2402 751.609,97.6014 
  "/>
<polyline clip-path="url(#clip2002)" style="stroke:#009af9; stroke-width:2; stroke-opacity:1; fill:none" points="
  751.609,97.6014 755.984,101.966 
  "/>
<polyline clip-path="url(#clip2002)" style="stroke:#009af9; stroke-width:2; stroke-opacity:1; fill:none" points="
  755.984,101.966 760.359,106.334 
  "/>
<polyline clip-path="url(#clip2002)" style="stroke:#009af9; stroke-width:2; stroke-opacity:1; fill:none" points="
  760.359,106.334 764.734,110.703 
  "/>
<polyline clip-path="url(#clip2002)" style="stroke:#009af9; stroke-width:2; stroke-opacity:1; fill:none" points="
  764.734,110.703 769.109,115.074 
  "/>
<polyline clip-path="url(#clip2002)" style="stroke:#009af9; stroke-width:2; stroke-opacity:1; fill:none" points="
  769.109,115.074 773.484,119.446 
  "/>
<polyline clip-path="url(#clip2002)" style="stroke:#009af9; stroke-width:2; stroke-opacity:1; fill:none" points="
  773.484,119.446 777.859,123.819 
  "/>
<polyline clip-path="url(#clip2002)" style="stroke:#009af9; stroke-width:2; stroke-opacity:1; fill:none" points="
  777.859,123.819 782.234,128.192 
  "/>
<polyline clip-path="url(#clip2002)" style="stroke:#009af9; stroke-width:2; stroke-opacity:1; fill:none" points="
  782.234,128.192 786.609,132.566 
  "/>
<polyline clip-path="url(#clip2002)" style="stroke:#009af9; stroke-width:2; stroke-opacity:1; fill:none" points="
  786.609,132.566 790.984,136.94 
  "/>
<polyline clip-path="url(#clip2002)" style="stroke:#009af9; stroke-width:2; stroke-opacity:1; fill:none" points="
  790.984,136.94 795.359,141.315 
  "/>
<polyline clip-path="url(#clip2002)" style="stroke:#009af9; stroke-width:2; stroke-opacity:1; fill:none" points="
  795.359,141.315 799.734,145.689 
  "/>
<polyline clip-path="url(#clip2002)" style="stroke:#009af9; stroke-width:2; stroke-opacity:1; fill:none" points="
  799.734,145.689 804.109,150.064 
  "/>
<polyline clip-path="url(#clip2002)" style="stroke:#009af9; stroke-width:2; stroke-opacity:1; fill:none" points="
  804.109,150.064 808.484,154.439 
  "/>
<polyline clip-path="url(#clip2002)" style="stroke:#009af9; stroke-width:2; stroke-opacity:1; fill:none" points="
  808.484,154.439 812.86,158.813 
  "/>
<polyline clip-path="url(#clip2002)" style="stroke:#009af9; stroke-width:2; stroke-opacity:1; fill:none" points="
  812.86,158.813 817.235,163.188 
  "/>
<polyline clip-path="url(#clip2002)" style="stroke:#009af9; stroke-width:2; stroke-opacity:1; fill:none" points="
  817.235,163.188 821.61,167.563 
  "/>
<polyline clip-path="url(#clip2002)" style="stroke:#009af9; stroke-width:2; stroke-opacity:1; fill:none" points="
  821.61,167.563 825.985,171.938 
  "/>
<polyline clip-path="url(#clip2002)" style="stroke:#009af9; stroke-width:2; stroke-opacity:1; fill:none" points="
  825.985,171.938 830.36,176.313 
  "/>
<polyline clip-path="url(#clip2002)" style="stroke:#009af9; stroke-width:2; stroke-opacity:1; fill:none" points="
  830.36,176.313 834.735,180.688 
  "/>
<polyline clip-path="url(#clip2002)" style="stroke:#009af9; stroke-width:2; stroke-opacity:1; fill:none" points="
  834.735,180.688 839.11,185.063 
  "/>
<polyline clip-path="url(#clip2002)" style="stroke:#009af9; stroke-width:2; stroke-opacity:1; fill:none" points="
  839.11,185.063 843.485,189.438 
  "/>
<polyline clip-path="url(#clip2002)" style="stroke:#009af9; stroke-width:2; stroke-opacity:1; fill:none" points="
  843.485,189.438 847.86,193.813 
  "/>
<polyline clip-path="url(#clip2002)" style="stroke:#009af9; stroke-width:2; stroke-opacity:1; fill:none" points="
  847.86,193.813 852.235,198.188 
  "/>
<polyline clip-path="url(#clip2002)" style="stroke:#009af9; stroke-width:2; stroke-opacity:1; fill:none" points="
  852.235,198.188 856.61,202.563 
  "/>
<polyline clip-path="url(#clip2002)" style="stroke:#009af9; stroke-width:2; stroke-opacity:1; fill:none" points="
  856.61,202.563 860.985,206.939 
  "/>
<polyline clip-path="url(#clip2002)" style="stroke:#009af9; stroke-width:2; stroke-opacity:1; fill:none" points="
  860.985,206.939 865.36,211.314 
  "/>
<polyline clip-path="url(#clip2002)" style="stroke:#009af9; stroke-width:2; stroke-opacity:1; fill:none" points="
  865.36,211.314 869.735,215.689 
  "/>
<polyline clip-path="url(#clip2002)" style="stroke:#009af9; stroke-width:2; stroke-opacity:1; fill:none" points="
  869.735,215.689 874.11,220.064 
  "/>
<polyline clip-path="url(#clip2002)" style="stroke:#009af9; stroke-width:2; stroke-opacity:1; fill:none" points="
  874.11,220.064 878.485,224.439 
  "/>
<polyline clip-path="url(#clip2002)" style="stroke:#009af9; stroke-width:2; stroke-opacity:1; fill:none" points="
  878.485,224.439 882.86,228.814 
  "/>
<polyline clip-path="url(#clip2002)" style="stroke:#009af9; stroke-width:2; stroke-opacity:1; fill:none" points="
  882.86,228.814 887.235,233.189 
  "/>
<polyline clip-path="url(#clip2002)" style="stroke:#009af9; stroke-width:2; stroke-opacity:1; fill:none" points="
  887.235,233.189 891.611,237.564 
  "/>
<polyline clip-path="url(#clip2002)" style="stroke:#009af9; stroke-width:2; stroke-opacity:1; fill:none" points="
  891.611,237.564 895.986,241.939 
  "/>
<polyline clip-path="url(#clip2002)" style="stroke:#009af9; stroke-width:2; stroke-opacity:1; fill:none" points="
  895.986,241.939 900.361,246.314 
  "/>
<polyline clip-path="url(#clip2002)" style="stroke:#009af9; stroke-width:2; stroke-opacity:1; fill:none" points="
  900.361,246.314 904.736,250.689 
  "/>
<polyline clip-path="url(#clip2002)" style="stroke:#009af9; stroke-width:2; stroke-opacity:1; fill:none" points="
  904.736,250.689 909.111,255.064 
  "/>
<polyline clip-path="url(#clip2002)" style="stroke:#009af9; stroke-width:2; stroke-opacity:1; fill:none" points="
  909.111,255.064 913.486,259.439 
  "/>
<polyline clip-path="url(#clip2002)" style="stroke:#009af9; stroke-width:2; stroke-opacity:1; fill:none" points="
  913.486,259.439 917.861,263.814 
  "/>
<polyline clip-path="url(#clip2002)" style="stroke:#009af9; stroke-width:2; stroke-opacity:1; fill:none" points="
  917.861,263.814 922.236,268.189 
  "/>
<polyline clip-path="url(#clip2002)" style="stroke:#009af9; stroke-width:2; stroke-opacity:1; fill:none" points="
  922.236,268.189 926.611,272.564 
  "/>
<polyline clip-path="url(#clip2002)" style="stroke:#009af9; stroke-width:2; stroke-opacity:1; fill:none" points="
  926.611,272.564 930.986,276.939 
  "/>
<polyline clip-path="url(#clip2002)" style="stroke:#009af9; stroke-width:2; stroke-opacity:1; fill:none" points="
  930.986,276.939 935.361,281.314 
  "/>
<polyline clip-path="url(#clip2002)" style="stroke:#009af9; stroke-width:2; stroke-opacity:1; fill:none" points="
  935.361,281.314 939.736,285.689 
  "/>
<polyline clip-path="url(#clip2002)" style="stroke:#009af9; stroke-width:2; stroke-opacity:1; fill:none" points="
  939.736,285.689 944.111,290.065 
  "/>
<polyline clip-path="url(#clip2002)" style="stroke:#009af9; stroke-width:2; stroke-opacity:1; fill:none" points="
  944.111,290.065 948.486,294.44 
  "/>
<polyline clip-path="url(#clip2002)" style="stroke:#009af9; stroke-width:2; stroke-opacity:1; fill:none" points="
  948.486,294.44 952.861,298.815 
  "/>
<polyline clip-path="url(#clip2002)" style="stroke:#009af9; stroke-width:2; stroke-opacity:1; fill:none" points="
  952.861,298.815 957.236,303.19 
  "/>
<polyline clip-path="url(#clip2002)" style="stroke:#009af9; stroke-width:2; stroke-opacity:1; fill:none" points="
  957.236,303.19 961.611,307.565 
  "/>
<polyline clip-path="url(#clip2002)" style="stroke:#009af9; stroke-width:2; stroke-opacity:1; fill:none" points="
  961.611,307.565 965.986,311.94 
  "/>
<polyline clip-path="url(#clip2002)" style="stroke:#009af9; stroke-width:2; stroke-opacity:1; fill:none" points="
  965.986,311.94 970.362,316.315 
  "/>
<polyline clip-path="url(#clip2002)" style="stroke:#009af9; stroke-width:2; stroke-opacity:1; fill:none" points="
  970.362,316.315 974.737,320.69 
  "/>
<polyline clip-path="url(#clip2002)" style="stroke:#009af9; stroke-width:2; stroke-opacity:1; fill:none" points="
  974.737,320.69 979.112,325.065 
  "/>
<polyline clip-path="url(#clip2002)" style="stroke:#009af9; stroke-width:2; stroke-opacity:1; fill:none" points="
  979.112,325.065 983.487,329.44 
  "/>
<polyline clip-path="url(#clip2002)" style="stroke:#009af9; stroke-width:2; stroke-opacity:1; fill:none" points="
  983.487,329.44 987.862,333.815 
  "/>
<polyline clip-path="url(#clip2002)" style="stroke:#009af9; stroke-width:2; stroke-opacity:1; fill:none" points="
  987.862,333.815 992.237,338.19 
  "/>
<polyline clip-path="url(#clip2002)" style="stroke:#009af9; stroke-width:2; stroke-opacity:1; fill:none" points="
  992.237,338.19 996.612,342.565 
  "/>
<polyline clip-path="url(#clip2002)" style="stroke:#009af9; stroke-width:2; stroke-opacity:1; fill:none" points="
  996.612,342.565 1000.99,346.94 
  "/>
<polyline clip-path="url(#clip2002)" style="stroke:#009af9; stroke-width:2; stroke-opacity:1; fill:none" points="
  1000.99,346.94 1005.36,351.315 
  "/>
<polyline clip-path="url(#clip2002)" style="stroke:#009af9; stroke-width:2; stroke-opacity:1; fill:none" points="
  1005.36,351.315 1009.74,355.69 
  "/>
<polyline clip-path="url(#clip2002)" style="stroke:#009af9; stroke-width:2; stroke-opacity:1; fill:none" points="
  1009.74,355.69 1014.11,360.065 
  "/>
</svg>
