<?xml version="1.0" encoding="utf-8"?>
<svg xmlns="http://www.w3.org/2000/svg" xmlns:xlink="http://www.w3.org/1999/xlink" width="600" height="300" viewBox="0 0 600 300">
<defs>
  <clipPath id="clip00">
    <rect x="0" y="0" width="600" height="300"/>
  </clipPath>
</defs>
<polygon clip-path="url(#clip1800)" points="
0,300 600,300 600,0 0,0 
  " fill="#ffffff" fill-opacity="1"/>
<defs>
  <clipPath id="clip01">
    <rect x="120" y="0" width="421" height="300"/>
  </clipPath>
</defs>
<polygon clip-path="url(#clip1800)" points="
54.8916,241.023 580.315,241.023 580.315,30.8536 54.8916,30.8536 
  " fill="#ffffff" fill-opacity="1"/>
<defs>
  <clipPath id="clip02">
    <rect x="54" y="30" width="526" height="211"/>
  </clipPath>
</defs>
<polyline clip-path="url(#clip1800)" style="stroke:#000000; stroke-width:1; stroke-opacity:1; fill:none" points="
  54.8916,241.023 580.315,241.023 
  "/>
<polyline clip-path="url(#clip1800)" style="stroke:#000000; stroke-width:1; stroke-opacity:1; fill:none" points="
  54.8916,241.023 54.8916,30.8536 
  "/>
<polyline clip-path="url(#clip1800)" style="stroke:#000000; stroke-width:1; stroke-opacity:1; fill:none" points="
  54.8916,241.023 54.8916,237.87 
  "/>
<polyline clip-path="url(#clip1800)" style="stroke:#000000; stroke-width:1; stroke-opacity:1; fill:none" points="
  159.976,241.023 159.976,237.87 
  "/>
<polyline clip-path="url(#clip1800)" style="stroke:#000000; stroke-width:1; stroke-opacity:1; fill:none" points="
  265.061,241.023 265.061,237.87 
  "/>
<polyline clip-path="url(#clip1800)" style="stroke:#000000; stroke-width:1; stroke-opacity:1; fill:none" points="
  370.146,241.023 370.146,237.87 
  "/>
<polyline clip-path="url(#clip1800)" style="stroke:#000000; stroke-width:1; stroke-opacity:1; fill:none" points="
  475.23,241.023 475.23,237.87 
  "/>
<polyline clip-path="url(#clip1800)" style="stroke:#000000; stroke-width:1; stroke-opacity:1; fill:none" points="
  580.315,241.023 580.315,237.87 
  "/>
<polyline clip-path="url(#clip1800)" style="stroke:#000000; stroke-width:1; stroke-opacity:1; fill:none" points="
  54.8916,241.023 62.773,241.023 
  "/>
<polyline clip-path="url(#clip1800)" style="stroke:#000000; stroke-width:1; stroke-opacity:1; fill:none" points="
  54.8916,188.481 62.773,188.481 
  "/>
<polyline clip-path="url(#clip1800)" style="stroke:#000000; stroke-width:1; stroke-opacity:1; fill:none" points="
  54.8916,135.938 62.773,135.938 
  "/>
<polyline clip-path="url(#clip1800)" style="stroke:#000000; stroke-width:1; stroke-opacity:1; fill:none" points="
  54.8916,83.3959 62.773,83.3959 
  "/>
<polyline clip-path="url(#clip1800)" style="stroke:#000000; stroke-width:1; stroke-opacity:1; fill:none" points="
  54.8916,30.8536 62.773,30.8536 
  "/>
<g clip-path="url(#clip1800)">
<text style="fill:#000000; fill-opacity:1; font-family:Arial,Helvetica Neue,Helvetica,sans-serif; font-size:12; text-anchor:middle;" transform="rotate(0, 54.8916, 254.823)" x="54.8916" y="254.823">-1</text>
</g>
<g clip-path="url(#clip1800)">
<text style="fill:#000000; fill-opacity:1; font-family:Arial,Helvetica Neue,Helvetica,sans-serif; font-size:12; text-anchor:middle;" transform="rotate(0, 159.976, 254.823)" x="159.976" y="254.823">0</text>
</g>
<g clip-path="url(#clip1800)">
<text style="fill:#000000; fill-opacity:1; font-family:Arial,Helvetica Neue,Helvetica,sans-serif; font-size:12; text-anchor:middle;" transform="rotate(0, 265.061, 254.823)" x="265.061" y="254.823">1</text>
</g>
<g clip-path="url(#clip1800)">
<text style="fill:#000000; fill-opacity:1; font-family:Arial,Helvetica Neue,Helvetica,sans-serif; font-size:12; text-anchor:middle;" transform="rotate(0, 370.146, 254.823)" x="370.146" y="254.823">2</text>
</g>
<g clip-path="url(#clip1800)">
<text style="fill:#000000; fill-opacity:1; font-family:Arial,Helvetica Neue,Helvetica,sans-serif; font-size:12; text-anchor:middle;" transform="rotate(0, 475.23, 254.823)" x="475.23" y="254.823">3</text>
</g>
<g clip-path="url(#clip1800)">
<text style="fill:#000000; fill-opacity:1; font-family:Arial,Helvetica Neue,Helvetica,sans-serif; font-size:12; text-anchor:middle;" transform="rotate(0, 580.315, 254.823)" x="580.315" y="254.823">4</text>
</g>
<g clip-path="url(#clip1800)">
<text style="fill:#000000; fill-opacity:1; font-family:Arial,Helvetica Neue,Helvetica,sans-serif; font-size:12; text-anchor:end;" transform="rotate(0, 48.8916, 245.523)" x="48.8916" y="245.523">-2.0</text>
</g>
<g clip-path="url(#clip1800)">
<text style="fill:#000000; fill-opacity:1; font-family:Arial,Helvetica Neue,Helvetica,sans-serif; font-size:12; text-anchor:end;" transform="rotate(0, 48.8916, 192.981)" x="48.8916" y="192.981">-1.5</text>
</g>
<g clip-path="url(#clip1800)">
<text style="fill:#000000; fill-opacity:1; font-family:Arial,Helvetica Neue,Helvetica,sans-serif; font-size:12; text-anchor:end;" transform="rotate(0, 48.8916, 140.438)" x="48.8916" y="140.438">-1.0</text>
</g>
<g clip-path="url(#clip1800)">
<text style="fill:#000000; fill-opacity:1; font-family:Arial,Helvetica Neue,Helvetica,sans-serif; font-size:12; text-anchor:end;" transform="rotate(0, 48.8916, 87.8959)" x="48.8916" y="87.8959">-0.5</text>
</g>
<g clip-path="url(#clip1800)">
<text style="fill:#000000; fill-opacity:1; font-family:Arial,Helvetica Neue,Helvetica,sans-serif; font-size:12; text-anchor:end;" transform="rotate(0, 48.8916, 35.3536)" x="48.8916" y="35.3536">0.0</text>
</g>
<g clip-path="url(#clip1800)">
<text style="fill:#000000; fill-opacity:1; font-family:Arial,Helvetica Neue,Helvetica,sans-serif; font-size:16; text-anchor:middle;" transform="rotate(0, 317.603, 297.6)" x="317.603" y="297.6">t</text>
</g>
<g clip-path="url(#clip1800)">
<text style="fill:#000000; fill-opacity:1; font-family:Arial,Helvetica Neue,Helvetica,sans-serif; font-size:16; text-anchor:middle;" transform="rotate(-90, 14.4, 135.938)" x="14.4" y="135.938">Smoothed Ramp</text>
</g>
<polyline clip-path="url(#clip1802)" style="stroke:#009af9; stroke-width:2; stroke-opacity:1; fill:none" points="
  54.8916,30.8536 57.5319,30.8536 
  "/>
<polyline clip-path="url(#clip1802)" style="stroke:#009af9; stroke-width:2; stroke-opacity:1; fill:none" points="
  57.5319,30.8536 60.1723,30.8536 
  "/>
<polyline clip-path="url(#clip1802)" style="stroke:#009af9; stroke-width:2; stroke-opacity:1; fill:none" points="
  60.1723,30.8536 62.8126,30.8536 
  "/>
<polyline clip-path="url(#clip1802)" style="stroke:#009af9; stroke-width:2; stroke-opacity:1; fill:none" points="
  62.8126,30.8536 65.4529,30.8536 
  "/>
<polyline clip-path="url(#clip1802)" style="stroke:#009af9; stroke-width:2; stroke-opacity:1; fill:none" points="
  65.4529,30.8536 68.0932,30.8536 
  "/>
<polyline clip-path="url(#clip1802)" style="stroke:#009af9; stroke-width:2; stroke-opacity:1; fill:none" points="
  68.0932,30.8536 70.7335,30.8536 
  "/>
<polyline clip-path="url(#clip1802)" style="stroke:#009af9; stroke-width:2; stroke-opacity:1; fill:none" points="
  70.7335,30.8536 73.3738,30.8536 
  "/>
<polyline clip-path="url(#clip1802)" style="stroke:#009af9; stroke-width:2; stroke-opacity:1; fill:none" points="
  73.3738,30.8536 76.0142,30.8536 
  "/>
<polyline clip-path="url(#clip1802)" style="stroke:#009af9; stroke-width:2; stroke-opacity:1; fill:none" points="
  76.0142,30.8536 78.6545,30.8536 
  "/>
<polyline clip-path="url(#clip1802)" style="stroke:#009af9; stroke-width:2; stroke-opacity:1; fill:none" points="
  78.6545,30.8536 81.2948,30.8536 
  "/>
<polyline clip-path="url(#clip1802)" style="stroke:#009af9; stroke-width:2; stroke-opacity:1; fill:none" points="
  81.2948,30.8536 83.9351,30.8536 
  "/>
<polyline clip-path="url(#clip1802)" style="stroke:#009af9; stroke-width:2; stroke-opacity:1; fill:none" points="
  83.9351,30.8536 86.5754,30.8536 
  "/>
<polyline clip-path="url(#clip1802)" style="stroke:#009af9; stroke-width:2; stroke-opacity:1; fill:none" points="
  86.5754,30.8536 89.2158,30.8536 
  "/>
<polyline clip-path="url(#clip1802)" style="stroke:#009af9; stroke-width:2; stroke-opacity:1; fill:none" points="
  89.2158,30.8536 91.8561,30.8536 
  "/>
<polyline clip-path="url(#clip1802)" style="stroke:#009af9; stroke-width:2; stroke-opacity:1; fill:none" points="
  91.8561,30.8536 94.4964,30.8536 
  "/>
<polyline clip-path="url(#clip1802)" style="stroke:#009af9; stroke-width:2; stroke-opacity:1; fill:none" points="
  94.4964,30.8536 97.1367,30.8536 
  "/>
<polyline clip-path="url(#clip1802)" style="stroke:#009af9; stroke-width:2; stroke-opacity:1; fill:none" points="
  97.1367,30.8536 99.777,30.8536 
  "/>
<polyline clip-path="url(#clip1802)" style="stroke:#009af9; stroke-width:2; stroke-opacity:1; fill:none" points="
  99.777,30.8536 102.417,30.8536 
  "/>
<polyline clip-path="url(#clip1802)" style="stroke:#009af9; stroke-width:2; stroke-opacity:1; fill:none" points="
  102.417,30.8536 105.058,30.8536 
  "/>
<polyline clip-path="url(#clip1802)" style="stroke:#009af9; stroke-width:2; stroke-opacity:1; fill:none" points="
  105.058,30.8536 107.698,30.8536 
  "/>
<polyline clip-path="url(#clip1802)" style="stroke:#009af9; stroke-width:2; stroke-opacity:1; fill:none" points="
  107.698,30.8536 110.338,30.8536 
  "/>
<polyline clip-path="url(#clip1802)" style="stroke:#009af9; stroke-width:2; stroke-opacity:1; fill:none" points="
  110.338,30.8536 112.979,30.8536 
  "/>
<polyline clip-path="url(#clip1802)" style="stroke:#009af9; stroke-width:2; stroke-opacity:1; fill:none" points="
  112.979,30.8536 115.619,30.8536 
  "/>
<polyline clip-path="url(#clip1802)" style="stroke:#009af9; stroke-width:2; stroke-opacity:1; fill:none" points="
  115.619,30.8536 118.259,30.8536 
  "/>
<polyline clip-path="url(#clip1802)" style="stroke:#009af9; stroke-width:2; stroke-opacity:1; fill:none" points="
  118.259,30.8536 120.9,30.8536 
  "/>
<polyline clip-path="url(#clip1802)" style="stroke:#009af9; stroke-width:2; stroke-opacity:1; fill:none" points="
  120.9,30.8536 123.54,30.8536 
  "/>
<polyline clip-path="url(#clip1802)" style="stroke:#009af9; stroke-width:2; stroke-opacity:1; fill:none" points="
  123.54,30.8536 126.18,30.8536 
  "/>
<polyline clip-path="url(#clip1802)" style="stroke:#009af9; stroke-width:2; stroke-opacity:1; fill:none" points="
  126.18,30.8536 128.821,30.8536 
  "/>
<polyline clip-path="url(#clip1802)" style="stroke:#009af9; stroke-width:2; stroke-opacity:1; fill:none" points="
  128.821,30.8536 131.461,30.8536 
  "/>
<polyline clip-path="url(#clip1802)" style="stroke:#009af9; stroke-width:2; stroke-opacity:1; fill:none" points="
  131.461,30.8536 134.101,30.8536 
  "/>
<polyline clip-path="url(#clip1802)" style="stroke:#009af9; stroke-width:2; stroke-opacity:1; fill:none" points="
  134.101,30.8536 136.741,30.8536 
  "/>
<polyline clip-path="url(#clip1802)" style="stroke:#009af9; stroke-width:2; stroke-opacity:1; fill:none" points="
  136.741,30.8536 139.382,30.8536 
  "/>
<polyline clip-path="url(#clip1802)" style="stroke:#009af9; stroke-width:2; stroke-opacity:1; fill:none" points="
  139.382,30.8536 142.022,30.8536 
  "/>
<polyline clip-path="url(#clip1802)" style="stroke:#009af9; stroke-width:2; stroke-opacity:1; fill:none" points="
  142.022,30.8536 144.662,30.8536 
  "/>
<polyline clip-path="url(#clip1802)" style="stroke:#009af9; stroke-width:2; stroke-opacity:1; fill:none" points="
  144.662,30.8536 147.303,30.8536 
  "/>
<polyline clip-path="url(#clip1802)" style="stroke:#009af9; stroke-width:2; stroke-opacity:1; fill:none" points="
  147.303,30.8536 149.943,30.8536 
  "/>
<polyline clip-path="url(#clip1802)" style="stroke:#009af9; stroke-width:2; stroke-opacity:1; fill:none" points="
  149.943,30.8536 152.583,30.8536 
  "/>
<polyline clip-path="url(#clip1802)" style="stroke:#009af9; stroke-width:2; stroke-opacity:1; fill:none" points="
  152.583,30.8536 155.224,30.8536 
  "/>
<polyline clip-path="url(#clip1802)" style="stroke:#009af9; stroke-width:2; stroke-opacity:1; fill:none" points="
  155.224,30.8536 157.864,30.8536 
  "/>
<polyline clip-path="url(#clip1802)" style="stroke:#009af9; stroke-width:2; stroke-opacity:1; fill:none" points="
  157.864,30.8536 160.504,30.8536 
  "/>
<polyline clip-path="url(#clip1802)" style="stroke:#009af9; stroke-width:2; stroke-opacity:1; fill:none" points="
  160.504,30.8536 163.145,30.8536 
  "/>
<polyline clip-path="url(#clip1802)" style="stroke:#009af9; stroke-width:2; stroke-opacity:1; fill:none" points="
  163.145,30.8536 165.785,30.8536 
  "/>
<polyline clip-path="url(#clip1802)" style="stroke:#009af9; stroke-width:2; stroke-opacity:1; fill:none" points="
  165.785,30.8536 168.425,30.8536 
  "/>
<polyline clip-path="url(#clip1802)" style="stroke:#009af9; stroke-width:2; stroke-opacity:1; fill:none" points="
  168.425,30.8536 171.066,30.8536 
  "/>
<polyline clip-path="url(#clip1802)" style="stroke:#009af9; stroke-width:2; stroke-opacity:1; fill:none" points="
  171.066,30.8536 173.706,30.8536 
  "/>
<polyline clip-path="url(#clip1802)" style="stroke:#009af9; stroke-width:2; stroke-opacity:1; fill:none" points="
  173.706,30.8536 176.346,30.8536 
  "/>
<polyline clip-path="url(#clip1802)" style="stroke:#009af9; stroke-width:2; stroke-opacity:1; fill:none" points="
  176.346,30.8536 178.987,30.8536 
  "/>
<polyline clip-path="url(#clip1802)" style="stroke:#009af9; stroke-width:2; stroke-opacity:1; fill:none" points="
  178.987,30.8536 181.627,30.8536 
  "/>
<polyline clip-path="url(#clip1802)" style="stroke:#009af9; stroke-width:2; stroke-opacity:1; fill:none" points="
  181.627,30.8536 184.267,30.8536 
  "/>
<polyline clip-path="url(#clip1802)" style="stroke:#009af9; stroke-width:2; stroke-opacity:1; fill:none" points="
  184.267,30.8536 186.908,30.8536 
  "/>
<polyline clip-path="url(#clip1802)" style="stroke:#009af9; stroke-width:2; stroke-opacity:1; fill:none" points="
  186.908,30.8536 189.548,30.8536 
  "/>
<polyline clip-path="url(#clip1802)" style="stroke:#009af9; stroke-width:2; stroke-opacity:1; fill:none" points="
  189.548,30.8536 192.188,30.8536 
  "/>
<polyline clip-path="url(#clip1802)" style="stroke:#009af9; stroke-width:2; stroke-opacity:1; fill:none" points="
  192.188,30.8536 194.828,30.8536 
  "/>
<polyline clip-path="url(#clip1802)" style="stroke:#009af9; stroke-width:2; stroke-opacity:1; fill:none" points="
  194.828,30.8536 197.469,30.8536 
  "/>
<polyline clip-path="url(#clip1802)" style="stroke:#009af9; stroke-width:2; stroke-opacity:1; fill:none" points="
  197.469,30.8536 200.109,30.8536 
  "/>
<polyline clip-path="url(#clip1802)" style="stroke:#009af9; stroke-width:2; stroke-opacity:1; fill:none" points="
  200.109,30.8536 202.749,30.8536 
  "/>
<polyline clip-path="url(#clip1802)" style="stroke:#009af9; stroke-width:2; stroke-opacity:1; fill:none" points="
  202.749,30.8536 205.39,30.8536 
  "/>
<polyline clip-path="url(#clip1802)" style="stroke:#009af9; stroke-width:2; stroke-opacity:1; fill:none" points="
  205.39,30.8536 208.03,30.8536 
  "/>
<polyline clip-path="url(#clip1802)" style="stroke:#009af9; stroke-width:2; stroke-opacity:1; fill:none" points="
  208.03,30.8536 210.67,30.8536 
  "/>
<polyline clip-path="url(#clip1802)" style="stroke:#009af9; stroke-width:2; stroke-opacity:1; fill:none" points="
  210.67,30.8536 213.311,30.8536 
  "/>
<polyline clip-path="url(#clip1802)" style="stroke:#009af9; stroke-width:2; stroke-opacity:1; fill:none" points="
  213.311,30.8536 215.951,30.8536 
  "/>
<polyline clip-path="url(#clip1802)" style="stroke:#009af9; stroke-width:2; stroke-opacity:1; fill:none" points="
  215.951,30.8536 218.591,30.8536 
  "/>
<polyline clip-path="url(#clip1802)" style="stroke:#009af9; stroke-width:2; stroke-opacity:1; fill:none" points="
  218.591,30.8536 221.232,30.8536 
  "/>
<polyline clip-path="url(#clip1802)" style="stroke:#009af9; stroke-width:2; stroke-opacity:1; fill:none" points="
  221.232,30.8536 223.872,30.8536 
  "/>
<polyline clip-path="url(#clip1802)" style="stroke:#009af9; stroke-width:2; stroke-opacity:1; fill:none" points="
  223.872,30.8536 226.512,30.8536 
  "/>
<polyline clip-path="url(#clip1802)" style="stroke:#009af9; stroke-width:2; stroke-opacity:1; fill:none" points="
  226.512,30.8536 229.153,30.8536 
  "/>
<polyline clip-path="url(#clip1802)" style="stroke:#009af9; stroke-width:2; stroke-opacity:1; fill:none" points="
  229.153,30.8536 231.793,30.8536 
  "/>
<polyline clip-path="url(#clip1802)" style="stroke:#009af9; stroke-width:2; stroke-opacity:1; fill:none" points="
  231.793,30.8536 234.433,30.8536 
  "/>
<polyline clip-path="url(#clip1802)" style="stroke:#009af9; stroke-width:2; stroke-opacity:1; fill:none" points="
  234.433,30.8536 237.074,30.8536 
  "/>
<polyline clip-path="url(#clip1802)" style="stroke:#009af9; stroke-width:2; stroke-opacity:1; fill:none" points="
  237.074,30.8536 239.714,30.8536 
  "/>
<polyline clip-path="url(#clip1802)" style="stroke:#009af9; stroke-width:2; stroke-opacity:1; fill:none" points="
  239.714,30.8536 242.354,30.8536 
  "/>
<polyline clip-path="url(#clip1802)" style="stroke:#009af9; stroke-width:2; stroke-opacity:1; fill:none" points="
  242.354,30.8536 244.995,30.8536 
  "/>
<polyline clip-path="url(#clip1802)" style="stroke:#009af9; stroke-width:2; stroke-opacity:1; fill:none" points="
  244.995,30.8536 247.635,30.8536 
  "/>
<polyline clip-path="url(#clip1802)" style="stroke:#009af9; stroke-width:2; stroke-opacity:1; fill:none" points="
  247.635,30.8536 250.275,30.8536 
  "/>
<polyline clip-path="url(#clip1802)" style="stroke:#009af9; stroke-width:2; stroke-opacity:1; fill:none" points="
  250.275,30.8536 252.915,30.8536 
  "/>
<polyline clip-path="url(#clip1802)" style="stroke:#009af9; stroke-width:2; stroke-opacity:1; fill:none" points="
  252.915,30.8536 255.556,30.8536 
  "/>
<polyline clip-path="url(#clip1802)" style="stroke:#009af9; stroke-width:2; stroke-opacity:1; fill:none" points="
  255.556,30.8536 258.196,30.8536 
  "/>
<polyline clip-path="url(#clip1802)" style="stroke:#009af9; stroke-width:2; stroke-opacity:1; fill:none" points="
  258.196,30.8536 260.836,30.8536 
  "/>
<polyline clip-path="url(#clip1802)" style="stroke:#009af9; stroke-width:2; stroke-opacity:1; fill:none" points="
  260.836,30.8536 263.477,30.8536 
  "/>
<polyline clip-path="url(#clip1802)" style="stroke:#009af9; stroke-width:2; stroke-opacity:1; fill:none" points="
  263.477,30.8536 266.117,30.8536 
  "/>
<polyline clip-path="url(#clip1802)" style="stroke:#009af9; stroke-width:2; stroke-opacity:1; fill:none" points="
  266.117,30.8536 268.757,30.8536 
  "/>
<polyline clip-path="url(#clip1802)" style="stroke:#009af9; stroke-width:2; stroke-opacity:1; fill:none" points="
  268.757,30.8536 271.398,30.8537 
  "/>
<polyline clip-path="url(#clip1802)" style="stroke:#009af9; stroke-width:2; stroke-opacity:1; fill:none" points="
  271.398,30.8537 274.038,30.8537 
  "/>
<polyline clip-path="url(#clip1802)" style="stroke:#009af9; stroke-width:2; stroke-opacity:1; fill:none" points="
  274.038,30.8537 276.678,30.8538 
  "/>
<polyline clip-path="url(#clip1802)" style="stroke:#009af9; stroke-width:2; stroke-opacity:1; fill:none" points="
  276.678,30.8538 279.319,30.8538 
  "/>
<polyline clip-path="url(#clip1802)" style="stroke:#009af9; stroke-width:2; stroke-opacity:1; fill:none" points="
  279.319,30.8538 281.959,30.8539 
  "/>
<polyline clip-path="url(#clip1802)" style="stroke:#009af9; stroke-width:2; stroke-opacity:1; fill:none" points="
  281.959,30.8539 284.599,30.8541 
  "/>
<polyline clip-path="url(#clip1802)" style="stroke:#009af9; stroke-width:2; stroke-opacity:1; fill:none" points="
  284.599,30.8541 287.24,30.8542 
  "/>
<polyline clip-path="url(#clip1802)" style="stroke:#009af9; stroke-width:2; stroke-opacity:1; fill:none" points="
  287.24,30.8542 289.88,30.8545 
  "/>
<polyline clip-path="url(#clip1802)" style="stroke:#009af9; stroke-width:2; stroke-opacity:1; fill:none" points="
  289.88,30.8545 292.52,30.8548 
  "/>
<polyline clip-path="url(#clip1802)" style="stroke:#009af9; stroke-width:2; stroke-opacity:1; fill:none" points="
  292.52,30.8548 295.161,30.8552 
  "/>
<polyline clip-path="url(#clip1802)" style="stroke:#009af9; stroke-width:2; stroke-opacity:1; fill:none" points="
  295.161,30.8552 297.801,30.8558 
  "/>
<polyline clip-path="url(#clip1802)" style="stroke:#009af9; stroke-width:2; stroke-opacity:1; fill:none" points="
  297.801,30.8558 300.441,30.8566 
  "/>
<polyline clip-path="url(#clip1802)" style="stroke:#009af9; stroke-width:2; stroke-opacity:1; fill:none" points="
  300.441,30.8566 303.082,30.8577 
  "/>
<polyline clip-path="url(#clip1802)" style="stroke:#009af9; stroke-width:2; stroke-opacity:1; fill:none" points="
  303.082,30.8577 305.722,30.8591 
  "/>
<polyline clip-path="url(#clip1802)" style="stroke:#009af9; stroke-width:2; stroke-opacity:1; fill:none" points="
  305.722,30.8591 308.362,30.8611 
  "/>
<polyline clip-path="url(#clip1802)" style="stroke:#009af9; stroke-width:2; stroke-opacity:1; fill:none" points="
  308.362,30.8611 311.002,30.8638 
  "/>
<polyline clip-path="url(#clip1802)" style="stroke:#009af9; stroke-width:2; stroke-opacity:1; fill:none" points="
  311.002,30.8638 313.643,30.8674 
  "/>
<polyline clip-path="url(#clip1802)" style="stroke:#009af9; stroke-width:2; stroke-opacity:1; fill:none" points="
  313.643,30.8674 316.283,30.8722 
  "/>
<polyline clip-path="url(#clip1802)" style="stroke:#009af9; stroke-width:2; stroke-opacity:1; fill:none" points="
  316.283,30.8722 318.923,30.8788 
  "/>
<polyline clip-path="url(#clip1802)" style="stroke:#009af9; stroke-width:2; stroke-opacity:1; fill:none" points="
  318.923,30.8788 321.564,30.8876 
  "/>
<polyline clip-path="url(#clip1802)" style="stroke:#009af9; stroke-width:2; stroke-opacity:1; fill:none" points="
  321.564,30.8876 324.204,30.8996 
  "/>
<polyline clip-path="url(#clip1802)" style="stroke:#009af9; stroke-width:2; stroke-opacity:1; fill:none" points="
  324.204,30.8996 326.844,30.9157 
  "/>
<polyline clip-path="url(#clip1802)" style="stroke:#009af9; stroke-width:2; stroke-opacity:1; fill:none" points="
  326.844,30.9157 329.485,30.9375 
  "/>
<polyline clip-path="url(#clip1802)" style="stroke:#009af9; stroke-width:2; stroke-opacity:1; fill:none" points="
  329.485,30.9375 332.125,30.9668 
  "/>
<polyline clip-path="url(#clip1802)" style="stroke:#009af9; stroke-width:2; stroke-opacity:1; fill:none" points="
  332.125,30.9668 334.765,31.0063 
  "/>
<polyline clip-path="url(#clip1802)" style="stroke:#009af9; stroke-width:2; stroke-opacity:1; fill:none" points="
  334.765,31.0063 337.406,31.0594 
  "/>
<polyline clip-path="url(#clip1802)" style="stroke:#009af9; stroke-width:2; stroke-opacity:1; fill:none" points="
  337.406,31.0594 340.046,31.1307 
  "/>
<polyline clip-path="url(#clip1802)" style="stroke:#009af9; stroke-width:2; stroke-opacity:1; fill:none" points="
  340.046,31.1307 342.686,31.2262 
  "/>
<polyline clip-path="url(#clip1802)" style="stroke:#009af9; stroke-width:2; stroke-opacity:1; fill:none" points="
  342.686,31.2262 345.327,31.3536 
  "/>
<polyline clip-path="url(#clip1802)" style="stroke:#009af9; stroke-width:2; stroke-opacity:1; fill:none" points="
  345.327,31.3536 347.967,31.523 
  "/>
<polyline clip-path="url(#clip1802)" style="stroke:#009af9; stroke-width:2; stroke-opacity:1; fill:none" points="
  347.967,31.523 350.607,31.7469 
  "/>
<polyline clip-path="url(#clip1802)" style="stroke:#009af9; stroke-width:2; stroke-opacity:1; fill:none" points="
  350.607,31.7469 353.248,32.0408 
  "/>
<polyline clip-path="url(#clip1802)" style="stroke:#009af9; stroke-width:2; stroke-opacity:1; fill:none" points="
  353.248,32.0408 355.888,32.4231 
  "/>
<polyline clip-path="url(#clip1802)" style="stroke:#009af9; stroke-width:2; stroke-opacity:1; fill:none" points="
  355.888,32.4231 358.528,32.9146 
  "/>
<polyline clip-path="url(#clip1802)" style="stroke:#009af9; stroke-width:2; stroke-opacity:1; fill:none" points="
  358.528,32.9146 361.169,33.5382 
  "/>
<polyline clip-path="url(#clip1802)" style="stroke:#009af9; stroke-width:2; stroke-opacity:1; fill:none" points="
  361.169,33.5382 363.809,34.3162 
  "/>
<polyline clip-path="url(#clip1802)" style="stroke:#009af9; stroke-width:2; stroke-opacity:1; fill:none" points="
  363.809,34.3162 366.449,35.2689 
  "/>
<polyline clip-path="url(#clip1802)" style="stroke:#009af9; stroke-width:2; stroke-opacity:1; fill:none" points="
  366.449,35.2689 369.089,36.4113 
  "/>
<polyline clip-path="url(#clip1802)" style="stroke:#009af9; stroke-width:2; stroke-opacity:1; fill:none" points="
  369.089,36.4113 371.73,37.7514 
  "/>
<polyline clip-path="url(#clip1802)" style="stroke:#009af9; stroke-width:2; stroke-opacity:1; fill:none" points="
  371.73,37.7514 374.37,39.288 
  "/>
<polyline clip-path="url(#clip1802)" style="stroke:#009af9; stroke-width:2; stroke-opacity:1; fill:none" points="
  374.37,39.288 377.01,41.012 
  "/>
<polyline clip-path="url(#clip1802)" style="stroke:#009af9; stroke-width:2; stroke-opacity:1; fill:none" points="
  377.01,41.012 379.651,42.907 
  "/>
<polyline clip-path="url(#clip1802)" style="stroke:#009af9; stroke-width:2; stroke-opacity:1; fill:none" points="
  379.651,42.907 382.291,44.952 
  "/>
<polyline clip-path="url(#clip1802)" style="stroke:#009af9; stroke-width:2; stroke-opacity:1; fill:none" points="
  382.291,44.952 384.931,47.1244 
  "/>
<polyline clip-path="url(#clip1802)" style="stroke:#009af9; stroke-width:2; stroke-opacity:1; fill:none" points="
  384.931,47.1244 387.572,49.4017 
  "/>
<polyline clip-path="url(#clip1802)" style="stroke:#009af9; stroke-width:2; stroke-opacity:1; fill:none" points="
  387.572,49.4017 390.212,51.7635 
  "/>
<polyline clip-path="url(#clip1802)" style="stroke:#009af9; stroke-width:2; stroke-opacity:1; fill:none" points="
  390.212,51.7635 392.852,54.192 
  "/>
<polyline clip-path="url(#clip1802)" style="stroke:#009af9; stroke-width:2; stroke-opacity:1; fill:none" points="
  392.852,54.192 395.493,56.6722 
  "/>
<polyline clip-path="url(#clip1802)" style="stroke:#009af9; stroke-width:2; stroke-opacity:1; fill:none" points="
  395.493,56.6722 398.133,59.1922 
  "/>
<polyline clip-path="url(#clip1802)" style="stroke:#009af9; stroke-width:2; stroke-opacity:1; fill:none" points="
  398.133,59.1922 400.773,61.7424 
  "/>
<polyline clip-path="url(#clip1802)" style="stroke:#009af9; stroke-width:2; stroke-opacity:1; fill:none" points="
  400.773,61.7424 403.414,64.3155 
  "/>
<polyline clip-path="url(#clip1802)" style="stroke:#009af9; stroke-width:2; stroke-opacity:1; fill:none" points="
  403.414,64.3155 406.054,66.9057 
  "/>
<polyline clip-path="url(#clip1802)" style="stroke:#009af9; stroke-width:2; stroke-opacity:1; fill:none" points="
  406.054,66.9057 408.694,69.5088 
  "/>
<polyline clip-path="url(#clip1802)" style="stroke:#009af9; stroke-width:2; stroke-opacity:1; fill:none" points="
  408.694,69.5088 411.335,72.1215 
  "/>
<polyline clip-path="url(#clip1802)" style="stroke:#009af9; stroke-width:2; stroke-opacity:1; fill:none" points="
  411.335,72.1215 413.975,74.7413 
  "/>
<polyline clip-path="url(#clip1802)" style="stroke:#009af9; stroke-width:2; stroke-opacity:1; fill:none" points="
  413.975,74.7413 416.615,77.3665 
  "/>
<polyline clip-path="url(#clip1802)" style="stroke:#009af9; stroke-width:2; stroke-opacity:1; fill:none" points="
  416.615,77.3665 419.256,79.9955 
  "/>
<polyline clip-path="url(#clip1802)" style="stroke:#009af9; stroke-width:2; stroke-opacity:1; fill:none" points="
  419.256,79.9955 421.896,82.6275 
  "/>
<polyline clip-path="url(#clip1802)" style="stroke:#009af9; stroke-width:2; stroke-opacity:1; fill:none" points="
  421.896,82.6275 424.536,85.2617 
  "/>
<polyline clip-path="url(#clip1802)" style="stroke:#009af9; stroke-width:2; stroke-opacity:1; fill:none" points="
  424.536,85.2617 427.176,87.8974 
  "/>
<polyline clip-path="url(#clip1802)" style="stroke:#009af9; stroke-width:2; stroke-opacity:1; fill:none" points="
  427.176,87.8974 429.817,90.5344 
  "/>
<polyline clip-path="url(#clip1802)" style="stroke:#009af9; stroke-width:2; stroke-opacity:1; fill:none" points="
  429.817,90.5344 432.457,93.1722 
  "/>
<polyline clip-path="url(#clip1802)" style="stroke:#009af9; stroke-width:2; stroke-opacity:1; fill:none" points="
  432.457,93.1722 435.097,95.8106 
  "/>
<polyline clip-path="url(#clip1802)" style="stroke:#009af9; stroke-width:2; stroke-opacity:1; fill:none" points="
  435.097,95.8106 437.738,98.4496 
  "/>
<polyline clip-path="url(#clip1802)" style="stroke:#009af9; stroke-width:2; stroke-opacity:1; fill:none" points="
  437.738,98.4496 440.378,101.089 
  "/>
<polyline clip-path="url(#clip1802)" style="stroke:#009af9; stroke-width:2; stroke-opacity:1; fill:none" points="
  440.378,101.089 443.018,103.728 
  "/>
<polyline clip-path="url(#clip1802)" style="stroke:#009af9; stroke-width:2; stroke-opacity:1; fill:none" points="
  443.018,103.728 445.659,106.368 
  "/>
<polyline clip-path="url(#clip1802)" style="stroke:#009af9; stroke-width:2; stroke-opacity:1; fill:none" points="
  445.659,106.368 448.299,109.008 
  "/>
<polyline clip-path="url(#clip1802)" style="stroke:#009af9; stroke-width:2; stroke-opacity:1; fill:none" points="
  448.299,109.008 450.939,111.648 
  "/>
<polyline clip-path="url(#clip1802)" style="stroke:#009af9; stroke-width:2; stroke-opacity:1; fill:none" points="
  450.939,111.648 453.58,114.288 
  "/>
<polyline clip-path="url(#clip1802)" style="stroke:#009af9; stroke-width:2; stroke-opacity:1; fill:none" points="
  453.58,114.288 456.22,116.928 
  "/>
<polyline clip-path="url(#clip1802)" style="stroke:#009af9; stroke-width:2; stroke-opacity:1; fill:none" points="
  456.22,116.928 458.86,119.569 
  "/>
<polyline clip-path="url(#clip1802)" style="stroke:#009af9; stroke-width:2; stroke-opacity:1; fill:none" points="
  458.86,119.569 461.501,122.209 
  "/>
<polyline clip-path="url(#clip1802)" style="stroke:#009af9; stroke-width:2; stroke-opacity:1; fill:none" points="
  461.501,122.209 464.141,124.849 
  "/>
<polyline clip-path="url(#clip1802)" style="stroke:#009af9; stroke-width:2; stroke-opacity:1; fill:none" points="
  464.141,124.849 466.781,127.489 
  "/>
<polyline clip-path="url(#clip1802)" style="stroke:#009af9; stroke-width:2; stroke-opacity:1; fill:none" points="
  466.781,127.489 469.422,130.13 
  "/>
<polyline clip-path="url(#clip1802)" style="stroke:#009af9; stroke-width:2; stroke-opacity:1; fill:none" points="
  469.422,130.13 472.062,132.77 
  "/>
<polyline clip-path="url(#clip1802)" style="stroke:#009af9; stroke-width:2; stroke-opacity:1; fill:none" points="
  472.062,132.77 474.702,135.41 
  "/>
<polyline clip-path="url(#clip1802)" style="stroke:#009af9; stroke-width:2; stroke-opacity:1; fill:none" points="
  474.702,135.41 477.343,138.051 
  "/>
<polyline clip-path="url(#clip1802)" style="stroke:#009af9; stroke-width:2; stroke-opacity:1; fill:none" points="
  477.343,138.051 479.983,140.691 
  "/>
<polyline clip-path="url(#clip1802)" style="stroke:#009af9; stroke-width:2; stroke-opacity:1; fill:none" points="
  479.983,140.691 482.623,143.331 
  "/>
<polyline clip-path="url(#clip1802)" style="stroke:#009af9; stroke-width:2; stroke-opacity:1; fill:none" points="
  482.623,143.331 485.264,145.971 
  "/>
<polyline clip-path="url(#clip1802)" style="stroke:#009af9; stroke-width:2; stroke-opacity:1; fill:none" points="
  485.264,145.971 487.904,148.612 
  "/>
<polyline clip-path="url(#clip1802)" style="stroke:#009af9; stroke-width:2; stroke-opacity:1; fill:none" points="
  487.904,148.612 490.544,151.252 
  "/>
<polyline clip-path="url(#clip1802)" style="stroke:#009af9; stroke-width:2; stroke-opacity:1; fill:none" points="
  490.544,151.252 493.184,153.892 
  "/>
<polyline clip-path="url(#clip1802)" style="stroke:#009af9; stroke-width:2; stroke-opacity:1; fill:none" points="
  493.184,153.892 495.825,156.533 
  "/>
<polyline clip-path="url(#clip1802)" style="stroke:#009af9; stroke-width:2; stroke-opacity:1; fill:none" points="
  495.825,156.533 498.465,159.173 
  "/>
<polyline clip-path="url(#clip1802)" style="stroke:#009af9; stroke-width:2; stroke-opacity:1; fill:none" points="
  498.465,159.173 501.105,161.813 
  "/>
<polyline clip-path="url(#clip1802)" style="stroke:#009af9; stroke-width:2; stroke-opacity:1; fill:none" points="
  501.105,161.813 503.746,164.454 
  "/>
<polyline clip-path="url(#clip1802)" style="stroke:#009af9; stroke-width:2; stroke-opacity:1; fill:none" points="
  503.746,164.454 506.386,167.094 
  "/>
<polyline clip-path="url(#clip1802)" style="stroke:#009af9; stroke-width:2; stroke-opacity:1; fill:none" points="
  506.386,167.094 509.026,169.734 
  "/>
<polyline clip-path="url(#clip1802)" style="stroke:#009af9; stroke-width:2; stroke-opacity:1; fill:none" points="
  509.026,169.734 511.667,172.375 
  "/>
<polyline clip-path="url(#clip1802)" style="stroke:#009af9; stroke-width:2; stroke-opacity:1; fill:none" points="
  511.667,172.375 514.307,175.015 
  "/>
<polyline clip-path="url(#clip1802)" style="stroke:#009af9; stroke-width:2; stroke-opacity:1; fill:none" points="
  514.307,175.015 516.947,177.655 
  "/>
<polyline clip-path="url(#clip1802)" style="stroke:#009af9; stroke-width:2; stroke-opacity:1; fill:none" points="
  516.947,177.655 519.588,180.296 
  "/>
<polyline clip-path="url(#clip1802)" style="stroke:#009af9; stroke-width:2; stroke-opacity:1; fill:none" points="
  519.588,180.296 522.228,182.936 
  "/>
<polyline clip-path="url(#clip1802)" style="stroke:#009af9; stroke-width:2; stroke-opacity:1; fill:none" points="
  522.228,182.936 524.868,185.576 
  "/>
<polyline clip-path="url(#clip1802)" style="stroke:#009af9; stroke-width:2; stroke-opacity:1; fill:none" points="
  524.868,185.576 527.509,188.217 
  "/>
<polyline clip-path="url(#clip1802)" style="stroke:#009af9; stroke-width:2; stroke-opacity:1; fill:none" points="
  527.509,188.217 530.149,190.857 
  "/>
<polyline clip-path="url(#clip1802)" style="stroke:#009af9; stroke-width:2; stroke-opacity:1; fill:none" points="
  530.149,190.857 532.789,193.497 
  "/>
<polyline clip-path="url(#clip1802)" style="stroke:#009af9; stroke-width:2; stroke-opacity:1; fill:none" points="
  532.789,193.497 535.43,196.137 
  "/>
<polyline clip-path="url(#clip1802)" style="stroke:#009af9; stroke-width:2; stroke-opacity:1; fill:none" points="
  535.43,196.137 538.07,198.778 
  "/>
<polyline clip-path="url(#clip1802)" style="stroke:#009af9; stroke-width:2; stroke-opacity:1; fill:none" points="
  538.07,198.778 540.71,201.418 
  "/>
<polyline clip-path="url(#clip1802)" style="stroke:#009af9; stroke-width:2; stroke-opacity:1; fill:none" points="
  540.71,201.418 543.351,204.058 
  "/>
<polyline clip-path="url(#clip1802)" style="stroke:#009af9; stroke-width:2; stroke-opacity:1; fill:none" points="
  543.351,204.058 545.991,206.699 
  "/>
<polyline clip-path="url(#clip1802)" style="stroke:#009af9; stroke-width:2; stroke-opacity:1; fill:none" points="
  545.991,206.699 548.631,209.339 
  "/>
<polyline clip-path="url(#clip1802)" style="stroke:#009af9; stroke-width:2; stroke-opacity:1; fill:none" points="
  548.631,209.339 551.271,211.979 
  "/>
<polyline clip-path="url(#clip1802)" style="stroke:#009af9; stroke-width:2; stroke-opacity:1; fill:none" points="
  551.271,211.979 553.912,214.62 
  "/>
<polyline clip-path="url(#clip1802)" style="stroke:#009af9; stroke-width:2; stroke-opacity:1; fill:none" points="
  553.912,214.62 556.552,217.26 
  "/>
<polyline clip-path="url(#clip1802)" style="stroke:#009af9; stroke-width:2; stroke-opacity:1; fill:none" points="
  556.552,217.26 559.192,219.9 
  "/>
<polyline clip-path="url(#clip1802)" style="stroke:#009af9; stroke-width:2; stroke-opacity:1; fill:none" points="
  559.192,219.9 561.833,222.541 
  "/>
<polyline clip-path="url(#clip1802)" style="stroke:#009af9; stroke-width:2; stroke-opacity:1; fill:none" points="
  561.833,222.541 564.473,225.181 
  "/>
<polyline clip-path="url(#clip1802)" style="stroke:#009af9; stroke-width:2; stroke-opacity:1; fill:none" points="
  564.473,225.181 567.113,227.821 
  "/>
<polyline clip-path="url(#clip1802)" style="stroke:#009af9; stroke-width:2; stroke-opacity:1; fill:none" points="
  567.113,227.821 569.754,230.462 
  "/>
<polyline clip-path="url(#clip1802)" style="stroke:#009af9; stroke-width:2; stroke-opacity:1; fill:none" points="
  569.754,230.462 572.394,233.102 
  "/>
<polyline clip-path="url(#clip1802)" style="stroke:#009af9; stroke-width:2; stroke-opacity:1; fill:none" points="
  572.394,233.102 575.034,235.742 
  "/>
<polyline clip-path="url(#clip1802)" style="stroke:#009af9; stroke-width:2; stroke-opacity:1; fill:none" points="
  575.034,235.742 577.675,238.383 
  "/>
<polyline clip-path="url(#clip1802)" style="stroke:#009af9; stroke-width:2; stroke-opacity:1; fill:none" points="
  577.675,238.383 580.315,241.023 
  "/>
</svg>
