<?xml version="1.0" encoding="utf-8"?>
<svg xmlns="http://www.w3.org/2000/svg" xmlns:xlink="http://www.w3.org/1999/xlink" width="150" height="75" viewBox="0 0 600 300">
<defs>
  <clipPath id="clip6400">
    <rect x="0" y="0" width="2000" height="2000"/>
  </clipPath>
</defs>
<defs>
  <clipPath id="clip6401">
    <rect x="0" y="0" width="600" height="300"/>
  </clipPath>
</defs>
<polygon clip-path="url(#clip6401)" points="
0,300 600,300 600,0 0,0 
  " fill="#ffffff" fill-opacity="1"/>
<defs>
  <clipPath id="clip6402">
    <rect x="120" y="0" width="421" height="300"/>
  </clipPath>
</defs>
<polygon clip-path="url(#clip6401)" points="
181.167,260.121 462.272,260.121 462.272,11.811 181.167,11.811 
  " fill="#ffffff" fill-opacity="1"/>
<defs>
  <clipPath id="clip6403">
    <rect x="181" y="11" width="282" height="249"/>
  </clipPath>
</defs>
<polyline clip-path="url(#clip6401)" style="stroke:#000000; stroke-width:1; stroke-opacity:1; fill:none" points="
  181.167,260.121 462.272,260.121 
  "/>
<polyline clip-path="url(#clip6401)" style="stroke:#000000; stroke-width:1; stroke-opacity:1; fill:none" points="
  181.167,260.121 181.167,11.811 
  "/>
<polyline clip-path="url(#clip6401)" style="stroke:#000000; stroke-width:1; stroke-opacity:1; fill:none" points="
  204.592,260.121 204.592,256.396 
  "/>
<polyline clip-path="url(#clip6401)" style="stroke:#000000; stroke-width:1; stroke-opacity:1; fill:none" points="
  263.156,260.121 263.156,256.396 
  "/>
<polyline clip-path="url(#clip6401)" style="stroke:#000000; stroke-width:1; stroke-opacity:1; fill:none" points="
  321.72,260.121 321.72,256.396 
  "/>
<polyline clip-path="url(#clip6401)" style="stroke:#000000; stroke-width:1; stroke-opacity:1; fill:none" points="
  380.283,260.121 380.283,256.396 
  "/>
<polyline clip-path="url(#clip6401)" style="stroke:#000000; stroke-width:1; stroke-opacity:1; fill:none" points="
  438.847,260.121 438.847,256.396 
  "/>
<polyline clip-path="url(#clip6401)" style="stroke:#000000; stroke-width:1; stroke-opacity:1; fill:none" points="
  181.167,253.093 185.383,253.093 
  "/>
<polyline clip-path="url(#clip6401)" style="stroke:#000000; stroke-width:1; stroke-opacity:1; fill:none" points="
  181.167,194.529 185.383,194.529 
  "/>
<polyline clip-path="url(#clip6401)" style="stroke:#000000; stroke-width:1; stroke-opacity:1; fill:none" points="
  181.167,135.966 185.383,135.966 
  "/>
<polyline clip-path="url(#clip6401)" style="stroke:#000000; stroke-width:1; stroke-opacity:1; fill:none" points="
  181.167,77.4022 185.383,77.4022 
  "/>
<polyline clip-path="url(#clip6401)" style="stroke:#000000; stroke-width:1; stroke-opacity:1; fill:none" points="
  181.167,18.8387 185.383,18.8387 
  "/>
<g clip-path="url(#clip6401)">
<text style="fill:#000000; fill-opacity:1; font-family:Arial,Helvetica Neue,Helvetica,sans-serif; font-size:12; text-anchor:middle;" transform="rotate(0, 204.592, 273.921)" x="204.592" y="273.921">-1.0</text>
</g>
<g clip-path="url(#clip6401)">
<text style="fill:#000000; fill-opacity:1; font-family:Arial,Helvetica Neue,Helvetica,sans-serif; font-size:12; text-anchor:middle;" transform="rotate(0, 263.156, 273.921)" x="263.156" y="273.921">-0.5</text>
</g>
<g clip-path="url(#clip6401)">
<text style="fill:#000000; fill-opacity:1; font-family:Arial,Helvetica Neue,Helvetica,sans-serif; font-size:12; text-anchor:middle;" transform="rotate(0, 321.72, 273.921)" x="321.72" y="273.921">0.0</text>
</g>
<g clip-path="url(#clip6401)">
<text style="fill:#000000; fill-opacity:1; font-family:Arial,Helvetica Neue,Helvetica,sans-serif; font-size:12; text-anchor:middle;" transform="rotate(0, 380.283, 273.921)" x="380.283" y="273.921">0.5</text>
</g>
<g clip-path="url(#clip6401)">
<text style="fill:#000000; fill-opacity:1; font-family:Arial,Helvetica Neue,Helvetica,sans-serif; font-size:12; text-anchor:middle;" transform="rotate(0, 438.847, 273.921)" x="438.847" y="273.921">1.0</text>
</g>
<g clip-path="url(#clip6401)">
<text style="fill:#000000; fill-opacity:1; font-family:Arial,Helvetica Neue,Helvetica,sans-serif; font-size:12; text-anchor:end;" transform="rotate(0, 175.167, 257.593)" x="175.167" y="257.593">-2.0</text>
</g>
<g clip-path="url(#clip6401)">
<text style="fill:#000000; fill-opacity:1; font-family:Arial,Helvetica Neue,Helvetica,sans-serif; font-size:12; text-anchor:end;" transform="rotate(0, 175.167, 199.029)" x="175.167" y="199.029">-1.5</text>
</g>
<g clip-path="url(#clip6401)">
<text style="fill:#000000; fill-opacity:1; font-family:Arial,Helvetica Neue,Helvetica,sans-serif; font-size:12; text-anchor:end;" transform="rotate(0, 175.167, 140.466)" x="175.167" y="140.466">-1.0</text>
</g>
<g clip-path="url(#clip6401)">
<text style="fill:#000000; fill-opacity:1; font-family:Arial,Helvetica Neue,Helvetica,sans-serif; font-size:12; text-anchor:end;" transform="rotate(0, 175.167, 81.9022)" x="175.167" y="81.9022">-0.5</text>
</g>
<g clip-path="url(#clip6401)">
<text style="fill:#000000; fill-opacity:1; font-family:Arial,Helvetica Neue,Helvetica,sans-serif; font-size:12; text-anchor:end;" transform="rotate(0, 175.167, 23.3387)" x="175.167" y="23.3387">0.0</text>
</g>
<g clip-path="url(#clip6401)">
<text style="fill:#000000; fill-opacity:1; font-family:Arial,Helvetica Neue,Helvetica,sans-serif; font-size:16; text-anchor:middle;" transform="rotate(0, 321.72, 297.6)" x="321.72" y="297.6">t</text>
</g>
<g clip-path="url(#clip6401)">
<text style="fill:#000000; fill-opacity:1; font-family:Arial,Helvetica Neue,Helvetica,sans-serif; font-size:16; text-anchor:middle;" transform="rotate(-90, 14.4, 135.966)" x="14.4" y="135.966">Smoothed Ramp</text>
</g>
<polyline clip-path="url(#clip6403)" style="stroke:#009af9; stroke-width:2; stroke-opacity:1; fill:none" points="
  204.592,18.8387 207.535,18.8387 210.478,18.8387 213.421,18.8387 216.364,18.8387 219.307,18.8387 222.25,18.8387 225.193,18.8387 228.135,18.8387 231.078,18.8387 
  234.021,18.8387 236.964,18.8387 239.907,18.8387 242.85,18.8387 245.793,18.8387 248.736,18.8387 251.679,18.8387 254.622,18.8387 257.564,18.8387 260.507,18.8387 
  263.45,18.8387 266.393,18.8387 269.336,18.8387 272.279,18.8387 275.222,18.8387 278.165,18.8387 281.108,18.8387 284.05,18.8387 286.993,18.8387 289.936,18.8387 
  292.879,18.8387 295.822,18.8387 298.765,18.8387 301.708,18.8387 304.651,18.8387 307.594,18.8387 310.537,18.8387 313.479,18.8387 316.422,18.8387 319.365,18.8387 
  322.308,18.8387 325.251,18.8387 328.194,18.8387 331.137,18.8387 334.08,18.8387 337.023,18.8387 339.965,18.8387 342.908,18.8387 345.851,18.8387 348.794,18.8387 
  351.737,18.8387 354.68,18.8387 357.623,18.8387 360.566,18.8387 363.509,18.8387 366.452,18.8387 369.394,18.8387 372.337,18.8387 375.28,18.8387 378.223,18.8387 
  381.166,18.8387 384.109,18.8387 387.052,18.8387 389.995,18.8387 392.938,18.8387 395.88,18.8387 398.823,18.8387 401.766,18.8387 404.709,18.8387 407.652,18.8387 
  410.595,18.8387 413.538,18.8387 416.481,18.8387 419.424,18.8387 422.366,18.8387 425.309,18.8387 428.252,18.8387 431.195,18.8387 434.138,18.8387 437.081,18.8387 
  440.024,18.8387 442.967,18.8387 445.91,18.8388 448.853,18.8388 451.795,18.8389 454.738,18.839 457.681,18.8391 460.624,18.8392 463.567,18.8394 466.51,18.8397 
  469.453,18.84 472.396,18.8405 475.339,18.8412 478.281,18.8421 481.224,18.8433 484.167,18.8449 487.11,18.8471 490.053,18.85 492.996,18.854 495.939,18.8594 
  498.882,18.8667 501.825,18.8766 504.768,18.8899 507.71,18.9079 510.653,18.9322 513.596,18.9649 516.539,19.0089 519.482,19.0681 522.425,19.1476 525.368,19.254 
  528.311,19.396 531.254,19.5848 534.196,19.8344 537.139,20.162 540.082,20.588 543.025,21.1359 545.968,21.8309 548.911,22.6981 551.854,23.76 554.797,25.0333 
  557.74,26.5269 560.683,28.2397 563.625,30.1613 566.568,32.2734 569.511,34.5527 572.454,36.9741 575.397,39.5124 578.34,42.1449 581.283,44.8516 584.226,47.6161 
  587.169,50.4248 590.111,53.2673 593.054,56.1353 595.997,59.0224 598.94,61.9238 601.883,64.8359 604.826,67.7559 607.769,70.6819 610.712,73.6122 613.655,76.5458 
  616.597,79.4818 619.54,82.4196 622.483,85.3588 625.426,88.2989 628.369,91.2397 631.312,94.1811 634.255,97.1228 637.198,100.065 640.141,103.007 643.084,105.95 
  646.026,108.892 648.969,111.835 651.912,114.778 654.855,117.72 657.798,120.663 660.741,123.606 663.684,126.549 666.627,129.492 669.57,132.434 672.512,135.377 
  675.455,138.32 678.398,141.263 681.341,144.206 684.284,147.149 687.227,150.092 690.17,153.035 693.113,155.978 696.056,158.92 698.999,161.863 701.941,164.806 
  704.884,167.749 707.827,170.692 710.77,173.635 713.713,176.578 716.656,179.521 719.599,182.464 722.542,185.406 725.485,188.349 728.427,191.292 731.37,194.235 
  734.313,197.178 737.256,200.121 740.199,203.064 743.142,206.007 746.085,208.95 749.028,211.893 751.971,214.835 754.914,217.778 757.856,220.721 760.799,223.664 
  763.742,226.607 766.685,229.55 769.628,232.493 772.571,235.436 775.514,238.379 778.457,241.321 781.4,244.264 784.342,247.207 787.285,250.15 790.228,253.093 
  
  "/>
</svg>
