<?xml version="1.0" encoding="utf-8"?>
<svg xmlns="http://www.w3.org/2000/svg" xmlns:xlink="http://www.w3.org/1999/xlink" width="600" height="300" viewBox="0 0 600 300">
<defs>
  <clipPath id="clip00">
    <rect x="0" y="0" width="600" height="300"/>
  </clipPath>
</defs>
<polygon clip-path="url(#clip9400)" points="
0,300 600,300 600,0 0,0 
  " fill="#ffffff" fill-opacity="1"/>
<defs>
  <clipPath id="clip01">
    <rect x="120" y="0" width="421" height="300"/>
  </clipPath>
</defs>
<polygon clip-path="url(#clip9400)" points="
168.651,260.065 466.556,260.065 466.556,11.811 168.651,11.811 
  " fill="#ffffff" fill-opacity="1"/>
<defs>
  <clipPath id="clip02">
    <rect x="168" y="11" width="299" height="249"/>
  </clipPath>
</defs>
<polyline clip-path="url(#clip9400)" style="stroke:#000000; stroke-width:1; stroke-opacity:1; fill:none" points="
  168.651,260.065 466.556,260.065 
  "/>
<polyline clip-path="url(#clip9400)" style="stroke:#000000; stroke-width:1; stroke-opacity:1; fill:none" points="
  168.651,260.065 168.651,11.811 
  "/>
<polyline clip-path="url(#clip9400)" style="stroke:#000000; stroke-width:1; stroke-opacity:1; fill:none" points="
  193.476,260.065 193.476,256.342 
  "/>
<polyline clip-path="url(#clip9400)" style="stroke:#000000; stroke-width:1; stroke-opacity:1; fill:none" points="
  255.54,260.065 255.54,256.342 
  "/>
<polyline clip-path="url(#clip9400)" style="stroke:#000000; stroke-width:1; stroke-opacity:1; fill:none" points="
  317.603,260.065 317.603,256.342 
  "/>
<polyline clip-path="url(#clip9400)" style="stroke:#000000; stroke-width:1; stroke-opacity:1; fill:none" points="
  379.667,260.065 379.667,256.342 
  "/>
<polyline clip-path="url(#clip9400)" style="stroke:#000000; stroke-width:1; stroke-opacity:1; fill:none" points="
  441.73,260.065 441.73,256.342 
  "/>
<polyline clip-path="url(#clip9400)" style="stroke:#000000; stroke-width:1; stroke-opacity:1; fill:none" points="
  168.651,260.065 173.119,260.065 
  "/>
<polyline clip-path="url(#clip9400)" style="stroke:#000000; stroke-width:1; stroke-opacity:1; fill:none" points="
  168.651,198.002 173.119,198.002 
  "/>
<polyline clip-path="url(#clip9400)" style="stroke:#000000; stroke-width:1; stroke-opacity:1; fill:none" points="
  168.651,135.938 173.119,135.938 
  "/>
<polyline clip-path="url(#clip9400)" style="stroke:#000000; stroke-width:1; stroke-opacity:1; fill:none" points="
  168.651,73.8746 173.119,73.8746 
  "/>
<polyline clip-path="url(#clip9400)" style="stroke:#000000; stroke-width:1; stroke-opacity:1; fill:none" points="
  168.651,11.811 173.119,11.811 
  "/>
<g clip-path="url(#clip9400)">
<text style="fill:#000000; fill-opacity:1; font-family:Arial,Helvetica Neue,Helvetica,sans-serif; font-size:12; text-anchor:middle;" transform="rotate(0, 193.476, 273.865)" x="193.476" y="273.865">-1.0</text>
</g>
<g clip-path="url(#clip9400)">
<text style="fill:#000000; fill-opacity:1; font-family:Arial,Helvetica Neue,Helvetica,sans-serif; font-size:12; text-anchor:middle;" transform="rotate(0, 255.54, 273.865)" x="255.54" y="273.865">-0.5</text>
</g>
<g clip-path="url(#clip9400)">
<text style="fill:#000000; fill-opacity:1; font-family:Arial,Helvetica Neue,Helvetica,sans-serif; font-size:12; text-anchor:middle;" transform="rotate(0, 317.603, 273.865)" x="317.603" y="273.865">0.0</text>
</g>
<g clip-path="url(#clip9400)">
<text style="fill:#000000; fill-opacity:1; font-family:Arial,Helvetica Neue,Helvetica,sans-serif; font-size:12; text-anchor:middle;" transform="rotate(0, 379.667, 273.865)" x="379.667" y="273.865">0.5</text>
</g>
<g clip-path="url(#clip9400)">
<text style="fill:#000000; fill-opacity:1; font-family:Arial,Helvetica Neue,Helvetica,sans-serif; font-size:12; text-anchor:middle;" transform="rotate(0, 441.73, 273.865)" x="441.73" y="273.865">1.0</text>
</g>
<g clip-path="url(#clip9400)">
<text style="fill:#000000; fill-opacity:1; font-family:Arial,Helvetica Neue,Helvetica,sans-serif; font-size:12; text-anchor:end;" transform="rotate(0, 162.651, 264.565)" x="162.651" y="264.565">-2.0</text>
</g>
<g clip-path="url(#clip9400)">
<text style="fill:#000000; fill-opacity:1; font-family:Arial,Helvetica Neue,Helvetica,sans-serif; font-size:12; text-anchor:end;" transform="rotate(0, 162.651, 202.502)" x="162.651" y="202.502">-1.5</text>
</g>
<g clip-path="url(#clip9400)">
<text style="fill:#000000; fill-opacity:1; font-family:Arial,Helvetica Neue,Helvetica,sans-serif; font-size:12; text-anchor:end;" transform="rotate(0, 162.651, 140.438)" x="162.651" y="140.438">-1.0</text>
</g>
<g clip-path="url(#clip9400)">
<text style="fill:#000000; fill-opacity:1; font-family:Arial,Helvetica Neue,Helvetica,sans-serif; font-size:12; text-anchor:end;" transform="rotate(0, 162.651, 78.3746)" x="162.651" y="78.3746">-0.5</text>
</g>
<g clip-path="url(#clip9400)">
<text style="fill:#000000; fill-opacity:1; font-family:Arial,Helvetica Neue,Helvetica,sans-serif; font-size:12; text-anchor:end;" transform="rotate(0, 162.651, 16.311)" x="162.651" y="16.311">0.0</text>
</g>
<g clip-path="url(#clip9400)">
<text style="fill:#000000; fill-opacity:1; font-family:Arial,Helvetica Neue,Helvetica,sans-serif; font-size:16; text-anchor:middle;" transform="rotate(0, 317.603, 297.6)" x="317.603" y="297.6">t</text>
</g>
<g clip-path="url(#clip9400)">
<text style="fill:#000000; fill-opacity:1; font-family:Arial,Helvetica Neue,Helvetica,sans-serif; font-size:16; text-anchor:middle;" transform="rotate(-90, 14.4, 135.938)" x="14.4" y="135.938">Smoothed Ramp</text>
</g>
<polyline clip-path="url(#clip9402)" style="stroke:#009af9; stroke-width:2; stroke-opacity:1; fill:none" points="
  193.476,11.811 196.595,11.811 
  "/>
<polyline clip-path="url(#clip9402)" style="stroke:#009af9; stroke-width:2; stroke-opacity:1; fill:none" points="
  196.595,11.811 199.714,11.811 
  "/>
<polyline clip-path="url(#clip9402)" style="stroke:#009af9; stroke-width:2; stroke-opacity:1; fill:none" points="
  199.714,11.811 202.832,11.811 
  "/>
<polyline clip-path="url(#clip9402)" style="stroke:#009af9; stroke-width:2; stroke-opacity:1; fill:none" points="
  202.832,11.811 205.951,11.811 
  "/>
<polyline clip-path="url(#clip9402)" style="stroke:#009af9; stroke-width:2; stroke-opacity:1; fill:none" points="
  205.951,11.811 209.07,11.811 
  "/>
<polyline clip-path="url(#clip9402)" style="stroke:#009af9; stroke-width:2; stroke-opacity:1; fill:none" points="
  209.07,11.811 212.189,11.811 
  "/>
<polyline clip-path="url(#clip9402)" style="stroke:#009af9; stroke-width:2; stroke-opacity:1; fill:none" points="
  212.189,11.811 215.308,11.811 
  "/>
<polyline clip-path="url(#clip9402)" style="stroke:#009af9; stroke-width:2; stroke-opacity:1; fill:none" points="
  215.308,11.811 218.426,11.811 
  "/>
<polyline clip-path="url(#clip9402)" style="stroke:#009af9; stroke-width:2; stroke-opacity:1; fill:none" points="
  218.426,11.811 221.545,11.811 
  "/>
<polyline clip-path="url(#clip9402)" style="stroke:#009af9; stroke-width:2; stroke-opacity:1; fill:none" points="
  221.545,11.811 224.664,11.811 
  "/>
<polyline clip-path="url(#clip9402)" style="stroke:#009af9; stroke-width:2; stroke-opacity:1; fill:none" points="
  224.664,11.811 227.783,11.811 
  "/>
<polyline clip-path="url(#clip9402)" style="stroke:#009af9; stroke-width:2; stroke-opacity:1; fill:none" points="
  227.783,11.811 230.901,11.811 
  "/>
<polyline clip-path="url(#clip9402)" style="stroke:#009af9; stroke-width:2; stroke-opacity:1; fill:none" points="
  230.901,11.811 234.02,11.811 
  "/>
<polyline clip-path="url(#clip9402)" style="stroke:#009af9; stroke-width:2; stroke-opacity:1; fill:none" points="
  234.02,11.811 237.139,11.811 
  "/>
<polyline clip-path="url(#clip9402)" style="stroke:#009af9; stroke-width:2; stroke-opacity:1; fill:none" points="
  237.139,11.811 240.258,11.811 
  "/>
<polyline clip-path="url(#clip9402)" style="stroke:#009af9; stroke-width:2; stroke-opacity:1; fill:none" points="
  240.258,11.811 243.376,11.811 
  "/>
<polyline clip-path="url(#clip9402)" style="stroke:#009af9; stroke-width:2; stroke-opacity:1; fill:none" points="
  243.376,11.811 246.495,11.811 
  "/>
<polyline clip-path="url(#clip9402)" style="stroke:#009af9; stroke-width:2; stroke-opacity:1; fill:none" points="
  246.495,11.811 249.614,11.811 
  "/>
<polyline clip-path="url(#clip9402)" style="stroke:#009af9; stroke-width:2; stroke-opacity:1; fill:none" points="
  249.614,11.811 252.733,11.811 
  "/>
<polyline clip-path="url(#clip9402)" style="stroke:#009af9; stroke-width:2; stroke-opacity:1; fill:none" points="
  252.733,11.811 255.852,11.811 
  "/>
<polyline clip-path="url(#clip9402)" style="stroke:#009af9; stroke-width:2; stroke-opacity:1; fill:none" points="
  255.852,11.811 258.97,11.811 
  "/>
<polyline clip-path="url(#clip9402)" style="stroke:#009af9; stroke-width:2; stroke-opacity:1; fill:none" points="
  258.97,11.811 262.089,11.811 
  "/>
<polyline clip-path="url(#clip9402)" style="stroke:#009af9; stroke-width:2; stroke-opacity:1; fill:none" points="
  262.089,11.811 265.208,11.811 
  "/>
<polyline clip-path="url(#clip9402)" style="stroke:#009af9; stroke-width:2; stroke-opacity:1; fill:none" points="
  265.208,11.811 268.327,11.811 
  "/>
<polyline clip-path="url(#clip9402)" style="stroke:#009af9; stroke-width:2; stroke-opacity:1; fill:none" points="
  268.327,11.811 271.445,11.811 
  "/>
<polyline clip-path="url(#clip9402)" style="stroke:#009af9; stroke-width:2; stroke-opacity:1; fill:none" points="
  271.445,11.811 274.564,11.811 
  "/>
<polyline clip-path="url(#clip9402)" style="stroke:#009af9; stroke-width:2; stroke-opacity:1; fill:none" points="
  274.564,11.811 277.683,11.811 
  "/>
<polyline clip-path="url(#clip9402)" style="stroke:#009af9; stroke-width:2; stroke-opacity:1; fill:none" points="
  277.683,11.811 280.802,11.811 
  "/>
<polyline clip-path="url(#clip9402)" style="stroke:#009af9; stroke-width:2; stroke-opacity:1; fill:none" points="
  280.802,11.811 283.921,11.811 
  "/>
<polyline clip-path="url(#clip9402)" style="stroke:#009af9; stroke-width:2; stroke-opacity:1; fill:none" points="
  283.921,11.811 287.039,11.811 
  "/>
<polyline clip-path="url(#clip9402)" style="stroke:#009af9; stroke-width:2; stroke-opacity:1; fill:none" points="
  287.039,11.811 290.158,11.811 
  "/>
<polyline clip-path="url(#clip9402)" style="stroke:#009af9; stroke-width:2; stroke-opacity:1; fill:none" points="
  290.158,11.811 293.277,11.811 
  "/>
<polyline clip-path="url(#clip9402)" style="stroke:#009af9; stroke-width:2; stroke-opacity:1; fill:none" points="
  293.277,11.811 296.396,11.811 
  "/>
<polyline clip-path="url(#clip9402)" style="stroke:#009af9; stroke-width:2; stroke-opacity:1; fill:none" points="
  296.396,11.811 299.514,11.811 
  "/>
<polyline clip-path="url(#clip9402)" style="stroke:#009af9; stroke-width:2; stroke-opacity:1; fill:none" points="
  299.514,11.811 302.633,11.811 
  "/>
<polyline clip-path="url(#clip9402)" style="stroke:#009af9; stroke-width:2; stroke-opacity:1; fill:none" points="
  302.633,11.811 305.752,11.811 
  "/>
<polyline clip-path="url(#clip9402)" style="stroke:#009af9; stroke-width:2; stroke-opacity:1; fill:none" points="
  305.752,11.811 308.871,11.811 
  "/>
<polyline clip-path="url(#clip9402)" style="stroke:#009af9; stroke-width:2; stroke-opacity:1; fill:none" points="
  308.871,11.811 311.989,11.811 
  "/>
<polyline clip-path="url(#clip9402)" style="stroke:#009af9; stroke-width:2; stroke-opacity:1; fill:none" points="
  311.989,11.811 315.108,11.811 
  "/>
<polyline clip-path="url(#clip9402)" style="stroke:#009af9; stroke-width:2; stroke-opacity:1; fill:none" points="
  315.108,11.811 318.227,11.811 
  "/>
<polyline clip-path="url(#clip9402)" style="stroke:#009af9; stroke-width:2; stroke-opacity:1; fill:none" points="
  318.227,11.811 321.346,11.811 
  "/>
<polyline clip-path="url(#clip9402)" style="stroke:#009af9; stroke-width:2; stroke-opacity:1; fill:none" points="
  321.346,11.811 324.465,11.811 
  "/>
<polyline clip-path="url(#clip9402)" style="stroke:#009af9; stroke-width:2; stroke-opacity:1; fill:none" points="
  324.465,11.811 327.583,11.811 
  "/>
<polyline clip-path="url(#clip9402)" style="stroke:#009af9; stroke-width:2; stroke-opacity:1; fill:none" points="
  327.583,11.811 330.702,11.811 
  "/>
<polyline clip-path="url(#clip9402)" style="stroke:#009af9; stroke-width:2; stroke-opacity:1; fill:none" points="
  330.702,11.811 333.821,11.811 
  "/>
<polyline clip-path="url(#clip9402)" style="stroke:#009af9; stroke-width:2; stroke-opacity:1; fill:none" points="
  333.821,11.811 336.94,11.811 
  "/>
<polyline clip-path="url(#clip9402)" style="stroke:#009af9; stroke-width:2; stroke-opacity:1; fill:none" points="
  336.94,11.811 340.058,11.811 
  "/>
<polyline clip-path="url(#clip9402)" style="stroke:#009af9; stroke-width:2; stroke-opacity:1; fill:none" points="
  340.058,11.811 343.177,11.811 
  "/>
<polyline clip-path="url(#clip9402)" style="stroke:#009af9; stroke-width:2; stroke-opacity:1; fill:none" points="
  343.177,11.811 346.296,11.811 
  "/>
<polyline clip-path="url(#clip9402)" style="stroke:#009af9; stroke-width:2; stroke-opacity:1; fill:none" points="
  346.296,11.811 349.415,11.811 
  "/>
<polyline clip-path="url(#clip9402)" style="stroke:#009af9; stroke-width:2; stroke-opacity:1; fill:none" points="
  349.415,11.811 352.534,11.811 
  "/>
<polyline clip-path="url(#clip9402)" style="stroke:#009af9; stroke-width:2; stroke-opacity:1; fill:none" points="
  352.534,11.811 355.652,11.811 
  "/>
<polyline clip-path="url(#clip9402)" style="stroke:#009af9; stroke-width:2; stroke-opacity:1; fill:none" points="
  355.652,11.811 358.771,11.811 
  "/>
<polyline clip-path="url(#clip9402)" style="stroke:#009af9; stroke-width:2; stroke-opacity:1; fill:none" points="
  358.771,11.811 361.89,11.811 
  "/>
<polyline clip-path="url(#clip9402)" style="stroke:#009af9; stroke-width:2; stroke-opacity:1; fill:none" points="
  361.89,11.811 365.009,11.811 
  "/>
<polyline clip-path="url(#clip9402)" style="stroke:#009af9; stroke-width:2; stroke-opacity:1; fill:none" points="
  365.009,11.811 368.127,11.811 
  "/>
<polyline clip-path="url(#clip9402)" style="stroke:#009af9; stroke-width:2; stroke-opacity:1; fill:none" points="
  368.127,11.811 371.246,11.811 
  "/>
<polyline clip-path="url(#clip9402)" style="stroke:#009af9; stroke-width:2; stroke-opacity:1; fill:none" points="
  371.246,11.811 374.365,11.811 
  "/>
<polyline clip-path="url(#clip9402)" style="stroke:#009af9; stroke-width:2; stroke-opacity:1; fill:none" points="
  374.365,11.811 377.484,11.811 
  "/>
<polyline clip-path="url(#clip9402)" style="stroke:#009af9; stroke-width:2; stroke-opacity:1; fill:none" points="
  377.484,11.811 380.603,11.811 
  "/>
<polyline clip-path="url(#clip9402)" style="stroke:#009af9; stroke-width:2; stroke-opacity:1; fill:none" points="
  380.603,11.811 383.721,11.811 
  "/>
<polyline clip-path="url(#clip9402)" style="stroke:#009af9; stroke-width:2; stroke-opacity:1; fill:none" points="
  383.721,11.811 386.84,11.811 
  "/>
<polyline clip-path="url(#clip9402)" style="stroke:#009af9; stroke-width:2; stroke-opacity:1; fill:none" points="
  386.84,11.811 389.959,11.811 
  "/>
<polyline clip-path="url(#clip9402)" style="stroke:#009af9; stroke-width:2; stroke-opacity:1; fill:none" points="
  389.959,11.811 393.078,11.811 
  "/>
<polyline clip-path="url(#clip9402)" style="stroke:#009af9; stroke-width:2; stroke-opacity:1; fill:none" points="
  393.078,11.811 396.196,11.811 
  "/>
<polyline clip-path="url(#clip9402)" style="stroke:#009af9; stroke-width:2; stroke-opacity:1; fill:none" points="
  396.196,11.811 399.315,11.811 
  "/>
<polyline clip-path="url(#clip9402)" style="stroke:#009af9; stroke-width:2; stroke-opacity:1; fill:none" points="
  399.315,11.811 402.434,11.811 
  "/>
<polyline clip-path="url(#clip9402)" style="stroke:#009af9; stroke-width:2; stroke-opacity:1; fill:none" points="
  402.434,11.811 405.553,11.811 
  "/>
<polyline clip-path="url(#clip9402)" style="stroke:#009af9; stroke-width:2; stroke-opacity:1; fill:none" points="
  405.553,11.811 408.671,11.811 
  "/>
<polyline clip-path="url(#clip9402)" style="stroke:#009af9; stroke-width:2; stroke-opacity:1; fill:none" points="
  408.671,11.811 411.79,11.811 
  "/>
<polyline clip-path="url(#clip9402)" style="stroke:#009af9; stroke-width:2; stroke-opacity:1; fill:none" points="
  411.79,11.811 414.909,11.811 
  "/>
<polyline clip-path="url(#clip9402)" style="stroke:#009af9; stroke-width:2; stroke-opacity:1; fill:none" points="
  414.909,11.811 418.028,11.811 
  "/>
<polyline clip-path="url(#clip9402)" style="stroke:#009af9; stroke-width:2; stroke-opacity:1; fill:none" points="
  418.028,11.811 421.147,11.811 
  "/>
<polyline clip-path="url(#clip9402)" style="stroke:#009af9; stroke-width:2; stroke-opacity:1; fill:none" points="
  421.147,11.811 424.265,11.811 
  "/>
<polyline clip-path="url(#clip9402)" style="stroke:#009af9; stroke-width:2; stroke-opacity:1; fill:none" points="
  424.265,11.811 427.384,11.811 
  "/>
<polyline clip-path="url(#clip9402)" style="stroke:#009af9; stroke-width:2; stroke-opacity:1; fill:none" points="
  427.384,11.811 430.503,11.811 
  "/>
<polyline clip-path="url(#clip9402)" style="stroke:#009af9; stroke-width:2; stroke-opacity:1; fill:none" points="
  430.503,11.811 433.622,11.8111 
  "/>
<polyline clip-path="url(#clip9402)" style="stroke:#009af9; stroke-width:2; stroke-opacity:1; fill:none" points="
  433.622,11.8111 436.74,11.8111 
  "/>
<polyline clip-path="url(#clip9402)" style="stroke:#009af9; stroke-width:2; stroke-opacity:1; fill:none" points="
  436.74,11.8111 439.859,11.8111 
  "/>
<polyline clip-path="url(#clip9402)" style="stroke:#009af9; stroke-width:2; stroke-opacity:1; fill:none" points="
  439.859,11.8111 442.978,11.8111 
  "/>
<polyline clip-path="url(#clip9402)" style="stroke:#009af9; stroke-width:2; stroke-opacity:1; fill:none" points="
  442.978,11.8111 446.097,11.8111 
  "/>
<polyline clip-path="url(#clip9402)" style="stroke:#009af9; stroke-width:2; stroke-opacity:1; fill:none" points="
  446.097,11.8111 449.216,11.8112 
  "/>
<polyline clip-path="url(#clip9402)" style="stroke:#009af9; stroke-width:2; stroke-opacity:1; fill:none" points="
  449.216,11.8112 452.334,11.8112 
  "/>
<polyline clip-path="url(#clip9402)" style="stroke:#009af9; stroke-width:2; stroke-opacity:1; fill:none" points="
  452.334,11.8112 455.453,11.8113 
  "/>
<polyline clip-path="url(#clip9402)" style="stroke:#009af9; stroke-width:2; stroke-opacity:1; fill:none" points="
  455.453,11.8113 458.572,11.8113 
  "/>
<polyline clip-path="url(#clip9402)" style="stroke:#009af9; stroke-width:2; stroke-opacity:1; fill:none" points="
  458.572,11.8113 461.691,11.8115 
  "/>
<polyline clip-path="url(#clip9402)" style="stroke:#009af9; stroke-width:2; stroke-opacity:1; fill:none" points="
  461.691,11.8115 464.809,11.8116 
  "/>
<polyline clip-path="url(#clip9402)" style="stroke:#009af9; stroke-width:2; stroke-opacity:1; fill:none" points="
  464.809,11.8116 467.928,11.8118 
  "/>
<polyline clip-path="url(#clip9402)" style="stroke:#009af9; stroke-width:2; stroke-opacity:1; fill:none" points="
  467.928,11.8118 471.047,11.8121 
  "/>
<polyline clip-path="url(#clip9402)" style="stroke:#009af9; stroke-width:2; stroke-opacity:1; fill:none" points="
  471.047,11.8121 474.166,11.8125 
  "/>
<polyline clip-path="url(#clip9402)" style="stroke:#009af9; stroke-width:2; stroke-opacity:1; fill:none" points="
  474.166,11.8125 477.285,11.813 
  "/>
<polyline clip-path="url(#clip9402)" style="stroke:#009af9; stroke-width:2; stroke-opacity:1; fill:none" points="
  477.285,11.813 480.403,11.8137 
  "/>
<polyline clip-path="url(#clip9402)" style="stroke:#009af9; stroke-width:2; stroke-opacity:1; fill:none" points="
  480.403,11.8137 483.522,11.8146 
  "/>
<polyline clip-path="url(#clip9402)" style="stroke:#009af9; stroke-width:2; stroke-opacity:1; fill:none" points="
  483.522,11.8146 486.641,11.8159 
  "/>
<polyline clip-path="url(#clip9402)" style="stroke:#009af9; stroke-width:2; stroke-opacity:1; fill:none" points="
  486.641,11.8159 489.76,11.8176 
  "/>
<polyline clip-path="url(#clip9402)" style="stroke:#009af9; stroke-width:2; stroke-opacity:1; fill:none" points="
  489.76,11.8176 492.878,11.8199 
  "/>
<polyline clip-path="url(#clip9402)" style="stroke:#009af9; stroke-width:2; stroke-opacity:1; fill:none" points="
  492.878,11.8199 495.997,11.8231 
  "/>
<polyline clip-path="url(#clip9402)" style="stroke:#009af9; stroke-width:2; stroke-opacity:1; fill:none" points="
  495.997,11.8231 499.116,11.8273 
  "/>
<polyline clip-path="url(#clip9402)" style="stroke:#009af9; stroke-width:2; stroke-opacity:1; fill:none" points="
  499.116,11.8273 502.235,11.8331 
  "/>
<polyline clip-path="url(#clip9402)" style="stroke:#009af9; stroke-width:2; stroke-opacity:1; fill:none" points="
  502.235,11.8331 505.353,11.8408 
  "/>
<polyline clip-path="url(#clip9402)" style="stroke:#009af9; stroke-width:2; stroke-opacity:1; fill:none" points="
  505.353,11.8408 508.472,11.8512 
  "/>
<polyline clip-path="url(#clip9402)" style="stroke:#009af9; stroke-width:2; stroke-opacity:1; fill:none" points="
  508.472,11.8512 511.591,11.8654 
  "/>
<polyline clip-path="url(#clip9402)" style="stroke:#009af9; stroke-width:2; stroke-opacity:1; fill:none" points="
  511.591,11.8654 514.71,11.8844 
  "/>
<polyline clip-path="url(#clip9402)" style="stroke:#009af9; stroke-width:2; stroke-opacity:1; fill:none" points="
  514.71,11.8844 517.829,11.9101 
  "/>
<polyline clip-path="url(#clip9402)" style="stroke:#009af9; stroke-width:2; stroke-opacity:1; fill:none" points="
  517.829,11.9101 520.947,11.9448 
  "/>
<polyline clip-path="url(#clip9402)" style="stroke:#009af9; stroke-width:2; stroke-opacity:1; fill:none" points="
  520.947,11.9448 524.066,11.9914 
  "/>
<polyline clip-path="url(#clip9402)" style="stroke:#009af9; stroke-width:2; stroke-opacity:1; fill:none" points="
  524.066,11.9914 527.185,12.0542 
  "/>
<polyline clip-path="url(#clip9402)" style="stroke:#009af9; stroke-width:2; stroke-opacity:1; fill:none" points="
  527.185,12.0542 530.304,12.1384 
  "/>
<polyline clip-path="url(#clip9402)" style="stroke:#009af9; stroke-width:2; stroke-opacity:1; fill:none" points="
  530.304,12.1384 533.422,12.2512 
  "/>
<polyline clip-path="url(#clip9402)" style="stroke:#009af9; stroke-width:2; stroke-opacity:1; fill:none" points="
  533.422,12.2512 536.541,12.4017 
  "/>
<polyline clip-path="url(#clip9402)" style="stroke:#009af9; stroke-width:2; stroke-opacity:1; fill:none" points="
  536.541,12.4017 539.66,12.6018 
  "/>
<polyline clip-path="url(#clip9402)" style="stroke:#009af9; stroke-width:2; stroke-opacity:1; fill:none" points="
  539.66,12.6018 542.779,12.8663 
  "/>
<polyline clip-path="url(#clip9402)" style="stroke:#009af9; stroke-width:2; stroke-opacity:1; fill:none" points="
  542.779,12.8663 545.898,13.2134 
  "/>
<polyline clip-path="url(#clip9402)" style="stroke:#009af9; stroke-width:2; stroke-opacity:1; fill:none" points="
  545.898,13.2134 549.016,13.665 
  "/>
<polyline clip-path="url(#clip9402)" style="stroke:#009af9; stroke-width:2; stroke-opacity:1; fill:none" points="
  549.016,13.665 552.135,14.2456 
  "/>
<polyline clip-path="url(#clip9402)" style="stroke:#009af9; stroke-width:2; stroke-opacity:1; fill:none" points="
  552.135,14.2456 555.254,14.9821 
  "/>
<polyline clip-path="url(#clip9402)" style="stroke:#009af9; stroke-width:2; stroke-opacity:1; fill:none" points="
  555.254,14.9821 558.373,15.9011 
  "/>
<polyline clip-path="url(#clip9402)" style="stroke:#009af9; stroke-width:2; stroke-opacity:1; fill:none" points="
  558.373,15.9011 561.491,17.0264 
  "/>
<polyline clip-path="url(#clip9402)" style="stroke:#009af9; stroke-width:2; stroke-opacity:1; fill:none" points="
  561.491,17.0264 564.61,18.3759 
  "/>
<polyline clip-path="url(#clip9402)" style="stroke:#009af9; stroke-width:2; stroke-opacity:1; fill:none" points="
  564.61,18.3759 567.729,19.9588 
  "/>
<polyline clip-path="url(#clip9402)" style="stroke:#009af9; stroke-width:2; stroke-opacity:1; fill:none" points="
  567.729,19.9588 570.848,21.7739 
  "/>
<polyline clip-path="url(#clip9402)" style="stroke:#009af9; stroke-width:2; stroke-opacity:1; fill:none" points="
  570.848,21.7739 573.966,23.8103 
  "/>
<polyline clip-path="url(#clip9402)" style="stroke:#009af9; stroke-width:2; stroke-opacity:1; fill:none" points="
  573.966,23.8103 577.085,26.0486 
  "/>
<polyline clip-path="url(#clip9402)" style="stroke:#009af9; stroke-width:2; stroke-opacity:1; fill:none" points="
  577.085,26.0486 580.204,28.4642 
  "/>
<polyline clip-path="url(#clip9402)" style="stroke:#009af9; stroke-width:2; stroke-opacity:1; fill:none" points="
  580.204,28.4642 583.323,31.0303 
  "/>
<polyline clip-path="url(#clip9402)" style="stroke:#009af9; stroke-width:2; stroke-opacity:1; fill:none" points="
  583.323,31.0303 586.442,33.7203 
  "/>
<polyline clip-path="url(#clip9402)" style="stroke:#009af9; stroke-width:2; stroke-opacity:1; fill:none" points="
  586.442,33.7203 589.56,36.5101 
  "/>
<polyline clip-path="url(#clip9402)" style="stroke:#009af9; stroke-width:2; stroke-opacity:1; fill:none" points="
  589.56,36.5101 592.679,39.3786 
  "/>
<polyline clip-path="url(#clip9402)" style="stroke:#009af9; stroke-width:2; stroke-opacity:1; fill:none" points="
  592.679,39.3786 595.798,42.3083 
  "/>
<polyline clip-path="url(#clip9402)" style="stroke:#009af9; stroke-width:2; stroke-opacity:1; fill:none" points="
  595.798,42.3083 598.917,45.2849 
  "/>
<polyline clip-path="url(#clip9402)" style="stroke:#009af9; stroke-width:2; stroke-opacity:1; fill:none" points="
  598.917,45.2849 602.035,48.2973 
  "/>
<polyline clip-path="url(#clip9402)" style="stroke:#009af9; stroke-width:2; stroke-opacity:1; fill:none" points="
  602.035,48.2973 605.154,51.3367 
  "/>
<polyline clip-path="url(#clip9402)" style="stroke:#009af9; stroke-width:2; stroke-opacity:1; fill:none" points="
  605.154,51.3367 608.273,54.3963 
  "/>
<polyline clip-path="url(#clip9402)" style="stroke:#009af9; stroke-width:2; stroke-opacity:1; fill:none" points="
  608.273,54.3963 611.392,57.4711 
  "/>
<polyline clip-path="url(#clip9402)" style="stroke:#009af9; stroke-width:2; stroke-opacity:1; fill:none" points="
  611.392,57.4711 614.511,60.5572 
  "/>
<polyline clip-path="url(#clip9402)" style="stroke:#009af9; stroke-width:2; stroke-opacity:1; fill:none" points="
  614.511,60.5572 617.629,63.6518 
  "/>
<polyline clip-path="url(#clip9402)" style="stroke:#009af9; stroke-width:2; stroke-opacity:1; fill:none" points="
  617.629,63.6518 620.748,66.7526 
  "/>
<polyline clip-path="url(#clip9402)" style="stroke:#009af9; stroke-width:2; stroke-opacity:1; fill:none" points="
  620.748,66.7526 623.867,69.8581 
  "/>
<polyline clip-path="url(#clip9402)" style="stroke:#009af9; stroke-width:2; stroke-opacity:1; fill:none" points="
  623.867,69.8581 626.986,72.967 
  "/>
<polyline clip-path="url(#clip9402)" style="stroke:#009af9; stroke-width:2; stroke-opacity:1; fill:none" points="
  626.986,72.967 630.104,76.0785 
  "/>
<polyline clip-path="url(#clip9402)" style="stroke:#009af9; stroke-width:2; stroke-opacity:1; fill:none" points="
  630.104,76.0785 633.223,79.1919 
  "/>
<polyline clip-path="url(#clip9402)" style="stroke:#009af9; stroke-width:2; stroke-opacity:1; fill:none" points="
  633.223,79.1919 636.342,82.3067 
  "/>
<polyline clip-path="url(#clip9402)" style="stroke:#009af9; stroke-width:2; stroke-opacity:1; fill:none" points="
  636.342,82.3067 639.461,85.4225 
  "/>
<polyline clip-path="url(#clip9402)" style="stroke:#009af9; stroke-width:2; stroke-opacity:1; fill:none" points="
  639.461,85.4225 642.58,88.5391 
  "/>
<polyline clip-path="url(#clip9402)" style="stroke:#009af9; stroke-width:2; stroke-opacity:1; fill:none" points="
  642.58,88.5391 645.698,91.6562 
  "/>
<polyline clip-path="url(#clip9402)" style="stroke:#009af9; stroke-width:2; stroke-opacity:1; fill:none" points="
  645.698,91.6562 648.817,94.7738 
  "/>
<polyline clip-path="url(#clip9402)" style="stroke:#009af9; stroke-width:2; stroke-opacity:1; fill:none" points="
  648.817,94.7738 651.936,97.8917 
  "/>
<polyline clip-path="url(#clip9402)" style="stroke:#009af9; stroke-width:2; stroke-opacity:1; fill:none" points="
  651.936,97.8917 655.055,101.01 
  "/>
<polyline clip-path="url(#clip9402)" style="stroke:#009af9; stroke-width:2; stroke-opacity:1; fill:none" points="
  655.055,101.01 658.173,104.128 
  "/>
<polyline clip-path="url(#clip9402)" style="stroke:#009af9; stroke-width:2; stroke-opacity:1; fill:none" points="
  658.173,104.128 661.292,107.247 
  "/>
<polyline clip-path="url(#clip9402)" style="stroke:#009af9; stroke-width:2; stroke-opacity:1; fill:none" points="
  661.292,107.247 664.411,110.365 
  "/>
<polyline clip-path="url(#clip9402)" style="stroke:#009af9; stroke-width:2; stroke-opacity:1; fill:none" points="
  664.411,110.365 667.53,113.484 
  "/>
<polyline clip-path="url(#clip9402)" style="stroke:#009af9; stroke-width:2; stroke-opacity:1; fill:none" points="
  667.53,113.484 670.648,116.602 
  "/>
<polyline clip-path="url(#clip9402)" style="stroke:#009af9; stroke-width:2; stroke-opacity:1; fill:none" points="
  670.648,116.602 673.767,119.721 
  "/>
<polyline clip-path="url(#clip9402)" style="stroke:#009af9; stroke-width:2; stroke-opacity:1; fill:none" points="
  673.767,119.721 676.886,122.84 
  "/>
<polyline clip-path="url(#clip9402)" style="stroke:#009af9; stroke-width:2; stroke-opacity:1; fill:none" points="
  676.886,122.84 680.005,125.958 
  "/>
<polyline clip-path="url(#clip9402)" style="stroke:#009af9; stroke-width:2; stroke-opacity:1; fill:none" points="
  680.005,125.958 683.124,129.077 
  "/>
<polyline clip-path="url(#clip9402)" style="stroke:#009af9; stroke-width:2; stroke-opacity:1; fill:none" points="
  683.124,129.077 686.242,132.196 
  "/>
<polyline clip-path="url(#clip9402)" style="stroke:#009af9; stroke-width:2; stroke-opacity:1; fill:none" points="
  686.242,132.196 689.361,135.315 
  "/>
<polyline clip-path="url(#clip9402)" style="stroke:#009af9; stroke-width:2; stroke-opacity:1; fill:none" points="
  689.361,135.315 692.48,138.433 
  "/>
<polyline clip-path="url(#clip9402)" style="stroke:#009af9; stroke-width:2; stroke-opacity:1; fill:none" points="
  692.48,138.433 695.599,141.552 
  "/>
<polyline clip-path="url(#clip9402)" style="stroke:#009af9; stroke-width:2; stroke-opacity:1; fill:none" points="
  695.599,141.552 698.717,144.671 
  "/>
<polyline clip-path="url(#clip9402)" style="stroke:#009af9; stroke-width:2; stroke-opacity:1; fill:none" points="
  698.717,144.671 701.836,147.79 
  "/>
<polyline clip-path="url(#clip9402)" style="stroke:#009af9; stroke-width:2; stroke-opacity:1; fill:none" points="
  701.836,147.79 704.955,150.908 
  "/>
<polyline clip-path="url(#clip9402)" style="stroke:#009af9; stroke-width:2; stroke-opacity:1; fill:none" points="
  704.955,150.908 708.074,154.027 
  "/>
<polyline clip-path="url(#clip9402)" style="stroke:#009af9; stroke-width:2; stroke-opacity:1; fill:none" points="
  708.074,154.027 711.193,157.146 
  "/>
<polyline clip-path="url(#clip9402)" style="stroke:#009af9; stroke-width:2; stroke-opacity:1; fill:none" points="
  711.193,157.146 714.311,160.265 
  "/>
<polyline clip-path="url(#clip9402)" style="stroke:#009af9; stroke-width:2; stroke-opacity:1; fill:none" points="
  714.311,160.265 717.43,163.383 
  "/>
<polyline clip-path="url(#clip9402)" style="stroke:#009af9; stroke-width:2; stroke-opacity:1; fill:none" points="
  717.43,163.383 720.549,166.502 
  "/>
<polyline clip-path="url(#clip9402)" style="stroke:#009af9; stroke-width:2; stroke-opacity:1; fill:none" points="
  720.549,166.502 723.668,169.621 
  "/>
<polyline clip-path="url(#clip9402)" style="stroke:#009af9; stroke-width:2; stroke-opacity:1; fill:none" points="
  723.668,169.621 726.786,172.74 
  "/>
<polyline clip-path="url(#clip9402)" style="stroke:#009af9; stroke-width:2; stroke-opacity:1; fill:none" points="
  726.786,172.74 729.905,175.859 
  "/>
<polyline clip-path="url(#clip9402)" style="stroke:#009af9; stroke-width:2; stroke-opacity:1; fill:none" points="
  729.905,175.859 733.024,178.977 
  "/>
<polyline clip-path="url(#clip9402)" style="stroke:#009af9; stroke-width:2; stroke-opacity:1; fill:none" points="
  733.024,178.977 736.143,182.096 
  "/>
<polyline clip-path="url(#clip9402)" style="stroke:#009af9; stroke-width:2; stroke-opacity:1; fill:none" points="
  736.143,182.096 739.262,185.215 
  "/>
<polyline clip-path="url(#clip9402)" style="stroke:#009af9; stroke-width:2; stroke-opacity:1; fill:none" points="
  739.262,185.215 742.38,188.334 
  "/>
<polyline clip-path="url(#clip9402)" style="stroke:#009af9; stroke-width:2; stroke-opacity:1; fill:none" points="
  742.38,188.334 745.499,191.452 
  "/>
<polyline clip-path="url(#clip9402)" style="stroke:#009af9; stroke-width:2; stroke-opacity:1; fill:none" points="
  745.499,191.452 748.618,194.571 
  "/>
<polyline clip-path="url(#clip9402)" style="stroke:#009af9; stroke-width:2; stroke-opacity:1; fill:none" points="
  748.618,194.571 751.737,197.69 
  "/>
<polyline clip-path="url(#clip9402)" style="stroke:#009af9; stroke-width:2; stroke-opacity:1; fill:none" points="
  751.737,197.69 754.855,200.809 
  "/>
<polyline clip-path="url(#clip9402)" style="stroke:#009af9; stroke-width:2; stroke-opacity:1; fill:none" points="
  754.855,200.809 757.974,203.927 
  "/>
<polyline clip-path="url(#clip9402)" style="stroke:#009af9; stroke-width:2; stroke-opacity:1; fill:none" points="
  757.974,203.927 761.093,207.046 
  "/>
<polyline clip-path="url(#clip9402)" style="stroke:#009af9; stroke-width:2; stroke-opacity:1; fill:none" points="
  761.093,207.046 764.212,210.165 
  "/>
<polyline clip-path="url(#clip9402)" style="stroke:#009af9; stroke-width:2; stroke-opacity:1; fill:none" points="
  764.212,210.165 767.33,213.284 
  "/>
<polyline clip-path="url(#clip9402)" style="stroke:#009af9; stroke-width:2; stroke-opacity:1; fill:none" points="
  767.33,213.284 770.449,216.403 
  "/>
<polyline clip-path="url(#clip9402)" style="stroke:#009af9; stroke-width:2; stroke-opacity:1; fill:none" points="
  770.449,216.403 773.568,219.521 
  "/>
<polyline clip-path="url(#clip9402)" style="stroke:#009af9; stroke-width:2; stroke-opacity:1; fill:none" points="
  773.568,219.521 776.687,222.64 
  "/>
<polyline clip-path="url(#clip9402)" style="stroke:#009af9; stroke-width:2; stroke-opacity:1; fill:none" points="
  776.687,222.64 779.806,225.759 
  "/>
<polyline clip-path="url(#clip9402)" style="stroke:#009af9; stroke-width:2; stroke-opacity:1; fill:none" points="
  779.806,225.759 782.924,228.878 
  "/>
<polyline clip-path="url(#clip9402)" style="stroke:#009af9; stroke-width:2; stroke-opacity:1; fill:none" points="
  782.924,228.878 786.043,231.996 
  "/>
<polyline clip-path="url(#clip9402)" style="stroke:#009af9; stroke-width:2; stroke-opacity:1; fill:none" points="
  786.043,231.996 789.162,235.115 
  "/>
<polyline clip-path="url(#clip9402)" style="stroke:#009af9; stroke-width:2; stroke-opacity:1; fill:none" points="
  789.162,235.115 792.281,238.234 
  "/>
<polyline clip-path="url(#clip9402)" style="stroke:#009af9; stroke-width:2; stroke-opacity:1; fill:none" points="
  792.281,238.234 795.399,241.353 
  "/>
<polyline clip-path="url(#clip9402)" style="stroke:#009af9; stroke-width:2; stroke-opacity:1; fill:none" points="
  795.399,241.353 798.518,244.472 
  "/>
<polyline clip-path="url(#clip9402)" style="stroke:#009af9; stroke-width:2; stroke-opacity:1; fill:none" points="
  798.518,244.472 801.637,247.59 
  "/>
<polyline clip-path="url(#clip9402)" style="stroke:#009af9; stroke-width:2; stroke-opacity:1; fill:none" points="
  801.637,247.59 804.756,250.709 
  "/>
<polyline clip-path="url(#clip9402)" style="stroke:#009af9; stroke-width:2; stroke-opacity:1; fill:none" points="
  804.756,250.709 807.875,253.828 
  "/>
<polyline clip-path="url(#clip9402)" style="stroke:#009af9; stroke-width:2; stroke-opacity:1; fill:none" points="
  807.875,253.828 810.993,256.947 
  "/>
<polyline clip-path="url(#clip9402)" style="stroke:#009af9; stroke-width:2; stroke-opacity:1; fill:none" points="
  810.993,256.947 814.112,260.065 
  "/>
</svg>
